G04 #@! TF.FileFunction,Profile,NP*
%FSLAX46Y46*%
G04 Gerber Fmt 4.6, Leading zero omitted, Abs format (unit mm)*
G04 Created by KiCad (PCBNEW 4.0.7) date 06/20/18 00:35:28*
%MOMM*%
%LPD*%
G01*
G04 APERTURE LIST*
%ADD10C,0.100000*%
%ADD11C,0.150000*%
G04 APERTURE END LIST*
D10*
D11*
X67056000Y-109677200D02*
G75*
G03X86106000Y-128727200I19050000J0D01*
G01*
X67056000Y-109677200D02*
X67056000Y-51587400D01*
X144526000Y-49225200D02*
X144526000Y-44450000D01*
X153924000Y-130429000D02*
X172974000Y-134670800D01*
X191643000Y-141452600D02*
X172974000Y-134670800D01*
X201676000Y-113868200D02*
X191643000Y-141452600D01*
X134035800Y-128727200D02*
X153924000Y-130429000D01*
X182626000Y-61112400D02*
X201676000Y-61112400D01*
X182626000Y-61112400D02*
X182626000Y-51587400D01*
X163576000Y-51587400D02*
X182626000Y-51587400D01*
X163576000Y-51587400D02*
X163576000Y-49225200D01*
X163576000Y-49225200D02*
X144526000Y-49225200D01*
X124206000Y-46837600D02*
X124206000Y-44450000D01*
X105156000Y-46837600D02*
X124206000Y-46837600D01*
X144526000Y-44450000D02*
X124206000Y-44450000D01*
X105156000Y-51587400D02*
X105156000Y-46837600D01*
X67056000Y-51587400D02*
X105156000Y-51587400D01*
X86106000Y-128727200D02*
X134035800Y-128727200D01*
X201676000Y-61112400D02*
X201676000Y-113868200D01*
X178226011Y-128135707D02*
X183014293Y-114980011D01*
X183014293Y-114980011D02*
X196169989Y-119768293D01*
X196169989Y-119768293D02*
X191381707Y-132923989D01*
X191381707Y-132923989D02*
X178226011Y-128135707D01*
X127366000Y-85710000D02*
X141366000Y-85710000D01*
X141366000Y-85710000D02*
X141366000Y-99710000D01*
X141366000Y-99710000D02*
X127366000Y-99710000D01*
X127366000Y-99710000D02*
X127366000Y-85710000D01*
X127366000Y-47610000D02*
X141366000Y-47610000D01*
X141366000Y-47610000D02*
X141366000Y-61610000D01*
X141366000Y-61610000D02*
X127366000Y-61610000D01*
X127366000Y-61610000D02*
X127366000Y-47610000D01*
X108316000Y-49997600D02*
X122316000Y-49997600D01*
X122316000Y-49997600D02*
X122316000Y-63997600D01*
X122316000Y-63997600D02*
X108316000Y-63997600D01*
X108316000Y-63997600D02*
X108316000Y-49997600D01*
X70216000Y-54747400D02*
X84216000Y-54747400D01*
X84216000Y-54747400D02*
X84216000Y-68747400D01*
X84216000Y-68747400D02*
X70216000Y-68747400D01*
X70216000Y-68747400D02*
X70216000Y-54747400D01*
X89266000Y-92847400D02*
X103266000Y-92847400D01*
X103266000Y-92847400D02*
X103266000Y-106847400D01*
X103266000Y-106847400D02*
X89266000Y-106847400D01*
X89266000Y-106847400D02*
X89266000Y-92847400D01*
X138670727Y-111898147D02*
X152617453Y-113118327D01*
X152617453Y-113118327D02*
X151397273Y-127065053D01*
X151397273Y-127065053D02*
X137450547Y-125844873D01*
X137450547Y-125844873D02*
X138670727Y-111898147D01*
X160289005Y-114282051D02*
X173957149Y-117312205D01*
X173957149Y-117312205D02*
X170926995Y-130980349D01*
X170926995Y-130980349D02*
X157258851Y-127950195D01*
X157258851Y-127950195D02*
X160289005Y-114282051D01*
X184516000Y-83322400D02*
X198516000Y-83322400D01*
X198516000Y-83322400D02*
X198516000Y-97322400D01*
X198516000Y-97322400D02*
X184516000Y-97322400D01*
X184516000Y-97322400D02*
X184516000Y-83322400D01*
X184516000Y-64272400D02*
X198516000Y-64272400D01*
X198516000Y-64272400D02*
X198516000Y-78272400D01*
X198516000Y-78272400D02*
X184516000Y-78272400D01*
X184516000Y-78272400D02*
X184516000Y-64272400D01*
X165466000Y-92847400D02*
X179466000Y-92847400D01*
X179466000Y-92847400D02*
X179466000Y-106847400D01*
X179466000Y-106847400D02*
X165466000Y-106847400D01*
X165466000Y-106847400D02*
X165466000Y-92847400D01*
X165466000Y-73797400D02*
X179466000Y-73797400D01*
X179466000Y-73797400D02*
X179466000Y-87797400D01*
X179466000Y-87797400D02*
X165466000Y-87797400D01*
X165466000Y-87797400D02*
X165466000Y-73797400D01*
X165466000Y-54747400D02*
X179466000Y-54747400D01*
X179466000Y-54747400D02*
X179466000Y-68747400D01*
X179466000Y-68747400D02*
X165466000Y-68747400D01*
X165466000Y-68747400D02*
X165466000Y-54747400D01*
X146416000Y-90485200D02*
X160416000Y-90485200D01*
X160416000Y-90485200D02*
X160416000Y-104485200D01*
X160416000Y-104485200D02*
X146416000Y-104485200D01*
X146416000Y-104485200D02*
X146416000Y-90485200D01*
X146416000Y-71435200D02*
X160416000Y-71435200D01*
X160416000Y-71435200D02*
X160416000Y-85435200D01*
X160416000Y-85435200D02*
X146416000Y-85435200D01*
X146416000Y-85435200D02*
X146416000Y-71435200D01*
X146416000Y-52385200D02*
X160416000Y-52385200D01*
X160416000Y-52385200D02*
X160416000Y-66385200D01*
X160416000Y-66385200D02*
X146416000Y-66385200D01*
X146416000Y-66385200D02*
X146416000Y-52385200D01*
X127366000Y-66660000D02*
X141366000Y-66660000D01*
X141366000Y-66660000D02*
X141366000Y-80660000D01*
X141366000Y-80660000D02*
X127366000Y-80660000D01*
X127366000Y-80660000D02*
X127366000Y-66660000D01*
X108316000Y-88097600D02*
X122316000Y-88097600D01*
X122316000Y-88097600D02*
X122316000Y-102097600D01*
X122316000Y-102097600D02*
X108316000Y-102097600D01*
X108316000Y-102097600D02*
X108316000Y-88097600D01*
X108316000Y-69047600D02*
X122316000Y-69047600D01*
X122316000Y-69047600D02*
X122316000Y-83047600D01*
X122316000Y-83047600D02*
X108316000Y-83047600D01*
X108316000Y-83047600D02*
X108316000Y-69047600D01*
X89266000Y-73797400D02*
X103266000Y-73797400D01*
X103266000Y-73797400D02*
X103266000Y-87797400D01*
X103266000Y-87797400D02*
X89266000Y-87797400D01*
X89266000Y-87797400D02*
X89266000Y-73797400D01*
X89266000Y-54747400D02*
X103266000Y-54747400D01*
X103266000Y-54747400D02*
X103266000Y-68747400D01*
X103266000Y-68747400D02*
X89266000Y-68747400D01*
X89266000Y-68747400D02*
X89266000Y-54747400D01*
X70216000Y-92847400D02*
X84216000Y-92847400D01*
X84216000Y-92847400D02*
X84216000Y-106847400D01*
X84216000Y-106847400D02*
X70216000Y-106847400D01*
X70216000Y-106847400D02*
X70216000Y-92847400D01*
X70216000Y-73797400D02*
X84216000Y-73797400D01*
X84216000Y-73797400D02*
X84216000Y-87797400D01*
X84216000Y-87797400D02*
X70216000Y-87797400D01*
X70216000Y-87797400D02*
X70216000Y-73797400D01*
M02*
