G04 #@! TF.FileFunction,Soldermask,Top*
%FSLAX46Y46*%
G04 Gerber Fmt 4.6, Leading zero omitted, Abs format (unit mm)*
G04 Created by KiCad (PCBNEW 4.0.7) date 06/20/18 00:36:37*
%MOMM*%
%LPD*%
G01*
G04 APERTURE LIST*
%ADD10C,0.100000*%
%ADD11R,1.600000X1.150000*%
%ADD12R,1.150000X1.600000*%
%ADD13R,1.200000X1.400000*%
%ADD14R,2.100000X2.100000*%
%ADD15O,2.100000X2.100000*%
%ADD16R,0.900000X1.200000*%
%ADD17R,0.800000X1.200000*%
%ADD18R,1.800000X0.800000*%
%ADD19R,0.800000X1.800000*%
%ADD20R,1.400000X2.200000*%
%ADD21R,2.000000X1.400000*%
%ADD22R,2.400000X4.200000*%
%ADD23R,2.400000X1.900000*%
%ADD24C,0.900000*%
G04 APERTURE END LIST*
D10*
D11*
X95189000Y-53848000D03*
X97089000Y-53848000D03*
X88961000Y-53848000D03*
X87061000Y-53848000D03*
D12*
X86868000Y-60132000D03*
X86868000Y-58232000D03*
D13*
X73722000Y-59416000D03*
X73722000Y-56916000D03*
X75122000Y-56916000D03*
X75122000Y-59416000D03*
D14*
X71120000Y-68580000D03*
D15*
X73660000Y-68580000D03*
X76200000Y-68580000D03*
X78740000Y-68580000D03*
X81280000Y-68580000D03*
X83820000Y-68580000D03*
D14*
X71120000Y-53340000D03*
D15*
X73660000Y-53340000D03*
X76200000Y-53340000D03*
X78740000Y-53340000D03*
X81280000Y-53340000D03*
X83820000Y-53340000D03*
D16*
X71558000Y-59171000D03*
D17*
X69958000Y-59171000D03*
X70758000Y-59171000D03*
D16*
X69158000Y-59171000D03*
D17*
X70758000Y-60971000D03*
D16*
X71558000Y-60971000D03*
D17*
X69958000Y-60971000D03*
D16*
X69158000Y-60971000D03*
X69158000Y-57288000D03*
D17*
X70758000Y-57288000D03*
X69958000Y-57288000D03*
D16*
X71558000Y-57288000D03*
D17*
X69958000Y-55488000D03*
D16*
X69158000Y-55488000D03*
D17*
X70758000Y-55488000D03*
D16*
X71558000Y-55488000D03*
D18*
X88936000Y-58668000D03*
D19*
X101536000Y-56868000D03*
X100836000Y-56868000D03*
X96636000Y-56868000D03*
X95936000Y-56868000D03*
X95236000Y-56868000D03*
X94536000Y-56868000D03*
X93836000Y-56868000D03*
X93136000Y-56868000D03*
X92436000Y-56868000D03*
X91736000Y-56868000D03*
X91036000Y-56868000D03*
X90336000Y-56868000D03*
D18*
X88936000Y-57268000D03*
X88936000Y-57968000D03*
X88936000Y-59368000D03*
X88936000Y-60068000D03*
X88936000Y-60768000D03*
X88936000Y-61468000D03*
X88936000Y-62168000D03*
X88936000Y-62868000D03*
X88936000Y-63568000D03*
X88936000Y-64268000D03*
X88936000Y-64968000D03*
X88936000Y-65668000D03*
D19*
X90336000Y-66068000D03*
X91036000Y-66068000D03*
X91736000Y-66068000D03*
X92436000Y-66068000D03*
X93136000Y-66068000D03*
X93836000Y-66068000D03*
X94536000Y-66068000D03*
X95236000Y-66068000D03*
X95936000Y-66068000D03*
X96636000Y-66068000D03*
X97336000Y-66068000D03*
X98036000Y-66068000D03*
X98736000Y-66068000D03*
X99436000Y-66068000D03*
X100136000Y-66068000D03*
X100836000Y-66068000D03*
X101536000Y-66068000D03*
D20*
X93325000Y-54356000D03*
X90825000Y-54356000D03*
D14*
X103886000Y-68580000D03*
D15*
X101346000Y-68580000D03*
X98806000Y-68580000D03*
X96266000Y-68580000D03*
D21*
X69952000Y-62616000D03*
X76352000Y-62616000D03*
X76352000Y-66416000D03*
X69952000Y-66416000D03*
X78842000Y-62616000D03*
X85242000Y-62616000D03*
X85242000Y-66416000D03*
X78842000Y-66416000D03*
D22*
X78384000Y-58166000D03*
D23*
X84684000Y-58166000D03*
X84684000Y-55866000D03*
X84684000Y-60466000D03*
D24*
X95504000Y-62484000D03*
X99463500Y-55095500D03*
X72898000Y-66416000D03*
X86804500Y-66421000D03*
X82486500Y-60960000D03*
X75755500Y-60960000D03*
X86868000Y-56832500D03*
X86868000Y-61468000D03*
X96139000Y-58420000D03*
X93840000Y-58596000D03*
X75184000Y-64262000D03*
X69151500Y-58229500D03*
X86741000Y-62738000D03*
X89433400Y-56464200D03*
X76835000Y-56134000D03*
X71551800Y-54724300D03*
X70751700Y-54724300D03*
X72370000Y-59636000D03*
X93140000Y-58326000D03*
M02*
