M48
;DRILL file {KiCad 4.0.7} date 06/20/18 00:36:41
;FORMAT={3:3/ absolute / metric / suppress trailing zeros}
FMAT,2
METRIC,LZ
T1C0.300
T2C1.000
%
G90
G05
M71
T1
X069152Y-05823
X070752Y-054724
X071552Y-054724
X07237Y-059636
X072898Y-066416
X075184Y-064262
X075756Y-06096
X076835Y-056134
X082487Y-06096
X086741Y-062738
X086804Y-066421
X086868Y-056832
X086868Y-061468
X089433Y-056464
X09314Y-058326
X09384Y-058596
X095504Y-062484
X096139Y-05842
X099464Y-055095
T2
X07112Y-05334
X07112Y-06858
X07366Y-05334
X07366Y-06858
X0762Y-05334
X0762Y-06858
X07874Y-05334
X07874Y-06858
X08128Y-05334
X08128Y-06858
X08382Y-05334
X08382Y-06858
X096266Y-06858
X098806Y-06858
X101346Y-06858
X103886Y-06858
T0
M30
