G04 #@! TF.FileFunction,Copper,L2,Bot,Signal*
%FSLAX46Y46*%
G04 Gerber Fmt 4.6, Leading zero omitted, Abs format (unit mm)*
G04 Created by KiCad (PCBNEW 4.0.7) date 06/20/18 00:36:37*
%MOMM*%
%LPD*%
G01*
G04 APERTURE LIST*
%ADD10C,0.100000*%
%ADD11R,1.700000X1.700000*%
%ADD12O,1.700000X1.700000*%
%ADD13C,0.500000*%
%ADD14C,0.400000*%
%ADD15C,0.200000*%
%ADD16C,0.254000*%
G04 APERTURE END LIST*
D10*
D11*
X71120000Y-68580000D03*
D12*
X73660000Y-68580000D03*
X76200000Y-68580000D03*
X78740000Y-68580000D03*
X81280000Y-68580000D03*
X83820000Y-68580000D03*
D11*
X71120000Y-53340000D03*
D12*
X73660000Y-53340000D03*
X76200000Y-53340000D03*
X78740000Y-53340000D03*
X81280000Y-53340000D03*
X83820000Y-53340000D03*
D11*
X103886000Y-68580000D03*
D12*
X101346000Y-68580000D03*
X98806000Y-68580000D03*
X96266000Y-68580000D03*
D13*
X95504000Y-62484000D03*
X99463500Y-55095500D03*
X72898000Y-66416000D03*
X86804500Y-66421000D03*
X82486500Y-60960000D03*
X75755500Y-60960000D03*
X86868000Y-56832500D03*
X86868000Y-61468000D03*
X96139000Y-58420000D03*
X93840000Y-58596000D03*
X75184000Y-64262000D03*
X69151500Y-58229500D03*
X86741000Y-62738000D03*
X89433400Y-56464200D03*
X76835000Y-56134000D03*
X71551800Y-54724300D03*
X70751700Y-54724300D03*
X72370000Y-59636000D03*
X93140000Y-58326000D03*
D14*
X99463500Y-55095500D02*
X99441000Y-55118000D01*
X72898000Y-66416000D02*
X72898000Y-66421000D01*
D15*
X78740000Y-68580000D02*
X80899000Y-66421000D01*
X80899000Y-66421000D02*
X86804500Y-66421000D01*
X75755500Y-60960000D02*
X82486500Y-60960000D01*
X86868000Y-61468000D02*
X86868000Y-56832500D01*
D14*
X103886000Y-68834000D02*
X103886000Y-66040000D01*
X96266000Y-58420000D02*
X96139000Y-58420000D01*
X103886000Y-66040000D02*
X96266000Y-58420000D01*
D15*
X73660000Y-68580000D02*
X77564000Y-64676000D01*
X93840000Y-58596000D02*
X93840000Y-60196000D01*
X93840000Y-60196000D02*
X89360000Y-64676000D01*
X89360000Y-64676000D02*
X83566000Y-64676000D01*
X77564000Y-64676000D02*
X83566000Y-64676000D01*
X69151500Y-58229500D02*
X75184000Y-64262000D01*
D14*
X86741000Y-62712600D02*
X86741000Y-62738000D01*
D15*
X89433400Y-60020200D02*
X86741000Y-62712600D01*
X89433400Y-56464200D02*
X89433400Y-60020200D01*
X76200000Y-53340000D02*
X76835000Y-53975000D01*
X76835000Y-53975000D02*
X76835000Y-56134000D01*
X76200000Y-53340000D02*
X76708000Y-53848000D01*
X78270100Y-56896000D02*
X81280000Y-53886100D01*
X73152000Y-56896000D02*
X78270100Y-56896000D01*
X71551800Y-55295800D02*
X73152000Y-56896000D01*
X71551800Y-54724300D02*
X71551800Y-55295800D01*
X81280000Y-53886100D02*
X81280000Y-53340000D01*
X81280000Y-53949600D02*
X81280000Y-53340000D01*
X79921100Y-57658000D02*
X83820000Y-53759100D01*
X72783700Y-57658000D02*
X79921100Y-57658000D01*
X70751700Y-55626000D02*
X72783700Y-57658000D01*
X70751700Y-54724300D02*
X70751700Y-55626000D01*
X83820000Y-53759100D02*
X83820000Y-53340000D01*
X76350000Y-63616000D02*
X72370000Y-59636000D01*
X87850000Y-63616000D02*
X76350000Y-63616000D01*
X93140000Y-58326000D02*
X87850000Y-63616000D01*
D16*
G36*
X69622560Y-54190000D02*
X69666838Y-54425317D01*
X69805910Y-54641441D01*
X69866736Y-54683002D01*
X69866547Y-54899565D01*
X70000996Y-55224957D01*
X70016700Y-55240688D01*
X70016700Y-55626000D01*
X70048357Y-55785149D01*
X70072649Y-55907272D01*
X70231977Y-56145723D01*
X72263977Y-58177724D01*
X72364267Y-58244735D01*
X72502428Y-58337051D01*
X72783700Y-58393000D01*
X79921100Y-58393000D01*
X80202372Y-58337051D01*
X80440823Y-58177723D01*
X83773670Y-54844877D01*
X83820000Y-54854093D01*
X84388285Y-54741054D01*
X84870054Y-54419147D01*
X85191961Y-53937378D01*
X85305000Y-53369093D01*
X85305000Y-53310907D01*
X85191961Y-52742622D01*
X85047219Y-52526000D01*
X102235000Y-52526000D01*
X102235000Y-59817000D01*
X100584000Y-59817000D01*
X100534590Y-59827006D01*
X100492965Y-59855447D01*
X100465685Y-59897841D01*
X100457000Y-59944000D01*
X100457000Y-61430132D01*
X96856434Y-57829566D01*
X96705691Y-57728843D01*
X96687208Y-57716493D01*
X96640967Y-57670171D01*
X96315810Y-57535154D01*
X95963735Y-57534847D01*
X95638343Y-57669296D01*
X95389171Y-57918033D01*
X95254154Y-58243190D01*
X95253847Y-58595265D01*
X95388296Y-58920657D01*
X95637033Y-59169829D01*
X95962190Y-59304846D01*
X95969985Y-59304853D01*
X100466616Y-63801484D01*
X100467006Y-63803410D01*
X100495447Y-63845035D01*
X100536736Y-63871604D01*
X102235000Y-65569868D01*
X102235000Y-67419607D01*
X102112924Y-67308355D01*
X101702890Y-67138524D01*
X101473000Y-67259845D01*
X101473000Y-68453000D01*
X101493000Y-68453000D01*
X101493000Y-68707000D01*
X101473000Y-68707000D01*
X101473000Y-68727000D01*
X101219000Y-68727000D01*
X101219000Y-68707000D01*
X101199000Y-68707000D01*
X101199000Y-68453000D01*
X101219000Y-68453000D01*
X101219000Y-67259845D01*
X100989110Y-67138524D01*
X100579076Y-67308355D01*
X100150817Y-67698642D01*
X100083702Y-67841553D01*
X99856054Y-67500853D01*
X99374285Y-67178946D01*
X98806000Y-67065907D01*
X98237715Y-67178946D01*
X97755946Y-67500853D01*
X97536000Y-67830026D01*
X97316054Y-67500853D01*
X96834285Y-67178946D01*
X96266000Y-67065907D01*
X95697715Y-67178946D01*
X95215946Y-67500853D01*
X94894039Y-67982622D01*
X94781000Y-68550907D01*
X94781000Y-68609093D01*
X94894039Y-69177378D01*
X95038781Y-69394000D01*
X85047219Y-69394000D01*
X85191961Y-69177378D01*
X85305000Y-68609093D01*
X85305000Y-68550907D01*
X85191961Y-67982622D01*
X84870054Y-67500853D01*
X84388285Y-67178946D01*
X83820000Y-67065907D01*
X83251715Y-67178946D01*
X82769946Y-67500853D01*
X82550000Y-67830026D01*
X82330054Y-67500853D01*
X81848285Y-67178946D01*
X81280000Y-67065907D01*
X80711715Y-67178946D01*
X80229946Y-67500853D01*
X80002298Y-67841553D01*
X79935183Y-67698642D01*
X79506924Y-67308355D01*
X79096890Y-67138524D01*
X78867000Y-67259845D01*
X78867000Y-68453000D01*
X78887000Y-68453000D01*
X78887000Y-68707000D01*
X78867000Y-68707000D01*
X78867000Y-68727000D01*
X78613000Y-68727000D01*
X78613000Y-68707000D01*
X76327000Y-68707000D01*
X76327000Y-68727000D01*
X76073000Y-68727000D01*
X76073000Y-68707000D01*
X76053000Y-68707000D01*
X76053000Y-68453000D01*
X76073000Y-68453000D01*
X76073000Y-67259845D01*
X76327000Y-67259845D01*
X76327000Y-68453000D01*
X78613000Y-68453000D01*
X78613000Y-67259845D01*
X78383110Y-67138524D01*
X77973076Y-67308355D01*
X77544817Y-67698642D01*
X77470000Y-67857954D01*
X77395183Y-67698642D01*
X76966924Y-67308355D01*
X76556890Y-67138524D01*
X76327000Y-67259845D01*
X76073000Y-67259845D01*
X76038047Y-67241399D01*
X77868447Y-65411000D01*
X89360000Y-65411000D01*
X89641272Y-65355051D01*
X89879723Y-65195723D01*
X94359724Y-60715723D01*
X94519051Y-60477272D01*
X94537240Y-60385829D01*
X94575000Y-60196000D01*
X94575000Y-59112770D01*
X94589829Y-59097967D01*
X94724846Y-58772810D01*
X94725153Y-58420735D01*
X94590704Y-58095343D01*
X94341967Y-57846171D01*
X94016810Y-57711154D01*
X93776505Y-57710944D01*
X93641967Y-57576171D01*
X93316810Y-57441154D01*
X92964735Y-57440847D01*
X92639343Y-57575296D01*
X92390171Y-57824033D01*
X92255154Y-58149190D01*
X92255135Y-58171418D01*
X90087018Y-60339536D01*
X90112451Y-60301472D01*
X90168400Y-60020200D01*
X90168400Y-56980970D01*
X90183229Y-56966167D01*
X90318246Y-56641010D01*
X90318553Y-56288935D01*
X90184104Y-55963543D01*
X89935367Y-55714371D01*
X89610210Y-55579354D01*
X89258135Y-55579047D01*
X88932743Y-55713496D01*
X88683571Y-55962233D01*
X88548554Y-56287390D01*
X88548247Y-56639465D01*
X88682696Y-56964857D01*
X88698400Y-56980588D01*
X88698400Y-59715753D01*
X86558189Y-61855965D01*
X86240343Y-61987296D01*
X85991171Y-62236033D01*
X85856154Y-62561190D01*
X85855875Y-62881000D01*
X76654446Y-62881000D01*
X73255135Y-59481689D01*
X73255153Y-59460735D01*
X73120704Y-59135343D01*
X72871967Y-58886171D01*
X72546810Y-58751154D01*
X72194735Y-58750847D01*
X71869343Y-58885296D01*
X71620171Y-59134033D01*
X71485154Y-59459190D01*
X71485098Y-59523651D01*
X70036635Y-58075189D01*
X70036653Y-58054235D01*
X69902204Y-57728843D01*
X69653467Y-57479671D01*
X69328310Y-57344654D01*
X68976235Y-57344347D01*
X68650843Y-57478796D01*
X68401671Y-57727533D01*
X68266654Y-58052690D01*
X68266347Y-58404765D01*
X68400796Y-58730157D01*
X68649533Y-58979329D01*
X68974690Y-59114346D01*
X68996919Y-59114365D01*
X74298865Y-64416312D01*
X74298847Y-64437265D01*
X74433296Y-64762657D01*
X74682033Y-65011829D01*
X75007190Y-65146846D01*
X75359265Y-65147153D01*
X75684657Y-65012704D01*
X75933829Y-64763967D01*
X76068846Y-64438810D01*
X76068971Y-64295099D01*
X76350000Y-64351000D01*
X76849553Y-64351000D01*
X74055898Y-67144656D01*
X73660000Y-67065907D01*
X73091715Y-67178946D01*
X72609946Y-67500853D01*
X72582150Y-67542452D01*
X72573162Y-67494683D01*
X72434090Y-67278559D01*
X72221890Y-67133569D01*
X71970000Y-67082560D01*
X70270000Y-67082560D01*
X70034683Y-67126838D01*
X69818559Y-67265910D01*
X69673569Y-67478110D01*
X69622560Y-67730000D01*
X69622560Y-69394000D01*
X68020000Y-69394000D01*
X68020000Y-52526000D01*
X69622560Y-52526000D01*
X69622560Y-54190000D01*
X69622560Y-54190000D01*
G37*
X69622560Y-54190000D02*
X69666838Y-54425317D01*
X69805910Y-54641441D01*
X69866736Y-54683002D01*
X69866547Y-54899565D01*
X70000996Y-55224957D01*
X70016700Y-55240688D01*
X70016700Y-55626000D01*
X70048357Y-55785149D01*
X70072649Y-55907272D01*
X70231977Y-56145723D01*
X72263977Y-58177724D01*
X72364267Y-58244735D01*
X72502428Y-58337051D01*
X72783700Y-58393000D01*
X79921100Y-58393000D01*
X80202372Y-58337051D01*
X80440823Y-58177723D01*
X83773670Y-54844877D01*
X83820000Y-54854093D01*
X84388285Y-54741054D01*
X84870054Y-54419147D01*
X85191961Y-53937378D01*
X85305000Y-53369093D01*
X85305000Y-53310907D01*
X85191961Y-52742622D01*
X85047219Y-52526000D01*
X102235000Y-52526000D01*
X102235000Y-59817000D01*
X100584000Y-59817000D01*
X100534590Y-59827006D01*
X100492965Y-59855447D01*
X100465685Y-59897841D01*
X100457000Y-59944000D01*
X100457000Y-61430132D01*
X96856434Y-57829566D01*
X96705691Y-57728843D01*
X96687208Y-57716493D01*
X96640967Y-57670171D01*
X96315810Y-57535154D01*
X95963735Y-57534847D01*
X95638343Y-57669296D01*
X95389171Y-57918033D01*
X95254154Y-58243190D01*
X95253847Y-58595265D01*
X95388296Y-58920657D01*
X95637033Y-59169829D01*
X95962190Y-59304846D01*
X95969985Y-59304853D01*
X100466616Y-63801484D01*
X100467006Y-63803410D01*
X100495447Y-63845035D01*
X100536736Y-63871604D01*
X102235000Y-65569868D01*
X102235000Y-67419607D01*
X102112924Y-67308355D01*
X101702890Y-67138524D01*
X101473000Y-67259845D01*
X101473000Y-68453000D01*
X101493000Y-68453000D01*
X101493000Y-68707000D01*
X101473000Y-68707000D01*
X101473000Y-68727000D01*
X101219000Y-68727000D01*
X101219000Y-68707000D01*
X101199000Y-68707000D01*
X101199000Y-68453000D01*
X101219000Y-68453000D01*
X101219000Y-67259845D01*
X100989110Y-67138524D01*
X100579076Y-67308355D01*
X100150817Y-67698642D01*
X100083702Y-67841553D01*
X99856054Y-67500853D01*
X99374285Y-67178946D01*
X98806000Y-67065907D01*
X98237715Y-67178946D01*
X97755946Y-67500853D01*
X97536000Y-67830026D01*
X97316054Y-67500853D01*
X96834285Y-67178946D01*
X96266000Y-67065907D01*
X95697715Y-67178946D01*
X95215946Y-67500853D01*
X94894039Y-67982622D01*
X94781000Y-68550907D01*
X94781000Y-68609093D01*
X94894039Y-69177378D01*
X95038781Y-69394000D01*
X85047219Y-69394000D01*
X85191961Y-69177378D01*
X85305000Y-68609093D01*
X85305000Y-68550907D01*
X85191961Y-67982622D01*
X84870054Y-67500853D01*
X84388285Y-67178946D01*
X83820000Y-67065907D01*
X83251715Y-67178946D01*
X82769946Y-67500853D01*
X82550000Y-67830026D01*
X82330054Y-67500853D01*
X81848285Y-67178946D01*
X81280000Y-67065907D01*
X80711715Y-67178946D01*
X80229946Y-67500853D01*
X80002298Y-67841553D01*
X79935183Y-67698642D01*
X79506924Y-67308355D01*
X79096890Y-67138524D01*
X78867000Y-67259845D01*
X78867000Y-68453000D01*
X78887000Y-68453000D01*
X78887000Y-68707000D01*
X78867000Y-68707000D01*
X78867000Y-68727000D01*
X78613000Y-68727000D01*
X78613000Y-68707000D01*
X76327000Y-68707000D01*
X76327000Y-68727000D01*
X76073000Y-68727000D01*
X76073000Y-68707000D01*
X76053000Y-68707000D01*
X76053000Y-68453000D01*
X76073000Y-68453000D01*
X76073000Y-67259845D01*
X76327000Y-67259845D01*
X76327000Y-68453000D01*
X78613000Y-68453000D01*
X78613000Y-67259845D01*
X78383110Y-67138524D01*
X77973076Y-67308355D01*
X77544817Y-67698642D01*
X77470000Y-67857954D01*
X77395183Y-67698642D01*
X76966924Y-67308355D01*
X76556890Y-67138524D01*
X76327000Y-67259845D01*
X76073000Y-67259845D01*
X76038047Y-67241399D01*
X77868447Y-65411000D01*
X89360000Y-65411000D01*
X89641272Y-65355051D01*
X89879723Y-65195723D01*
X94359724Y-60715723D01*
X94519051Y-60477272D01*
X94537240Y-60385829D01*
X94575000Y-60196000D01*
X94575000Y-59112770D01*
X94589829Y-59097967D01*
X94724846Y-58772810D01*
X94725153Y-58420735D01*
X94590704Y-58095343D01*
X94341967Y-57846171D01*
X94016810Y-57711154D01*
X93776505Y-57710944D01*
X93641967Y-57576171D01*
X93316810Y-57441154D01*
X92964735Y-57440847D01*
X92639343Y-57575296D01*
X92390171Y-57824033D01*
X92255154Y-58149190D01*
X92255135Y-58171418D01*
X90087018Y-60339536D01*
X90112451Y-60301472D01*
X90168400Y-60020200D01*
X90168400Y-56980970D01*
X90183229Y-56966167D01*
X90318246Y-56641010D01*
X90318553Y-56288935D01*
X90184104Y-55963543D01*
X89935367Y-55714371D01*
X89610210Y-55579354D01*
X89258135Y-55579047D01*
X88932743Y-55713496D01*
X88683571Y-55962233D01*
X88548554Y-56287390D01*
X88548247Y-56639465D01*
X88682696Y-56964857D01*
X88698400Y-56980588D01*
X88698400Y-59715753D01*
X86558189Y-61855965D01*
X86240343Y-61987296D01*
X85991171Y-62236033D01*
X85856154Y-62561190D01*
X85855875Y-62881000D01*
X76654446Y-62881000D01*
X73255135Y-59481689D01*
X73255153Y-59460735D01*
X73120704Y-59135343D01*
X72871967Y-58886171D01*
X72546810Y-58751154D01*
X72194735Y-58750847D01*
X71869343Y-58885296D01*
X71620171Y-59134033D01*
X71485154Y-59459190D01*
X71485098Y-59523651D01*
X70036635Y-58075189D01*
X70036653Y-58054235D01*
X69902204Y-57728843D01*
X69653467Y-57479671D01*
X69328310Y-57344654D01*
X68976235Y-57344347D01*
X68650843Y-57478796D01*
X68401671Y-57727533D01*
X68266654Y-58052690D01*
X68266347Y-58404765D01*
X68400796Y-58730157D01*
X68649533Y-58979329D01*
X68974690Y-59114346D01*
X68996919Y-59114365D01*
X74298865Y-64416312D01*
X74298847Y-64437265D01*
X74433296Y-64762657D01*
X74682033Y-65011829D01*
X75007190Y-65146846D01*
X75359265Y-65147153D01*
X75684657Y-65012704D01*
X75933829Y-64763967D01*
X76068846Y-64438810D01*
X76068971Y-64295099D01*
X76350000Y-64351000D01*
X76849553Y-64351000D01*
X74055898Y-67144656D01*
X73660000Y-67065907D01*
X73091715Y-67178946D01*
X72609946Y-67500853D01*
X72582150Y-67542452D01*
X72573162Y-67494683D01*
X72434090Y-67278559D01*
X72221890Y-67133569D01*
X71970000Y-67082560D01*
X70270000Y-67082560D01*
X70034683Y-67126838D01*
X69818559Y-67265910D01*
X69673569Y-67478110D01*
X69622560Y-67730000D01*
X69622560Y-69394000D01*
X68020000Y-69394000D01*
X68020000Y-52526000D01*
X69622560Y-52526000D01*
X69622560Y-54190000D01*
G36*
X73787000Y-53213000D02*
X73807000Y-53213000D01*
X73807000Y-53467000D01*
X73787000Y-53467000D01*
X73787000Y-54660155D01*
X74016890Y-54781476D01*
X74426924Y-54611645D01*
X74855183Y-54221358D01*
X74922298Y-54078447D01*
X75149946Y-54419147D01*
X75631715Y-54741054D01*
X76100000Y-54834202D01*
X76100000Y-55617230D01*
X76085171Y-55632033D01*
X75950154Y-55957190D01*
X75949976Y-56161000D01*
X73456447Y-56161000D01*
X72366203Y-55070756D01*
X72436646Y-54901110D01*
X72436881Y-54631493D01*
X72566431Y-54441890D01*
X72588301Y-54333893D01*
X72893076Y-54611645D01*
X73303110Y-54781476D01*
X73533000Y-54660155D01*
X73533000Y-53467000D01*
X73513000Y-53467000D01*
X73513000Y-53213000D01*
X73533000Y-53213000D01*
X73533000Y-53193000D01*
X73787000Y-53193000D01*
X73787000Y-53213000D01*
X73787000Y-53213000D01*
G37*
X73787000Y-53213000D02*
X73807000Y-53213000D01*
X73807000Y-53467000D01*
X73787000Y-53467000D01*
X73787000Y-54660155D01*
X74016890Y-54781476D01*
X74426924Y-54611645D01*
X74855183Y-54221358D01*
X74922298Y-54078447D01*
X75149946Y-54419147D01*
X75631715Y-54741054D01*
X76100000Y-54834202D01*
X76100000Y-55617230D01*
X76085171Y-55632033D01*
X75950154Y-55957190D01*
X75949976Y-56161000D01*
X73456447Y-56161000D01*
X72366203Y-55070756D01*
X72436646Y-54901110D01*
X72436881Y-54631493D01*
X72566431Y-54441890D01*
X72588301Y-54333893D01*
X72893076Y-54611645D01*
X73303110Y-54781476D01*
X73533000Y-54660155D01*
X73533000Y-53467000D01*
X73513000Y-53467000D01*
X73513000Y-53213000D01*
X73533000Y-53213000D01*
X73533000Y-53193000D01*
X73787000Y-53193000D01*
X73787000Y-53213000D01*
M02*
