M48
;DRILL file {KiCad 4.0.7} date 06/20/18 00:03:08
;FORMAT={3:3/ absolute / metric / suppress trailing zeros}
FMAT,2
METRIC,LZ
T1C0.300
T2C0.500
T3C0.600
T4C1.000
T5C1.100
T6C1.600
%
G90
G05
M71
T1
X11871Y-11044
X119496Y-113338
X119496Y-114038
X119496Y-114748
X119496Y-115448
X119496Y-116148
X119496Y-116848
X119496Y-117548
X12025Y-1121
X122346Y-112198
X122346Y-118698
X123046Y-118698
X12305Y-1122
X123746Y-118698
X12375Y-1122
X124446Y-118698
X12445Y-1122
X125146Y-118698
X12515Y-1122
X12584Y-10949
X12585Y-11534
X12655Y-10949
X12656Y-1159
X12725Y-11535
X12795Y-1159
X12865Y-11535
X12935Y-1159
T2
X11475Y-11865
X115824Y-111252
X11774Y-12129
X122834Y-11491
X13075Y-11239
X13075Y-12176
T3
X110744Y-1245
X112744Y-1245
X114744Y-1245
T4
X098044Y-118389
X100584Y-118389
X103124Y-118389
X105664Y-118389
T5
X094519Y-125634
T6
X072216Y-065547
X072216Y-084597
X072216Y-103647
X073406Y-059207
X073406Y-078257
X073406Y-097307
X074676Y-056667
X074676Y-075717
X074676Y-094767
X077216Y-067647
X077216Y-086697
X077216Y-105747
X079756Y-056667
X079756Y-075717
X079756Y-094767
X081026Y-059207
X081026Y-078257
X081026Y-097307
X082216Y-065547
X082216Y-084597
X082216Y-103647
X091266Y-065547
X091266Y-084597
X091266Y-103647
X092456Y-059207
X092456Y-078257
X092456Y-097307
X093726Y-056667
X093726Y-075717
X093726Y-094767
X096266Y-067647
X096266Y-086697
X096266Y-105747
X098806Y-056667
X098806Y-075717
X098806Y-094767
X100076Y-059207
X100076Y-078257
X100076Y-097307
X101266Y-065547
X101266Y-084597
X101266Y-103647
X110316Y-060798
X110316Y-079848
X110316Y-098898
X111506Y-054458
X111506Y-073508
X111506Y-092558
X112776Y-051918
X112776Y-070968
X112776Y-090018
X115316Y-062898
X115316Y-081948
X115316Y-100998
X117856Y-051918
X117856Y-070968
X117856Y-090018
X119126Y-054458
X119126Y-073508
X119126Y-092558
X120316Y-060798
X120316Y-079848
X120316Y-098898
X129366Y-05841
X129366Y-07746
X129366Y-09651
X130556Y-05207
X130556Y-07112
X130556Y-09017
X131826Y-04953
X131826Y-06858
X131826Y-08763
X134366Y-06051
X134366Y-07956
X134366Y-09861
X136906Y-04953
X136906Y-06858
X136906Y-08763
X138176Y-05207
X138176Y-07112
X138176Y-09017
X139366Y-05841
X139366Y-07746
X139366Y-09651
X139722Y-122831
X14146Y-116619
X142946Y-1142
X14452Y-125359
X148007Y-114642
X148416Y-063185
X148416Y-082235
X148416Y-101285
X149051Y-117283
X149606Y-056845
X149606Y-075895
X149606Y-094945
X149684Y-123703
X150876Y-054305
X150876Y-073355
X150876Y-092405
X153416Y-065285
X153416Y-084335
X153416Y-103385
X155956Y-054305
X155956Y-073355
X155956Y-092405
X157226Y-056845
X157226Y-075895
X157226Y-094945
X158416Y-063185
X158416Y-082235
X158416Y-101285
X159904Y-125259
X162438Y-119327
X164228Y-117122
X164331Y-128391
X167466Y-065547
X167466Y-084597
X167466Y-103647
X168656Y-059207
X168656Y-078257
X168656Y-097307
X169187Y-118221
X169667Y-127423
X169877Y-120976
X169926Y-056667
X169926Y-075717
X169926Y-094767
X172466Y-067647
X172466Y-086697
X172466Y-105747
X175006Y-056667
X175006Y-075717
X175006Y-094767
X176276Y-059207
X176276Y-078257
X176276Y-097307
X177466Y-065547
X177466Y-084597
X177466Y-103647
X181556Y-124601
X183293Y-119828
X183508Y-126663
X186114Y-119503
X186516Y-075072
X186516Y-094122
X187706Y-068732
X187706Y-087782
X188976Y-066192
X188976Y-085242
X189059Y-12995
X191516Y-077172
X191516Y-096222
X192479Y-120553
X192742Y-12597
X194056Y-066192
X194056Y-085242
X195326Y-068732
X195326Y-087782
X196516Y-075072
X196516Y-094122
T4
X074479Y-057039G85X073603Y-058836
G05
X074479Y-076089G85X073603Y-077886
G05
X074479Y-095139G85X073603Y-096936
G05
X079953Y-057039G85X080829Y-058836
G05
X079953Y-076089G85X080829Y-077886
G05
X079953Y-095139G85X080829Y-096936
G05
X093529Y-057039G85X092653Y-058836
G05
X093529Y-076089G85X092653Y-077886
G05
X093529Y-095139G85X092653Y-096936
G05
X099003Y-057039G85X099879Y-058836
G05
X099003Y-076089G85X099879Y-077886
G05
X099003Y-095139G85X099879Y-096936
G05
X112579Y-052289G85X111703Y-054086
G05
X112579Y-071339G85X111703Y-073136
G05
X112579Y-090389G85X111703Y-092186
G05
X118053Y-052289G85X118929Y-054086
G05
X118053Y-071339G85X118929Y-073136
G05
X118053Y-090389G85X118929Y-092186
G05
X131629Y-049901G85X130753Y-051699
G05
X131629Y-068951G85X130753Y-070749
G05
X131629Y-088001G85X130753Y-089799
G05
X137103Y-049901G85X137979Y-051699
G05
X137103Y-068951G85X137979Y-070749
G05
X137103Y-088001G85X137979Y-089799
G05
X142718Y-114552G85X141688Y-116267
G05
X148171Y-115029G85X148887Y-116896
G05
X150679Y-054676G85X149803Y-056474
G05
X150679Y-073726G85X149803Y-075524
G05
X150679Y-092776G85X149803Y-094574
G05
X156153Y-054676G85X157029Y-056474
G05
X156153Y-073726G85X157029Y-075524
G05
X156153Y-092776G85X157029Y-094574
G05
X163955Y-117442G85X16271Y-119007
G05
X169729Y-057039G85X168853Y-058836
G05
X169729Y-076089G85X168853Y-077886
G05
X169729Y-095139G85X168853Y-096936
G05
X169299Y-118626G85X169766Y-120571
G05
X175203Y-057039G85X176079Y-058836
G05
X175203Y-076089G85X176079Y-077886
G05
X175203Y-095139G85X176079Y-096936
G05
X181837Y-124913G85X183227Y-126352
G05
X183709Y-11977G85X185698Y-119561
G05
X188779Y-066564G85X187903Y-068361
G05
X188779Y-085614G85X187903Y-087411
G05
X194253Y-066564G85X195129Y-068361
G05
X194253Y-085614G85X195129Y-087411
G05
T0
M30
