G04 #@! TF.FileFunction,Legend,Top*
%FSLAX46Y46*%
G04 Gerber Fmt 4.6, Leading zero omitted, Abs format (unit mm)*
G04 Created by KiCad (PCBNEW 4.0.7) date 06/20/18 00:03:06*
%MOMM*%
%LPD*%
G01*
G04 APERTURE LIST*
%ADD10C,0.100000*%
%ADD11C,0.300000*%
%ADD12C,0.200000*%
%ADD13C,0.120000*%
%ADD14C,0.150000*%
%ADD15R,1.150000X1.600000*%
%ADD16C,2.300000*%
%ADD17C,1.600000*%
%ADD18C,3.000000*%
%ADD19C,2.400000*%
%ADD20C,4.387800*%
%ADD21C,2.101800*%
%ADD22R,1.600000X1.150000*%
%ADD23R,1.400000X2.200000*%
%ADD24O,15.400000X8.900000*%
%ADD25C,2.400000*%
%ADD26C,2.100000*%
%ADD27O,2.100000X2.100000*%
%ADD28R,2.100000X2.100000*%
%ADD29O,1.950000X1.050000*%
%ADD30C,5.400000*%
%ADD31R,1.800000X0.800000*%
%ADD32R,0.800000X1.800000*%
%ADD33C,1.300000*%
%ADD34C,0.900000*%
G04 APERTURE END LIST*
D10*
D11*
X178749936Y-131701162D02*
X179160360Y-130573531D01*
X179428845Y-130671251D01*
X179570390Y-130783579D01*
X179638696Y-130930061D01*
X179653305Y-131056998D01*
X179628826Y-131291330D01*
X179570194Y-131452419D01*
X179438321Y-131647663D01*
X179345536Y-131735512D01*
X179199054Y-131803817D01*
X179018421Y-131798882D01*
X178749936Y-131701162D01*
X180326685Y-132214241D02*
X180199748Y-132228850D01*
X179984961Y-132150674D01*
X179897112Y-132057889D01*
X179882502Y-131930952D01*
X180038855Y-131501378D01*
X180131640Y-131413529D01*
X180258577Y-131398920D01*
X180473364Y-131477096D01*
X180561213Y-131569881D01*
X180575822Y-131696818D01*
X180536734Y-131804211D01*
X179960679Y-131716165D01*
X180809955Y-132390137D02*
X180897805Y-132482922D01*
X181112592Y-132561098D01*
X181239529Y-132546489D01*
X181332314Y-132458640D01*
X181351858Y-132404943D01*
X181337249Y-132278006D01*
X181249400Y-132185221D01*
X181088310Y-132126589D01*
X181000460Y-132033804D01*
X180985851Y-131906867D01*
X181005395Y-131853170D01*
X181098180Y-131765321D01*
X181225118Y-131750712D01*
X181386208Y-131809344D01*
X181474057Y-131902129D01*
X181756953Y-132795626D02*
X182030569Y-132043872D01*
X182167377Y-131667995D02*
X182094136Y-131702148D01*
X182128289Y-131775389D01*
X182201530Y-131741236D01*
X182167377Y-131667995D01*
X182128289Y-131775389D01*
X183050807Y-132415208D02*
X182718559Y-133328053D01*
X182625774Y-133415902D01*
X182552533Y-133450055D01*
X182425597Y-133464664D01*
X182264506Y-133406032D01*
X182176656Y-133313247D01*
X182796735Y-133113266D02*
X182669797Y-133127874D01*
X182455011Y-133049699D01*
X182367161Y-132956914D01*
X182333008Y-132883673D01*
X182318399Y-132756736D01*
X182435663Y-132434556D01*
X182528448Y-132346706D01*
X182601689Y-132312553D01*
X182728627Y-132297944D01*
X182943413Y-132376120D01*
X183031263Y-132468905D01*
X183587774Y-132610648D02*
X183314158Y-133362402D01*
X183548686Y-132718042D02*
X183621927Y-132683889D01*
X183748864Y-132669280D01*
X183909954Y-132727912D01*
X183997804Y-132820697D01*
X184012412Y-132947635D01*
X183797429Y-133538299D01*
X184783513Y-133836394D02*
X184656575Y-133851002D01*
X184441789Y-133772827D01*
X184353939Y-133680042D01*
X184339330Y-133553105D01*
X184495682Y-133123531D01*
X184588467Y-133035681D01*
X184715405Y-133021072D01*
X184930191Y-133099248D01*
X185018041Y-133192033D01*
X185032650Y-133318971D01*
X184993562Y-133426364D01*
X184417506Y-133338317D01*
X185784207Y-134261427D02*
X186194631Y-133133795D01*
X185803751Y-134207730D02*
X185676813Y-134222339D01*
X185462026Y-134144163D01*
X185374177Y-134051378D01*
X185340024Y-133978137D01*
X185325415Y-133851200D01*
X185442679Y-133529020D01*
X185535464Y-133441170D01*
X185608705Y-133407017D01*
X185735642Y-133392409D01*
X185950429Y-133470584D01*
X186038279Y-133563369D01*
X187180321Y-134769571D02*
X187590745Y-133641940D01*
X187434393Y-134071514D02*
X187561331Y-134056905D01*
X187776117Y-134135081D01*
X187863967Y-134227866D01*
X187898120Y-134301107D01*
X187912728Y-134428044D01*
X187795464Y-134750224D01*
X187702680Y-134838073D01*
X187629439Y-134872226D01*
X187502501Y-134886835D01*
X187287715Y-134808659D01*
X187199865Y-134715874D01*
X188366782Y-134350065D02*
X188361649Y-135199539D01*
X188903748Y-134545505D02*
X188361649Y-135199539D01*
X188156535Y-135428934D01*
X188083294Y-135463087D01*
X187956358Y-135477696D01*
X177997542Y-133601276D02*
X178139088Y-133713605D01*
X178407571Y-133811325D01*
X178534509Y-133796716D01*
X178607750Y-133762563D01*
X178700535Y-133674714D01*
X178739623Y-133567321D01*
X178725014Y-133440383D01*
X178690861Y-133367142D01*
X178603011Y-133274358D01*
X178407769Y-133142485D01*
X178319919Y-133049700D01*
X178285766Y-132976459D01*
X178271158Y-132849522D01*
X178310245Y-132742129D01*
X178403030Y-132654279D01*
X178476271Y-132620126D01*
X178603209Y-132605518D01*
X178871692Y-132703238D01*
X179013239Y-132815567D01*
X179588899Y-134241293D02*
X179803883Y-133650629D01*
X179789275Y-133523692D01*
X179701425Y-133430907D01*
X179486638Y-133352731D01*
X179359701Y-133367340D01*
X179608443Y-134187596D02*
X179481506Y-134202205D01*
X179213022Y-134104485D01*
X179125173Y-134011700D01*
X179110564Y-133884763D01*
X179149652Y-133777369D01*
X179242437Y-133689520D01*
X179369374Y-133674911D01*
X179637858Y-133772631D01*
X179764796Y-133758022D01*
X180238393Y-133626347D02*
X180667966Y-133782699D01*
X180536290Y-133309102D02*
X180184498Y-134275643D01*
X180199107Y-134402580D01*
X180286957Y-134495365D01*
X180394350Y-134534453D01*
X181019561Y-133484998D02*
X181663921Y-133719526D01*
X180931317Y-134729893D02*
X181341741Y-133602262D01*
D12*
X114610667Y-126966667D02*
X114877334Y-126966667D01*
X115144001Y-127100000D01*
X115277334Y-127366667D01*
X115277334Y-127633333D01*
X115144001Y-127900000D01*
X114877334Y-128033333D01*
X114610667Y-128033333D01*
X114344001Y-127900000D01*
X114210667Y-127633333D01*
X114210667Y-127366667D01*
X114344001Y-127100000D01*
X114610667Y-126966667D01*
X112744001Y-128028571D02*
X112744001Y-126885714D01*
D11*
X188563715Y-104162714D02*
X188492286Y-104234143D01*
X188278000Y-104305571D01*
X188135143Y-104305571D01*
X187920858Y-104234143D01*
X187778000Y-104091286D01*
X187706572Y-103948429D01*
X187635143Y-103662714D01*
X187635143Y-103448429D01*
X187706572Y-103162714D01*
X187778000Y-103019857D01*
X187920858Y-102877000D01*
X188135143Y-102805571D01*
X188278000Y-102805571D01*
X188492286Y-102877000D01*
X188563715Y-102948429D01*
X189420858Y-104305571D02*
X189278000Y-104234143D01*
X189206572Y-104162714D01*
X189135143Y-104019857D01*
X189135143Y-103591286D01*
X189206572Y-103448429D01*
X189278000Y-103377000D01*
X189420858Y-103305571D01*
X189635143Y-103305571D01*
X189778000Y-103377000D01*
X189849429Y-103448429D01*
X189920858Y-103591286D01*
X189920858Y-104019857D01*
X189849429Y-104162714D01*
X189778000Y-104234143D01*
X189635143Y-104305571D01*
X189420858Y-104305571D01*
X190563715Y-104305571D02*
X190563715Y-103305571D01*
X190563715Y-103448429D02*
X190635143Y-103377000D01*
X190778001Y-103305571D01*
X190992286Y-103305571D01*
X191135143Y-103377000D01*
X191206572Y-103519857D01*
X191206572Y-104305571D01*
X191206572Y-103519857D02*
X191278001Y-103377000D01*
X191420858Y-103305571D01*
X191635143Y-103305571D01*
X191778001Y-103377000D01*
X191849429Y-103519857D01*
X191849429Y-104305571D01*
X193135143Y-104234143D02*
X192992286Y-104305571D01*
X192706572Y-104305571D01*
X192563715Y-104234143D01*
X192492286Y-104091286D01*
X192492286Y-103519857D01*
X192563715Y-103377000D01*
X192706572Y-103305571D01*
X192992286Y-103305571D01*
X193135143Y-103377000D01*
X193206572Y-103519857D01*
X193206572Y-103662714D01*
X192492286Y-103805571D01*
X193635143Y-103305571D02*
X194206572Y-103305571D01*
X193849429Y-102805571D02*
X193849429Y-104091286D01*
X193920857Y-104234143D01*
X194063715Y-104305571D01*
X194206572Y-104305571D01*
X195349429Y-103305571D02*
X195349429Y-104305571D01*
X194992286Y-102734143D02*
X194635143Y-103805571D01*
X195563715Y-103805571D01*
X196778000Y-102805571D02*
X196492286Y-102805571D01*
X196349429Y-102877000D01*
X196278000Y-102948429D01*
X196135143Y-103162714D01*
X196063714Y-103448429D01*
X196063714Y-104019857D01*
X196135143Y-104162714D01*
X196206571Y-104234143D01*
X196349429Y-104305571D01*
X196635143Y-104305571D01*
X196778000Y-104234143D01*
X196849429Y-104162714D01*
X196920857Y-104019857D01*
X196920857Y-103662714D01*
X196849429Y-103519857D01*
X196778000Y-103448429D01*
X196635143Y-103377000D01*
X196349429Y-103377000D01*
X196206571Y-103448429D01*
X196135143Y-103519857D01*
X196063714Y-103662714D01*
X189492286Y-106427000D02*
X190206572Y-106427000D01*
X189349429Y-106855571D02*
X189849429Y-105355571D01*
X190349429Y-106855571D01*
X191063715Y-106855571D02*
X190920857Y-106784143D01*
X190849429Y-106641286D01*
X190849429Y-105355571D01*
X191635143Y-105855571D02*
X191635143Y-107355571D01*
X191635143Y-105927000D02*
X191778000Y-105855571D01*
X192063714Y-105855571D01*
X192206571Y-105927000D01*
X192278000Y-105998429D01*
X192349429Y-106141286D01*
X192349429Y-106569857D01*
X192278000Y-106712714D01*
X192206571Y-106784143D01*
X192063714Y-106855571D01*
X191778000Y-106855571D01*
X191635143Y-106784143D01*
X192992286Y-106855571D02*
X192992286Y-105355571D01*
X193635143Y-106855571D02*
X193635143Y-106069857D01*
X193563714Y-105927000D01*
X193420857Y-105855571D01*
X193206572Y-105855571D01*
X193063714Y-105927000D01*
X192992286Y-105998429D01*
X194992286Y-106855571D02*
X194992286Y-106069857D01*
X194920857Y-105927000D01*
X194778000Y-105855571D01*
X194492286Y-105855571D01*
X194349429Y-105927000D01*
X194992286Y-106784143D02*
X194849429Y-106855571D01*
X194492286Y-106855571D01*
X194349429Y-106784143D01*
X194278000Y-106641286D01*
X194278000Y-106498429D01*
X194349429Y-106355571D01*
X194492286Y-106284143D01*
X194849429Y-106284143D01*
X194992286Y-106212714D01*
D13*
X115344000Y-120554000D02*
X115344000Y-121254000D01*
X114144000Y-121254000D02*
X114144000Y-120554000D01*
X121379500Y-105191000D02*
X122079500Y-105191000D01*
X122079500Y-106391000D02*
X121379500Y-106391000D01*
X118396500Y-106391000D02*
X117696500Y-106391000D01*
X117696500Y-105191000D02*
X118396500Y-105191000D01*
X119213000Y-108571000D02*
X120563000Y-108571000D01*
X119213000Y-106821000D02*
X120563000Y-106821000D01*
D14*
X96774000Y-127279400D02*
X96774000Y-128549400D01*
X96774000Y-128549400D02*
X98044000Y-128549400D01*
D13*
X106994000Y-119829400D02*
X96714000Y-119829400D01*
X96714000Y-119829400D02*
X96714000Y-122489400D01*
X96714000Y-122489400D02*
X106994000Y-122489400D01*
X106994000Y-122489400D02*
X106994000Y-119829400D01*
X106044000Y-119499400D02*
X106044000Y-119829400D01*
X105284000Y-119499400D02*
X105284000Y-119829400D01*
X104394000Y-119829400D02*
X104394000Y-122489400D01*
X103504000Y-119432329D02*
X103504000Y-119829400D01*
X102744000Y-119432329D02*
X102744000Y-119829400D01*
X101854000Y-119829400D02*
X101854000Y-122489400D01*
X100964000Y-119432329D02*
X100964000Y-119829400D01*
X100204000Y-119432329D02*
X100204000Y-119829400D01*
X99314000Y-119829400D02*
X99314000Y-122489400D01*
X98424000Y-119432329D02*
X98424000Y-119829400D01*
X97664000Y-119432329D02*
X97664000Y-119829400D01*
X105664000Y-117119400D02*
X106934000Y-117119400D01*
X106934000Y-117119400D02*
X106934000Y-118389400D01*
D14*
X89569427Y-71247000D02*
G75*
G03X89569427Y-71247000I-2828427J0D01*
G01*
X89569427Y-90297000D02*
G75*
G03X89569427Y-90297000I-2828427J0D01*
G01*
X146719427Y-66802000D02*
G75*
G03X146719427Y-66802000I-2828427J0D01*
G01*
X185835427Y-79629000D02*
G75*
G03X185835427Y-79629000I-2828427J0D01*
G01*
X185962427Y-111760000D02*
G75*
G03X185962427Y-111760000I-2828427J0D01*
G01*
X109319000Y-123700000D02*
X109819000Y-123700000D01*
X109319000Y-126700000D02*
X118169000Y-126700000D01*
X118169000Y-126700000D02*
X118169000Y-123700000D01*
X109319000Y-126700000D02*
X109319000Y-123700000D01*
X115669000Y-123700000D02*
X118169000Y-123700000D01*
X117746000Y-120143000D02*
X117746000Y-120443000D01*
X118246000Y-110443000D02*
X117746000Y-110443000D01*
X117746000Y-120443000D02*
X118246000Y-120443000D01*
X135746000Y-110443000D02*
X131746000Y-110443000D01*
X117746000Y-110443000D02*
X117746000Y-110743000D01*
X131746000Y-120443000D02*
X135746000Y-120443000D01*
X135746000Y-120443000D02*
X135746000Y-110443000D01*
X116165334Y-122531143D02*
X116117715Y-122578762D01*
X115974858Y-122626381D01*
X115879620Y-122626381D01*
X115736762Y-122578762D01*
X115641524Y-122483524D01*
X115593905Y-122388286D01*
X115546286Y-122197810D01*
X115546286Y-122054952D01*
X115593905Y-121864476D01*
X115641524Y-121769238D01*
X115736762Y-121674000D01*
X115879620Y-121626381D01*
X115974858Y-121626381D01*
X116117715Y-121674000D01*
X116165334Y-121721619D01*
X117070096Y-121626381D02*
X116593905Y-121626381D01*
X116546286Y-122102571D01*
X116593905Y-122054952D01*
X116689143Y-122007333D01*
X116927239Y-122007333D01*
X117022477Y-122054952D01*
X117070096Y-122102571D01*
X117117715Y-122197810D01*
X117117715Y-122435905D01*
X117070096Y-122531143D01*
X117022477Y-122578762D01*
X116927239Y-122626381D01*
X116689143Y-122626381D01*
X116593905Y-122578762D01*
X116546286Y-122531143D01*
X124547334Y-106275143D02*
X124499715Y-106322762D01*
X124356858Y-106370381D01*
X124261620Y-106370381D01*
X124118762Y-106322762D01*
X124023524Y-106227524D01*
X123975905Y-106132286D01*
X123928286Y-105941810D01*
X123928286Y-105798952D01*
X123975905Y-105608476D01*
X124023524Y-105513238D01*
X124118762Y-105418000D01*
X124261620Y-105370381D01*
X124356858Y-105370381D01*
X124499715Y-105418000D01*
X124547334Y-105465619D01*
X125499715Y-106370381D02*
X124928286Y-106370381D01*
X125214000Y-106370381D02*
X125214000Y-105370381D01*
X125118762Y-105513238D01*
X125023524Y-105608476D01*
X124928286Y-105656095D01*
X114895334Y-106275143D02*
X114847715Y-106322762D01*
X114704858Y-106370381D01*
X114609620Y-106370381D01*
X114466762Y-106322762D01*
X114371524Y-106227524D01*
X114323905Y-106132286D01*
X114276286Y-105941810D01*
X114276286Y-105798952D01*
X114323905Y-105608476D01*
X114371524Y-105513238D01*
X114466762Y-105418000D01*
X114609620Y-105370381D01*
X114704858Y-105370381D01*
X114847715Y-105418000D01*
X114895334Y-105465619D01*
X115228667Y-105370381D02*
X115847715Y-105370381D01*
X115514381Y-105751333D01*
X115657239Y-105751333D01*
X115752477Y-105798952D01*
X115800096Y-105846571D01*
X115847715Y-105941810D01*
X115847715Y-106179905D01*
X115800096Y-106275143D01*
X115752477Y-106322762D01*
X115657239Y-106370381D01*
X115371524Y-106370381D01*
X115276286Y-106322762D01*
X115228667Y-106275143D01*
X122713809Y-107672190D02*
X122713809Y-108148381D01*
X122380476Y-107148381D02*
X122713809Y-107672190D01*
X123047143Y-107148381D01*
X123904286Y-108148381D02*
X123332857Y-108148381D01*
X123618571Y-108148381D02*
X123618571Y-107148381D01*
X123523333Y-107291238D01*
X123428095Y-107386476D01*
X123332857Y-107434095D01*
X85955286Y-125404571D02*
X86098143Y-125452190D01*
X86145762Y-125499810D01*
X86193381Y-125595048D01*
X86193381Y-125737905D01*
X86145762Y-125833143D01*
X86098143Y-125880762D01*
X86002905Y-125928381D01*
X85621952Y-125928381D01*
X85621952Y-124928381D01*
X85955286Y-124928381D01*
X86050524Y-124976000D01*
X86098143Y-125023619D01*
X86145762Y-125118857D01*
X86145762Y-125214095D01*
X86098143Y-125309333D01*
X86050524Y-125356952D01*
X85955286Y-125404571D01*
X85621952Y-125404571D01*
X86479095Y-124928381D02*
X87050524Y-124928381D01*
X86764809Y-125928381D02*
X86764809Y-124928381D01*
X87907667Y-125928381D02*
X87336238Y-125928381D01*
X87621952Y-125928381D02*
X87621952Y-124928381D01*
X87526714Y-125071238D01*
X87431476Y-125166476D01*
X87336238Y-125214095D01*
X101520667Y-115784381D02*
X101520667Y-116498667D01*
X101473047Y-116641524D01*
X101377809Y-116736762D01*
X101234952Y-116784381D01*
X101139714Y-116784381D01*
X102520667Y-116784381D02*
X101949238Y-116784381D01*
X102234952Y-116784381D02*
X102234952Y-115784381D01*
X102139714Y-115927238D01*
X102044476Y-116022476D01*
X101949238Y-116070095D01*
X103514676Y-128040190D02*
X103560638Y-127902305D01*
X103560638Y-127672495D01*
X103514676Y-127580571D01*
X103468714Y-127534609D01*
X103376790Y-127488648D01*
X103284867Y-127488648D01*
X103192943Y-127534609D01*
X103146981Y-127580571D01*
X103101019Y-127672495D01*
X103055057Y-127856343D01*
X103009095Y-127948267D01*
X102963133Y-127994228D01*
X102871210Y-128040190D01*
X102779286Y-128040190D01*
X102687362Y-127994228D01*
X102641400Y-127948267D01*
X102595438Y-127856343D01*
X102595438Y-127626533D01*
X102641400Y-127488648D01*
X102595438Y-127166914D02*
X103560638Y-126937105D01*
X102871210Y-126753257D01*
X103560638Y-126569410D01*
X102595438Y-126339600D01*
X103560638Y-125971904D02*
X102595438Y-125971904D01*
X102595438Y-125742095D01*
X102641400Y-125604209D01*
X102733324Y-125512285D01*
X102825248Y-125466324D01*
X103009095Y-125420362D01*
X103146981Y-125420362D01*
X103330829Y-125466324D01*
X103422752Y-125512285D01*
X103514676Y-125604209D01*
X103560638Y-125742095D01*
X103560638Y-125971904D01*
X103468714Y-124455162D02*
X103514676Y-124501124D01*
X103560638Y-124639009D01*
X103560638Y-124730933D01*
X103514676Y-124868819D01*
X103422752Y-124960743D01*
X103330829Y-125006704D01*
X103146981Y-125052666D01*
X103009095Y-125052666D01*
X102825248Y-125006704D01*
X102733324Y-124960743D01*
X102641400Y-124868819D01*
X102595438Y-124730933D01*
X102595438Y-124639009D01*
X102641400Y-124501124D01*
X102687362Y-124455162D01*
X103560638Y-123581885D02*
X103560638Y-124041504D01*
X102595438Y-124041504D01*
X103560638Y-123260152D02*
X102595438Y-123260152D01*
X103560638Y-122708610D02*
X103009095Y-123122267D01*
X102595438Y-122708610D02*
X103146981Y-123260152D01*
X106054676Y-128054704D02*
X106100638Y-127916819D01*
X106100638Y-127687009D01*
X106054676Y-127595085D01*
X106008714Y-127549123D01*
X105916790Y-127503162D01*
X105824867Y-127503162D01*
X105732943Y-127549123D01*
X105686981Y-127595085D01*
X105641019Y-127687009D01*
X105595057Y-127870857D01*
X105549095Y-127962781D01*
X105503133Y-128008742D01*
X105411210Y-128054704D01*
X105319286Y-128054704D01*
X105227362Y-128008742D01*
X105181400Y-127962781D01*
X105135438Y-127870857D01*
X105135438Y-127641047D01*
X105181400Y-127503162D01*
X105135438Y-127181428D02*
X106100638Y-126951619D01*
X105411210Y-126767771D01*
X106100638Y-126583924D01*
X105135438Y-126354114D01*
X106100638Y-125986418D02*
X105135438Y-125986418D01*
X105135438Y-125756609D01*
X105181400Y-125618723D01*
X105273324Y-125526799D01*
X105365248Y-125480838D01*
X105549095Y-125434876D01*
X105686981Y-125434876D01*
X105870829Y-125480838D01*
X105962752Y-125526799D01*
X106054676Y-125618723D01*
X106100638Y-125756609D01*
X106100638Y-125986418D01*
X106100638Y-125021218D02*
X105135438Y-125021218D01*
X105135438Y-124377752D02*
X105135438Y-124193904D01*
X105181400Y-124101980D01*
X105273324Y-124010057D01*
X105457171Y-123964095D01*
X105778905Y-123964095D01*
X105962752Y-124010057D01*
X106054676Y-124101980D01*
X106100638Y-124193904D01*
X106100638Y-124377752D01*
X106054676Y-124469676D01*
X105962752Y-124561599D01*
X105778905Y-124607561D01*
X105457171Y-124607561D01*
X105273324Y-124561599D01*
X105181400Y-124469676D01*
X105135438Y-124377752D01*
X100101400Y-127506791D02*
X100055438Y-127598714D01*
X100055438Y-127736600D01*
X100101400Y-127874486D01*
X100193324Y-127966410D01*
X100285248Y-128012371D01*
X100469095Y-128058333D01*
X100606981Y-128058333D01*
X100790829Y-128012371D01*
X100882752Y-127966410D01*
X100974676Y-127874486D01*
X101020638Y-127736600D01*
X101020638Y-127644676D01*
X100974676Y-127506791D01*
X100928714Y-127460829D01*
X100606981Y-127460829D01*
X100606981Y-127644676D01*
X101020638Y-127047171D02*
X100055438Y-127047171D01*
X101020638Y-126495629D01*
X100055438Y-126495629D01*
X101020638Y-126036009D02*
X100055438Y-126036009D01*
X100055438Y-125806200D01*
X100101400Y-125668314D01*
X100193324Y-125576390D01*
X100285248Y-125530429D01*
X100469095Y-125484467D01*
X100606981Y-125484467D01*
X100790829Y-125530429D01*
X100882752Y-125576390D01*
X100974676Y-125668314D01*
X101020638Y-125806200D01*
X101020638Y-126036009D01*
X97515438Y-128058333D02*
X98480638Y-127736600D01*
X97515438Y-127414867D01*
X98388714Y-126541591D02*
X98434676Y-126587553D01*
X98480638Y-126725438D01*
X98480638Y-126817362D01*
X98434676Y-126955248D01*
X98342752Y-127047172D01*
X98250829Y-127093133D01*
X98066981Y-127139095D01*
X97929095Y-127139095D01*
X97745248Y-127093133D01*
X97653324Y-127047172D01*
X97561400Y-126955248D01*
X97515438Y-126817362D01*
X97515438Y-126725438D01*
X97561400Y-126587553D01*
X97607362Y-126541591D01*
X98388714Y-125576391D02*
X98434676Y-125622353D01*
X98480638Y-125760238D01*
X98480638Y-125852162D01*
X98434676Y-125990048D01*
X98342752Y-126081972D01*
X98250829Y-126127933D01*
X98066981Y-126173895D01*
X97929095Y-126173895D01*
X97745248Y-126127933D01*
X97653324Y-126081972D01*
X97561400Y-125990048D01*
X97515438Y-125852162D01*
X97515438Y-125760238D01*
X97561400Y-125622353D01*
X97607362Y-125576391D01*
X85979095Y-68699381D02*
X85979095Y-69508905D01*
X86026714Y-69604143D01*
X86074333Y-69651762D01*
X86169571Y-69699381D01*
X86360048Y-69699381D01*
X86455286Y-69651762D01*
X86502905Y-69604143D01*
X86550524Y-69508905D01*
X86550524Y-68699381D01*
X86931476Y-68699381D02*
X87550524Y-68699381D01*
X87217190Y-69080333D01*
X87360048Y-69080333D01*
X87455286Y-69127952D01*
X87502905Y-69175571D01*
X87550524Y-69270810D01*
X87550524Y-69508905D01*
X87502905Y-69604143D01*
X87455286Y-69651762D01*
X87360048Y-69699381D01*
X87074333Y-69699381D01*
X86979095Y-69651762D01*
X86931476Y-69604143D01*
X85979095Y-87749381D02*
X85979095Y-88558905D01*
X86026714Y-88654143D01*
X86074333Y-88701762D01*
X86169571Y-88749381D01*
X86360048Y-88749381D01*
X86455286Y-88701762D01*
X86502905Y-88654143D01*
X86550524Y-88558905D01*
X86550524Y-87749381D01*
X87455286Y-88082714D02*
X87455286Y-88749381D01*
X87217190Y-87701762D02*
X86979095Y-88416048D01*
X87598143Y-88416048D01*
X143129095Y-64254381D02*
X143129095Y-65063905D01*
X143176714Y-65159143D01*
X143224333Y-65206762D01*
X143319571Y-65254381D01*
X143510048Y-65254381D01*
X143605286Y-65206762D01*
X143652905Y-65159143D01*
X143700524Y-65063905D01*
X143700524Y-64254381D01*
X144652905Y-64254381D02*
X144176714Y-64254381D01*
X144129095Y-64730571D01*
X144176714Y-64682952D01*
X144271952Y-64635333D01*
X144510048Y-64635333D01*
X144605286Y-64682952D01*
X144652905Y-64730571D01*
X144700524Y-64825810D01*
X144700524Y-65063905D01*
X144652905Y-65159143D01*
X144605286Y-65206762D01*
X144510048Y-65254381D01*
X144271952Y-65254381D01*
X144176714Y-65206762D01*
X144129095Y-65159143D01*
X182245095Y-77081381D02*
X182245095Y-77890905D01*
X182292714Y-77986143D01*
X182340333Y-78033762D01*
X182435571Y-78081381D01*
X182626048Y-78081381D01*
X182721286Y-78033762D01*
X182768905Y-77986143D01*
X182816524Y-77890905D01*
X182816524Y-77081381D01*
X183721286Y-77081381D02*
X183530809Y-77081381D01*
X183435571Y-77129000D01*
X183387952Y-77176619D01*
X183292714Y-77319476D01*
X183245095Y-77509952D01*
X183245095Y-77890905D01*
X183292714Y-77986143D01*
X183340333Y-78033762D01*
X183435571Y-78081381D01*
X183626048Y-78081381D01*
X183721286Y-78033762D01*
X183768905Y-77986143D01*
X183816524Y-77890905D01*
X183816524Y-77652810D01*
X183768905Y-77557571D01*
X183721286Y-77509952D01*
X183626048Y-77462333D01*
X183435571Y-77462333D01*
X183340333Y-77509952D01*
X183292714Y-77557571D01*
X183245095Y-77652810D01*
X182372095Y-109212381D02*
X182372095Y-110021905D01*
X182419714Y-110117143D01*
X182467333Y-110164762D01*
X182562571Y-110212381D01*
X182753048Y-110212381D01*
X182848286Y-110164762D01*
X182895905Y-110117143D01*
X182943524Y-110021905D01*
X182943524Y-109212381D01*
X183324476Y-109212381D02*
X183991143Y-109212381D01*
X183562571Y-110212381D01*
X119062667Y-125626762D02*
X119205524Y-125674381D01*
X119443620Y-125674381D01*
X119538858Y-125626762D01*
X119586477Y-125579143D01*
X119634096Y-125483905D01*
X119634096Y-125388667D01*
X119586477Y-125293429D01*
X119538858Y-125245810D01*
X119443620Y-125198190D01*
X119253143Y-125150571D01*
X119157905Y-125102952D01*
X119110286Y-125055333D01*
X119062667Y-124960095D01*
X119062667Y-124864857D01*
X119110286Y-124769619D01*
X119157905Y-124722000D01*
X119253143Y-124674381D01*
X119491239Y-124674381D01*
X119634096Y-124722000D01*
X119967429Y-124674381D02*
X120205524Y-125674381D01*
X120396001Y-124960095D01*
X120586477Y-125674381D01*
X120824572Y-124674381D01*
X121729334Y-125674381D02*
X121157905Y-125674381D01*
X121443619Y-125674381D02*
X121443619Y-124674381D01*
X121348381Y-124817238D01*
X121253143Y-124912476D01*
X121157905Y-124960095D01*
%LPC*%
D15*
X114744000Y-119954000D03*
X114744000Y-121843800D03*
D16*
X128866000Y-92710000D03*
X139866000Y-92710000D03*
D17*
X129146000Y-88510000D03*
X139586000Y-88510000D03*
D18*
X139366000Y-96510000D03*
X129366000Y-96510000D03*
X134366000Y-98610000D03*
D19*
X131629371Y-88001206D02*
X130752629Y-89798794D01*
D18*
X138176000Y-90170000D03*
X136906000Y-87630000D03*
X131826000Y-87630000D03*
D20*
X134366000Y-92710000D03*
D21*
X129286000Y-92710000D03*
X139446000Y-92710000D03*
D18*
X130556000Y-90170000D03*
D19*
X137102629Y-88001206D02*
X137979371Y-89798794D01*
D16*
X128866000Y-54610000D03*
X139866000Y-54610000D03*
D17*
X129146000Y-50410000D03*
X139586000Y-50410000D03*
D18*
X139366000Y-58410000D03*
X129366000Y-58410000D03*
X134366000Y-60510000D03*
D19*
X131629371Y-49901206D02*
X130752629Y-51698794D01*
D18*
X138176000Y-52070000D03*
X136906000Y-49530000D03*
X131826000Y-49530000D03*
D20*
X134366000Y-54610000D03*
D21*
X129286000Y-54610000D03*
X139446000Y-54610000D03*
D18*
X130556000Y-52070000D03*
D19*
X137102629Y-49901206D02*
X137979371Y-51698794D01*
D16*
X109816000Y-56997600D03*
X120816000Y-56997600D03*
D17*
X110096000Y-52797600D03*
X120536000Y-52797600D03*
D18*
X120316000Y-60797600D03*
X110316000Y-60797600D03*
X115316000Y-62897600D03*
D19*
X112579371Y-52288806D02*
X111702629Y-54086394D01*
D18*
X119126000Y-54457600D03*
X117856000Y-51917600D03*
X112776000Y-51917600D03*
D20*
X115316000Y-56997600D03*
D21*
X110236000Y-56997600D03*
X120396000Y-56997600D03*
D18*
X111506000Y-54457600D03*
D19*
X118052629Y-52288806D02*
X118929371Y-54086394D01*
D16*
X71716000Y-61747400D03*
X82716000Y-61747400D03*
D17*
X71996000Y-57547400D03*
X82436000Y-57547400D03*
D18*
X82216000Y-65547400D03*
X72216000Y-65547400D03*
X77216000Y-67647400D03*
D19*
X74479371Y-57038606D02*
X73602629Y-58836194D01*
D18*
X81026000Y-59207400D03*
X79756000Y-56667400D03*
X74676000Y-56667400D03*
D20*
X77216000Y-61747400D03*
D21*
X72136000Y-61747400D03*
X82296000Y-61747400D03*
D18*
X73406000Y-59207400D03*
D19*
X79952629Y-57038606D02*
X80829371Y-58836194D01*
D16*
X90766000Y-99847400D03*
X101766000Y-99847400D03*
D17*
X91046000Y-95647400D03*
X101486000Y-95647400D03*
D18*
X101266000Y-103647400D03*
X91266000Y-103647400D03*
X96266000Y-105747400D03*
D19*
X93529371Y-95138606D02*
X92652629Y-96936194D01*
D18*
X100076000Y-97307400D03*
X98806000Y-94767400D03*
X93726000Y-94767400D03*
D20*
X96266000Y-99847400D03*
D21*
X91186000Y-99847400D03*
X101346000Y-99847400D03*
D18*
X92456000Y-97307400D03*
D19*
X99002629Y-95138606D02*
X99879371Y-96936194D01*
D16*
X139554929Y-119002243D03*
X150513071Y-119960957D03*
D17*
X140199918Y-114842629D03*
X150600190Y-115752535D03*
D18*
X149683782Y-123702919D03*
X139721835Y-122831361D03*
X144519781Y-125359149D03*
D19*
X142718183Y-114552212D02*
X141688107Y-116266546D01*
D18*
X149050877Y-117283329D03*
X148007086Y-114642307D03*
X142946417Y-114199555D03*
D20*
X145034000Y-119481600D03*
D21*
X139973331Y-119038849D03*
X150094669Y-119924351D03*
D18*
X141459874Y-116619202D03*
D19*
X148170614Y-115029238D02*
X148887350Y-116896398D01*
D22*
X120779500Y-105791000D03*
X122679500Y-105791000D03*
X118996500Y-105791000D03*
X117096500Y-105791000D03*
D23*
X121138000Y-107696000D03*
X118638000Y-107696000D03*
D16*
X185316889Y-129120309D03*
X189079111Y-118783691D03*
D17*
X181465946Y-127420711D03*
X185036636Y-117610320D03*
D18*
X192478933Y-120553213D03*
X189058731Y-129950140D03*
X192742186Y-125969919D03*
D19*
X181837199Y-124913087D02*
X183226515Y-126351767D01*
D18*
X186114277Y-119503040D03*
X183293093Y-119827718D03*
X181555630Y-124601357D03*
D20*
X187198000Y-123952000D03*
D21*
X185460538Y-128725639D03*
X188935462Y-119178361D03*
D18*
X183508084Y-126663498D03*
D19*
X183709163Y-119769907D02*
X185698207Y-119560851D01*
D16*
X160238372Y-121440782D03*
X170977628Y-123821618D03*
D17*
X161420781Y-117400942D03*
X171613312Y-119660572D03*
D18*
X169667010Y-127423323D03*
X159904049Y-125258927D03*
X164331006Y-128391346D03*
D19*
X163955410Y-117441708D02*
X162710380Y-119006924D01*
D18*
X169877444Y-120976043D03*
X169187305Y-118221373D03*
X164227721Y-117121860D03*
D20*
X165608000Y-122631200D03*
D21*
X160648416Y-121531687D03*
X170567584Y-123730713D03*
D18*
X162438069Y-119326773D03*
D19*
X169298930Y-118626338D02*
X169765820Y-120571078D01*
D16*
X186016000Y-90322400D03*
X197016000Y-90322400D03*
D17*
X186296000Y-86122400D03*
X196736000Y-86122400D03*
D18*
X196516000Y-94122400D03*
X186516000Y-94122400D03*
X191516000Y-96222400D03*
D19*
X188779371Y-85613606D02*
X187902629Y-87411194D01*
D18*
X195326000Y-87782400D03*
X194056000Y-85242400D03*
X188976000Y-85242400D03*
D20*
X191516000Y-90322400D03*
D21*
X186436000Y-90322400D03*
X196596000Y-90322400D03*
D18*
X187706000Y-87782400D03*
D19*
X194252629Y-85613606D02*
X195129371Y-87411194D01*
D16*
X186016000Y-71272400D03*
X197016000Y-71272400D03*
D17*
X186296000Y-67072400D03*
X196736000Y-67072400D03*
D18*
X196516000Y-75072400D03*
X186516000Y-75072400D03*
X191516000Y-77172400D03*
D19*
X188779371Y-66563606D02*
X187902629Y-68361194D01*
D18*
X195326000Y-68732400D03*
X194056000Y-66192400D03*
X188976000Y-66192400D03*
D20*
X191516000Y-71272400D03*
D21*
X186436000Y-71272400D03*
X196596000Y-71272400D03*
D18*
X187706000Y-68732400D03*
D19*
X194252629Y-66563606D02*
X195129371Y-68361194D01*
D16*
X166966000Y-99847400D03*
X177966000Y-99847400D03*
D17*
X167246000Y-95647400D03*
X177686000Y-95647400D03*
D18*
X177466000Y-103647400D03*
X167466000Y-103647400D03*
X172466000Y-105747400D03*
D19*
X169729371Y-95138606D02*
X168852629Y-96936194D01*
D18*
X176276000Y-97307400D03*
X175006000Y-94767400D03*
X169926000Y-94767400D03*
D20*
X172466000Y-99847400D03*
D21*
X167386000Y-99847400D03*
X177546000Y-99847400D03*
D18*
X168656000Y-97307400D03*
D19*
X175202629Y-95138606D02*
X176079371Y-96936194D01*
D16*
X166966000Y-80797400D03*
X177966000Y-80797400D03*
D17*
X167246000Y-76597400D03*
X177686000Y-76597400D03*
D18*
X177466000Y-84597400D03*
X167466000Y-84597400D03*
X172466000Y-86697400D03*
D19*
X169729371Y-76088606D02*
X168852629Y-77886194D01*
D18*
X176276000Y-78257400D03*
X175006000Y-75717400D03*
X169926000Y-75717400D03*
D20*
X172466000Y-80797400D03*
D21*
X167386000Y-80797400D03*
X177546000Y-80797400D03*
D18*
X168656000Y-78257400D03*
D19*
X175202629Y-76088606D02*
X176079371Y-77886194D01*
D16*
X166966000Y-61747400D03*
X177966000Y-61747400D03*
D17*
X167246000Y-57547400D03*
X177686000Y-57547400D03*
D18*
X177466000Y-65547400D03*
X167466000Y-65547400D03*
X172466000Y-67647400D03*
D19*
X169729371Y-57038606D02*
X168852629Y-58836194D01*
D18*
X176276000Y-59207400D03*
X175006000Y-56667400D03*
X169926000Y-56667400D03*
D20*
X172466000Y-61747400D03*
D21*
X167386000Y-61747400D03*
X177546000Y-61747400D03*
D18*
X168656000Y-59207400D03*
D19*
X175202629Y-57038606D02*
X176079371Y-58836194D01*
D16*
X147916000Y-97485200D03*
X158916000Y-97485200D03*
D17*
X148196000Y-93285200D03*
X158636000Y-93285200D03*
D18*
X158416000Y-101285200D03*
X148416000Y-101285200D03*
X153416000Y-103385200D03*
D19*
X150679371Y-92776406D02*
X149802629Y-94573994D01*
D18*
X157226000Y-94945200D03*
X155956000Y-92405200D03*
X150876000Y-92405200D03*
D20*
X153416000Y-97485200D03*
D21*
X148336000Y-97485200D03*
X158496000Y-97485200D03*
D18*
X149606000Y-94945200D03*
D19*
X156152629Y-92776406D02*
X157029371Y-94573994D01*
D16*
X147916000Y-78435200D03*
X158916000Y-78435200D03*
D17*
X148196000Y-74235200D03*
X158636000Y-74235200D03*
D18*
X158416000Y-82235200D03*
X148416000Y-82235200D03*
X153416000Y-84335200D03*
D19*
X150679371Y-73726406D02*
X149802629Y-75523994D01*
D18*
X157226000Y-75895200D03*
X155956000Y-73355200D03*
X150876000Y-73355200D03*
D20*
X153416000Y-78435200D03*
D21*
X148336000Y-78435200D03*
X158496000Y-78435200D03*
D18*
X149606000Y-75895200D03*
D19*
X156152629Y-73726406D02*
X157029371Y-75523994D01*
D16*
X147916000Y-59385200D03*
X158916000Y-59385200D03*
D17*
X148196000Y-55185200D03*
X158636000Y-55185200D03*
D18*
X158416000Y-63185200D03*
X148416000Y-63185200D03*
X153416000Y-65285200D03*
D19*
X150679371Y-54676406D02*
X149802629Y-56473994D01*
D18*
X157226000Y-56845200D03*
X155956000Y-54305200D03*
X150876000Y-54305200D03*
D20*
X153416000Y-59385200D03*
D21*
X148336000Y-59385200D03*
X158496000Y-59385200D03*
D18*
X149606000Y-56845200D03*
D19*
X156152629Y-54676406D02*
X157029371Y-56473994D01*
D16*
X128866000Y-73660000D03*
X139866000Y-73660000D03*
D17*
X129146000Y-69460000D03*
X139586000Y-69460000D03*
D18*
X139366000Y-77460000D03*
X129366000Y-77460000D03*
X134366000Y-79560000D03*
D19*
X131629371Y-68951206D02*
X130752629Y-70748794D01*
D18*
X138176000Y-71120000D03*
X136906000Y-68580000D03*
X131826000Y-68580000D03*
D20*
X134366000Y-73660000D03*
D21*
X129286000Y-73660000D03*
X139446000Y-73660000D03*
D18*
X130556000Y-71120000D03*
D19*
X137102629Y-68951206D02*
X137979371Y-70748794D01*
D16*
X109816000Y-95097600D03*
X120816000Y-95097600D03*
D17*
X110096000Y-90897600D03*
X120536000Y-90897600D03*
D18*
X120316000Y-98897600D03*
X110316000Y-98897600D03*
X115316000Y-100997600D03*
D19*
X112579371Y-90388806D02*
X111702629Y-92186394D01*
D18*
X119126000Y-92557600D03*
X117856000Y-90017600D03*
X112776000Y-90017600D03*
D20*
X115316000Y-95097600D03*
D21*
X110236000Y-95097600D03*
X120396000Y-95097600D03*
D18*
X111506000Y-92557600D03*
D19*
X118052629Y-90388806D02*
X118929371Y-92186394D01*
D16*
X109816000Y-76047600D03*
X120816000Y-76047600D03*
D17*
X110096000Y-71847600D03*
X120536000Y-71847600D03*
D18*
X120316000Y-79847600D03*
X110316000Y-79847600D03*
X115316000Y-81947600D03*
D19*
X112579371Y-71338806D02*
X111702629Y-73136394D01*
D18*
X119126000Y-73507600D03*
X117856000Y-70967600D03*
X112776000Y-70967600D03*
D20*
X115316000Y-76047600D03*
D21*
X110236000Y-76047600D03*
X120396000Y-76047600D03*
D18*
X111506000Y-73507600D03*
D19*
X118052629Y-71338806D02*
X118929371Y-73136394D01*
D16*
X90766000Y-80797400D03*
X101766000Y-80797400D03*
D17*
X91046000Y-76597400D03*
X101486000Y-76597400D03*
D18*
X101266000Y-84597400D03*
X91266000Y-84597400D03*
X96266000Y-86697400D03*
D19*
X93529371Y-76088606D02*
X92652629Y-77886194D01*
D18*
X100076000Y-78257400D03*
X98806000Y-75717400D03*
X93726000Y-75717400D03*
D20*
X96266000Y-80797400D03*
D21*
X91186000Y-80797400D03*
X101346000Y-80797400D03*
D18*
X92456000Y-78257400D03*
D19*
X99002629Y-76088606D02*
X99879371Y-77886194D01*
D16*
X90766000Y-61747400D03*
X101766000Y-61747400D03*
D17*
X91046000Y-57547400D03*
X101486000Y-57547400D03*
D18*
X101266000Y-65547400D03*
X91266000Y-65547400D03*
X96266000Y-67647400D03*
D19*
X93529371Y-57038606D02*
X92652629Y-58836194D01*
D18*
X100076000Y-59207400D03*
X98806000Y-56667400D03*
X93726000Y-56667400D03*
D20*
X96266000Y-61747400D03*
D21*
X91186000Y-61747400D03*
X101346000Y-61747400D03*
D18*
X92456000Y-59207400D03*
D19*
X99002629Y-57038606D02*
X99879371Y-58836194D01*
D16*
X71716000Y-99847400D03*
X82716000Y-99847400D03*
D17*
X71996000Y-95647400D03*
X82436000Y-95647400D03*
D18*
X82216000Y-103647400D03*
X72216000Y-103647400D03*
X77216000Y-105747400D03*
D19*
X74479371Y-95138606D02*
X73602629Y-96936194D01*
D18*
X81026000Y-97307400D03*
X79756000Y-94767400D03*
X74676000Y-94767400D03*
D20*
X77216000Y-99847400D03*
D21*
X72136000Y-99847400D03*
X82296000Y-99847400D03*
D18*
X73406000Y-97307400D03*
D19*
X79952629Y-95138606D02*
X80829371Y-96936194D01*
D16*
X71716000Y-80797400D03*
X82716000Y-80797400D03*
D17*
X71996000Y-76597400D03*
X82436000Y-76597400D03*
D18*
X82216000Y-84597400D03*
X72216000Y-84597400D03*
X77216000Y-86697400D03*
D19*
X74479371Y-76088606D02*
X73602629Y-77886194D01*
D18*
X81026000Y-78257400D03*
X79756000Y-75717400D03*
X74676000Y-75717400D03*
D20*
X77216000Y-80797400D03*
D21*
X72136000Y-80797400D03*
X82296000Y-80797400D03*
D18*
X73406000Y-78257400D03*
D19*
X79952629Y-76088606D02*
X80829371Y-77886194D01*
D24*
X86741000Y-117856000D03*
D25*
X94519000Y-125634000D03*
D26*
X105664000Y-118389400D03*
D27*
X103124000Y-118389400D03*
X100584000Y-118389400D03*
D28*
X98044000Y-118389400D03*
D29*
X109927000Y-120904000D03*
X112577000Y-119954000D03*
X112577000Y-121854000D03*
D30*
X86741000Y-71247000D03*
X86741000Y-90297000D03*
X143891000Y-66802000D03*
X183007000Y-79629000D03*
X183134000Y-111760000D03*
D17*
X110744000Y-124500000D03*
X114744000Y-124500000D03*
X112744000Y-124500000D03*
D31*
X118146000Y-112643000D03*
D32*
X130746000Y-110843000D03*
X130046000Y-110843000D03*
X125846000Y-110843000D03*
X125146000Y-110843000D03*
X124446000Y-110843000D03*
X123746000Y-110843000D03*
X123046000Y-110843000D03*
X122346000Y-110843000D03*
X121646000Y-110843000D03*
X120946000Y-110843000D03*
X120246000Y-110843000D03*
X119546000Y-110843000D03*
D31*
X118146000Y-111243000D03*
X118146000Y-111943000D03*
X118146000Y-113343000D03*
X118146000Y-114043000D03*
X118146000Y-114743000D03*
X118146000Y-115443000D03*
X118146000Y-116143000D03*
X118146000Y-116843000D03*
X118146000Y-117543000D03*
X118146000Y-118243000D03*
X118146000Y-118943000D03*
X118146000Y-119643000D03*
D32*
X119546000Y-120043000D03*
X120246000Y-120043000D03*
X120946000Y-120043000D03*
X121646000Y-120043000D03*
X122346000Y-120043000D03*
X123046000Y-120043000D03*
X123746000Y-120043000D03*
X124446000Y-120043000D03*
X125146000Y-120043000D03*
X125846000Y-120043000D03*
X126546000Y-120043000D03*
X127246000Y-120043000D03*
X127946000Y-120043000D03*
X128646000Y-120043000D03*
X129346000Y-120043000D03*
X130046000Y-120043000D03*
X130746000Y-120043000D03*
D33*
X130750000Y-112390000D03*
X122834400Y-114909600D03*
X130750000Y-121760000D03*
X117740000Y-121290000D03*
X114750000Y-118650000D03*
X115824000Y-111252000D03*
D34*
X125850000Y-115340000D03*
X125840000Y-109490000D03*
X126560000Y-115900000D03*
X126550000Y-109490000D03*
X119496000Y-116148000D03*
X119496000Y-113338000D03*
X125150000Y-112200000D03*
X119496000Y-116848000D03*
X118710000Y-110440000D03*
X127250000Y-115350000D03*
X119496000Y-117548000D03*
X120250000Y-112100000D03*
X122346000Y-118698000D03*
X119496000Y-115448000D03*
X122346000Y-112198000D03*
X127950000Y-115900000D03*
X119496000Y-114038000D03*
X123050000Y-112200000D03*
X128650000Y-115350000D03*
X125146000Y-118698000D03*
X119496000Y-114748000D03*
X123750000Y-112200000D03*
X129350000Y-115900000D03*
X124446000Y-118698000D03*
X124450000Y-112200000D03*
X123046000Y-118698000D03*
X123746000Y-118698000D03*
M02*
