G04 #@! TF.FileFunction,Soldermask,Bot*
%FSLAX46Y46*%
G04 Gerber Fmt 4.6, Leading zero omitted, Abs format (unit mm)*
G04 Created by KiCad (PCBNEW 4.0.7) date 06/20/18 00:03:06*
%MOMM*%
%LPD*%
G01*
G04 APERTURE LIST*
%ADD10C,0.100000*%
%ADD11R,1.150000X1.600000*%
%ADD12C,2.300000*%
%ADD13C,1.600000*%
%ADD14C,3.000000*%
%ADD15C,2.400000*%
%ADD16C,4.387800*%
%ADD17C,2.101800*%
%ADD18R,1.600000X1.150000*%
%ADD19R,1.400000X2.200000*%
%ADD20O,15.400000X8.900000*%
%ADD21C,2.400000*%
%ADD22C,2.100000*%
%ADD23O,2.100000X2.100000*%
%ADD24R,2.100000X2.100000*%
%ADD25C,5.400000*%
%ADD26O,1.950000X1.050000*%
%ADD27R,0.800000X1.800000*%
%ADD28R,1.800000X0.800000*%
%ADD29C,1.300000*%
%ADD30C,0.900000*%
G04 APERTURE END LIST*
D10*
D11*
X114744000Y-119954000D03*
X114744000Y-121854000D03*
D12*
X128866000Y-92710000D03*
X139866000Y-92710000D03*
D13*
X129146000Y-88510000D03*
X139586000Y-88510000D03*
D14*
X139366000Y-96510000D03*
X129366000Y-96510000D03*
X134366000Y-98610000D03*
D15*
X131629371Y-88001206D02*
X130752629Y-89798794D01*
D14*
X138176000Y-90170000D03*
X136906000Y-87630000D03*
X131826000Y-87630000D03*
D16*
X134366000Y-92710000D03*
D17*
X129286000Y-92710000D03*
X139446000Y-92710000D03*
D14*
X130556000Y-90170000D03*
D15*
X137102629Y-88001206D02*
X137979371Y-89798794D01*
D12*
X128866000Y-54610000D03*
X139866000Y-54610000D03*
D13*
X129146000Y-50410000D03*
X139586000Y-50410000D03*
D14*
X139366000Y-58410000D03*
X129366000Y-58410000D03*
X134366000Y-60510000D03*
D15*
X131629371Y-49901206D02*
X130752629Y-51698794D01*
D14*
X138176000Y-52070000D03*
X136906000Y-49530000D03*
X131826000Y-49530000D03*
D16*
X134366000Y-54610000D03*
D17*
X129286000Y-54610000D03*
X139446000Y-54610000D03*
D14*
X130556000Y-52070000D03*
D15*
X137102629Y-49901206D02*
X137979371Y-51698794D01*
D12*
X109816000Y-56997600D03*
X120816000Y-56997600D03*
D13*
X110096000Y-52797600D03*
X120536000Y-52797600D03*
D14*
X120316000Y-60797600D03*
X110316000Y-60797600D03*
X115316000Y-62897600D03*
D15*
X112579371Y-52288806D02*
X111702629Y-54086394D01*
D14*
X119126000Y-54457600D03*
X117856000Y-51917600D03*
X112776000Y-51917600D03*
D16*
X115316000Y-56997600D03*
D17*
X110236000Y-56997600D03*
X120396000Y-56997600D03*
D14*
X111506000Y-54457600D03*
D15*
X118052629Y-52288806D02*
X118929371Y-54086394D01*
D12*
X71716000Y-61747400D03*
X82716000Y-61747400D03*
D13*
X71996000Y-57547400D03*
X82436000Y-57547400D03*
D14*
X82216000Y-65547400D03*
X72216000Y-65547400D03*
X77216000Y-67647400D03*
D15*
X74479371Y-57038606D02*
X73602629Y-58836194D01*
D14*
X81026000Y-59207400D03*
X79756000Y-56667400D03*
X74676000Y-56667400D03*
D16*
X77216000Y-61747400D03*
D17*
X72136000Y-61747400D03*
X82296000Y-61747400D03*
D14*
X73406000Y-59207400D03*
D15*
X79952629Y-57038606D02*
X80829371Y-58836194D01*
D12*
X90766000Y-99847400D03*
X101766000Y-99847400D03*
D13*
X91046000Y-95647400D03*
X101486000Y-95647400D03*
D14*
X101266000Y-103647400D03*
X91266000Y-103647400D03*
X96266000Y-105747400D03*
D15*
X93529371Y-95138606D02*
X92652629Y-96936194D01*
D14*
X100076000Y-97307400D03*
X98806000Y-94767400D03*
X93726000Y-94767400D03*
D16*
X96266000Y-99847400D03*
D17*
X91186000Y-99847400D03*
X101346000Y-99847400D03*
D14*
X92456000Y-97307400D03*
D15*
X99002629Y-95138606D02*
X99879371Y-96936194D01*
D12*
X139554929Y-119002243D03*
X150513071Y-119960957D03*
D13*
X140199918Y-114842629D03*
X150600190Y-115752535D03*
D14*
X149683782Y-123702919D03*
X139721835Y-122831361D03*
X144519781Y-125359149D03*
D15*
X142718183Y-114552212D02*
X141688107Y-116266546D01*
D14*
X149050877Y-117283329D03*
X148007086Y-114642307D03*
X142946417Y-114199555D03*
D16*
X145034000Y-119481600D03*
D17*
X139973331Y-119038849D03*
X150094669Y-119924351D03*
D14*
X141459874Y-116619202D03*
D15*
X148170614Y-115029238D02*
X148887350Y-116896398D01*
D18*
X121541500Y-126047500D03*
X123441500Y-126047500D03*
X119758500Y-126047500D03*
X117858500Y-126047500D03*
D19*
X121900000Y-124206000D03*
X119400000Y-124206000D03*
D12*
X185316889Y-129120309D03*
X189079111Y-118783691D03*
D13*
X181465946Y-127420711D03*
X185036636Y-117610320D03*
D14*
X192478933Y-120553213D03*
X189058731Y-129950140D03*
X192742186Y-125969919D03*
D15*
X181837199Y-124913087D02*
X183226515Y-126351767D01*
D14*
X186114277Y-119503040D03*
X183293093Y-119827718D03*
X181555630Y-124601357D03*
D16*
X187198000Y-123952000D03*
D17*
X185460538Y-128725639D03*
X188935462Y-119178361D03*
D14*
X183508084Y-126663498D03*
D15*
X183709163Y-119769907D02*
X185698207Y-119560851D01*
D12*
X160238372Y-121440782D03*
X170977628Y-123821618D03*
D13*
X161420781Y-117400942D03*
X171613312Y-119660572D03*
D14*
X169667010Y-127423323D03*
X159904049Y-125258927D03*
X164331006Y-128391346D03*
D15*
X163955410Y-117441708D02*
X162710380Y-119006924D01*
D14*
X169877444Y-120976043D03*
X169187305Y-118221373D03*
X164227721Y-117121860D03*
D16*
X165608000Y-122631200D03*
D17*
X160648416Y-121531687D03*
X170567584Y-123730713D03*
D14*
X162438069Y-119326773D03*
D15*
X169298930Y-118626338D02*
X169765820Y-120571078D01*
D12*
X186016000Y-90322400D03*
X197016000Y-90322400D03*
D13*
X186296000Y-86122400D03*
X196736000Y-86122400D03*
D14*
X196516000Y-94122400D03*
X186516000Y-94122400D03*
X191516000Y-96222400D03*
D15*
X188779371Y-85613606D02*
X187902629Y-87411194D01*
D14*
X195326000Y-87782400D03*
X194056000Y-85242400D03*
X188976000Y-85242400D03*
D16*
X191516000Y-90322400D03*
D17*
X186436000Y-90322400D03*
X196596000Y-90322400D03*
D14*
X187706000Y-87782400D03*
D15*
X194252629Y-85613606D02*
X195129371Y-87411194D01*
D12*
X186016000Y-71272400D03*
X197016000Y-71272400D03*
D13*
X186296000Y-67072400D03*
X196736000Y-67072400D03*
D14*
X196516000Y-75072400D03*
X186516000Y-75072400D03*
X191516000Y-77172400D03*
D15*
X188779371Y-66563606D02*
X187902629Y-68361194D01*
D14*
X195326000Y-68732400D03*
X194056000Y-66192400D03*
X188976000Y-66192400D03*
D16*
X191516000Y-71272400D03*
D17*
X186436000Y-71272400D03*
X196596000Y-71272400D03*
D14*
X187706000Y-68732400D03*
D15*
X194252629Y-66563606D02*
X195129371Y-68361194D01*
D12*
X166966000Y-99847400D03*
X177966000Y-99847400D03*
D13*
X167246000Y-95647400D03*
X177686000Y-95647400D03*
D14*
X177466000Y-103647400D03*
X167466000Y-103647400D03*
X172466000Y-105747400D03*
D15*
X169729371Y-95138606D02*
X168852629Y-96936194D01*
D14*
X176276000Y-97307400D03*
X175006000Y-94767400D03*
X169926000Y-94767400D03*
D16*
X172466000Y-99847400D03*
D17*
X167386000Y-99847400D03*
X177546000Y-99847400D03*
D14*
X168656000Y-97307400D03*
D15*
X175202629Y-95138606D02*
X176079371Y-96936194D01*
D12*
X166966000Y-80797400D03*
X177966000Y-80797400D03*
D13*
X167246000Y-76597400D03*
X177686000Y-76597400D03*
D14*
X177466000Y-84597400D03*
X167466000Y-84597400D03*
X172466000Y-86697400D03*
D15*
X169729371Y-76088606D02*
X168852629Y-77886194D01*
D14*
X176276000Y-78257400D03*
X175006000Y-75717400D03*
X169926000Y-75717400D03*
D16*
X172466000Y-80797400D03*
D17*
X167386000Y-80797400D03*
X177546000Y-80797400D03*
D14*
X168656000Y-78257400D03*
D15*
X175202629Y-76088606D02*
X176079371Y-77886194D01*
D12*
X166966000Y-61747400D03*
X177966000Y-61747400D03*
D13*
X167246000Y-57547400D03*
X177686000Y-57547400D03*
D14*
X177466000Y-65547400D03*
X167466000Y-65547400D03*
X172466000Y-67647400D03*
D15*
X169729371Y-57038606D02*
X168852629Y-58836194D01*
D14*
X176276000Y-59207400D03*
X175006000Y-56667400D03*
X169926000Y-56667400D03*
D16*
X172466000Y-61747400D03*
D17*
X167386000Y-61747400D03*
X177546000Y-61747400D03*
D14*
X168656000Y-59207400D03*
D15*
X175202629Y-57038606D02*
X176079371Y-58836194D01*
D12*
X147916000Y-97485200D03*
X158916000Y-97485200D03*
D13*
X148196000Y-93285200D03*
X158636000Y-93285200D03*
D14*
X158416000Y-101285200D03*
X148416000Y-101285200D03*
X153416000Y-103385200D03*
D15*
X150679371Y-92776406D02*
X149802629Y-94573994D01*
D14*
X157226000Y-94945200D03*
X155956000Y-92405200D03*
X150876000Y-92405200D03*
D16*
X153416000Y-97485200D03*
D17*
X148336000Y-97485200D03*
X158496000Y-97485200D03*
D14*
X149606000Y-94945200D03*
D15*
X156152629Y-92776406D02*
X157029371Y-94573994D01*
D12*
X147916000Y-78435200D03*
X158916000Y-78435200D03*
D13*
X148196000Y-74235200D03*
X158636000Y-74235200D03*
D14*
X158416000Y-82235200D03*
X148416000Y-82235200D03*
X153416000Y-84335200D03*
D15*
X150679371Y-73726406D02*
X149802629Y-75523994D01*
D14*
X157226000Y-75895200D03*
X155956000Y-73355200D03*
X150876000Y-73355200D03*
D16*
X153416000Y-78435200D03*
D17*
X148336000Y-78435200D03*
X158496000Y-78435200D03*
D14*
X149606000Y-75895200D03*
D15*
X156152629Y-73726406D02*
X157029371Y-75523994D01*
D12*
X147916000Y-59385200D03*
X158916000Y-59385200D03*
D13*
X148196000Y-55185200D03*
X158636000Y-55185200D03*
D14*
X158416000Y-63185200D03*
X148416000Y-63185200D03*
X153416000Y-65285200D03*
D15*
X150679371Y-54676406D02*
X149802629Y-56473994D01*
D14*
X157226000Y-56845200D03*
X155956000Y-54305200D03*
X150876000Y-54305200D03*
D16*
X153416000Y-59385200D03*
D17*
X148336000Y-59385200D03*
X158496000Y-59385200D03*
D14*
X149606000Y-56845200D03*
D15*
X156152629Y-54676406D02*
X157029371Y-56473994D01*
D12*
X128866000Y-73660000D03*
X139866000Y-73660000D03*
D13*
X129146000Y-69460000D03*
X139586000Y-69460000D03*
D14*
X139366000Y-77460000D03*
X129366000Y-77460000D03*
X134366000Y-79560000D03*
D15*
X131629371Y-68951206D02*
X130752629Y-70748794D01*
D14*
X138176000Y-71120000D03*
X136906000Y-68580000D03*
X131826000Y-68580000D03*
D16*
X134366000Y-73660000D03*
D17*
X129286000Y-73660000D03*
X139446000Y-73660000D03*
D14*
X130556000Y-71120000D03*
D15*
X137102629Y-68951206D02*
X137979371Y-70748794D01*
D12*
X109816000Y-95097600D03*
X120816000Y-95097600D03*
D13*
X110096000Y-90897600D03*
X120536000Y-90897600D03*
D14*
X120316000Y-98897600D03*
X110316000Y-98897600D03*
X115316000Y-100997600D03*
D15*
X112579371Y-90388806D02*
X111702629Y-92186394D01*
D14*
X119126000Y-92557600D03*
X117856000Y-90017600D03*
X112776000Y-90017600D03*
D16*
X115316000Y-95097600D03*
D17*
X110236000Y-95097600D03*
X120396000Y-95097600D03*
D14*
X111506000Y-92557600D03*
D15*
X118052629Y-90388806D02*
X118929371Y-92186394D01*
D12*
X109816000Y-76047600D03*
X120816000Y-76047600D03*
D13*
X110096000Y-71847600D03*
X120536000Y-71847600D03*
D14*
X120316000Y-79847600D03*
X110316000Y-79847600D03*
X115316000Y-81947600D03*
D15*
X112579371Y-71338806D02*
X111702629Y-73136394D01*
D14*
X119126000Y-73507600D03*
X117856000Y-70967600D03*
X112776000Y-70967600D03*
D16*
X115316000Y-76047600D03*
D17*
X110236000Y-76047600D03*
X120396000Y-76047600D03*
D14*
X111506000Y-73507600D03*
D15*
X118052629Y-71338806D02*
X118929371Y-73136394D01*
D12*
X90766000Y-80797400D03*
X101766000Y-80797400D03*
D13*
X91046000Y-76597400D03*
X101486000Y-76597400D03*
D14*
X101266000Y-84597400D03*
X91266000Y-84597400D03*
X96266000Y-86697400D03*
D15*
X93529371Y-76088606D02*
X92652629Y-77886194D01*
D14*
X100076000Y-78257400D03*
X98806000Y-75717400D03*
X93726000Y-75717400D03*
D16*
X96266000Y-80797400D03*
D17*
X91186000Y-80797400D03*
X101346000Y-80797400D03*
D14*
X92456000Y-78257400D03*
D15*
X99002629Y-76088606D02*
X99879371Y-77886194D01*
D12*
X90766000Y-61747400D03*
X101766000Y-61747400D03*
D13*
X91046000Y-57547400D03*
X101486000Y-57547400D03*
D14*
X101266000Y-65547400D03*
X91266000Y-65547400D03*
X96266000Y-67647400D03*
D15*
X93529371Y-57038606D02*
X92652629Y-58836194D01*
D14*
X100076000Y-59207400D03*
X98806000Y-56667400D03*
X93726000Y-56667400D03*
D16*
X96266000Y-61747400D03*
D17*
X91186000Y-61747400D03*
X101346000Y-61747400D03*
D14*
X92456000Y-59207400D03*
D15*
X99002629Y-57038606D02*
X99879371Y-58836194D01*
D12*
X71716000Y-99847400D03*
X82716000Y-99847400D03*
D13*
X71996000Y-95647400D03*
X82436000Y-95647400D03*
D14*
X82216000Y-103647400D03*
X72216000Y-103647400D03*
X77216000Y-105747400D03*
D15*
X74479371Y-95138606D02*
X73602629Y-96936194D01*
D14*
X81026000Y-97307400D03*
X79756000Y-94767400D03*
X74676000Y-94767400D03*
D16*
X77216000Y-99847400D03*
D17*
X72136000Y-99847400D03*
X82296000Y-99847400D03*
D14*
X73406000Y-97307400D03*
D15*
X79952629Y-95138606D02*
X80829371Y-96936194D01*
D12*
X71716000Y-80797400D03*
X82716000Y-80797400D03*
D13*
X71996000Y-76597400D03*
X82436000Y-76597400D03*
D14*
X82216000Y-84597400D03*
X72216000Y-84597400D03*
X77216000Y-86697400D03*
D15*
X74479371Y-76088606D02*
X73602629Y-77886194D01*
D14*
X81026000Y-78257400D03*
X79756000Y-75717400D03*
X74676000Y-75717400D03*
D16*
X77216000Y-80797400D03*
D17*
X72136000Y-80797400D03*
X82296000Y-80797400D03*
D14*
X73406000Y-78257400D03*
D15*
X79952629Y-76088606D02*
X80829371Y-77886194D01*
D20*
X86741000Y-117856000D03*
D21*
X94519000Y-125634000D03*
D22*
X105664000Y-118389400D03*
D23*
X103124000Y-118389400D03*
X100584000Y-118389400D03*
D24*
X98044000Y-118389400D03*
D25*
X86741000Y-71247000D03*
X86741000Y-90297000D03*
X143891000Y-66802000D03*
X183007000Y-79629000D03*
X183134000Y-111760000D03*
D26*
X112577000Y-120904000D03*
X109927000Y-119954000D03*
X109927000Y-121854000D03*
D13*
X110744000Y-124500000D03*
X114744000Y-124500000D03*
X112744000Y-124500000D03*
D27*
X130746000Y-120043000D03*
X130046000Y-120043000D03*
X125846000Y-120043000D03*
X125146000Y-120043000D03*
X124446000Y-120043000D03*
X123746000Y-120043000D03*
X123046000Y-120043000D03*
X122346000Y-120043000D03*
X121646000Y-120043000D03*
X120946000Y-120043000D03*
X120246000Y-120043000D03*
X119546000Y-120043000D03*
D28*
X118146000Y-119643000D03*
X118146000Y-118943000D03*
X118146000Y-117543000D03*
X118146000Y-116843000D03*
X118146000Y-116143000D03*
X118146000Y-115443000D03*
X118146000Y-114743000D03*
X118146000Y-114043000D03*
X118146000Y-113343000D03*
X118146000Y-112643000D03*
X118146000Y-111943000D03*
X118146000Y-111243000D03*
D27*
X119546000Y-110843000D03*
X120246000Y-110843000D03*
X120946000Y-110843000D03*
X121646000Y-110843000D03*
X122346000Y-110843000D03*
X123046000Y-110843000D03*
X123746000Y-110843000D03*
X124446000Y-110843000D03*
X125146000Y-110843000D03*
X125846000Y-110843000D03*
X126546000Y-110843000D03*
X127246000Y-110843000D03*
X127946000Y-110843000D03*
X128646000Y-110843000D03*
X129346000Y-110843000D03*
X130046000Y-110843000D03*
X130746000Y-110843000D03*
D29*
X130750000Y-112390000D03*
X122834400Y-114909600D03*
X130750000Y-121760000D03*
X117740000Y-121290000D03*
X114750000Y-118650000D03*
X115824000Y-111252000D03*
D30*
X125850000Y-115340000D03*
X125840000Y-109490000D03*
X126560000Y-115900000D03*
X126550000Y-109490000D03*
X119496000Y-116148000D03*
X119496000Y-113338000D03*
X125150000Y-112200000D03*
X119496000Y-116848000D03*
X118710000Y-110440000D03*
X127250000Y-115350000D03*
X119496000Y-117548000D03*
X120250000Y-112100000D03*
X122346000Y-118698000D03*
X119496000Y-115448000D03*
X122346000Y-112198000D03*
X127950000Y-115900000D03*
X119496000Y-114038000D03*
X123050000Y-112200000D03*
X128650000Y-115350000D03*
X125146000Y-118698000D03*
X119496000Y-114748000D03*
X123750000Y-112200000D03*
X129350000Y-115900000D03*
X124446000Y-118698000D03*
X124450000Y-112200000D03*
X123046000Y-118698000D03*
X123746000Y-118698000D03*
M02*
