G04 #@! TF.GenerationSoftware,KiCad,Pcbnew,(5.0.1)-3*
G04 #@! TF.CreationDate,2018-12-01T20:49:26+09:00*
G04 #@! TF.ProjectId,comet46,636F6D657434362E6B696361645F7063,rev?*
G04 #@! TF.SameCoordinates,PX2faf080PY2faf080*
G04 #@! TF.FileFunction,Legend,Top*
G04 #@! TF.FilePolarity,Positive*
%FSLAX46Y46*%
G04 Gerber Fmt 4.6, Leading zero omitted, Abs format (unit mm)*
G04 Created by KiCad (PCBNEW (5.0.1)-3) date 2018/12/01 20:49:26*
%MOMM*%
%LPD*%
G01*
G04 APERTURE LIST*
%ADD10C,0.120000*%
%ADD11C,0.150000*%
%ADD12R,2.100000X2.100000*%
%ADD13O,2.100000X2.100000*%
%ADD14C,2.100000*%
%ADD15R,1.200000X1.300000*%
%ADD16R,2.000000X0.800000*%
%ADD17R,0.800000X2.000000*%
%ADD18C,0.100000*%
%ADD19C,1.350000*%
%ADD20C,1.930000*%
%ADD21C,2.330000*%
%ADD22O,3.900000X2.600000*%
%ADD23C,1.400000*%
%ADD24C,0.900000*%
G04 APERTURE END LIST*
D10*
G04 #@! TO.C,J2*
X36210000Y-330000D02*
X36210000Y-1600000D01*
X36210000Y-330000D02*
X37480000Y-330000D01*
G04 #@! TO.C,U3*
X24180000Y-5040000D02*
X24180000Y-6500000D01*
X21020000Y-5040000D02*
X21020000Y-7200000D01*
X21020000Y-5040000D02*
X21950000Y-5040000D01*
X24180000Y-5040000D02*
X23250000Y-5040000D01*
D11*
G04 #@! TO.C,U1*
X29900000Y-3800000D02*
X29400000Y-3800000D01*
X47100000Y-3800000D02*
X43400000Y-3800000D01*
X29400000Y-3800000D02*
X29400000Y-4100000D01*
X43400000Y-13800000D02*
X47100000Y-13800000D01*
D10*
G04 #@! TO.C,R2*
X25528733Y-11710000D02*
X25871267Y-11710000D01*
X25528733Y-10690000D02*
X25871267Y-10690000D01*
G04 #@! TO.C,C3*
X24228733Y-1690000D02*
X24571267Y-1690000D01*
X24228733Y-2710000D02*
X24571267Y-2710000D01*
G04 #@! TO.C,C4*
X19290000Y-7821267D02*
X19290000Y-7478733D01*
X20310000Y-7821267D02*
X20310000Y-7478733D01*
G04 #@! TO.C,C5*
X24990000Y-7021267D02*
X24990000Y-6678733D01*
X26010000Y-7021267D02*
X26010000Y-6678733D01*
G04 #@! TO.C,J3*
X8130000Y-2930000D02*
X9400000Y-2930000D01*
X8130000Y-4200000D02*
X8130000Y-2930000D01*
G04 #@! TO.C,J1*
X4220000Y-12400000D02*
X4220000Y-3600000D01*
X1050000Y-14145000D02*
X0Y-14145000D01*
X1050000Y-1855000D02*
X0Y-1855000D01*
G04 #@! TO.C,R3*
X24071267Y-10010000D02*
X23728733Y-10010000D01*
X24071267Y-8990000D02*
X23728733Y-8990000D01*
G04 #@! TO.C,J2*
D11*
X34866666Y-1052380D02*
X34866666Y-1766666D01*
X34819047Y-1909523D01*
X34723809Y-2004761D01*
X34580952Y-2052380D01*
X34485714Y-2052380D01*
X35295238Y-1147619D02*
X35342857Y-1100000D01*
X35438095Y-1052380D01*
X35676190Y-1052380D01*
X35771428Y-1100000D01*
X35819047Y-1147619D01*
X35866666Y-1242857D01*
X35866666Y-1338095D01*
X35819047Y-1480952D01*
X35247619Y-2052380D01*
X35866666Y-2052380D01*
G04 #@! TO.C,U3*
X21838095Y-7652380D02*
X21838095Y-8461904D01*
X21885714Y-8557142D01*
X21933333Y-8604761D01*
X22028571Y-8652380D01*
X22219047Y-8652380D01*
X22314285Y-8604761D01*
X22361904Y-8557142D01*
X22409523Y-8461904D01*
X22409523Y-7652380D01*
X22790476Y-7652380D02*
X23409523Y-7652380D01*
X23076190Y-8033333D01*
X23219047Y-8033333D01*
X23314285Y-8080952D01*
X23361904Y-8128571D01*
X23409523Y-8223809D01*
X23409523Y-8461904D01*
X23361904Y-8557142D01*
X23314285Y-8604761D01*
X23219047Y-8652380D01*
X22933333Y-8652380D01*
X22838095Y-8604761D01*
X22790476Y-8557142D01*
G04 #@! TO.C,R2*
X25533333Y-13052380D02*
X25200000Y-12576190D01*
X24961904Y-13052380D02*
X24961904Y-12052380D01*
X25342857Y-12052380D01*
X25438095Y-12100000D01*
X25485714Y-12147619D01*
X25533333Y-12242857D01*
X25533333Y-12385714D01*
X25485714Y-12480952D01*
X25438095Y-12528571D01*
X25342857Y-12576190D01*
X24961904Y-12576190D01*
X25914285Y-12147619D02*
X25961904Y-12100000D01*
X26057142Y-12052380D01*
X26295238Y-12052380D01*
X26390476Y-12100000D01*
X26438095Y-12147619D01*
X26485714Y-12242857D01*
X26485714Y-12338095D01*
X26438095Y-12480952D01*
X25866666Y-13052380D01*
X26485714Y-13052380D01*
G04 #@! TO.C,C3*
X21433333Y-2557142D02*
X21385714Y-2604761D01*
X21242857Y-2652380D01*
X21147619Y-2652380D01*
X21004761Y-2604761D01*
X20909523Y-2509523D01*
X20861904Y-2414285D01*
X20814285Y-2223809D01*
X20814285Y-2080952D01*
X20861904Y-1890476D01*
X20909523Y-1795238D01*
X21004761Y-1700000D01*
X21147619Y-1652380D01*
X21242857Y-1652380D01*
X21385714Y-1700000D01*
X21433333Y-1747619D01*
X21766666Y-1652380D02*
X22385714Y-1652380D01*
X22052380Y-2033333D01*
X22195238Y-2033333D01*
X22290476Y-2080952D01*
X22338095Y-2128571D01*
X22385714Y-2223809D01*
X22385714Y-2461904D01*
X22338095Y-2557142D01*
X22290476Y-2604761D01*
X22195238Y-2652380D01*
X21909523Y-2652380D01*
X21814285Y-2604761D01*
X21766666Y-2557142D01*
G04 #@! TO.C,C4*
X18727142Y-7816666D02*
X18774761Y-7864285D01*
X18822380Y-8007142D01*
X18822380Y-8102380D01*
X18774761Y-8245238D01*
X18679523Y-8340476D01*
X18584285Y-8388095D01*
X18393809Y-8435714D01*
X18250952Y-8435714D01*
X18060476Y-8388095D01*
X17965238Y-8340476D01*
X17870000Y-8245238D01*
X17822380Y-8102380D01*
X17822380Y-8007142D01*
X17870000Y-7864285D01*
X17917619Y-7816666D01*
X18155714Y-6959523D02*
X18822380Y-6959523D01*
X17774761Y-7197619D02*
X18489047Y-7435714D01*
X18489047Y-6816666D01*
G04 #@! TO.C,C5*
X27357142Y-6516666D02*
X27404761Y-6564285D01*
X27452380Y-6707142D01*
X27452380Y-6802380D01*
X27404761Y-6945238D01*
X27309523Y-7040476D01*
X27214285Y-7088095D01*
X27023809Y-7135714D01*
X26880952Y-7135714D01*
X26690476Y-7088095D01*
X26595238Y-7040476D01*
X26500000Y-6945238D01*
X26452380Y-6802380D01*
X26452380Y-6707142D01*
X26500000Y-6564285D01*
X26547619Y-6516666D01*
X26452380Y-5611904D02*
X26452380Y-6088095D01*
X26928571Y-6135714D01*
X26880952Y-6088095D01*
X26833333Y-5992857D01*
X26833333Y-5754761D01*
X26880952Y-5659523D01*
X26928571Y-5611904D01*
X27023809Y-5564285D01*
X27261904Y-5564285D01*
X27357142Y-5611904D01*
X27404761Y-5659523D01*
X27452380Y-5754761D01*
X27452380Y-5992857D01*
X27404761Y-6088095D01*
X27357142Y-6135714D01*
G04 #@! TO.C,J3*
X11052380Y-8333333D02*
X11766666Y-8333333D01*
X11909523Y-8380952D01*
X12004761Y-8476190D01*
X12052380Y-8619047D01*
X12052380Y-8714285D01*
X11052380Y-7952380D02*
X11052380Y-7333333D01*
X11433333Y-7666666D01*
X11433333Y-7523809D01*
X11480952Y-7428571D01*
X11528571Y-7380952D01*
X11623809Y-7333333D01*
X11861904Y-7333333D01*
X11957142Y-7380952D01*
X12004761Y-7428571D01*
X12052380Y-7523809D01*
X12052380Y-7809523D01*
X12004761Y-7904761D01*
X11957142Y-7952380D01*
G04 #@! TO.C,J1*
X2552380Y-8333333D02*
X3266666Y-8333333D01*
X3409523Y-8380952D01*
X3504761Y-8476190D01*
X3552380Y-8619047D01*
X3552380Y-8714285D01*
X3552380Y-7333333D02*
X3552380Y-7904761D01*
X3552380Y-7619047D02*
X2552380Y-7619047D01*
X2695238Y-7714285D01*
X2790476Y-7809523D01*
X2838095Y-7904761D01*
G04 #@! TO.C,R3*
X22133333Y-11452380D02*
X21800000Y-10976190D01*
X21561904Y-11452380D02*
X21561904Y-10452380D01*
X21942857Y-10452380D01*
X22038095Y-10500000D01*
X22085714Y-10547619D01*
X22133333Y-10642857D01*
X22133333Y-10785714D01*
X22085714Y-10880952D01*
X22038095Y-10928571D01*
X21942857Y-10976190D01*
X21561904Y-10976190D01*
X22466666Y-10452380D02*
X23085714Y-10452380D01*
X22752380Y-10833333D01*
X22895238Y-10833333D01*
X22990476Y-10880952D01*
X23038095Y-10928571D01*
X23085714Y-11023809D01*
X23085714Y-11261904D01*
X23038095Y-11357142D01*
X22990476Y-11404761D01*
X22895238Y-11452380D01*
X22609523Y-11452380D01*
X22514285Y-11404761D01*
X22466666Y-11357142D01*
G04 #@! TD*
%LPC*%
D12*
G04 #@! TO.C,J2*
X37480000Y-1600000D03*
D13*
X40020000Y-1600000D03*
X42560000Y-1600000D03*
D14*
X45100000Y-1600000D03*
G04 #@! TD*
D15*
G04 #@! TO.C,U3*
X22600000Y-4800000D03*
X23550000Y-6800000D03*
X21650000Y-6800000D03*
G04 #@! TD*
D16*
G04 #@! TO.C,U1*
X29700000Y-6000000D03*
D17*
X42400000Y-4100000D03*
X41700000Y-4100000D03*
X37500000Y-4100000D03*
X36800000Y-4100000D03*
X36100000Y-4100000D03*
X35400000Y-4100000D03*
X34700000Y-4100000D03*
X34000000Y-4100000D03*
X33300000Y-4100000D03*
X32600000Y-4100000D03*
X31900000Y-4100000D03*
X31200000Y-4100000D03*
D16*
X29700000Y-4600000D03*
X29700000Y-5300000D03*
X29700000Y-6700000D03*
X29700000Y-7400000D03*
X29700000Y-8100000D03*
X29700000Y-8800000D03*
X29700000Y-9500000D03*
X29700000Y-10200000D03*
X29700000Y-10900000D03*
X29700000Y-11600000D03*
X29700000Y-12300000D03*
X29700000Y-13000000D03*
D17*
X31200000Y-13500000D03*
X31900000Y-13500000D03*
X32600000Y-13500000D03*
X33300000Y-13500000D03*
X34000000Y-13500000D03*
X34700000Y-13500000D03*
X35400000Y-13500000D03*
X36100000Y-13500000D03*
X36800000Y-13500000D03*
X37500000Y-13500000D03*
X38200000Y-13500000D03*
X38900000Y-13500000D03*
X39600000Y-13500000D03*
X40300000Y-13500000D03*
X41000000Y-13500000D03*
X41700000Y-13500000D03*
X42400000Y-13500000D03*
G04 #@! TD*
D18*
G04 #@! TO.C,R2*
G36*
X26995581Y-10526625D02*
X27028343Y-10531485D01*
X27060471Y-10539533D01*
X27091656Y-10550691D01*
X27121596Y-10564852D01*
X27150005Y-10581879D01*
X27176608Y-10601609D01*
X27201149Y-10623851D01*
X27223391Y-10648392D01*
X27243121Y-10674995D01*
X27260148Y-10703404D01*
X27274309Y-10733344D01*
X27285467Y-10764529D01*
X27293515Y-10796657D01*
X27298375Y-10829419D01*
X27300000Y-10862500D01*
X27300000Y-11537500D01*
X27298375Y-11570581D01*
X27293515Y-11603343D01*
X27285467Y-11635471D01*
X27274309Y-11666656D01*
X27260148Y-11696596D01*
X27243121Y-11725005D01*
X27223391Y-11751608D01*
X27201149Y-11776149D01*
X27176608Y-11798391D01*
X27150005Y-11818121D01*
X27121596Y-11835148D01*
X27091656Y-11849309D01*
X27060471Y-11860467D01*
X27028343Y-11868515D01*
X26995581Y-11873375D01*
X26962500Y-11875000D01*
X26187500Y-11875000D01*
X26154419Y-11873375D01*
X26121657Y-11868515D01*
X26089529Y-11860467D01*
X26058344Y-11849309D01*
X26028404Y-11835148D01*
X25999995Y-11818121D01*
X25973392Y-11798391D01*
X25948851Y-11776149D01*
X25926609Y-11751608D01*
X25906879Y-11725005D01*
X25889852Y-11696596D01*
X25875691Y-11666656D01*
X25864533Y-11635471D01*
X25856485Y-11603343D01*
X25851625Y-11570581D01*
X25850000Y-11537500D01*
X25850000Y-10862500D01*
X25851625Y-10829419D01*
X25856485Y-10796657D01*
X25864533Y-10764529D01*
X25875691Y-10733344D01*
X25889852Y-10703404D01*
X25906879Y-10674995D01*
X25926609Y-10648392D01*
X25948851Y-10623851D01*
X25973392Y-10601609D01*
X25999995Y-10581879D01*
X26028404Y-10564852D01*
X26058344Y-10550691D01*
X26089529Y-10539533D01*
X26121657Y-10531485D01*
X26154419Y-10526625D01*
X26187500Y-10525000D01*
X26962500Y-10525000D01*
X26995581Y-10526625D01*
X26995581Y-10526625D01*
G37*
D19*
X26575000Y-11200000D03*
D18*
G36*
X25245581Y-10526625D02*
X25278343Y-10531485D01*
X25310471Y-10539533D01*
X25341656Y-10550691D01*
X25371596Y-10564852D01*
X25400005Y-10581879D01*
X25426608Y-10601609D01*
X25451149Y-10623851D01*
X25473391Y-10648392D01*
X25493121Y-10674995D01*
X25510148Y-10703404D01*
X25524309Y-10733344D01*
X25535467Y-10764529D01*
X25543515Y-10796657D01*
X25548375Y-10829419D01*
X25550000Y-10862500D01*
X25550000Y-11537500D01*
X25548375Y-11570581D01*
X25543515Y-11603343D01*
X25535467Y-11635471D01*
X25524309Y-11666656D01*
X25510148Y-11696596D01*
X25493121Y-11725005D01*
X25473391Y-11751608D01*
X25451149Y-11776149D01*
X25426608Y-11798391D01*
X25400005Y-11818121D01*
X25371596Y-11835148D01*
X25341656Y-11849309D01*
X25310471Y-11860467D01*
X25278343Y-11868515D01*
X25245581Y-11873375D01*
X25212500Y-11875000D01*
X24437500Y-11875000D01*
X24404419Y-11873375D01*
X24371657Y-11868515D01*
X24339529Y-11860467D01*
X24308344Y-11849309D01*
X24278404Y-11835148D01*
X24249995Y-11818121D01*
X24223392Y-11798391D01*
X24198851Y-11776149D01*
X24176609Y-11751608D01*
X24156879Y-11725005D01*
X24139852Y-11696596D01*
X24125691Y-11666656D01*
X24114533Y-11635471D01*
X24106485Y-11603343D01*
X24101625Y-11570581D01*
X24100000Y-11537500D01*
X24100000Y-10862500D01*
X24101625Y-10829419D01*
X24106485Y-10796657D01*
X24114533Y-10764529D01*
X24125691Y-10733344D01*
X24139852Y-10703404D01*
X24156879Y-10674995D01*
X24176609Y-10648392D01*
X24198851Y-10623851D01*
X24223392Y-10601609D01*
X24249995Y-10581879D01*
X24278404Y-10564852D01*
X24308344Y-10550691D01*
X24339529Y-10539533D01*
X24371657Y-10531485D01*
X24404419Y-10526625D01*
X24437500Y-10525000D01*
X25212500Y-10525000D01*
X25245581Y-10526625D01*
X25245581Y-10526625D01*
G37*
D19*
X24825000Y-11200000D03*
G04 #@! TD*
D18*
G04 #@! TO.C,C3*
G36*
X23945581Y-1526625D02*
X23978343Y-1531485D01*
X24010471Y-1539533D01*
X24041656Y-1550691D01*
X24071596Y-1564852D01*
X24100005Y-1581879D01*
X24126608Y-1601609D01*
X24151149Y-1623851D01*
X24173391Y-1648392D01*
X24193121Y-1674995D01*
X24210148Y-1703404D01*
X24224309Y-1733344D01*
X24235467Y-1764529D01*
X24243515Y-1796657D01*
X24248375Y-1829419D01*
X24250000Y-1862500D01*
X24250000Y-2537500D01*
X24248375Y-2570581D01*
X24243515Y-2603343D01*
X24235467Y-2635471D01*
X24224309Y-2666656D01*
X24210148Y-2696596D01*
X24193121Y-2725005D01*
X24173391Y-2751608D01*
X24151149Y-2776149D01*
X24126608Y-2798391D01*
X24100005Y-2818121D01*
X24071596Y-2835148D01*
X24041656Y-2849309D01*
X24010471Y-2860467D01*
X23978343Y-2868515D01*
X23945581Y-2873375D01*
X23912500Y-2875000D01*
X23137500Y-2875000D01*
X23104419Y-2873375D01*
X23071657Y-2868515D01*
X23039529Y-2860467D01*
X23008344Y-2849309D01*
X22978404Y-2835148D01*
X22949995Y-2818121D01*
X22923392Y-2798391D01*
X22898851Y-2776149D01*
X22876609Y-2751608D01*
X22856879Y-2725005D01*
X22839852Y-2696596D01*
X22825691Y-2666656D01*
X22814533Y-2635471D01*
X22806485Y-2603343D01*
X22801625Y-2570581D01*
X22800000Y-2537500D01*
X22800000Y-1862500D01*
X22801625Y-1829419D01*
X22806485Y-1796657D01*
X22814533Y-1764529D01*
X22825691Y-1733344D01*
X22839852Y-1703404D01*
X22856879Y-1674995D01*
X22876609Y-1648392D01*
X22898851Y-1623851D01*
X22923392Y-1601609D01*
X22949995Y-1581879D01*
X22978404Y-1564852D01*
X23008344Y-1550691D01*
X23039529Y-1539533D01*
X23071657Y-1531485D01*
X23104419Y-1526625D01*
X23137500Y-1525000D01*
X23912500Y-1525000D01*
X23945581Y-1526625D01*
X23945581Y-1526625D01*
G37*
D19*
X23525000Y-2200000D03*
D18*
G36*
X25695581Y-1526625D02*
X25728343Y-1531485D01*
X25760471Y-1539533D01*
X25791656Y-1550691D01*
X25821596Y-1564852D01*
X25850005Y-1581879D01*
X25876608Y-1601609D01*
X25901149Y-1623851D01*
X25923391Y-1648392D01*
X25943121Y-1674995D01*
X25960148Y-1703404D01*
X25974309Y-1733344D01*
X25985467Y-1764529D01*
X25993515Y-1796657D01*
X25998375Y-1829419D01*
X26000000Y-1862500D01*
X26000000Y-2537500D01*
X25998375Y-2570581D01*
X25993515Y-2603343D01*
X25985467Y-2635471D01*
X25974309Y-2666656D01*
X25960148Y-2696596D01*
X25943121Y-2725005D01*
X25923391Y-2751608D01*
X25901149Y-2776149D01*
X25876608Y-2798391D01*
X25850005Y-2818121D01*
X25821596Y-2835148D01*
X25791656Y-2849309D01*
X25760471Y-2860467D01*
X25728343Y-2868515D01*
X25695581Y-2873375D01*
X25662500Y-2875000D01*
X24887500Y-2875000D01*
X24854419Y-2873375D01*
X24821657Y-2868515D01*
X24789529Y-2860467D01*
X24758344Y-2849309D01*
X24728404Y-2835148D01*
X24699995Y-2818121D01*
X24673392Y-2798391D01*
X24648851Y-2776149D01*
X24626609Y-2751608D01*
X24606879Y-2725005D01*
X24589852Y-2696596D01*
X24575691Y-2666656D01*
X24564533Y-2635471D01*
X24556485Y-2603343D01*
X24551625Y-2570581D01*
X24550000Y-2537500D01*
X24550000Y-1862500D01*
X24551625Y-1829419D01*
X24556485Y-1796657D01*
X24564533Y-1764529D01*
X24575691Y-1733344D01*
X24589852Y-1703404D01*
X24606879Y-1674995D01*
X24626609Y-1648392D01*
X24648851Y-1623851D01*
X24673392Y-1601609D01*
X24699995Y-1581879D01*
X24728404Y-1564852D01*
X24758344Y-1550691D01*
X24789529Y-1539533D01*
X24821657Y-1531485D01*
X24854419Y-1526625D01*
X24887500Y-1525000D01*
X25662500Y-1525000D01*
X25695581Y-1526625D01*
X25695581Y-1526625D01*
G37*
D19*
X25275000Y-2200000D03*
G04 #@! TD*
D18*
G04 #@! TO.C,C4*
G36*
X20170581Y-7801625D02*
X20203343Y-7806485D01*
X20235471Y-7814533D01*
X20266656Y-7825691D01*
X20296596Y-7839852D01*
X20325005Y-7856879D01*
X20351608Y-7876609D01*
X20376149Y-7898851D01*
X20398391Y-7923392D01*
X20418121Y-7949995D01*
X20435148Y-7978404D01*
X20449309Y-8008344D01*
X20460467Y-8039529D01*
X20468515Y-8071657D01*
X20473375Y-8104419D01*
X20475000Y-8137500D01*
X20475000Y-8912500D01*
X20473375Y-8945581D01*
X20468515Y-8978343D01*
X20460467Y-9010471D01*
X20449309Y-9041656D01*
X20435148Y-9071596D01*
X20418121Y-9100005D01*
X20398391Y-9126608D01*
X20376149Y-9151149D01*
X20351608Y-9173391D01*
X20325005Y-9193121D01*
X20296596Y-9210148D01*
X20266656Y-9224309D01*
X20235471Y-9235467D01*
X20203343Y-9243515D01*
X20170581Y-9248375D01*
X20137500Y-9250000D01*
X19462500Y-9250000D01*
X19429419Y-9248375D01*
X19396657Y-9243515D01*
X19364529Y-9235467D01*
X19333344Y-9224309D01*
X19303404Y-9210148D01*
X19274995Y-9193121D01*
X19248392Y-9173391D01*
X19223851Y-9151149D01*
X19201609Y-9126608D01*
X19181879Y-9100005D01*
X19164852Y-9071596D01*
X19150691Y-9041656D01*
X19139533Y-9010471D01*
X19131485Y-8978343D01*
X19126625Y-8945581D01*
X19125000Y-8912500D01*
X19125000Y-8137500D01*
X19126625Y-8104419D01*
X19131485Y-8071657D01*
X19139533Y-8039529D01*
X19150691Y-8008344D01*
X19164852Y-7978404D01*
X19181879Y-7949995D01*
X19201609Y-7923392D01*
X19223851Y-7898851D01*
X19248392Y-7876609D01*
X19274995Y-7856879D01*
X19303404Y-7839852D01*
X19333344Y-7825691D01*
X19364529Y-7814533D01*
X19396657Y-7806485D01*
X19429419Y-7801625D01*
X19462500Y-7800000D01*
X20137500Y-7800000D01*
X20170581Y-7801625D01*
X20170581Y-7801625D01*
G37*
D19*
X19800000Y-8525000D03*
D18*
G36*
X20170581Y-6051625D02*
X20203343Y-6056485D01*
X20235471Y-6064533D01*
X20266656Y-6075691D01*
X20296596Y-6089852D01*
X20325005Y-6106879D01*
X20351608Y-6126609D01*
X20376149Y-6148851D01*
X20398391Y-6173392D01*
X20418121Y-6199995D01*
X20435148Y-6228404D01*
X20449309Y-6258344D01*
X20460467Y-6289529D01*
X20468515Y-6321657D01*
X20473375Y-6354419D01*
X20475000Y-6387500D01*
X20475000Y-7162500D01*
X20473375Y-7195581D01*
X20468515Y-7228343D01*
X20460467Y-7260471D01*
X20449309Y-7291656D01*
X20435148Y-7321596D01*
X20418121Y-7350005D01*
X20398391Y-7376608D01*
X20376149Y-7401149D01*
X20351608Y-7423391D01*
X20325005Y-7443121D01*
X20296596Y-7460148D01*
X20266656Y-7474309D01*
X20235471Y-7485467D01*
X20203343Y-7493515D01*
X20170581Y-7498375D01*
X20137500Y-7500000D01*
X19462500Y-7500000D01*
X19429419Y-7498375D01*
X19396657Y-7493515D01*
X19364529Y-7485467D01*
X19333344Y-7474309D01*
X19303404Y-7460148D01*
X19274995Y-7443121D01*
X19248392Y-7423391D01*
X19223851Y-7401149D01*
X19201609Y-7376608D01*
X19181879Y-7350005D01*
X19164852Y-7321596D01*
X19150691Y-7291656D01*
X19139533Y-7260471D01*
X19131485Y-7228343D01*
X19126625Y-7195581D01*
X19125000Y-7162500D01*
X19125000Y-6387500D01*
X19126625Y-6354419D01*
X19131485Y-6321657D01*
X19139533Y-6289529D01*
X19150691Y-6258344D01*
X19164852Y-6228404D01*
X19181879Y-6199995D01*
X19201609Y-6173392D01*
X19223851Y-6148851D01*
X19248392Y-6126609D01*
X19274995Y-6106879D01*
X19303404Y-6089852D01*
X19333344Y-6075691D01*
X19364529Y-6064533D01*
X19396657Y-6056485D01*
X19429419Y-6051625D01*
X19462500Y-6050000D01*
X20137500Y-6050000D01*
X20170581Y-6051625D01*
X20170581Y-6051625D01*
G37*
D19*
X19800000Y-6775000D03*
G04 #@! TD*
D18*
G04 #@! TO.C,C5*
G36*
X25870581Y-7001625D02*
X25903343Y-7006485D01*
X25935471Y-7014533D01*
X25966656Y-7025691D01*
X25996596Y-7039852D01*
X26025005Y-7056879D01*
X26051608Y-7076609D01*
X26076149Y-7098851D01*
X26098391Y-7123392D01*
X26118121Y-7149995D01*
X26135148Y-7178404D01*
X26149309Y-7208344D01*
X26160467Y-7239529D01*
X26168515Y-7271657D01*
X26173375Y-7304419D01*
X26175000Y-7337500D01*
X26175000Y-8112500D01*
X26173375Y-8145581D01*
X26168515Y-8178343D01*
X26160467Y-8210471D01*
X26149309Y-8241656D01*
X26135148Y-8271596D01*
X26118121Y-8300005D01*
X26098391Y-8326608D01*
X26076149Y-8351149D01*
X26051608Y-8373391D01*
X26025005Y-8393121D01*
X25996596Y-8410148D01*
X25966656Y-8424309D01*
X25935471Y-8435467D01*
X25903343Y-8443515D01*
X25870581Y-8448375D01*
X25837500Y-8450000D01*
X25162500Y-8450000D01*
X25129419Y-8448375D01*
X25096657Y-8443515D01*
X25064529Y-8435467D01*
X25033344Y-8424309D01*
X25003404Y-8410148D01*
X24974995Y-8393121D01*
X24948392Y-8373391D01*
X24923851Y-8351149D01*
X24901609Y-8326608D01*
X24881879Y-8300005D01*
X24864852Y-8271596D01*
X24850691Y-8241656D01*
X24839533Y-8210471D01*
X24831485Y-8178343D01*
X24826625Y-8145581D01*
X24825000Y-8112500D01*
X24825000Y-7337500D01*
X24826625Y-7304419D01*
X24831485Y-7271657D01*
X24839533Y-7239529D01*
X24850691Y-7208344D01*
X24864852Y-7178404D01*
X24881879Y-7149995D01*
X24901609Y-7123392D01*
X24923851Y-7098851D01*
X24948392Y-7076609D01*
X24974995Y-7056879D01*
X25003404Y-7039852D01*
X25033344Y-7025691D01*
X25064529Y-7014533D01*
X25096657Y-7006485D01*
X25129419Y-7001625D01*
X25162500Y-7000000D01*
X25837500Y-7000000D01*
X25870581Y-7001625D01*
X25870581Y-7001625D01*
G37*
D19*
X25500000Y-7725000D03*
D18*
G36*
X25870581Y-5251625D02*
X25903343Y-5256485D01*
X25935471Y-5264533D01*
X25966656Y-5275691D01*
X25996596Y-5289852D01*
X26025005Y-5306879D01*
X26051608Y-5326609D01*
X26076149Y-5348851D01*
X26098391Y-5373392D01*
X26118121Y-5399995D01*
X26135148Y-5428404D01*
X26149309Y-5458344D01*
X26160467Y-5489529D01*
X26168515Y-5521657D01*
X26173375Y-5554419D01*
X26175000Y-5587500D01*
X26175000Y-6362500D01*
X26173375Y-6395581D01*
X26168515Y-6428343D01*
X26160467Y-6460471D01*
X26149309Y-6491656D01*
X26135148Y-6521596D01*
X26118121Y-6550005D01*
X26098391Y-6576608D01*
X26076149Y-6601149D01*
X26051608Y-6623391D01*
X26025005Y-6643121D01*
X25996596Y-6660148D01*
X25966656Y-6674309D01*
X25935471Y-6685467D01*
X25903343Y-6693515D01*
X25870581Y-6698375D01*
X25837500Y-6700000D01*
X25162500Y-6700000D01*
X25129419Y-6698375D01*
X25096657Y-6693515D01*
X25064529Y-6685467D01*
X25033344Y-6674309D01*
X25003404Y-6660148D01*
X24974995Y-6643121D01*
X24948392Y-6623391D01*
X24923851Y-6601149D01*
X24901609Y-6576608D01*
X24881879Y-6550005D01*
X24864852Y-6521596D01*
X24850691Y-6491656D01*
X24839533Y-6460471D01*
X24831485Y-6428343D01*
X24826625Y-6395581D01*
X24825000Y-6362500D01*
X24825000Y-5587500D01*
X24826625Y-5554419D01*
X24831485Y-5521657D01*
X24839533Y-5489529D01*
X24850691Y-5458344D01*
X24864852Y-5428404D01*
X24881879Y-5399995D01*
X24901609Y-5373392D01*
X24923851Y-5348851D01*
X24948392Y-5326609D01*
X24974995Y-5306879D01*
X25003404Y-5289852D01*
X25033344Y-5275691D01*
X25064529Y-5264533D01*
X25096657Y-5256485D01*
X25129419Y-5251625D01*
X25162500Y-5250000D01*
X25837500Y-5250000D01*
X25870581Y-5251625D01*
X25870581Y-5251625D01*
G37*
D19*
X25500000Y-5975000D03*
G04 #@! TD*
D12*
G04 #@! TO.C,J3*
X9400000Y-11820000D03*
D13*
X9400000Y-9280000D03*
X9400000Y-6740000D03*
D14*
X9400000Y-4200000D03*
G04 #@! TD*
D20*
G04 #@! TO.C,J1*
X5850000Y-9000000D03*
X5850000Y-7000000D03*
D21*
X5850000Y-11500000D03*
X5850000Y-4500000D03*
D22*
X3100000Y-13850000D03*
X3100000Y-2150000D03*
D23*
X3100000Y-10250000D03*
X3100000Y-5750000D03*
G04 #@! TD*
D18*
G04 #@! TO.C,R3*
G36*
X25195581Y-8826625D02*
X25228343Y-8831485D01*
X25260471Y-8839533D01*
X25291656Y-8850691D01*
X25321596Y-8864852D01*
X25350005Y-8881879D01*
X25376608Y-8901609D01*
X25401149Y-8923851D01*
X25423391Y-8948392D01*
X25443121Y-8974995D01*
X25460148Y-9003404D01*
X25474309Y-9033344D01*
X25485467Y-9064529D01*
X25493515Y-9096657D01*
X25498375Y-9129419D01*
X25500000Y-9162500D01*
X25500000Y-9837500D01*
X25498375Y-9870581D01*
X25493515Y-9903343D01*
X25485467Y-9935471D01*
X25474309Y-9966656D01*
X25460148Y-9996596D01*
X25443121Y-10025005D01*
X25423391Y-10051608D01*
X25401149Y-10076149D01*
X25376608Y-10098391D01*
X25350005Y-10118121D01*
X25321596Y-10135148D01*
X25291656Y-10149309D01*
X25260471Y-10160467D01*
X25228343Y-10168515D01*
X25195581Y-10173375D01*
X25162500Y-10175000D01*
X24387500Y-10175000D01*
X24354419Y-10173375D01*
X24321657Y-10168515D01*
X24289529Y-10160467D01*
X24258344Y-10149309D01*
X24228404Y-10135148D01*
X24199995Y-10118121D01*
X24173392Y-10098391D01*
X24148851Y-10076149D01*
X24126609Y-10051608D01*
X24106879Y-10025005D01*
X24089852Y-9996596D01*
X24075691Y-9966656D01*
X24064533Y-9935471D01*
X24056485Y-9903343D01*
X24051625Y-9870581D01*
X24050000Y-9837500D01*
X24050000Y-9162500D01*
X24051625Y-9129419D01*
X24056485Y-9096657D01*
X24064533Y-9064529D01*
X24075691Y-9033344D01*
X24089852Y-9003404D01*
X24106879Y-8974995D01*
X24126609Y-8948392D01*
X24148851Y-8923851D01*
X24173392Y-8901609D01*
X24199995Y-8881879D01*
X24228404Y-8864852D01*
X24258344Y-8850691D01*
X24289529Y-8839533D01*
X24321657Y-8831485D01*
X24354419Y-8826625D01*
X24387500Y-8825000D01*
X25162500Y-8825000D01*
X25195581Y-8826625D01*
X25195581Y-8826625D01*
G37*
D19*
X24775000Y-9500000D03*
D18*
G36*
X23445581Y-8826625D02*
X23478343Y-8831485D01*
X23510471Y-8839533D01*
X23541656Y-8850691D01*
X23571596Y-8864852D01*
X23600005Y-8881879D01*
X23626608Y-8901609D01*
X23651149Y-8923851D01*
X23673391Y-8948392D01*
X23693121Y-8974995D01*
X23710148Y-9003404D01*
X23724309Y-9033344D01*
X23735467Y-9064529D01*
X23743515Y-9096657D01*
X23748375Y-9129419D01*
X23750000Y-9162500D01*
X23750000Y-9837500D01*
X23748375Y-9870581D01*
X23743515Y-9903343D01*
X23735467Y-9935471D01*
X23724309Y-9966656D01*
X23710148Y-9996596D01*
X23693121Y-10025005D01*
X23673391Y-10051608D01*
X23651149Y-10076149D01*
X23626608Y-10098391D01*
X23600005Y-10118121D01*
X23571596Y-10135148D01*
X23541656Y-10149309D01*
X23510471Y-10160467D01*
X23478343Y-10168515D01*
X23445581Y-10173375D01*
X23412500Y-10175000D01*
X22637500Y-10175000D01*
X22604419Y-10173375D01*
X22571657Y-10168515D01*
X22539529Y-10160467D01*
X22508344Y-10149309D01*
X22478404Y-10135148D01*
X22449995Y-10118121D01*
X22423392Y-10098391D01*
X22398851Y-10076149D01*
X22376609Y-10051608D01*
X22356879Y-10025005D01*
X22339852Y-9996596D01*
X22325691Y-9966656D01*
X22314533Y-9935471D01*
X22306485Y-9903343D01*
X22301625Y-9870581D01*
X22300000Y-9837500D01*
X22300000Y-9162500D01*
X22301625Y-9129419D01*
X22306485Y-9096657D01*
X22314533Y-9064529D01*
X22325691Y-9033344D01*
X22339852Y-9003404D01*
X22356879Y-8974995D01*
X22376609Y-8948392D01*
X22398851Y-8923851D01*
X22423392Y-8901609D01*
X22449995Y-8881879D01*
X22478404Y-8864852D01*
X22508344Y-8850691D01*
X22539529Y-8839533D01*
X22571657Y-8831485D01*
X22604419Y-8826625D01*
X22637500Y-8825000D01*
X23412500Y-8825000D01*
X23445581Y-8826625D01*
X23445581Y-8826625D01*
G37*
D19*
X23025000Y-9500000D03*
G04 #@! TD*
D24*
X27500000Y-12300000D03*
X14000000Y-15100000D03*
X14000000Y-15100000D03*
X14000000Y-10700000D03*
X25300000Y-800000D03*
X40450000Y-14900000D03*
X40500000Y-11200000D03*
X32200000Y-8200000D03*
X17800000Y-13875000D03*
X32400000Y-11600000D03*
X39800000Y-5600004D03*
X25200114Y-3600000D03*
X29600022Y-3049978D03*
X19800000Y-9600000D03*
X19800006Y-5000000D03*
X27800000Y-11200000D03*
X27100000Y-7950000D03*
X13700000Y-7900000D03*
X30150000Y-14000000D03*
X29250000Y-13799990D03*
X14050000Y-6300000D03*
X20650000Y-3800000D03*
X23500000Y-3600000D03*
M02*
