G04 #@! TF.GenerationSoftware,KiCad,Pcbnew,(5.0.1)-3*
G04 #@! TF.CreationDate,2018-12-01T20:49:27+09:00*
G04 #@! TF.ProjectId,comet46,636F6D657434362E6B696361645F7063,rev?*
G04 #@! TF.SameCoordinates,PX2faf080PY2faf080*
G04 #@! TF.FileFunction,Soldermask,Bot*
G04 #@! TF.FilePolarity,Negative*
%FSLAX46Y46*%
G04 Gerber Fmt 4.6, Leading zero omitted, Abs format (unit mm)*
G04 Created by KiCad (PCBNEW (5.0.1)-3) date 2018/12/01 20:49:27*
%MOMM*%
%LPD*%
G01*
G04 APERTURE LIST*
%ADD10C,0.100000*%
G04 APERTURE END LIST*
D10*
G36*
X14453530Y-13155877D02*
X14505010Y-13171493D01*
X14552442Y-13196846D01*
X14594027Y-13230973D01*
X14628154Y-13272558D01*
X14653507Y-13319990D01*
X14669123Y-13371470D01*
X14675000Y-13431140D01*
X14675000Y-14318860D01*
X14669123Y-14378530D01*
X14653507Y-14430010D01*
X14628154Y-14477442D01*
X14594027Y-14519027D01*
X14552442Y-14553154D01*
X14505010Y-14578507D01*
X14453530Y-14594123D01*
X14422499Y-14597179D01*
X14398465Y-14601959D01*
X14375826Y-14611336D01*
X14355452Y-14624950D01*
X14338124Y-14642277D01*
X14324510Y-14662652D01*
X14315133Y-14685291D01*
X14310352Y-14709324D01*
X14310352Y-14733828D01*
X14315132Y-14757862D01*
X14324509Y-14780501D01*
X14338123Y-14800875D01*
X14346362Y-14809965D01*
X14349536Y-14813139D01*
X14398785Y-14886845D01*
X14432707Y-14968740D01*
X14450000Y-15055678D01*
X14450000Y-15144322D01*
X14432707Y-15231260D01*
X14398785Y-15313155D01*
X14349536Y-15386861D01*
X14286861Y-15449536D01*
X14213155Y-15498785D01*
X14131260Y-15532707D01*
X14044322Y-15550000D01*
X13955678Y-15550000D01*
X13868740Y-15532707D01*
X13786845Y-15498785D01*
X13713139Y-15449536D01*
X13650464Y-15386861D01*
X13601215Y-15313155D01*
X13567293Y-15231260D01*
X13550000Y-15144322D01*
X13550000Y-15055678D01*
X13567293Y-14968740D01*
X13601215Y-14886845D01*
X13650464Y-14813139D01*
X13653638Y-14809965D01*
X13669184Y-14791023D01*
X13680735Y-14769412D01*
X13687848Y-14745963D01*
X13690250Y-14721577D01*
X13687848Y-14697191D01*
X13680735Y-14673742D01*
X13669184Y-14652131D01*
X13653638Y-14633189D01*
X13634696Y-14617643D01*
X13613085Y-14606092D01*
X13589636Y-14598979D01*
X13577501Y-14597179D01*
X13546470Y-14594123D01*
X13494990Y-14578507D01*
X13447558Y-14553154D01*
X13405973Y-14519027D01*
X13371846Y-14477442D01*
X13346493Y-14430010D01*
X13330877Y-14378530D01*
X13325000Y-14318860D01*
X13325000Y-13431140D01*
X13330877Y-13371470D01*
X13346493Y-13319990D01*
X13371846Y-13272558D01*
X13405973Y-13230973D01*
X13447558Y-13196846D01*
X13494990Y-13171493D01*
X13546470Y-13155877D01*
X13606140Y-13150000D01*
X14393860Y-13150000D01*
X14453530Y-13155877D01*
X14453530Y-13155877D01*
G37*
G36*
X40581260Y-14467293D02*
X40663155Y-14501215D01*
X40736861Y-14550464D01*
X40799536Y-14613139D01*
X40848785Y-14686845D01*
X40882707Y-14768740D01*
X40900000Y-14855678D01*
X40900000Y-14944322D01*
X40882707Y-15031260D01*
X40848785Y-15113155D01*
X40799536Y-15186861D01*
X40736861Y-15249536D01*
X40663155Y-15298785D01*
X40581260Y-15332707D01*
X40494322Y-15350000D01*
X40405678Y-15350000D01*
X40318740Y-15332707D01*
X40236845Y-15298785D01*
X40163139Y-15249536D01*
X40100464Y-15186861D01*
X40051215Y-15113155D01*
X40017293Y-15031260D01*
X40000000Y-14944322D01*
X40000000Y-14855678D01*
X40017293Y-14768740D01*
X40051215Y-14686845D01*
X40100464Y-14613139D01*
X40163139Y-14550464D01*
X40236845Y-14501215D01*
X40318740Y-14467293D01*
X40405678Y-14450000D01*
X40494322Y-14450000D01*
X40581260Y-14467293D01*
X40581260Y-14467293D01*
G37*
G36*
X4004845Y-12568810D02*
X4249896Y-12643145D01*
X4475736Y-12763860D01*
X4673687Y-12926313D01*
X4836140Y-13124264D01*
X4956855Y-13350104D01*
X5031190Y-13595155D01*
X5056290Y-13850000D01*
X5031190Y-14104845D01*
X4956855Y-14349896D01*
X4836140Y-14575736D01*
X4673687Y-14773687D01*
X4475736Y-14936140D01*
X4249896Y-15056855D01*
X4004845Y-15131190D01*
X3813864Y-15150000D01*
X2386136Y-15150000D01*
X2195155Y-15131190D01*
X1950104Y-15056855D01*
X1724264Y-14936140D01*
X1526313Y-14773687D01*
X1363860Y-14575736D01*
X1243145Y-14349896D01*
X1168810Y-14104845D01*
X1143710Y-13850000D01*
X1168810Y-13595155D01*
X1243145Y-13350104D01*
X1363860Y-13124264D01*
X1526313Y-12926313D01*
X1724264Y-12763860D01*
X1950104Y-12643145D01*
X2195155Y-12568810D01*
X2386136Y-12550000D01*
X3813864Y-12550000D01*
X4004845Y-12568810D01*
X4004845Y-12568810D01*
G37*
G36*
X7228530Y-13430877D02*
X7280010Y-13446493D01*
X7327442Y-13471846D01*
X7369027Y-13505973D01*
X7403154Y-13547558D01*
X7428507Y-13594990D01*
X7444123Y-13646470D01*
X7450000Y-13706140D01*
X7450000Y-14493860D01*
X7444123Y-14553530D01*
X7428507Y-14605010D01*
X7403154Y-14652442D01*
X7369027Y-14694027D01*
X7327442Y-14728154D01*
X7280010Y-14753507D01*
X7228530Y-14769123D01*
X7168860Y-14775000D01*
X6281140Y-14775000D01*
X6221470Y-14769123D01*
X6169990Y-14753507D01*
X6122558Y-14728154D01*
X6080973Y-14694027D01*
X6046846Y-14652442D01*
X6021493Y-14605010D01*
X6005877Y-14553530D01*
X6000000Y-14493860D01*
X6000000Y-13706140D01*
X6005877Y-13646470D01*
X6021493Y-13594990D01*
X6046846Y-13547558D01*
X6080973Y-13505973D01*
X6122558Y-13471846D01*
X6169990Y-13446493D01*
X6221470Y-13430877D01*
X6281140Y-13425000D01*
X7168860Y-13425000D01*
X7228530Y-13430877D01*
X7228530Y-13430877D01*
G37*
G36*
X8978530Y-13430877D02*
X9030010Y-13446493D01*
X9077442Y-13471846D01*
X9119027Y-13505973D01*
X9153154Y-13547558D01*
X9178507Y-13594990D01*
X9194123Y-13646470D01*
X9200000Y-13706140D01*
X9200000Y-14493860D01*
X9194123Y-14553530D01*
X9178507Y-14605010D01*
X9153154Y-14652442D01*
X9119027Y-14694027D01*
X9077442Y-14728154D01*
X9030010Y-14753507D01*
X8978530Y-14769123D01*
X8918860Y-14775000D01*
X8031140Y-14775000D01*
X7971470Y-14769123D01*
X7919990Y-14753507D01*
X7872558Y-14728154D01*
X7830973Y-14694027D01*
X7796846Y-14652442D01*
X7771493Y-14605010D01*
X7755877Y-14553530D01*
X7750000Y-14493860D01*
X7750000Y-13706140D01*
X7755877Y-13646470D01*
X7771493Y-13594990D01*
X7796846Y-13547558D01*
X7830973Y-13505973D01*
X7872558Y-13471846D01*
X7919990Y-13446493D01*
X7971470Y-13430877D01*
X8031140Y-13425000D01*
X8918860Y-13425000D01*
X8978530Y-13430877D01*
X8978530Y-13430877D01*
G37*
G36*
X27639042Y-11860216D02*
X27657983Y-11875761D01*
X27679596Y-11887314D01*
X27713153Y-11901214D01*
X27713155Y-11901215D01*
X27757547Y-11930877D01*
X27786861Y-11950464D01*
X27849536Y-12013139D01*
X27898785Y-12086845D01*
X27932707Y-12168740D01*
X27950000Y-12255678D01*
X27950000Y-12344322D01*
X27932707Y-12431260D01*
X27898784Y-12513157D01*
X27870455Y-12555555D01*
X27858904Y-12577165D01*
X27851791Y-12600615D01*
X27849389Y-12625001D01*
X27851791Y-12649387D01*
X27858904Y-12672836D01*
X27870456Y-12694447D01*
X27886001Y-12713389D01*
X27904944Y-12728934D01*
X27926554Y-12740485D01*
X27950004Y-12747598D01*
X27974389Y-12750000D01*
X27975000Y-12750000D01*
X27975000Y-14650000D01*
X19025000Y-14650000D01*
X19025000Y-12750000D01*
X27025611Y-12750000D01*
X27049997Y-12747598D01*
X27073446Y-12740485D01*
X27095057Y-12728934D01*
X27113999Y-12713388D01*
X27129545Y-12694446D01*
X27141096Y-12672835D01*
X27148209Y-12649386D01*
X27150611Y-12625000D01*
X27148209Y-12600614D01*
X27141096Y-12577165D01*
X27129545Y-12555555D01*
X27101216Y-12513157D01*
X27067293Y-12431260D01*
X27050000Y-12344322D01*
X27050000Y-12255678D01*
X27067293Y-12168740D01*
X27101215Y-12086845D01*
X27150464Y-12013139D01*
X27213139Y-11950464D01*
X27286845Y-11901215D01*
X27368740Y-11867293D01*
X27455678Y-11850000D01*
X27544322Y-11850000D01*
X27548177Y-11850767D01*
X27572563Y-11853170D01*
X27596949Y-11850769D01*
X27620399Y-11843656D01*
X27623912Y-11841779D01*
X27639042Y-11860216D01*
X27639042Y-11860216D01*
G37*
G36*
X16153530Y-13155877D02*
X16205010Y-13171493D01*
X16252442Y-13196846D01*
X16294027Y-13230973D01*
X16328154Y-13272558D01*
X16353507Y-13319990D01*
X16369123Y-13371470D01*
X16375000Y-13431140D01*
X16375000Y-14318860D01*
X16369123Y-14378530D01*
X16353507Y-14430010D01*
X16328154Y-14477442D01*
X16294027Y-14519027D01*
X16252442Y-14553154D01*
X16205010Y-14578507D01*
X16153530Y-14594123D01*
X16093860Y-14600000D01*
X15306140Y-14600000D01*
X15246470Y-14594123D01*
X15194990Y-14578507D01*
X15147558Y-14553154D01*
X15105973Y-14519027D01*
X15071846Y-14477442D01*
X15046493Y-14430010D01*
X15030877Y-14378530D01*
X15025000Y-14318860D01*
X15025000Y-13431140D01*
X15030877Y-13371470D01*
X15046493Y-13319990D01*
X15071846Y-13272558D01*
X15105973Y-13230973D01*
X15147558Y-13196846D01*
X15194990Y-13171493D01*
X15246470Y-13155877D01*
X15306140Y-13150000D01*
X16093860Y-13150000D01*
X16153530Y-13155877D01*
X16153530Y-13155877D01*
G37*
G36*
X12753530Y-13155877D02*
X12805010Y-13171493D01*
X12852442Y-13196846D01*
X12894027Y-13230973D01*
X12928154Y-13272558D01*
X12953507Y-13319990D01*
X12969123Y-13371470D01*
X12975000Y-13431140D01*
X12975000Y-14318860D01*
X12969123Y-14378530D01*
X12953507Y-14430010D01*
X12928154Y-14477442D01*
X12894027Y-14519027D01*
X12852442Y-14553154D01*
X12805010Y-14578507D01*
X12753530Y-14594123D01*
X12693860Y-14600000D01*
X11906140Y-14600000D01*
X11846470Y-14594123D01*
X11794990Y-14578507D01*
X11747558Y-14553154D01*
X11705973Y-14519027D01*
X11671846Y-14477442D01*
X11646493Y-14430010D01*
X11630877Y-14378530D01*
X11625000Y-14318860D01*
X11625000Y-13431140D01*
X11630877Y-13371470D01*
X11646493Y-13319990D01*
X11671846Y-13272558D01*
X11705973Y-13230973D01*
X11747558Y-13196846D01*
X11794990Y-13171493D01*
X11846470Y-13155877D01*
X11906140Y-13150000D01*
X12693860Y-13150000D01*
X12753530Y-13155877D01*
X12753530Y-13155877D01*
G37*
G36*
X29381260Y-13367283D02*
X29463155Y-13401205D01*
X29536861Y-13450454D01*
X29599536Y-13513129D01*
X29599538Y-13513132D01*
X29648785Y-13586835D01*
X29658617Y-13610573D01*
X29670163Y-13632174D01*
X29685708Y-13651116D01*
X29704650Y-13666662D01*
X29726261Y-13678213D01*
X29749710Y-13685327D01*
X29774096Y-13687729D01*
X29798483Y-13685327D01*
X29821932Y-13678215D01*
X29843543Y-13666664D01*
X29862486Y-13651117D01*
X29863139Y-13650464D01*
X29936845Y-13601215D01*
X30018740Y-13567293D01*
X30105678Y-13550000D01*
X30194322Y-13550000D01*
X30281260Y-13567293D01*
X30363155Y-13601215D01*
X30436861Y-13650464D01*
X30499536Y-13713139D01*
X30548785Y-13786845D01*
X30582707Y-13868740D01*
X30600000Y-13955678D01*
X30600000Y-14044322D01*
X30582707Y-14131260D01*
X30548785Y-14213155D01*
X30499536Y-14286861D01*
X30436861Y-14349536D01*
X30363155Y-14398785D01*
X30281260Y-14432707D01*
X30194322Y-14450000D01*
X30105678Y-14450000D01*
X30018740Y-14432707D01*
X29936845Y-14398785D01*
X29863139Y-14349536D01*
X29800464Y-14286861D01*
X29751217Y-14213158D01*
X29751215Y-14213155D01*
X29741383Y-14189417D01*
X29729837Y-14167816D01*
X29714292Y-14148874D01*
X29695350Y-14133328D01*
X29673739Y-14121777D01*
X29650290Y-14114663D01*
X29625904Y-14112261D01*
X29601517Y-14114663D01*
X29578068Y-14121775D01*
X29556457Y-14133326D01*
X29537514Y-14148873D01*
X29536861Y-14149526D01*
X29463155Y-14198775D01*
X29381260Y-14232697D01*
X29294322Y-14249990D01*
X29205678Y-14249990D01*
X29118740Y-14232697D01*
X29036845Y-14198775D01*
X28963139Y-14149526D01*
X28900464Y-14086851D01*
X28851215Y-14013145D01*
X28817293Y-13931250D01*
X28800000Y-13844312D01*
X28800000Y-13755668D01*
X28817293Y-13668730D01*
X28851215Y-13586835D01*
X28900464Y-13513129D01*
X28963139Y-13450454D01*
X29036845Y-13401205D01*
X29118740Y-13367283D01*
X29205678Y-13349990D01*
X29294322Y-13349990D01*
X29381260Y-13367283D01*
X29381260Y-13367283D01*
G37*
G36*
X17931260Y-13442293D02*
X18013155Y-13476215D01*
X18086861Y-13525464D01*
X18149536Y-13588139D01*
X18198785Y-13661845D01*
X18232707Y-13743740D01*
X18250000Y-13830678D01*
X18250000Y-13919322D01*
X18232707Y-14006260D01*
X18198785Y-14088155D01*
X18149536Y-14161861D01*
X18086861Y-14224536D01*
X18013155Y-14273785D01*
X17931260Y-14307707D01*
X17844322Y-14325000D01*
X17755678Y-14325000D01*
X17668740Y-14307707D01*
X17586845Y-14273785D01*
X17513139Y-14224536D01*
X17450464Y-14161861D01*
X17401215Y-14088155D01*
X17367293Y-14006260D01*
X17350000Y-13919322D01*
X17350000Y-13830678D01*
X17367293Y-13743740D01*
X17401215Y-13661845D01*
X17450464Y-13588139D01*
X17513139Y-13525464D01*
X17586845Y-13476215D01*
X17668740Y-13442293D01*
X17755678Y-13425000D01*
X17844322Y-13425000D01*
X17931260Y-13442293D01*
X17931260Y-13442293D01*
G37*
G36*
X40978530Y-11930877D02*
X41030010Y-11946493D01*
X41077442Y-11971846D01*
X41119027Y-12005973D01*
X41153154Y-12047558D01*
X41178507Y-12094990D01*
X41194123Y-12146470D01*
X41200000Y-12206140D01*
X41200000Y-12993860D01*
X41194123Y-13053530D01*
X41178507Y-13105010D01*
X41153154Y-13152442D01*
X41119027Y-13194027D01*
X41077442Y-13228154D01*
X41030010Y-13253507D01*
X40978530Y-13269123D01*
X40918860Y-13275000D01*
X40031140Y-13275000D01*
X39971470Y-13269123D01*
X39919990Y-13253507D01*
X39872558Y-13228154D01*
X39830973Y-13194027D01*
X39796846Y-13152442D01*
X39771493Y-13105010D01*
X39755877Y-13053530D01*
X39750000Y-12993860D01*
X39750000Y-12206140D01*
X39755877Y-12146470D01*
X39771493Y-12094990D01*
X39796846Y-12047558D01*
X39830973Y-12005973D01*
X39872558Y-11971846D01*
X39919990Y-11946493D01*
X39971470Y-11930877D01*
X40031140Y-11925000D01*
X40918860Y-11925000D01*
X40978530Y-11930877D01*
X40978530Y-11930877D01*
G37*
G36*
X39228530Y-11930877D02*
X39280010Y-11946493D01*
X39327442Y-11971846D01*
X39369027Y-12005973D01*
X39403154Y-12047558D01*
X39428507Y-12094990D01*
X39444123Y-12146470D01*
X39450000Y-12206140D01*
X39450000Y-12993860D01*
X39444123Y-13053530D01*
X39428507Y-13105010D01*
X39403154Y-13152442D01*
X39369027Y-13194027D01*
X39327442Y-13228154D01*
X39280010Y-13253507D01*
X39228530Y-13269123D01*
X39168860Y-13275000D01*
X38281140Y-13275000D01*
X38221470Y-13269123D01*
X38169990Y-13253507D01*
X38122558Y-13228154D01*
X38080973Y-13194027D01*
X38046846Y-13152442D01*
X38021493Y-13105010D01*
X38005877Y-13053530D01*
X38000000Y-12993860D01*
X38000000Y-12206140D01*
X38005877Y-12146470D01*
X38021493Y-12094990D01*
X38046846Y-12047558D01*
X38080973Y-12005973D01*
X38122558Y-11971846D01*
X38169990Y-11946493D01*
X38221470Y-11930877D01*
X38281140Y-11925000D01*
X39168860Y-11925000D01*
X39228530Y-11930877D01*
X39228530Y-11930877D01*
G37*
G36*
X39200180Y-10018198D02*
X36018198Y-13200180D01*
X34250430Y-11432412D01*
X37432412Y-8250430D01*
X39200180Y-10018198D01*
X39200180Y-10018198D01*
G37*
G36*
X10450000Y-12870000D02*
X8350000Y-12870000D01*
X8350000Y-10770000D01*
X10450000Y-10770000D01*
X10450000Y-12870000D01*
X10450000Y-12870000D01*
G37*
G36*
X16153530Y-11405877D02*
X16205010Y-11421493D01*
X16252442Y-11446846D01*
X16294027Y-11480973D01*
X16328154Y-11522558D01*
X16353507Y-11569990D01*
X16369123Y-11621470D01*
X16375000Y-11681140D01*
X16375000Y-12568860D01*
X16369123Y-12628530D01*
X16353507Y-12680010D01*
X16328154Y-12727442D01*
X16294027Y-12769027D01*
X16252442Y-12803154D01*
X16205010Y-12828507D01*
X16153530Y-12844123D01*
X16093860Y-12850000D01*
X15306140Y-12850000D01*
X15246470Y-12844123D01*
X15194990Y-12828507D01*
X15147558Y-12803154D01*
X15105973Y-12769027D01*
X15071846Y-12727442D01*
X15046493Y-12680010D01*
X15030877Y-12628530D01*
X15025000Y-12568860D01*
X15025000Y-11681140D01*
X15030877Y-11621470D01*
X15046493Y-11569990D01*
X15071846Y-11522558D01*
X15105973Y-11480973D01*
X15147558Y-11446846D01*
X15194990Y-11421493D01*
X15246470Y-11405877D01*
X15306140Y-11400000D01*
X16093860Y-11400000D01*
X16153530Y-11405877D01*
X16153530Y-11405877D01*
G37*
G36*
X14008798Y-11390485D02*
X14032247Y-11397598D01*
X14056633Y-11400000D01*
X14393860Y-11400000D01*
X14453530Y-11405877D01*
X14505010Y-11421493D01*
X14552442Y-11446846D01*
X14594027Y-11480973D01*
X14628154Y-11522558D01*
X14653507Y-11569990D01*
X14669123Y-11621470D01*
X14675000Y-11681140D01*
X14675000Y-12568860D01*
X14669123Y-12628530D01*
X14653507Y-12680010D01*
X14628154Y-12727442D01*
X14594027Y-12769027D01*
X14552442Y-12803154D01*
X14505010Y-12828507D01*
X14453530Y-12844123D01*
X14393860Y-12850000D01*
X13606140Y-12850000D01*
X13546470Y-12844123D01*
X13494990Y-12828507D01*
X13447558Y-12803154D01*
X13405973Y-12769027D01*
X13371846Y-12727442D01*
X13346493Y-12680010D01*
X13330877Y-12628530D01*
X13325000Y-12568860D01*
X13325000Y-11681140D01*
X13330877Y-11621470D01*
X13346493Y-11569990D01*
X13371846Y-11522558D01*
X13405973Y-11480973D01*
X13447558Y-11446846D01*
X13494990Y-11421493D01*
X13546470Y-11405877D01*
X13606140Y-11400000D01*
X13943367Y-11400000D01*
X13967753Y-11397598D01*
X13991202Y-11390485D01*
X14000000Y-11385783D01*
X14008798Y-11390485D01*
X14008798Y-11390485D01*
G37*
G36*
X12753530Y-11405877D02*
X12805010Y-11421493D01*
X12852442Y-11446846D01*
X12894027Y-11480973D01*
X12928154Y-11522558D01*
X12953507Y-11569990D01*
X12969123Y-11621470D01*
X12975000Y-11681140D01*
X12975000Y-12568860D01*
X12969123Y-12628530D01*
X12953507Y-12680010D01*
X12928154Y-12727442D01*
X12894027Y-12769027D01*
X12852442Y-12803154D01*
X12805010Y-12828507D01*
X12753530Y-12844123D01*
X12693860Y-12850000D01*
X11906140Y-12850000D01*
X11846470Y-12844123D01*
X11794990Y-12828507D01*
X11747558Y-12803154D01*
X11705973Y-12769027D01*
X11671846Y-12727442D01*
X11646493Y-12680010D01*
X11630877Y-12628530D01*
X11625000Y-12568860D01*
X11625000Y-11681140D01*
X11630877Y-11621470D01*
X11646493Y-11569990D01*
X11671846Y-11522558D01*
X11705973Y-11480973D01*
X11747558Y-11446846D01*
X11794990Y-11421493D01*
X11846470Y-11405877D01*
X11906140Y-11400000D01*
X12693860Y-11400000D01*
X12753530Y-11405877D01*
X12753530Y-11405877D01*
G37*
G36*
X6114793Y-10364847D02*
X6189818Y-10379770D01*
X6369464Y-10454182D01*
X6401834Y-10467590D01*
X6592647Y-10595087D01*
X6754913Y-10757353D01*
X6754915Y-10757356D01*
X6882410Y-10948166D01*
X6970230Y-11160182D01*
X6978392Y-11201215D01*
X7015000Y-11385256D01*
X7015000Y-11614744D01*
X7006725Y-11656344D01*
X6970230Y-11839818D01*
X6934946Y-11925000D01*
X6882410Y-12051834D01*
X6754913Y-12242647D01*
X6592647Y-12404913D01*
X6592644Y-12404915D01*
X6401834Y-12532410D01*
X6189818Y-12620230D01*
X6114793Y-12635153D01*
X5964744Y-12665000D01*
X5735256Y-12665000D01*
X5585207Y-12635153D01*
X5510182Y-12620230D01*
X5298166Y-12532410D01*
X5107356Y-12404915D01*
X5107353Y-12404913D01*
X4945087Y-12242647D01*
X4817590Y-12051834D01*
X4765054Y-11925000D01*
X4729770Y-11839818D01*
X4693275Y-11656344D01*
X4685000Y-11614744D01*
X4685000Y-11385256D01*
X4721608Y-11201215D01*
X4729770Y-11160182D01*
X4817590Y-10948166D01*
X4945085Y-10757356D01*
X4945087Y-10757353D01*
X5107353Y-10595087D01*
X5298166Y-10467590D01*
X5330536Y-10454182D01*
X5510182Y-10379770D01*
X5585207Y-10364847D01*
X5735256Y-10335000D01*
X5964744Y-10335000D01*
X6114793Y-10364847D01*
X6114793Y-10364847D01*
G37*
G36*
X18750000Y-12475000D02*
X16850000Y-12475000D01*
X16850000Y-3525000D01*
X18750000Y-3525000D01*
X18750000Y-12475000D01*
X18750000Y-12475000D01*
G37*
G36*
X29731282Y-2617271D02*
X29813177Y-2651193D01*
X29886883Y-2700442D01*
X29949558Y-2763117D01*
X29998807Y-2836823D01*
X30032729Y-2918718D01*
X30050022Y-3005656D01*
X30050022Y-3094300D01*
X30032729Y-3181238D01*
X29998807Y-3263133D01*
X29953758Y-3330554D01*
X29942207Y-3352165D01*
X29935094Y-3375615D01*
X29932692Y-3400001D01*
X29935094Y-3424387D01*
X29942207Y-3447836D01*
X29953759Y-3469447D01*
X29969304Y-3488389D01*
X29988246Y-3503934D01*
X30009857Y-3515485D01*
X30033307Y-3522598D01*
X30057692Y-3525000D01*
X30150000Y-3525000D01*
X30150000Y-12475000D01*
X28250000Y-12475000D01*
X28250000Y-11674389D01*
X28247598Y-11650003D01*
X28240485Y-11626554D01*
X28228934Y-11604943D01*
X28213388Y-11586001D01*
X28194446Y-11570455D01*
X28172835Y-11558904D01*
X28149386Y-11551791D01*
X28125000Y-11549389D01*
X28100614Y-11551791D01*
X28077165Y-11558904D01*
X28055555Y-11570455D01*
X28013157Y-11598784D01*
X28013156Y-11598785D01*
X28013155Y-11598785D01*
X28001162Y-11603753D01*
X27931260Y-11632707D01*
X27844322Y-11650000D01*
X27755678Y-11650000D01*
X27751823Y-11649233D01*
X27727437Y-11646830D01*
X27703051Y-11649231D01*
X27679601Y-11656344D01*
X27676088Y-11658221D01*
X27660958Y-11639784D01*
X27642017Y-11624239D01*
X27620404Y-11612686D01*
X27586847Y-11598786D01*
X27586846Y-11598786D01*
X27586845Y-11598785D01*
X27513142Y-11549538D01*
X27513139Y-11549536D01*
X27450464Y-11486861D01*
X27401215Y-11413155D01*
X27367293Y-11331260D01*
X27350000Y-11244322D01*
X27350000Y-11155678D01*
X27367293Y-11068740D01*
X27401215Y-10986845D01*
X27450464Y-10913139D01*
X27513139Y-10850464D01*
X27586845Y-10801215D01*
X27668740Y-10767293D01*
X27755678Y-10750000D01*
X27844322Y-10750000D01*
X27931260Y-10767293D01*
X28013157Y-10801216D01*
X28055555Y-10829545D01*
X28077165Y-10841096D01*
X28100615Y-10848209D01*
X28125001Y-10850611D01*
X28149387Y-10848209D01*
X28172836Y-10841096D01*
X28194447Y-10829544D01*
X28213389Y-10813999D01*
X28228934Y-10795056D01*
X28240485Y-10773446D01*
X28247598Y-10749996D01*
X28250000Y-10725611D01*
X28250000Y-3525000D01*
X29142352Y-3525000D01*
X29166738Y-3522598D01*
X29190187Y-3515485D01*
X29211798Y-3503934D01*
X29230740Y-3488388D01*
X29246286Y-3469446D01*
X29257837Y-3447835D01*
X29264950Y-3424386D01*
X29267352Y-3400000D01*
X29264950Y-3375614D01*
X29257837Y-3352165D01*
X29246286Y-3330554D01*
X29201237Y-3263133D01*
X29167315Y-3181238D01*
X29150022Y-3094300D01*
X29150022Y-3005656D01*
X29167315Y-2918718D01*
X29201237Y-2836823D01*
X29250486Y-2763117D01*
X29313161Y-2700442D01*
X29386867Y-2651193D01*
X29468762Y-2617271D01*
X29555700Y-2599978D01*
X29644344Y-2599978D01*
X29731282Y-2617271D01*
X29731282Y-2617271D01*
G37*
G36*
X32531260Y-11167293D02*
X32613155Y-11201215D01*
X32686861Y-11250464D01*
X32749536Y-11313139D01*
X32798785Y-11386845D01*
X32832707Y-11468740D01*
X32850000Y-11555678D01*
X32850000Y-11644322D01*
X32832707Y-11731260D01*
X32798785Y-11813155D01*
X32749536Y-11886861D01*
X32686861Y-11949536D01*
X32613155Y-11998785D01*
X32531260Y-12032707D01*
X32444322Y-12050000D01*
X32355678Y-12050000D01*
X32268740Y-12032707D01*
X32186845Y-11998785D01*
X32113139Y-11949536D01*
X32050464Y-11886861D01*
X32001215Y-11813155D01*
X31967293Y-11731260D01*
X31950000Y-11644322D01*
X31950000Y-11555678D01*
X31967293Y-11468740D01*
X32001215Y-11386845D01*
X32050464Y-11313139D01*
X32113139Y-11250464D01*
X32186845Y-11201215D01*
X32268740Y-11167293D01*
X32355678Y-11150000D01*
X32444322Y-11150000D01*
X32531260Y-11167293D01*
X32531260Y-11167293D01*
G37*
G36*
X40631260Y-10767293D02*
X40713155Y-10801215D01*
X40786861Y-10850464D01*
X40849536Y-10913139D01*
X40898785Y-10986845D01*
X40932707Y-11068740D01*
X40950000Y-11155678D01*
X40950000Y-11244322D01*
X40932707Y-11331260D01*
X40898785Y-11413155D01*
X40849536Y-11486861D01*
X40786861Y-11549536D01*
X40713155Y-11598785D01*
X40631260Y-11632707D01*
X40544322Y-11650000D01*
X40455678Y-11650000D01*
X40368740Y-11632707D01*
X40286845Y-11598785D01*
X40213139Y-11549536D01*
X40150464Y-11486861D01*
X40101215Y-11413155D01*
X40067293Y-11331260D01*
X40050000Y-11244322D01*
X40050000Y-11155678D01*
X40067293Y-11068740D01*
X40101215Y-10986845D01*
X40150464Y-10913139D01*
X40213139Y-10850464D01*
X40286845Y-10801215D01*
X40368740Y-10767293D01*
X40455678Y-10750000D01*
X40544322Y-10750000D01*
X40631260Y-10767293D01*
X40631260Y-10767293D01*
G37*
G36*
X14131260Y-10267293D02*
X14213155Y-10301215D01*
X14286861Y-10350464D01*
X14349536Y-10413139D01*
X14398785Y-10486845D01*
X14432707Y-10568740D01*
X14450000Y-10655678D01*
X14450000Y-10744322D01*
X14432707Y-10831260D01*
X14398785Y-10913155D01*
X14349536Y-10986861D01*
X14286861Y-11049536D01*
X14213155Y-11098785D01*
X14131260Y-11132707D01*
X14032246Y-11152402D01*
X14008797Y-11159515D01*
X14000000Y-11164217D01*
X13991202Y-11159515D01*
X13967754Y-11152402D01*
X13868740Y-11132707D01*
X13786845Y-11098785D01*
X13713139Y-11049536D01*
X13650464Y-10986861D01*
X13601215Y-10913155D01*
X13567293Y-10831260D01*
X13550000Y-10744322D01*
X13550000Y-10655678D01*
X13567293Y-10568740D01*
X13601215Y-10486845D01*
X13650464Y-10413139D01*
X13713139Y-10350464D01*
X13786845Y-10301215D01*
X13868740Y-10267293D01*
X13955678Y-10250000D01*
X14044322Y-10250000D01*
X14131260Y-10267293D01*
X14131260Y-10267293D01*
G37*
G36*
X37149570Y-7967588D02*
X33967588Y-11149570D01*
X32199820Y-9381802D01*
X35381802Y-6199820D01*
X37149570Y-7967588D01*
X37149570Y-7967588D01*
G37*
G36*
X3304183Y-9576900D02*
X3431574Y-9629668D01*
X3546224Y-9706274D01*
X3643726Y-9803776D01*
X3685417Y-9866172D01*
X3720332Y-9918426D01*
X3773100Y-10045817D01*
X3800000Y-10181055D01*
X3800000Y-10318945D01*
X3773100Y-10454183D01*
X3725648Y-10568740D01*
X3720332Y-10581574D01*
X3643726Y-10696224D01*
X3546224Y-10793726D01*
X3490050Y-10831260D01*
X3431574Y-10870332D01*
X3304183Y-10923100D01*
X3168945Y-10950000D01*
X3031055Y-10950000D01*
X2895817Y-10923100D01*
X2768426Y-10870332D01*
X2709950Y-10831260D01*
X2653776Y-10793726D01*
X2556274Y-10696224D01*
X2479668Y-10581574D01*
X2474352Y-10568740D01*
X2426900Y-10454183D01*
X2400000Y-10318945D01*
X2400000Y-10181055D01*
X2426900Y-10045817D01*
X2479668Y-9918426D01*
X2514583Y-9866172D01*
X2556274Y-9803776D01*
X2653776Y-9706274D01*
X2768426Y-9629668D01*
X2895817Y-9576900D01*
X3031055Y-9550000D01*
X3168945Y-9550000D01*
X3304183Y-9576900D01*
X3304183Y-9576900D01*
G37*
G36*
X9521209Y-8236858D02*
X9605836Y-8245193D01*
X9737787Y-8285220D01*
X9803763Y-8305233D01*
X9986172Y-8402733D01*
X10146054Y-8533946D01*
X10277267Y-8693828D01*
X10374767Y-8876237D01*
X10394780Y-8942213D01*
X10434807Y-9074164D01*
X10455080Y-9280000D01*
X10434807Y-9485836D01*
X10413620Y-9555679D01*
X10374767Y-9683763D01*
X10277267Y-9866172D01*
X10146054Y-10026054D01*
X9986172Y-10157267D01*
X9803763Y-10254767D01*
X9762466Y-10267294D01*
X9605836Y-10314807D01*
X9528707Y-10322404D01*
X9451580Y-10330000D01*
X9348420Y-10330000D01*
X9271293Y-10322404D01*
X9194164Y-10314807D01*
X9037534Y-10267294D01*
X8996237Y-10254767D01*
X8813828Y-10157267D01*
X8653946Y-10026054D01*
X8522733Y-9866172D01*
X8425233Y-9683763D01*
X8386380Y-9555679D01*
X8365193Y-9485836D01*
X8344920Y-9280000D01*
X8365193Y-9074164D01*
X8405220Y-8942213D01*
X8425233Y-8876237D01*
X8522733Y-8693828D01*
X8653946Y-8533946D01*
X8813828Y-8402733D01*
X8996237Y-8305233D01*
X9062213Y-8285220D01*
X9194164Y-8245193D01*
X9278791Y-8236858D01*
X9348420Y-8230000D01*
X9451580Y-8230000D01*
X9521209Y-8236858D01*
X9521209Y-8236858D01*
G37*
G36*
X19931260Y-9167293D02*
X20013155Y-9201215D01*
X20086861Y-9250464D01*
X20149536Y-9313139D01*
X20198785Y-9386845D01*
X20232707Y-9468740D01*
X20250000Y-9555678D01*
X20250000Y-9644322D01*
X20232707Y-9731260D01*
X20198785Y-9813155D01*
X20149536Y-9886861D01*
X20086861Y-9949536D01*
X20013155Y-9998785D01*
X19931260Y-10032707D01*
X19844322Y-10050000D01*
X19755678Y-10050000D01*
X19668740Y-10032707D01*
X19586845Y-9998785D01*
X19513139Y-9949536D01*
X19450464Y-9886861D01*
X19401215Y-9813155D01*
X19367293Y-9731260D01*
X19350000Y-9644322D01*
X19350000Y-9555678D01*
X19367293Y-9468740D01*
X19401215Y-9386845D01*
X19450464Y-9313139D01*
X19513139Y-9250464D01*
X19586845Y-9201215D01*
X19668740Y-9167293D01*
X19755678Y-9150000D01*
X19844322Y-9150000D01*
X19931260Y-9167293D01*
X19931260Y-9167293D01*
G37*
G36*
X6131477Y-6072084D02*
X6131479Y-6072085D01*
X6131480Y-6072085D01*
X6307099Y-6144828D01*
X6465152Y-6250436D01*
X6599564Y-6384848D01*
X6705172Y-6542901D01*
X6777915Y-6718520D01*
X6777916Y-6718523D01*
X6815000Y-6904954D01*
X6815000Y-7095046D01*
X6786664Y-7237500D01*
X6777915Y-7281480D01*
X6705172Y-7457099D01*
X6599564Y-7615152D01*
X6465152Y-7749564D01*
X6307099Y-7855172D01*
X6237646Y-7883940D01*
X6236258Y-7884515D01*
X6214647Y-7896066D01*
X6195705Y-7911612D01*
X6180159Y-7930554D01*
X6168608Y-7952165D01*
X6161495Y-7975614D01*
X6159093Y-8000000D01*
X6161495Y-8024386D01*
X6168608Y-8047835D01*
X6180159Y-8069446D01*
X6195705Y-8088388D01*
X6214647Y-8103934D01*
X6236258Y-8115485D01*
X6307099Y-8144828D01*
X6465152Y-8250436D01*
X6599564Y-8384848D01*
X6705172Y-8542901D01*
X6777915Y-8718520D01*
X6777916Y-8718523D01*
X6815000Y-8904954D01*
X6815000Y-9095046D01*
X6778210Y-9280000D01*
X6777915Y-9281480D01*
X6705172Y-9457099D01*
X6599564Y-9615152D01*
X6465152Y-9749564D01*
X6307099Y-9855172D01*
X6131480Y-9927915D01*
X6131479Y-9927915D01*
X6131477Y-9927916D01*
X5945046Y-9965000D01*
X5754954Y-9965000D01*
X5568523Y-9927916D01*
X5568521Y-9927915D01*
X5568520Y-9927915D01*
X5392901Y-9855172D01*
X5234848Y-9749564D01*
X5100436Y-9615152D01*
X4994828Y-9457099D01*
X4922085Y-9281480D01*
X4921791Y-9280000D01*
X4885000Y-9095046D01*
X4885000Y-8904954D01*
X4922084Y-8718523D01*
X4922085Y-8718520D01*
X4994828Y-8542901D01*
X5100436Y-8384848D01*
X5234848Y-8250436D01*
X5392901Y-8144828D01*
X5463742Y-8115485D01*
X5485353Y-8103934D01*
X5504295Y-8088388D01*
X5519841Y-8069446D01*
X5531392Y-8047835D01*
X5538505Y-8024386D01*
X5540907Y-8000000D01*
X5538505Y-7975614D01*
X5531392Y-7952165D01*
X5519841Y-7930554D01*
X5504295Y-7911612D01*
X5485353Y-7896066D01*
X5463742Y-7884515D01*
X5462354Y-7883940D01*
X5392901Y-7855172D01*
X5234848Y-7749564D01*
X5100436Y-7615152D01*
X4994828Y-7457099D01*
X4922085Y-7281480D01*
X4913337Y-7237500D01*
X4885000Y-7095046D01*
X4885000Y-6904954D01*
X4922084Y-6718523D01*
X4922085Y-6718520D01*
X4994828Y-6542901D01*
X5100436Y-6384848D01*
X5234848Y-6250436D01*
X5392901Y-6144828D01*
X5568520Y-6072085D01*
X5568521Y-6072085D01*
X5568523Y-6072084D01*
X5754954Y-6035000D01*
X5945046Y-6035000D01*
X6131477Y-6072084D01*
X6131477Y-6072084D01*
G37*
G36*
X32331260Y-7767293D02*
X32413155Y-7801215D01*
X32486861Y-7850464D01*
X32549536Y-7913139D01*
X32598785Y-7986845D01*
X32632707Y-8068740D01*
X32650000Y-8155678D01*
X32650000Y-8244322D01*
X32632707Y-8331260D01*
X32598785Y-8413155D01*
X32549536Y-8486861D01*
X32486861Y-8549536D01*
X32413155Y-8598785D01*
X32331260Y-8632707D01*
X32244322Y-8650000D01*
X32155678Y-8650000D01*
X32068740Y-8632707D01*
X31986845Y-8598785D01*
X31913139Y-8549536D01*
X31850464Y-8486861D01*
X31801215Y-8413155D01*
X31767293Y-8331260D01*
X31750000Y-8244322D01*
X31750000Y-8155678D01*
X31767293Y-8068740D01*
X31801215Y-7986845D01*
X31850464Y-7913139D01*
X31913139Y-7850464D01*
X31986845Y-7801215D01*
X32068740Y-7767293D01*
X32155678Y-7750000D01*
X32244322Y-7750000D01*
X32331260Y-7767293D01*
X32331260Y-7767293D01*
G37*
G36*
X27231260Y-7517293D02*
X27313155Y-7551215D01*
X27386861Y-7600464D01*
X27449536Y-7663139D01*
X27498785Y-7736845D01*
X27532707Y-7818740D01*
X27550000Y-7905678D01*
X27550000Y-7994322D01*
X27532707Y-8081260D01*
X27498785Y-8163155D01*
X27449536Y-8236861D01*
X27386861Y-8299536D01*
X27313155Y-8348785D01*
X27231260Y-8382707D01*
X27144322Y-8400000D01*
X27055678Y-8400000D01*
X26968740Y-8382707D01*
X26886845Y-8348785D01*
X26813139Y-8299536D01*
X26750464Y-8236861D01*
X26701215Y-8163155D01*
X26667293Y-8081260D01*
X26650000Y-7994322D01*
X26650000Y-7905678D01*
X26667293Y-7818740D01*
X26701215Y-7736845D01*
X26750464Y-7663139D01*
X26813139Y-7600464D01*
X26886845Y-7551215D01*
X26968740Y-7517293D01*
X27055678Y-7500000D01*
X27144322Y-7500000D01*
X27231260Y-7517293D01*
X27231260Y-7517293D01*
G37*
G36*
X13831260Y-7467293D02*
X13913155Y-7501215D01*
X13986861Y-7550464D01*
X14049536Y-7613139D01*
X14098785Y-7686845D01*
X14132707Y-7768740D01*
X14150000Y-7855678D01*
X14150000Y-7944322D01*
X14132707Y-8031260D01*
X14098785Y-8113155D01*
X14049536Y-8186861D01*
X13986861Y-8249536D01*
X13913155Y-8298785D01*
X13831260Y-8332707D01*
X13744322Y-8350000D01*
X13655678Y-8350000D01*
X13568740Y-8332707D01*
X13486845Y-8298785D01*
X13413139Y-8249536D01*
X13350464Y-8186861D01*
X13301215Y-8113155D01*
X13267293Y-8031260D01*
X13250000Y-7944322D01*
X13250000Y-7855678D01*
X13267293Y-7768740D01*
X13301215Y-7686845D01*
X13350464Y-7613139D01*
X13413139Y-7550464D01*
X13486845Y-7501215D01*
X13568740Y-7467293D01*
X13655678Y-7450000D01*
X13744322Y-7450000D01*
X13831260Y-7467293D01*
X13831260Y-7467293D01*
G37*
G36*
X9528707Y-5697596D02*
X9605836Y-5705193D01*
X9737787Y-5745220D01*
X9803763Y-5765233D01*
X9986172Y-5862733D01*
X10146054Y-5993946D01*
X10277267Y-6153828D01*
X10374767Y-6336237D01*
X10378201Y-6347558D01*
X10434807Y-6534164D01*
X10455080Y-6740000D01*
X10434807Y-6945836D01*
X10394780Y-7077787D01*
X10374767Y-7143763D01*
X10277267Y-7326172D01*
X10146054Y-7486054D01*
X9986172Y-7617267D01*
X9803763Y-7714767D01*
X9737787Y-7734780D01*
X9605836Y-7774807D01*
X9528707Y-7782404D01*
X9451580Y-7790000D01*
X9348420Y-7790000D01*
X9271293Y-7782404D01*
X9194164Y-7774807D01*
X9062213Y-7734780D01*
X8996237Y-7714767D01*
X8813828Y-7617267D01*
X8653946Y-7486054D01*
X8522733Y-7326172D01*
X8425233Y-7143763D01*
X8405220Y-7077787D01*
X8365193Y-6945836D01*
X8344920Y-6740000D01*
X8365193Y-6534164D01*
X8421799Y-6347558D01*
X8425233Y-6336237D01*
X8522733Y-6153828D01*
X8653946Y-5993946D01*
X8813828Y-5862733D01*
X8996237Y-5765233D01*
X9062213Y-5745220D01*
X9194164Y-5705193D01*
X9271293Y-5697596D01*
X9348420Y-5690000D01*
X9451580Y-5690000D01*
X9528707Y-5697596D01*
X9528707Y-5697596D01*
G37*
G36*
X39931260Y-5167297D02*
X40013155Y-5201219D01*
X40086861Y-5250468D01*
X40149536Y-5313143D01*
X40198785Y-5386849D01*
X40232707Y-5468744D01*
X40250000Y-5555682D01*
X40250000Y-5644326D01*
X40232707Y-5731264D01*
X40198785Y-5813159D01*
X40149536Y-5886865D01*
X40086861Y-5949540D01*
X40017230Y-5996066D01*
X39998288Y-6011612D01*
X39982742Y-6030554D01*
X39971191Y-6052164D01*
X39964078Y-6075614D01*
X39961676Y-6100000D01*
X39964078Y-6124386D01*
X39971191Y-6147835D01*
X39982742Y-6169446D01*
X39998288Y-6188388D01*
X40017230Y-6203934D01*
X40038840Y-6215485D01*
X40062290Y-6222598D01*
X40086676Y-6225000D01*
X40218860Y-6225000D01*
X40278530Y-6230877D01*
X40330010Y-6246493D01*
X40377442Y-6271846D01*
X40419027Y-6305973D01*
X40453154Y-6347558D01*
X40478507Y-6394990D01*
X40494123Y-6446470D01*
X40500000Y-6506140D01*
X40500000Y-7293860D01*
X40494123Y-7353530D01*
X40478507Y-7405010D01*
X40453154Y-7452442D01*
X40419027Y-7494027D01*
X40377442Y-7528154D01*
X40330010Y-7553507D01*
X40278530Y-7569123D01*
X40218860Y-7575000D01*
X39331140Y-7575000D01*
X39271470Y-7569123D01*
X39219990Y-7553507D01*
X39172558Y-7528154D01*
X39130973Y-7494027D01*
X39096846Y-7452442D01*
X39071493Y-7405010D01*
X39055877Y-7353530D01*
X39050000Y-7293860D01*
X39050000Y-6506140D01*
X39055877Y-6446470D01*
X39071493Y-6394990D01*
X39096846Y-6347558D01*
X39130973Y-6305973D01*
X39172558Y-6271846D01*
X39219990Y-6246493D01*
X39271470Y-6230877D01*
X39331140Y-6225000D01*
X39513324Y-6225000D01*
X39537710Y-6222598D01*
X39561159Y-6215485D01*
X39582770Y-6203934D01*
X39601712Y-6188388D01*
X39617258Y-6169446D01*
X39628809Y-6147835D01*
X39635922Y-6124386D01*
X39638324Y-6100000D01*
X39635922Y-6075614D01*
X39628809Y-6052165D01*
X39617258Y-6030554D01*
X39601712Y-6011612D01*
X39582770Y-5996066D01*
X39513139Y-5949540D01*
X39450464Y-5886865D01*
X39401215Y-5813159D01*
X39367293Y-5731264D01*
X39350000Y-5644326D01*
X39350000Y-5555682D01*
X39367293Y-5468744D01*
X39401215Y-5386849D01*
X39450464Y-5313143D01*
X39513139Y-5250468D01*
X39586845Y-5201219D01*
X39668740Y-5167297D01*
X39755678Y-5150004D01*
X39844322Y-5150004D01*
X39931260Y-5167297D01*
X39931260Y-5167297D01*
G37*
G36*
X38528530Y-6230877D02*
X38580010Y-6246493D01*
X38627442Y-6271846D01*
X38669027Y-6305973D01*
X38703154Y-6347558D01*
X38728507Y-6394990D01*
X38744123Y-6446470D01*
X38750000Y-6506140D01*
X38750000Y-7293860D01*
X38744123Y-7353530D01*
X38728507Y-7405010D01*
X38703154Y-7452442D01*
X38669027Y-7494027D01*
X38627442Y-7528154D01*
X38580010Y-7553507D01*
X38528530Y-7569123D01*
X38468860Y-7575000D01*
X37581140Y-7575000D01*
X37521470Y-7569123D01*
X37469990Y-7553507D01*
X37422558Y-7528154D01*
X37380973Y-7494027D01*
X37346846Y-7452442D01*
X37321493Y-7405010D01*
X37305877Y-7353530D01*
X37300000Y-7293860D01*
X37300000Y-6506140D01*
X37305877Y-6446470D01*
X37321493Y-6394990D01*
X37346846Y-6347558D01*
X37380973Y-6305973D01*
X37422558Y-6271846D01*
X37469990Y-6246493D01*
X37521470Y-6230877D01*
X37581140Y-6225000D01*
X38468860Y-6225000D01*
X38528530Y-6230877D01*
X38528530Y-6230877D01*
G37*
G36*
X14181260Y-5867293D02*
X14263155Y-5901215D01*
X14336861Y-5950464D01*
X14399536Y-6013139D01*
X14448785Y-6086845D01*
X14482707Y-6168740D01*
X14500000Y-6255678D01*
X14500000Y-6344322D01*
X14482707Y-6431260D01*
X14448785Y-6513155D01*
X14399536Y-6586861D01*
X14336861Y-6649536D01*
X14263155Y-6698785D01*
X14181260Y-6732707D01*
X14094322Y-6750000D01*
X14005678Y-6750000D01*
X13918740Y-6732707D01*
X13836845Y-6698785D01*
X13763139Y-6649536D01*
X13700464Y-6586861D01*
X13651215Y-6513155D01*
X13617293Y-6431260D01*
X13600000Y-6344322D01*
X13600000Y-6255678D01*
X13617293Y-6168740D01*
X13651215Y-6086845D01*
X13700464Y-6013139D01*
X13763139Y-5950464D01*
X13836845Y-5901215D01*
X13918740Y-5867293D01*
X14005678Y-5850000D01*
X14094322Y-5850000D01*
X14181260Y-5867293D01*
X14181260Y-5867293D01*
G37*
G36*
X3304183Y-5076900D02*
X3431574Y-5129668D01*
X3546224Y-5206274D01*
X3643726Y-5303776D01*
X3674303Y-5349538D01*
X3720332Y-5418426D01*
X3773100Y-5545817D01*
X3800000Y-5681055D01*
X3800000Y-5818945D01*
X3773100Y-5954183D01*
X3723055Y-6075000D01*
X3720332Y-6081574D01*
X3643726Y-6196224D01*
X3546224Y-6293726D01*
X3470501Y-6344322D01*
X3431574Y-6370332D01*
X3304183Y-6423100D01*
X3168945Y-6450000D01*
X3031055Y-6450000D01*
X2895817Y-6423100D01*
X2768426Y-6370332D01*
X2729499Y-6344322D01*
X2653776Y-6293726D01*
X2556274Y-6196224D01*
X2479668Y-6081574D01*
X2476945Y-6075000D01*
X2426900Y-5954183D01*
X2400000Y-5818945D01*
X2400000Y-5681055D01*
X2426900Y-5545817D01*
X2479668Y-5418426D01*
X2525697Y-5349538D01*
X2556274Y-5303776D01*
X2653776Y-5206274D01*
X2768426Y-5129668D01*
X2895817Y-5076900D01*
X3031055Y-5050000D01*
X3168945Y-5050000D01*
X3304183Y-5076900D01*
X3304183Y-5076900D01*
G37*
G36*
X6114793Y-3364847D02*
X6189818Y-3379770D01*
X6359368Y-3450000D01*
X6401834Y-3467590D01*
X6592647Y-3595087D01*
X6754913Y-3757353D01*
X6754915Y-3757356D01*
X6882410Y-3948166D01*
X6970230Y-4160182D01*
X6983123Y-4225000D01*
X7015000Y-4385256D01*
X7015000Y-4614744D01*
X6970230Y-4839817D01*
X6882410Y-5051834D01*
X6754913Y-5242647D01*
X6592647Y-5404913D01*
X6592644Y-5404915D01*
X6401834Y-5532410D01*
X6189818Y-5620230D01*
X6114793Y-5635153D01*
X5964744Y-5665000D01*
X5735256Y-5665000D01*
X5585207Y-5635153D01*
X5510182Y-5620230D01*
X5298166Y-5532410D01*
X5107356Y-5404915D01*
X5107353Y-5404913D01*
X4945087Y-5242647D01*
X4817590Y-5051834D01*
X4729770Y-4839817D01*
X4685000Y-4614744D01*
X4685000Y-4385256D01*
X4716877Y-4225000D01*
X4729770Y-4160182D01*
X4817590Y-3948166D01*
X4945085Y-3757356D01*
X4945087Y-3757353D01*
X5107353Y-3595087D01*
X5298166Y-3467590D01*
X5340632Y-3450000D01*
X5510182Y-3379770D01*
X5585207Y-3364847D01*
X5735256Y-3335000D01*
X5964744Y-3335000D01*
X6114793Y-3364847D01*
X6114793Y-3364847D01*
G37*
G36*
X31728530Y-4230877D02*
X31780010Y-4246493D01*
X31827442Y-4271846D01*
X31869027Y-4305973D01*
X31903154Y-4347558D01*
X31928507Y-4394990D01*
X31944123Y-4446470D01*
X31950000Y-4506140D01*
X31950000Y-5293860D01*
X31944123Y-5353530D01*
X31928507Y-5405010D01*
X31903154Y-5452442D01*
X31869027Y-5494027D01*
X31827442Y-5528154D01*
X31780010Y-5553507D01*
X31728530Y-5569123D01*
X31668860Y-5575000D01*
X30781140Y-5575000D01*
X30721470Y-5569123D01*
X30669990Y-5553507D01*
X30622558Y-5528154D01*
X30580973Y-5494027D01*
X30546846Y-5452442D01*
X30521493Y-5405010D01*
X30505877Y-5353530D01*
X30500000Y-5293860D01*
X30500000Y-4506140D01*
X30505877Y-4446470D01*
X30521493Y-4394990D01*
X30546846Y-4347558D01*
X30580973Y-4305973D01*
X30622558Y-4271846D01*
X30669990Y-4246493D01*
X30721470Y-4230877D01*
X30781140Y-4225000D01*
X31668860Y-4225000D01*
X31728530Y-4230877D01*
X31728530Y-4230877D01*
G37*
G36*
X33478530Y-4230877D02*
X33530010Y-4246493D01*
X33577442Y-4271846D01*
X33619027Y-4305973D01*
X33653154Y-4347558D01*
X33678507Y-4394990D01*
X33694123Y-4446470D01*
X33700000Y-4506140D01*
X33700000Y-5293860D01*
X33694123Y-5353530D01*
X33678507Y-5405010D01*
X33653154Y-5452442D01*
X33619027Y-5494027D01*
X33577442Y-5528154D01*
X33530010Y-5553507D01*
X33478530Y-5569123D01*
X33418860Y-5575000D01*
X32531140Y-5575000D01*
X32471470Y-5569123D01*
X32419990Y-5553507D01*
X32372558Y-5528154D01*
X32330973Y-5494027D01*
X32296846Y-5452442D01*
X32271493Y-5405010D01*
X32255877Y-5353530D01*
X32250000Y-5293860D01*
X32250000Y-4506140D01*
X32255877Y-4446470D01*
X32271493Y-4394990D01*
X32296846Y-4347558D01*
X32330973Y-4305973D01*
X32372558Y-4271846D01*
X32419990Y-4246493D01*
X32471470Y-4230877D01*
X32531140Y-4225000D01*
X33418860Y-4225000D01*
X33478530Y-4230877D01*
X33478530Y-4230877D01*
G37*
G36*
X19931266Y-4567293D02*
X20013161Y-4601215D01*
X20086867Y-4650464D01*
X20149542Y-4713139D01*
X20198791Y-4786845D01*
X20232713Y-4868740D01*
X20250006Y-4955678D01*
X20250006Y-5044322D01*
X20232713Y-5131260D01*
X20198791Y-5213155D01*
X20149542Y-5286861D01*
X20086867Y-5349536D01*
X20013161Y-5398785D01*
X19931266Y-5432707D01*
X19844328Y-5450000D01*
X19755684Y-5450000D01*
X19668746Y-5432707D01*
X19586851Y-5398785D01*
X19513145Y-5349536D01*
X19450470Y-5286861D01*
X19401221Y-5213155D01*
X19367299Y-5131260D01*
X19350006Y-5044322D01*
X19350006Y-4955678D01*
X19367299Y-4868740D01*
X19401221Y-4786845D01*
X19450470Y-4713139D01*
X19513145Y-4650464D01*
X19586851Y-4601215D01*
X19668746Y-4567293D01*
X19755684Y-4550000D01*
X19844328Y-4550000D01*
X19931266Y-4567293D01*
X19931266Y-4567293D01*
G37*
G36*
X9521163Y-3153530D02*
X9706274Y-3190350D01*
X9897362Y-3269502D01*
X10069336Y-3384411D01*
X10215589Y-3530664D01*
X10330498Y-3702638D01*
X10409650Y-3893726D01*
X10433405Y-4013155D01*
X10450000Y-4096583D01*
X10450000Y-4303417D01*
X10445935Y-4323851D01*
X10409650Y-4506274D01*
X10330498Y-4697362D01*
X10215589Y-4869336D01*
X10069336Y-5015589D01*
X9897362Y-5130498D01*
X9706274Y-5209650D01*
X9525888Y-5245530D01*
X9503417Y-5250000D01*
X9296583Y-5250000D01*
X9274112Y-5245530D01*
X9093726Y-5209650D01*
X8902638Y-5130498D01*
X8730664Y-5015589D01*
X8584411Y-4869336D01*
X8469502Y-4697362D01*
X8390350Y-4506274D01*
X8354065Y-4323851D01*
X8350000Y-4303417D01*
X8350000Y-4096583D01*
X8366595Y-4013155D01*
X8390350Y-3893726D01*
X8469502Y-3702638D01*
X8584411Y-3530664D01*
X8730664Y-3384411D01*
X8902638Y-3269502D01*
X9093726Y-3190350D01*
X9278837Y-3153530D01*
X9296583Y-3150000D01*
X9503417Y-3150000D01*
X9521163Y-3153530D01*
X9521163Y-3153530D01*
G37*
G36*
X25431260Y-367293D02*
X25513155Y-401215D01*
X25586861Y-450464D01*
X25649536Y-513139D01*
X25698785Y-586845D01*
X25732707Y-668740D01*
X25750000Y-755678D01*
X25750000Y-844322D01*
X25732707Y-931260D01*
X25698785Y-1013155D01*
X25649536Y-1086861D01*
X25599785Y-1136612D01*
X25584239Y-1155554D01*
X25572688Y-1177165D01*
X25565575Y-1200614D01*
X25563173Y-1225000D01*
X25565575Y-1249386D01*
X25572688Y-1272835D01*
X25584239Y-1294446D01*
X25599785Y-1313388D01*
X25618727Y-1328934D01*
X25640338Y-1340485D01*
X25663787Y-1347598D01*
X25688173Y-1350000D01*
X27975000Y-1350000D01*
X27975000Y-3250000D01*
X25729291Y-3250000D01*
X25704905Y-3252402D01*
X25681456Y-3259515D01*
X25659845Y-3271066D01*
X25640903Y-3286612D01*
X25625357Y-3305554D01*
X25613806Y-3327165D01*
X25606693Y-3350614D01*
X25604291Y-3375000D01*
X25606693Y-3399386D01*
X25613805Y-3422831D01*
X25625058Y-3450000D01*
X25632821Y-3468742D01*
X25650114Y-3555678D01*
X25650114Y-3644322D01*
X25632821Y-3731260D01*
X25598899Y-3813155D01*
X25549650Y-3886861D01*
X25486975Y-3949536D01*
X25413269Y-3998785D01*
X25331374Y-4032707D01*
X25244436Y-4050000D01*
X25155792Y-4050000D01*
X25068854Y-4032707D01*
X24986959Y-3998785D01*
X24913253Y-3949536D01*
X24850578Y-3886861D01*
X24801329Y-3813155D01*
X24767407Y-3731260D01*
X24750114Y-3644322D01*
X24750114Y-3555678D01*
X24767407Y-3468742D01*
X24775170Y-3450000D01*
X24786423Y-3422831D01*
X24793535Y-3399387D01*
X24795937Y-3375000D01*
X24793535Y-3350614D01*
X24786422Y-3327165D01*
X24774871Y-3305554D01*
X24759326Y-3286612D01*
X24740384Y-3271067D01*
X24718773Y-3259515D01*
X24695324Y-3252402D01*
X24670937Y-3250000D01*
X24029177Y-3250000D01*
X24004791Y-3252402D01*
X23981342Y-3259515D01*
X23959731Y-3271066D01*
X23940789Y-3286612D01*
X23925243Y-3305554D01*
X23913692Y-3327165D01*
X23906579Y-3350614D01*
X23904177Y-3375000D01*
X23906579Y-3399386D01*
X23913691Y-3422831D01*
X23924944Y-3450000D01*
X23932707Y-3468742D01*
X23950000Y-3555678D01*
X23950000Y-3644322D01*
X23932707Y-3731260D01*
X23898785Y-3813155D01*
X23849536Y-3886861D01*
X23786861Y-3949536D01*
X23713155Y-3998785D01*
X23631260Y-4032707D01*
X23544322Y-4050000D01*
X23455678Y-4050000D01*
X23368740Y-4032707D01*
X23286845Y-3998785D01*
X23213139Y-3949536D01*
X23150464Y-3886861D01*
X23101215Y-3813155D01*
X23067293Y-3731260D01*
X23050000Y-3644322D01*
X23050000Y-3555678D01*
X23067293Y-3468742D01*
X23075056Y-3450000D01*
X23086309Y-3422831D01*
X23093421Y-3399387D01*
X23095823Y-3375000D01*
X23093421Y-3350614D01*
X23086308Y-3327165D01*
X23074757Y-3305554D01*
X23059212Y-3286612D01*
X23040270Y-3271067D01*
X23018659Y-3259515D01*
X22995210Y-3252402D01*
X22970823Y-3250000D01*
X21038173Y-3250000D01*
X21013787Y-3252402D01*
X20990338Y-3259515D01*
X20968727Y-3271066D01*
X20949785Y-3286612D01*
X20934239Y-3305554D01*
X20922688Y-3327165D01*
X20915575Y-3350614D01*
X20913173Y-3375000D01*
X20915575Y-3399386D01*
X20922688Y-3422835D01*
X20934239Y-3444446D01*
X20949785Y-3463388D01*
X20999536Y-3513139D01*
X21048785Y-3586845D01*
X21082707Y-3668740D01*
X21100000Y-3755678D01*
X21100000Y-3844322D01*
X21082707Y-3931260D01*
X21048785Y-4013155D01*
X20999536Y-4086861D01*
X20936861Y-4149536D01*
X20863155Y-4198785D01*
X20781260Y-4232707D01*
X20694322Y-4250000D01*
X20605678Y-4250000D01*
X20518740Y-4232707D01*
X20436845Y-4198785D01*
X20363139Y-4149536D01*
X20300464Y-4086861D01*
X20251215Y-4013155D01*
X20217293Y-3931260D01*
X20200000Y-3844322D01*
X20200000Y-3755678D01*
X20217293Y-3668740D01*
X20251215Y-3586845D01*
X20300464Y-3513139D01*
X20350215Y-3463388D01*
X20365761Y-3444446D01*
X20377312Y-3422835D01*
X20384425Y-3399386D01*
X20386827Y-3375000D01*
X20384425Y-3350614D01*
X20377312Y-3327165D01*
X20365761Y-3305554D01*
X20350215Y-3286612D01*
X20331273Y-3271066D01*
X20309662Y-3259515D01*
X20286213Y-3252402D01*
X20261827Y-3250000D01*
X19025000Y-3250000D01*
X19025000Y-1350000D01*
X24911827Y-1350000D01*
X24936213Y-1347598D01*
X24959662Y-1340485D01*
X24981273Y-1328934D01*
X25000215Y-1313388D01*
X25015761Y-1294446D01*
X25027312Y-1272835D01*
X25034425Y-1249386D01*
X25036827Y-1225000D01*
X25034425Y-1200614D01*
X25027312Y-1177165D01*
X25015761Y-1155554D01*
X25000215Y-1136612D01*
X24950464Y-1086861D01*
X24901215Y-1013155D01*
X24867293Y-931260D01*
X24850000Y-844322D01*
X24850000Y-755678D01*
X24867293Y-668740D01*
X24901215Y-586845D01*
X24950464Y-513139D01*
X25013139Y-450464D01*
X25086845Y-401215D01*
X25168740Y-367293D01*
X25255678Y-350000D01*
X25344322Y-350000D01*
X25431260Y-367293D01*
X25431260Y-367293D01*
G37*
G36*
X31950000Y-3900000D02*
X30500000Y-3900000D01*
X30500000Y-2850000D01*
X31950000Y-2850000D01*
X31950000Y-3900000D01*
X31950000Y-3900000D01*
G37*
G36*
X36100000Y-3900000D02*
X34650000Y-3900000D01*
X34650000Y-2850000D01*
X36100000Y-2850000D01*
X36100000Y-3900000D01*
X36100000Y-3900000D01*
G37*
G36*
X4004845Y-868810D02*
X4249896Y-943145D01*
X4475736Y-1063860D01*
X4673687Y-1226313D01*
X4836140Y-1424264D01*
X4956855Y-1650104D01*
X5031190Y-1895155D01*
X5056290Y-2150000D01*
X5031190Y-2404845D01*
X4956855Y-2649896D01*
X4836140Y-2875736D01*
X4673687Y-3073687D01*
X4475736Y-3236140D01*
X4249896Y-3356855D01*
X4004845Y-3431190D01*
X3813864Y-3450000D01*
X2386136Y-3450000D01*
X2195155Y-3431190D01*
X1950104Y-3356855D01*
X1724264Y-3236140D01*
X1526313Y-3073687D01*
X1363860Y-2875736D01*
X1243145Y-2649896D01*
X1168810Y-2404845D01*
X1143710Y-2150000D01*
X1168810Y-1895155D01*
X1243145Y-1650104D01*
X1363860Y-1424264D01*
X1526313Y-1226313D01*
X1724264Y-1063860D01*
X1950104Y-943145D01*
X2195155Y-868810D01*
X2386136Y-850000D01*
X3813864Y-850000D01*
X4004845Y-868810D01*
X4004845Y-868810D01*
G37*
G36*
X14378530Y-430877D02*
X14430010Y-446493D01*
X14477442Y-471846D01*
X14519027Y-505973D01*
X14553154Y-547558D01*
X14578507Y-594990D01*
X14594123Y-646470D01*
X14600000Y-706140D01*
X14600000Y-1493860D01*
X14594123Y-1553530D01*
X14578507Y-1605010D01*
X14553154Y-1652442D01*
X14519027Y-1694027D01*
X14477442Y-1728154D01*
X14430010Y-1753507D01*
X14378530Y-1769123D01*
X14312748Y-1775602D01*
X14288714Y-1780383D01*
X14266075Y-1789760D01*
X14245701Y-1803374D01*
X14228374Y-1820701D01*
X14214760Y-1841076D01*
X14205382Y-1863715D01*
X14200602Y-1887748D01*
X14200602Y-1912252D01*
X14205383Y-1936286D01*
X14214760Y-1958925D01*
X14228374Y-1979299D01*
X14245701Y-1996626D01*
X14266076Y-2010240D01*
X14288715Y-2019618D01*
X14312748Y-2024398D01*
X14378530Y-2030877D01*
X14430010Y-2046493D01*
X14477442Y-2071846D01*
X14519027Y-2105973D01*
X14553154Y-2147558D01*
X14578507Y-2194990D01*
X14594123Y-2246470D01*
X14600000Y-2306140D01*
X14600000Y-3093860D01*
X14594123Y-3153530D01*
X14578507Y-3205010D01*
X14553154Y-3252442D01*
X14519027Y-3294027D01*
X14477442Y-3328154D01*
X14430010Y-3353507D01*
X14378530Y-3369123D01*
X14318860Y-3375000D01*
X13431140Y-3375000D01*
X13371470Y-3369123D01*
X13319990Y-3353507D01*
X13272558Y-3328154D01*
X13230973Y-3294027D01*
X13196846Y-3252442D01*
X13171493Y-3205010D01*
X13155877Y-3153530D01*
X13150000Y-3093860D01*
X13150000Y-2306140D01*
X13155877Y-2246470D01*
X13171493Y-2194990D01*
X13196846Y-2147558D01*
X13230973Y-2105973D01*
X13272558Y-2071846D01*
X13319990Y-2046493D01*
X13371470Y-2030877D01*
X13437252Y-2024398D01*
X13461286Y-2019617D01*
X13483925Y-2010240D01*
X13504299Y-1996626D01*
X13521626Y-1979299D01*
X13535240Y-1958924D01*
X13544618Y-1936285D01*
X13549398Y-1912252D01*
X13549398Y-1887748D01*
X13544617Y-1863714D01*
X13535240Y-1841075D01*
X13521626Y-1820701D01*
X13504299Y-1803374D01*
X13483924Y-1789760D01*
X13461285Y-1780382D01*
X13437252Y-1775602D01*
X13371470Y-1769123D01*
X13319990Y-1753507D01*
X13272558Y-1728154D01*
X13230973Y-1694027D01*
X13196846Y-1652442D01*
X13171493Y-1605010D01*
X13155877Y-1553530D01*
X13150000Y-1493860D01*
X13150000Y-706140D01*
X13155877Y-646470D01*
X13171493Y-594990D01*
X13196846Y-547558D01*
X13230973Y-505973D01*
X13272558Y-471846D01*
X13319990Y-446493D01*
X13371470Y-430877D01*
X13431140Y-425000D01*
X14318860Y-425000D01*
X14378530Y-430877D01*
X14378530Y-430877D01*
G37*
G36*
X12628530Y-430877D02*
X12680010Y-446493D01*
X12727442Y-471846D01*
X12769027Y-505973D01*
X12803154Y-547558D01*
X12828507Y-594990D01*
X12844123Y-646470D01*
X12850000Y-706140D01*
X12850000Y-1493860D01*
X12844123Y-1553530D01*
X12828507Y-1605010D01*
X12803154Y-1652442D01*
X12769027Y-1694027D01*
X12727442Y-1728154D01*
X12680010Y-1753507D01*
X12628530Y-1769123D01*
X12562748Y-1775602D01*
X12538714Y-1780383D01*
X12516075Y-1789760D01*
X12495701Y-1803374D01*
X12478374Y-1820701D01*
X12464760Y-1841076D01*
X12455382Y-1863715D01*
X12450602Y-1887748D01*
X12450602Y-1912252D01*
X12455383Y-1936286D01*
X12464760Y-1958925D01*
X12478374Y-1979299D01*
X12495701Y-1996626D01*
X12516076Y-2010240D01*
X12538715Y-2019618D01*
X12562748Y-2024398D01*
X12628530Y-2030877D01*
X12680010Y-2046493D01*
X12727442Y-2071846D01*
X12769027Y-2105973D01*
X12803154Y-2147558D01*
X12828507Y-2194990D01*
X12844123Y-2246470D01*
X12850000Y-2306140D01*
X12850000Y-3093860D01*
X12844123Y-3153530D01*
X12828507Y-3205010D01*
X12803154Y-3252442D01*
X12769027Y-3294027D01*
X12727442Y-3328154D01*
X12680010Y-3353507D01*
X12628530Y-3369123D01*
X12568860Y-3375000D01*
X11681140Y-3375000D01*
X11621470Y-3369123D01*
X11569990Y-3353507D01*
X11522558Y-3328154D01*
X11480973Y-3294027D01*
X11446846Y-3252442D01*
X11421493Y-3205010D01*
X11405877Y-3153530D01*
X11400000Y-3093860D01*
X11400000Y-2306140D01*
X11405877Y-2246470D01*
X11421493Y-2194990D01*
X11446846Y-2147558D01*
X11480973Y-2105973D01*
X11522558Y-2071846D01*
X11569990Y-2046493D01*
X11621470Y-2030877D01*
X11687252Y-2024398D01*
X11711286Y-2019617D01*
X11733925Y-2010240D01*
X11754299Y-1996626D01*
X11771626Y-1979299D01*
X11785240Y-1958924D01*
X11794618Y-1936285D01*
X11799398Y-1912252D01*
X11799398Y-1887748D01*
X11794617Y-1863714D01*
X11785240Y-1841075D01*
X11771626Y-1820701D01*
X11754299Y-1803374D01*
X11733924Y-1789760D01*
X11711285Y-1780382D01*
X11687252Y-1775602D01*
X11621470Y-1769123D01*
X11569990Y-1753507D01*
X11522558Y-1728154D01*
X11480973Y-1694027D01*
X11446846Y-1652442D01*
X11421493Y-1605010D01*
X11405877Y-1553530D01*
X11400000Y-1493860D01*
X11400000Y-706140D01*
X11405877Y-646470D01*
X11421493Y-594990D01*
X11446846Y-547558D01*
X11480973Y-505973D01*
X11522558Y-471846D01*
X11569990Y-446493D01*
X11621470Y-430877D01*
X11681140Y-425000D01*
X12568860Y-425000D01*
X12628530Y-430877D01*
X12628530Y-430877D01*
G37*
G36*
X45225888Y-554470D02*
X45406274Y-590350D01*
X45597362Y-669502D01*
X45769336Y-784411D01*
X45915589Y-930664D01*
X46030498Y-1102638D01*
X46109650Y-1293726D01*
X46150000Y-1496584D01*
X46150000Y-1703416D01*
X46109650Y-1906274D01*
X46030498Y-2097362D01*
X45915589Y-2269336D01*
X45769336Y-2415589D01*
X45597362Y-2530498D01*
X45406274Y-2609650D01*
X45225888Y-2645530D01*
X45203417Y-2650000D01*
X44996583Y-2650000D01*
X44974112Y-2645530D01*
X44793726Y-2609650D01*
X44602638Y-2530498D01*
X44430664Y-2415589D01*
X44284411Y-2269336D01*
X44169502Y-2097362D01*
X44090350Y-1906274D01*
X44050000Y-1703416D01*
X44050000Y-1496584D01*
X44090350Y-1293726D01*
X44169502Y-1102638D01*
X44284411Y-930664D01*
X44430664Y-784411D01*
X44602638Y-669502D01*
X44793726Y-590350D01*
X44974112Y-554470D01*
X44996583Y-550000D01*
X45203417Y-550000D01*
X45225888Y-554470D01*
X45225888Y-554470D01*
G37*
G36*
X42688707Y-557597D02*
X42765836Y-565193D01*
X42897787Y-605220D01*
X42963763Y-625233D01*
X43146172Y-722733D01*
X43306054Y-853946D01*
X43437267Y-1013828D01*
X43534767Y-1196237D01*
X43554780Y-1262213D01*
X43594807Y-1394164D01*
X43615080Y-1600000D01*
X43594807Y-1805836D01*
X43562526Y-1912252D01*
X43534767Y-2003763D01*
X43437267Y-2186172D01*
X43306054Y-2346054D01*
X43146172Y-2477267D01*
X42963763Y-2574767D01*
X42897787Y-2594780D01*
X42765836Y-2634807D01*
X42688707Y-2642403D01*
X42611580Y-2650000D01*
X42508420Y-2650000D01*
X42431293Y-2642403D01*
X42354164Y-2634807D01*
X42222213Y-2594780D01*
X42156237Y-2574767D01*
X41973828Y-2477267D01*
X41813946Y-2346054D01*
X41682733Y-2186172D01*
X41585233Y-2003763D01*
X41557474Y-1912252D01*
X41525193Y-1805836D01*
X41504920Y-1600000D01*
X41525193Y-1394164D01*
X41565220Y-1262213D01*
X41585233Y-1196237D01*
X41682733Y-1013828D01*
X41813946Y-853946D01*
X41973828Y-722733D01*
X42156237Y-625233D01*
X42222213Y-605220D01*
X42354164Y-565193D01*
X42431293Y-557597D01*
X42508420Y-550000D01*
X42611580Y-550000D01*
X42688707Y-557597D01*
X42688707Y-557597D01*
G37*
G36*
X40148707Y-557597D02*
X40225836Y-565193D01*
X40357787Y-605220D01*
X40423763Y-625233D01*
X40606172Y-722733D01*
X40766054Y-853946D01*
X40897267Y-1013828D01*
X40994767Y-1196237D01*
X41014780Y-1262213D01*
X41054807Y-1394164D01*
X41075080Y-1600000D01*
X41054807Y-1805836D01*
X41022526Y-1912252D01*
X40994767Y-2003763D01*
X40897267Y-2186172D01*
X40766054Y-2346054D01*
X40606172Y-2477267D01*
X40423763Y-2574767D01*
X40357787Y-2594780D01*
X40225836Y-2634807D01*
X40148707Y-2642403D01*
X40071580Y-2650000D01*
X39968420Y-2650000D01*
X39891293Y-2642403D01*
X39814164Y-2634807D01*
X39682213Y-2594780D01*
X39616237Y-2574767D01*
X39433828Y-2477267D01*
X39273946Y-2346054D01*
X39142733Y-2186172D01*
X39045233Y-2003763D01*
X39017474Y-1912252D01*
X38985193Y-1805836D01*
X38964920Y-1600000D01*
X38985193Y-1394164D01*
X39025220Y-1262213D01*
X39045233Y-1196237D01*
X39142733Y-1013828D01*
X39273946Y-853946D01*
X39433828Y-722733D01*
X39616237Y-625233D01*
X39682213Y-605220D01*
X39814164Y-565193D01*
X39891293Y-557597D01*
X39968420Y-550000D01*
X40071580Y-550000D01*
X40148707Y-557597D01*
X40148707Y-557597D01*
G37*
G36*
X38530000Y-2650000D02*
X36430000Y-2650000D01*
X36430000Y-550000D01*
X38530000Y-550000D01*
X38530000Y-2650000D01*
X38530000Y-2650000D01*
G37*
G36*
X31950000Y-1750000D02*
X30500000Y-1750000D01*
X30500000Y-700000D01*
X31950000Y-700000D01*
X31950000Y-1750000D01*
X31950000Y-1750000D01*
G37*
G36*
X36100000Y-1750000D02*
X34650000Y-1750000D01*
X34650000Y-700000D01*
X36100000Y-700000D01*
X36100000Y-1750000D01*
X36100000Y-1750000D01*
G37*
M02*
