G04 #@! TF.GenerationSoftware,KiCad,Pcbnew,(5.0.1)-3*
G04 #@! TF.CreationDate,2018-12-01T20:49:26+09:00*
G04 #@! TF.ProjectId,comet46,636F6D657434362E6B696361645F7063,rev?*
G04 #@! TF.SameCoordinates,PX2faf080PY2faf080*
G04 #@! TF.FileFunction,Legend,Bot*
G04 #@! TF.FilePolarity,Positive*
%FSLAX46Y46*%
G04 Gerber Fmt 4.6, Leading zero omitted, Abs format (unit mm)*
G04 Created by KiCad (PCBNEW (5.0.1)-3) date 2018/12/01 20:49:26*
%MOMM*%
%LPD*%
G01*
G04 APERTURE LIST*
%ADD10C,0.150000*%
%ADD11C,0.120000*%
%ADD12R,2.100000X2.100000*%
%ADD13O,2.100000X2.100000*%
%ADD14C,2.100000*%
%ADD15C,0.100000*%
%ADD16C,1.350000*%
%ADD17C,1.930000*%
%ADD18C,2.330000*%
%ADD19O,3.900000X2.600000*%
%ADD20C,1.400000*%
%ADD21R,1.450000X1.050000*%
%ADD22R,0.950000X1.900000*%
%ADD23R,1.900000X0.950000*%
%ADD24C,2.200000*%
%ADD25C,0.900000*%
G04 APERTURE END LIST*
D10*
X45383333Y-3166666D02*
X45416666Y-3266666D01*
X45416666Y-3433333D01*
X45383333Y-3500000D01*
X45350000Y-3533333D01*
X45283333Y-3566666D01*
X45216666Y-3566666D01*
X45150000Y-3533333D01*
X45116666Y-3500000D01*
X45083333Y-3433333D01*
X45050000Y-3300000D01*
X45016666Y-3233333D01*
X44983333Y-3200000D01*
X44916666Y-3166666D01*
X44850000Y-3166666D01*
X44783333Y-3200000D01*
X44750000Y-3233333D01*
X44716666Y-3300000D01*
X44716666Y-3466666D01*
X44750000Y-3566666D01*
X44716666Y-3800000D02*
X45416666Y-3966666D01*
X44916666Y-4100000D01*
X45416666Y-4233333D01*
X44716666Y-4400000D01*
X45416666Y-4666666D02*
X44716666Y-4666666D01*
X44716666Y-4833333D01*
X44750000Y-4933333D01*
X44816666Y-5000000D01*
X44883333Y-5033333D01*
X45016666Y-5066666D01*
X45116666Y-5066666D01*
X45250000Y-5033333D01*
X45316666Y-5000000D01*
X45383333Y-4933333D01*
X45416666Y-4833333D01*
X45416666Y-4666666D01*
X45350000Y-5766666D02*
X45383333Y-5733333D01*
X45416666Y-5633333D01*
X45416666Y-5566666D01*
X45383333Y-5466666D01*
X45316666Y-5400000D01*
X45250000Y-5366666D01*
X45116666Y-5333333D01*
X45016666Y-5333333D01*
X44883333Y-5366666D01*
X44816666Y-5400000D01*
X44750000Y-5466666D01*
X44716666Y-5566666D01*
X44716666Y-5633333D01*
X44750000Y-5733333D01*
X44783333Y-5766666D01*
X45416666Y-6400000D02*
X45416666Y-6066666D01*
X44716666Y-6066666D01*
X45416666Y-6633333D02*
X44716666Y-6633333D01*
X45416666Y-7033333D02*
X45016666Y-6733333D01*
X44716666Y-7033333D02*
X45116666Y-6633333D01*
X42883333Y-3116666D02*
X42916666Y-3216666D01*
X42916666Y-3383333D01*
X42883333Y-3450000D01*
X42850000Y-3483333D01*
X42783333Y-3516666D01*
X42716666Y-3516666D01*
X42650000Y-3483333D01*
X42616666Y-3450000D01*
X42583333Y-3383333D01*
X42550000Y-3250000D01*
X42516666Y-3183333D01*
X42483333Y-3150000D01*
X42416666Y-3116666D01*
X42350000Y-3116666D01*
X42283333Y-3150000D01*
X42250000Y-3183333D01*
X42216666Y-3250000D01*
X42216666Y-3416666D01*
X42250000Y-3516666D01*
X42216666Y-3750000D02*
X42916666Y-3916666D01*
X42416666Y-4050000D01*
X42916666Y-4183333D01*
X42216666Y-4350000D01*
X42916666Y-4616666D02*
X42216666Y-4616666D01*
X42216666Y-4783333D01*
X42250000Y-4883333D01*
X42316666Y-4950000D01*
X42383333Y-4983333D01*
X42516666Y-5016666D01*
X42616666Y-5016666D01*
X42750000Y-4983333D01*
X42816666Y-4950000D01*
X42883333Y-4883333D01*
X42916666Y-4783333D01*
X42916666Y-4616666D01*
X42916666Y-5316666D02*
X42216666Y-5316666D01*
X42216666Y-5783333D02*
X42216666Y-5916666D01*
X42250000Y-5983333D01*
X42316666Y-6050000D01*
X42450000Y-6083333D01*
X42683333Y-6083333D01*
X42816666Y-6050000D01*
X42883333Y-5983333D01*
X42916666Y-5916666D01*
X42916666Y-5783333D01*
X42883333Y-5716666D01*
X42816666Y-5650000D01*
X42683333Y-5616666D01*
X42450000Y-5616666D01*
X42316666Y-5650000D01*
X42250000Y-5716666D01*
X42216666Y-5783333D01*
X39650000Y-3466666D02*
X39616666Y-3400000D01*
X39616666Y-3300000D01*
X39650000Y-3200000D01*
X39716666Y-3133333D01*
X39783333Y-3100000D01*
X39916666Y-3066666D01*
X40016666Y-3066666D01*
X40150000Y-3100000D01*
X40216666Y-3133333D01*
X40283333Y-3200000D01*
X40316666Y-3300000D01*
X40316666Y-3366666D01*
X40283333Y-3466666D01*
X40250000Y-3500000D01*
X40016666Y-3500000D01*
X40016666Y-3366666D01*
X40316666Y-3800000D02*
X39616666Y-3800000D01*
X40316666Y-4200000D01*
X39616666Y-4200000D01*
X40316666Y-4533333D02*
X39616666Y-4533333D01*
X39616666Y-4700000D01*
X39650000Y-4800000D01*
X39716666Y-4866666D01*
X39783333Y-4900000D01*
X39916666Y-4933333D01*
X40016666Y-4933333D01*
X40150000Y-4900000D01*
X40216666Y-4866666D01*
X40283333Y-4800000D01*
X40316666Y-4700000D01*
X40316666Y-4533333D01*
X37116666Y-3133333D02*
X37116666Y-3566666D01*
X37383333Y-3333333D01*
X37383333Y-3433333D01*
X37416666Y-3500000D01*
X37450000Y-3533333D01*
X37516666Y-3566666D01*
X37683333Y-3566666D01*
X37750000Y-3533333D01*
X37783333Y-3500000D01*
X37816666Y-3433333D01*
X37816666Y-3233333D01*
X37783333Y-3166666D01*
X37750000Y-3133333D01*
X37116666Y-3766666D02*
X37816666Y-4000000D01*
X37116666Y-4233333D01*
X37116666Y-4400000D02*
X37116666Y-4833333D01*
X37383333Y-4600000D01*
X37383333Y-4700000D01*
X37416666Y-4766666D01*
X37450000Y-4800000D01*
X37516666Y-4833333D01*
X37683333Y-4833333D01*
X37750000Y-4800000D01*
X37783333Y-4766666D01*
X37816666Y-4700000D01*
X37816666Y-4500000D01*
X37783333Y-4433333D01*
X37750000Y-4400000D01*
D11*
G04 #@! TO.C,C1*
X39428733Y-13110000D02*
X39771267Y-13110000D01*
X39428733Y-12090000D02*
X39771267Y-12090000D01*
G04 #@! TO.C,C2*
X38728733Y-6390000D02*
X39071267Y-6390000D01*
X38728733Y-7410000D02*
X39071267Y-7410000D01*
G04 #@! TO.C,C6*
X16210000Y-13171267D02*
X16210000Y-12828733D01*
X15190000Y-13171267D02*
X15190000Y-12828733D01*
G04 #@! TO.C,C7*
X13490000Y-13171267D02*
X13490000Y-12828733D01*
X14510000Y-13171267D02*
X14510000Y-12828733D01*
G04 #@! TO.C,D1*
X13035000Y-11340000D02*
X13035000Y-13800000D01*
X11565000Y-11340000D02*
X13035000Y-11340000D01*
X11565000Y-13800000D02*
X11565000Y-11340000D01*
G04 #@! TO.C,F1*
X7771267Y-14610000D02*
X7428733Y-14610000D01*
X7771267Y-13590000D02*
X7428733Y-13590000D01*
G04 #@! TO.C,R4*
X13171267Y-590000D02*
X12828733Y-590000D01*
X13171267Y-1610000D02*
X12828733Y-1610000D01*
G04 #@! TO.C,R5*
X12828733Y-2190000D02*
X13171267Y-2190000D01*
X12828733Y-3210000D02*
X13171267Y-3210000D01*
G04 #@! TO.C,R1*
X32271267Y-4390000D02*
X31928733Y-4390000D01*
X32271267Y-5410000D02*
X31928733Y-5410000D01*
G04 #@! TO.C,SW1*
X31100000Y-720000D02*
X31100000Y-600000D01*
X31100000Y-2870000D02*
X31100000Y-1730000D01*
X31100000Y-4000000D02*
X31100000Y-3880000D01*
X35500000Y-4000000D02*
X31100000Y-4000000D01*
X35500000Y-3880000D02*
X35500000Y-4000000D01*
X35500000Y-1730000D02*
X35500000Y-2870000D01*
X35500000Y-600000D02*
X35500000Y-720000D01*
X31100000Y-600000D02*
X35500000Y-600000D01*
D10*
G04 #@! TO.C,U2*
X18325000Y-2825000D02*
X18900000Y-2825000D01*
X18325000Y-13175000D02*
X19000000Y-13175000D01*
X28675000Y-13175000D02*
X28000000Y-13175000D01*
X28675000Y-2825000D02*
X28000000Y-2825000D01*
X18325000Y-2825000D02*
X18325000Y-3500000D01*
X28675000Y-2825000D02*
X28675000Y-3500000D01*
X28675000Y-13175000D02*
X28675000Y-12500000D01*
X18325000Y-13175000D02*
X18325000Y-12500000D01*
X18900000Y-2825000D02*
X18900000Y-1550000D01*
D11*
G04 #@! TO.C,Y1*
X39200179Y-10018198D02*
X36018198Y-13200179D01*
X36018198Y-13200179D02*
X32199821Y-9381802D01*
G04 #@! TO.C,C1*
D10*
X39766666Y-14387142D02*
X39814285Y-14434761D01*
X39957142Y-14482380D01*
X40052380Y-14482380D01*
X40195238Y-14434761D01*
X40290476Y-14339523D01*
X40338095Y-14244285D01*
X40385714Y-14053809D01*
X40385714Y-13910952D01*
X40338095Y-13720476D01*
X40290476Y-13625238D01*
X40195238Y-13530000D01*
X40052380Y-13482380D01*
X39957142Y-13482380D01*
X39814285Y-13530000D01*
X39766666Y-13577619D01*
X38814285Y-14482380D02*
X39385714Y-14482380D01*
X39100000Y-14482380D02*
X39100000Y-13482380D01*
X39195238Y-13625238D01*
X39290476Y-13720476D01*
X39385714Y-13768095D01*
G04 #@! TO.C,C2*
X41766666Y-7657142D02*
X41814285Y-7704761D01*
X41957142Y-7752380D01*
X42052380Y-7752380D01*
X42195238Y-7704761D01*
X42290476Y-7609523D01*
X42338095Y-7514285D01*
X42385714Y-7323809D01*
X42385714Y-7180952D01*
X42338095Y-6990476D01*
X42290476Y-6895238D01*
X42195238Y-6800000D01*
X42052380Y-6752380D01*
X41957142Y-6752380D01*
X41814285Y-6800000D01*
X41766666Y-6847619D01*
X41385714Y-6847619D02*
X41338095Y-6800000D01*
X41242857Y-6752380D01*
X41004761Y-6752380D01*
X40909523Y-6800000D01*
X40861904Y-6847619D01*
X40814285Y-6942857D01*
X40814285Y-7038095D01*
X40861904Y-7180952D01*
X41433333Y-7752380D01*
X40814285Y-7752380D01*
G04 #@! TO.C,C6*
X16057142Y-9933333D02*
X16104761Y-9885714D01*
X16152380Y-9742857D01*
X16152380Y-9647619D01*
X16104761Y-9504761D01*
X16009523Y-9409523D01*
X15914285Y-9361904D01*
X15723809Y-9314285D01*
X15580952Y-9314285D01*
X15390476Y-9361904D01*
X15295238Y-9409523D01*
X15200000Y-9504761D01*
X15152380Y-9647619D01*
X15152380Y-9742857D01*
X15200000Y-9885714D01*
X15247619Y-9933333D01*
X15152380Y-10790476D02*
X15152380Y-10600000D01*
X15200000Y-10504761D01*
X15247619Y-10457142D01*
X15390476Y-10361904D01*
X15580952Y-10314285D01*
X15961904Y-10314285D01*
X16057142Y-10361904D01*
X16104761Y-10409523D01*
X16152380Y-10504761D01*
X16152380Y-10695238D01*
X16104761Y-10790476D01*
X16057142Y-10838095D01*
X15961904Y-10885714D01*
X15723809Y-10885714D01*
X15628571Y-10838095D01*
X15580952Y-10790476D01*
X15533333Y-10695238D01*
X15533333Y-10504761D01*
X15580952Y-10409523D01*
X15628571Y-10361904D01*
X15723809Y-10314285D01*
G04 #@! TO.C,C7*
X14357142Y-9233333D02*
X14404761Y-9185714D01*
X14452380Y-9042857D01*
X14452380Y-8947619D01*
X14404761Y-8804761D01*
X14309523Y-8709523D01*
X14214285Y-8661904D01*
X14023809Y-8614285D01*
X13880952Y-8614285D01*
X13690476Y-8661904D01*
X13595238Y-8709523D01*
X13500000Y-8804761D01*
X13452380Y-8947619D01*
X13452380Y-9042857D01*
X13500000Y-9185714D01*
X13547619Y-9233333D01*
X13452380Y-9566666D02*
X13452380Y-10233333D01*
X14452380Y-9804761D01*
G04 #@! TO.C,D1*
X12752380Y-9361904D02*
X11752380Y-9361904D01*
X11752380Y-9600000D01*
X11800000Y-9742857D01*
X11895238Y-9838095D01*
X11990476Y-9885714D01*
X12180952Y-9933333D01*
X12323809Y-9933333D01*
X12514285Y-9885714D01*
X12609523Y-9838095D01*
X12704761Y-9742857D01*
X12752380Y-9600000D01*
X12752380Y-9361904D01*
X12752380Y-10885714D02*
X12752380Y-10314285D01*
X12752380Y-10600000D02*
X11752380Y-10600000D01*
X11895238Y-10504761D01*
X11990476Y-10409523D01*
X12038095Y-10314285D01*
G04 #@! TO.C,F1*
X10633333Y-14028571D02*
X10966666Y-14028571D01*
X10966666Y-14552380D02*
X10966666Y-13552380D01*
X10490476Y-13552380D01*
X9585714Y-14552380D02*
X10157142Y-14552380D01*
X9871428Y-14552380D02*
X9871428Y-13552380D01*
X9966666Y-13695238D01*
X10061904Y-13790476D01*
X10157142Y-13838095D01*
G04 #@! TO.C,R4*
X16066666Y-1552380D02*
X16400000Y-1076190D01*
X16638095Y-1552380D02*
X16638095Y-552380D01*
X16257142Y-552380D01*
X16161904Y-600000D01*
X16114285Y-647619D01*
X16066666Y-742857D01*
X16066666Y-885714D01*
X16114285Y-980952D01*
X16161904Y-1028571D01*
X16257142Y-1076190D01*
X16638095Y-1076190D01*
X15209523Y-885714D02*
X15209523Y-1552380D01*
X15447619Y-504761D02*
X15685714Y-1219047D01*
X15066666Y-1219047D01*
G04 #@! TO.C,R5*
X16066666Y-3152380D02*
X16400000Y-2676190D01*
X16638095Y-3152380D02*
X16638095Y-2152380D01*
X16257142Y-2152380D01*
X16161904Y-2200000D01*
X16114285Y-2247619D01*
X16066666Y-2342857D01*
X16066666Y-2485714D01*
X16114285Y-2580952D01*
X16161904Y-2628571D01*
X16257142Y-2676190D01*
X16638095Y-2676190D01*
X15161904Y-2152380D02*
X15638095Y-2152380D01*
X15685714Y-2628571D01*
X15638095Y-2580952D01*
X15542857Y-2533333D01*
X15304761Y-2533333D01*
X15209523Y-2580952D01*
X15161904Y-2628571D01*
X15114285Y-2723809D01*
X15114285Y-2961904D01*
X15161904Y-3057142D01*
X15209523Y-3104761D01*
X15304761Y-3152380D01*
X15542857Y-3152380D01*
X15638095Y-3104761D01*
X15685714Y-3057142D01*
G04 #@! TO.C,R1*
X32266666Y-6752380D02*
X32600000Y-6276190D01*
X32838095Y-6752380D02*
X32838095Y-5752380D01*
X32457142Y-5752380D01*
X32361904Y-5800000D01*
X32314285Y-5847619D01*
X32266666Y-5942857D01*
X32266666Y-6085714D01*
X32314285Y-6180952D01*
X32361904Y-6228571D01*
X32457142Y-6276190D01*
X32838095Y-6276190D01*
X31314285Y-6752380D02*
X31885714Y-6752380D01*
X31600000Y-6752380D02*
X31600000Y-5752380D01*
X31695238Y-5895238D01*
X31790476Y-5990476D01*
X31885714Y-6038095D01*
G04 #@! TO.C,SW1*
X33804761Y-1066666D02*
X33852380Y-1209523D01*
X33852380Y-1447619D01*
X33804761Y-1542857D01*
X33757142Y-1590476D01*
X33661904Y-1638095D01*
X33566666Y-1638095D01*
X33471428Y-1590476D01*
X33423809Y-1542857D01*
X33376190Y-1447619D01*
X33328571Y-1257142D01*
X33280952Y-1161904D01*
X33233333Y-1114285D01*
X33138095Y-1066666D01*
X33042857Y-1066666D01*
X32947619Y-1114285D01*
X32900000Y-1161904D01*
X32852380Y-1257142D01*
X32852380Y-1495238D01*
X32900000Y-1638095D01*
X32852380Y-1971428D02*
X33852380Y-2209523D01*
X33138095Y-2400000D01*
X33852380Y-2590476D01*
X32852380Y-2828571D01*
X33852380Y-3733333D02*
X33852380Y-3161904D01*
X33852380Y-3447619D02*
X32852380Y-3447619D01*
X32995238Y-3352380D01*
X33090476Y-3257142D01*
X33138095Y-3161904D01*
G04 #@! TO.C,U2*
X15552380Y-6438095D02*
X16361904Y-6438095D01*
X16457142Y-6485714D01*
X16504761Y-6533333D01*
X16552380Y-6628571D01*
X16552380Y-6819047D01*
X16504761Y-6914285D01*
X16457142Y-6961904D01*
X16361904Y-7009523D01*
X15552380Y-7009523D01*
X15647619Y-7438095D02*
X15600000Y-7485714D01*
X15552380Y-7580952D01*
X15552380Y-7819047D01*
X15600000Y-7914285D01*
X15647619Y-7961904D01*
X15742857Y-8009523D01*
X15838095Y-8009523D01*
X15980952Y-7961904D01*
X16552380Y-7390476D01*
X16552380Y-8009523D01*
G04 #@! TO.C,Y1*
X39653553Y-9319881D02*
X39316835Y-9656599D01*
X40259644Y-9185194D02*
X39653553Y-9319881D01*
X39788240Y-8713790D01*
X38475042Y-8814805D02*
X38879103Y-9218866D01*
X38677072Y-9016835D02*
X39384179Y-8309729D01*
X39350507Y-8478087D01*
X39350507Y-8612774D01*
X39384179Y-8713790D01*
G04 #@! TD*
%LPC*%
D12*
G04 #@! TO.C,J2*
X37480000Y-1600000D03*
D13*
X40020000Y-1600000D03*
X42560000Y-1600000D03*
D14*
X45100000Y-1600000D03*
G04 #@! TD*
D15*
G04 #@! TO.C,C1*
G36*
X39145581Y-11926625D02*
X39178343Y-11931485D01*
X39210471Y-11939533D01*
X39241656Y-11950691D01*
X39271596Y-11964852D01*
X39300005Y-11981879D01*
X39326608Y-12001609D01*
X39351149Y-12023851D01*
X39373391Y-12048392D01*
X39393121Y-12074995D01*
X39410148Y-12103404D01*
X39424309Y-12133344D01*
X39435467Y-12164529D01*
X39443515Y-12196657D01*
X39448375Y-12229419D01*
X39450000Y-12262500D01*
X39450000Y-12937500D01*
X39448375Y-12970581D01*
X39443515Y-13003343D01*
X39435467Y-13035471D01*
X39424309Y-13066656D01*
X39410148Y-13096596D01*
X39393121Y-13125005D01*
X39373391Y-13151608D01*
X39351149Y-13176149D01*
X39326608Y-13198391D01*
X39300005Y-13218121D01*
X39271596Y-13235148D01*
X39241656Y-13249309D01*
X39210471Y-13260467D01*
X39178343Y-13268515D01*
X39145581Y-13273375D01*
X39112500Y-13275000D01*
X38337500Y-13275000D01*
X38304419Y-13273375D01*
X38271657Y-13268515D01*
X38239529Y-13260467D01*
X38208344Y-13249309D01*
X38178404Y-13235148D01*
X38149995Y-13218121D01*
X38123392Y-13198391D01*
X38098851Y-13176149D01*
X38076609Y-13151608D01*
X38056879Y-13125005D01*
X38039852Y-13096596D01*
X38025691Y-13066656D01*
X38014533Y-13035471D01*
X38006485Y-13003343D01*
X38001625Y-12970581D01*
X38000000Y-12937500D01*
X38000000Y-12262500D01*
X38001625Y-12229419D01*
X38006485Y-12196657D01*
X38014533Y-12164529D01*
X38025691Y-12133344D01*
X38039852Y-12103404D01*
X38056879Y-12074995D01*
X38076609Y-12048392D01*
X38098851Y-12023851D01*
X38123392Y-12001609D01*
X38149995Y-11981879D01*
X38178404Y-11964852D01*
X38208344Y-11950691D01*
X38239529Y-11939533D01*
X38271657Y-11931485D01*
X38304419Y-11926625D01*
X38337500Y-11925000D01*
X39112500Y-11925000D01*
X39145581Y-11926625D01*
X39145581Y-11926625D01*
G37*
D16*
X38725000Y-12600000D03*
D15*
G36*
X40895581Y-11926625D02*
X40928343Y-11931485D01*
X40960471Y-11939533D01*
X40991656Y-11950691D01*
X41021596Y-11964852D01*
X41050005Y-11981879D01*
X41076608Y-12001609D01*
X41101149Y-12023851D01*
X41123391Y-12048392D01*
X41143121Y-12074995D01*
X41160148Y-12103404D01*
X41174309Y-12133344D01*
X41185467Y-12164529D01*
X41193515Y-12196657D01*
X41198375Y-12229419D01*
X41200000Y-12262500D01*
X41200000Y-12937500D01*
X41198375Y-12970581D01*
X41193515Y-13003343D01*
X41185467Y-13035471D01*
X41174309Y-13066656D01*
X41160148Y-13096596D01*
X41143121Y-13125005D01*
X41123391Y-13151608D01*
X41101149Y-13176149D01*
X41076608Y-13198391D01*
X41050005Y-13218121D01*
X41021596Y-13235148D01*
X40991656Y-13249309D01*
X40960471Y-13260467D01*
X40928343Y-13268515D01*
X40895581Y-13273375D01*
X40862500Y-13275000D01*
X40087500Y-13275000D01*
X40054419Y-13273375D01*
X40021657Y-13268515D01*
X39989529Y-13260467D01*
X39958344Y-13249309D01*
X39928404Y-13235148D01*
X39899995Y-13218121D01*
X39873392Y-13198391D01*
X39848851Y-13176149D01*
X39826609Y-13151608D01*
X39806879Y-13125005D01*
X39789852Y-13096596D01*
X39775691Y-13066656D01*
X39764533Y-13035471D01*
X39756485Y-13003343D01*
X39751625Y-12970581D01*
X39750000Y-12937500D01*
X39750000Y-12262500D01*
X39751625Y-12229419D01*
X39756485Y-12196657D01*
X39764533Y-12164529D01*
X39775691Y-12133344D01*
X39789852Y-12103404D01*
X39806879Y-12074995D01*
X39826609Y-12048392D01*
X39848851Y-12023851D01*
X39873392Y-12001609D01*
X39899995Y-11981879D01*
X39928404Y-11964852D01*
X39958344Y-11950691D01*
X39989529Y-11939533D01*
X40021657Y-11931485D01*
X40054419Y-11926625D01*
X40087500Y-11925000D01*
X40862500Y-11925000D01*
X40895581Y-11926625D01*
X40895581Y-11926625D01*
G37*
D16*
X40475000Y-12600000D03*
G04 #@! TD*
D15*
G04 #@! TO.C,C2*
G36*
X40195581Y-6226625D02*
X40228343Y-6231485D01*
X40260471Y-6239533D01*
X40291656Y-6250691D01*
X40321596Y-6264852D01*
X40350005Y-6281879D01*
X40376608Y-6301609D01*
X40401149Y-6323851D01*
X40423391Y-6348392D01*
X40443121Y-6374995D01*
X40460148Y-6403404D01*
X40474309Y-6433344D01*
X40485467Y-6464529D01*
X40493515Y-6496657D01*
X40498375Y-6529419D01*
X40500000Y-6562500D01*
X40500000Y-7237500D01*
X40498375Y-7270581D01*
X40493515Y-7303343D01*
X40485467Y-7335471D01*
X40474309Y-7366656D01*
X40460148Y-7396596D01*
X40443121Y-7425005D01*
X40423391Y-7451608D01*
X40401149Y-7476149D01*
X40376608Y-7498391D01*
X40350005Y-7518121D01*
X40321596Y-7535148D01*
X40291656Y-7549309D01*
X40260471Y-7560467D01*
X40228343Y-7568515D01*
X40195581Y-7573375D01*
X40162500Y-7575000D01*
X39387500Y-7575000D01*
X39354419Y-7573375D01*
X39321657Y-7568515D01*
X39289529Y-7560467D01*
X39258344Y-7549309D01*
X39228404Y-7535148D01*
X39199995Y-7518121D01*
X39173392Y-7498391D01*
X39148851Y-7476149D01*
X39126609Y-7451608D01*
X39106879Y-7425005D01*
X39089852Y-7396596D01*
X39075691Y-7366656D01*
X39064533Y-7335471D01*
X39056485Y-7303343D01*
X39051625Y-7270581D01*
X39050000Y-7237500D01*
X39050000Y-6562500D01*
X39051625Y-6529419D01*
X39056485Y-6496657D01*
X39064533Y-6464529D01*
X39075691Y-6433344D01*
X39089852Y-6403404D01*
X39106879Y-6374995D01*
X39126609Y-6348392D01*
X39148851Y-6323851D01*
X39173392Y-6301609D01*
X39199995Y-6281879D01*
X39228404Y-6264852D01*
X39258344Y-6250691D01*
X39289529Y-6239533D01*
X39321657Y-6231485D01*
X39354419Y-6226625D01*
X39387500Y-6225000D01*
X40162500Y-6225000D01*
X40195581Y-6226625D01*
X40195581Y-6226625D01*
G37*
D16*
X39775000Y-6900000D03*
D15*
G36*
X38445581Y-6226625D02*
X38478343Y-6231485D01*
X38510471Y-6239533D01*
X38541656Y-6250691D01*
X38571596Y-6264852D01*
X38600005Y-6281879D01*
X38626608Y-6301609D01*
X38651149Y-6323851D01*
X38673391Y-6348392D01*
X38693121Y-6374995D01*
X38710148Y-6403404D01*
X38724309Y-6433344D01*
X38735467Y-6464529D01*
X38743515Y-6496657D01*
X38748375Y-6529419D01*
X38750000Y-6562500D01*
X38750000Y-7237500D01*
X38748375Y-7270581D01*
X38743515Y-7303343D01*
X38735467Y-7335471D01*
X38724309Y-7366656D01*
X38710148Y-7396596D01*
X38693121Y-7425005D01*
X38673391Y-7451608D01*
X38651149Y-7476149D01*
X38626608Y-7498391D01*
X38600005Y-7518121D01*
X38571596Y-7535148D01*
X38541656Y-7549309D01*
X38510471Y-7560467D01*
X38478343Y-7568515D01*
X38445581Y-7573375D01*
X38412500Y-7575000D01*
X37637500Y-7575000D01*
X37604419Y-7573375D01*
X37571657Y-7568515D01*
X37539529Y-7560467D01*
X37508344Y-7549309D01*
X37478404Y-7535148D01*
X37449995Y-7518121D01*
X37423392Y-7498391D01*
X37398851Y-7476149D01*
X37376609Y-7451608D01*
X37356879Y-7425005D01*
X37339852Y-7396596D01*
X37325691Y-7366656D01*
X37314533Y-7335471D01*
X37306485Y-7303343D01*
X37301625Y-7270581D01*
X37300000Y-7237500D01*
X37300000Y-6562500D01*
X37301625Y-6529419D01*
X37306485Y-6496657D01*
X37314533Y-6464529D01*
X37325691Y-6433344D01*
X37339852Y-6403404D01*
X37356879Y-6374995D01*
X37376609Y-6348392D01*
X37398851Y-6323851D01*
X37423392Y-6301609D01*
X37449995Y-6281879D01*
X37478404Y-6264852D01*
X37508344Y-6250691D01*
X37539529Y-6239533D01*
X37571657Y-6231485D01*
X37604419Y-6226625D01*
X37637500Y-6225000D01*
X38412500Y-6225000D01*
X38445581Y-6226625D01*
X38445581Y-6226625D01*
G37*
D16*
X38025000Y-6900000D03*
G04 #@! TD*
D15*
G04 #@! TO.C,C6*
G36*
X16070581Y-13151625D02*
X16103343Y-13156485D01*
X16135471Y-13164533D01*
X16166656Y-13175691D01*
X16196596Y-13189852D01*
X16225005Y-13206879D01*
X16251608Y-13226609D01*
X16276149Y-13248851D01*
X16298391Y-13273392D01*
X16318121Y-13299995D01*
X16335148Y-13328404D01*
X16349309Y-13358344D01*
X16360467Y-13389529D01*
X16368515Y-13421657D01*
X16373375Y-13454419D01*
X16375000Y-13487500D01*
X16375000Y-14262500D01*
X16373375Y-14295581D01*
X16368515Y-14328343D01*
X16360467Y-14360471D01*
X16349309Y-14391656D01*
X16335148Y-14421596D01*
X16318121Y-14450005D01*
X16298391Y-14476608D01*
X16276149Y-14501149D01*
X16251608Y-14523391D01*
X16225005Y-14543121D01*
X16196596Y-14560148D01*
X16166656Y-14574309D01*
X16135471Y-14585467D01*
X16103343Y-14593515D01*
X16070581Y-14598375D01*
X16037500Y-14600000D01*
X15362500Y-14600000D01*
X15329419Y-14598375D01*
X15296657Y-14593515D01*
X15264529Y-14585467D01*
X15233344Y-14574309D01*
X15203404Y-14560148D01*
X15174995Y-14543121D01*
X15148392Y-14523391D01*
X15123851Y-14501149D01*
X15101609Y-14476608D01*
X15081879Y-14450005D01*
X15064852Y-14421596D01*
X15050691Y-14391656D01*
X15039533Y-14360471D01*
X15031485Y-14328343D01*
X15026625Y-14295581D01*
X15025000Y-14262500D01*
X15025000Y-13487500D01*
X15026625Y-13454419D01*
X15031485Y-13421657D01*
X15039533Y-13389529D01*
X15050691Y-13358344D01*
X15064852Y-13328404D01*
X15081879Y-13299995D01*
X15101609Y-13273392D01*
X15123851Y-13248851D01*
X15148392Y-13226609D01*
X15174995Y-13206879D01*
X15203404Y-13189852D01*
X15233344Y-13175691D01*
X15264529Y-13164533D01*
X15296657Y-13156485D01*
X15329419Y-13151625D01*
X15362500Y-13150000D01*
X16037500Y-13150000D01*
X16070581Y-13151625D01*
X16070581Y-13151625D01*
G37*
D16*
X15700000Y-13875000D03*
D15*
G36*
X16070581Y-11401625D02*
X16103343Y-11406485D01*
X16135471Y-11414533D01*
X16166656Y-11425691D01*
X16196596Y-11439852D01*
X16225005Y-11456879D01*
X16251608Y-11476609D01*
X16276149Y-11498851D01*
X16298391Y-11523392D01*
X16318121Y-11549995D01*
X16335148Y-11578404D01*
X16349309Y-11608344D01*
X16360467Y-11639529D01*
X16368515Y-11671657D01*
X16373375Y-11704419D01*
X16375000Y-11737500D01*
X16375000Y-12512500D01*
X16373375Y-12545581D01*
X16368515Y-12578343D01*
X16360467Y-12610471D01*
X16349309Y-12641656D01*
X16335148Y-12671596D01*
X16318121Y-12700005D01*
X16298391Y-12726608D01*
X16276149Y-12751149D01*
X16251608Y-12773391D01*
X16225005Y-12793121D01*
X16196596Y-12810148D01*
X16166656Y-12824309D01*
X16135471Y-12835467D01*
X16103343Y-12843515D01*
X16070581Y-12848375D01*
X16037500Y-12850000D01*
X15362500Y-12850000D01*
X15329419Y-12848375D01*
X15296657Y-12843515D01*
X15264529Y-12835467D01*
X15233344Y-12824309D01*
X15203404Y-12810148D01*
X15174995Y-12793121D01*
X15148392Y-12773391D01*
X15123851Y-12751149D01*
X15101609Y-12726608D01*
X15081879Y-12700005D01*
X15064852Y-12671596D01*
X15050691Y-12641656D01*
X15039533Y-12610471D01*
X15031485Y-12578343D01*
X15026625Y-12545581D01*
X15025000Y-12512500D01*
X15025000Y-11737500D01*
X15026625Y-11704419D01*
X15031485Y-11671657D01*
X15039533Y-11639529D01*
X15050691Y-11608344D01*
X15064852Y-11578404D01*
X15081879Y-11549995D01*
X15101609Y-11523392D01*
X15123851Y-11498851D01*
X15148392Y-11476609D01*
X15174995Y-11456879D01*
X15203404Y-11439852D01*
X15233344Y-11425691D01*
X15264529Y-11414533D01*
X15296657Y-11406485D01*
X15329419Y-11401625D01*
X15362500Y-11400000D01*
X16037500Y-11400000D01*
X16070581Y-11401625D01*
X16070581Y-11401625D01*
G37*
D16*
X15700000Y-12125000D03*
G04 #@! TD*
D15*
G04 #@! TO.C,C7*
G36*
X14370581Y-11401625D02*
X14403343Y-11406485D01*
X14435471Y-11414533D01*
X14466656Y-11425691D01*
X14496596Y-11439852D01*
X14525005Y-11456879D01*
X14551608Y-11476609D01*
X14576149Y-11498851D01*
X14598391Y-11523392D01*
X14618121Y-11549995D01*
X14635148Y-11578404D01*
X14649309Y-11608344D01*
X14660467Y-11639529D01*
X14668515Y-11671657D01*
X14673375Y-11704419D01*
X14675000Y-11737500D01*
X14675000Y-12512500D01*
X14673375Y-12545581D01*
X14668515Y-12578343D01*
X14660467Y-12610471D01*
X14649309Y-12641656D01*
X14635148Y-12671596D01*
X14618121Y-12700005D01*
X14598391Y-12726608D01*
X14576149Y-12751149D01*
X14551608Y-12773391D01*
X14525005Y-12793121D01*
X14496596Y-12810148D01*
X14466656Y-12824309D01*
X14435471Y-12835467D01*
X14403343Y-12843515D01*
X14370581Y-12848375D01*
X14337500Y-12850000D01*
X13662500Y-12850000D01*
X13629419Y-12848375D01*
X13596657Y-12843515D01*
X13564529Y-12835467D01*
X13533344Y-12824309D01*
X13503404Y-12810148D01*
X13474995Y-12793121D01*
X13448392Y-12773391D01*
X13423851Y-12751149D01*
X13401609Y-12726608D01*
X13381879Y-12700005D01*
X13364852Y-12671596D01*
X13350691Y-12641656D01*
X13339533Y-12610471D01*
X13331485Y-12578343D01*
X13326625Y-12545581D01*
X13325000Y-12512500D01*
X13325000Y-11737500D01*
X13326625Y-11704419D01*
X13331485Y-11671657D01*
X13339533Y-11639529D01*
X13350691Y-11608344D01*
X13364852Y-11578404D01*
X13381879Y-11549995D01*
X13401609Y-11523392D01*
X13423851Y-11498851D01*
X13448392Y-11476609D01*
X13474995Y-11456879D01*
X13503404Y-11439852D01*
X13533344Y-11425691D01*
X13564529Y-11414533D01*
X13596657Y-11406485D01*
X13629419Y-11401625D01*
X13662500Y-11400000D01*
X14337500Y-11400000D01*
X14370581Y-11401625D01*
X14370581Y-11401625D01*
G37*
D16*
X14000000Y-12125000D03*
D15*
G36*
X14370581Y-13151625D02*
X14403343Y-13156485D01*
X14435471Y-13164533D01*
X14466656Y-13175691D01*
X14496596Y-13189852D01*
X14525005Y-13206879D01*
X14551608Y-13226609D01*
X14576149Y-13248851D01*
X14598391Y-13273392D01*
X14618121Y-13299995D01*
X14635148Y-13328404D01*
X14649309Y-13358344D01*
X14660467Y-13389529D01*
X14668515Y-13421657D01*
X14673375Y-13454419D01*
X14675000Y-13487500D01*
X14675000Y-14262500D01*
X14673375Y-14295581D01*
X14668515Y-14328343D01*
X14660467Y-14360471D01*
X14649309Y-14391656D01*
X14635148Y-14421596D01*
X14618121Y-14450005D01*
X14598391Y-14476608D01*
X14576149Y-14501149D01*
X14551608Y-14523391D01*
X14525005Y-14543121D01*
X14496596Y-14560148D01*
X14466656Y-14574309D01*
X14435471Y-14585467D01*
X14403343Y-14593515D01*
X14370581Y-14598375D01*
X14337500Y-14600000D01*
X13662500Y-14600000D01*
X13629419Y-14598375D01*
X13596657Y-14593515D01*
X13564529Y-14585467D01*
X13533344Y-14574309D01*
X13503404Y-14560148D01*
X13474995Y-14543121D01*
X13448392Y-14523391D01*
X13423851Y-14501149D01*
X13401609Y-14476608D01*
X13381879Y-14450005D01*
X13364852Y-14421596D01*
X13350691Y-14391656D01*
X13339533Y-14360471D01*
X13331485Y-14328343D01*
X13326625Y-14295581D01*
X13325000Y-14262500D01*
X13325000Y-13487500D01*
X13326625Y-13454419D01*
X13331485Y-13421657D01*
X13339533Y-13389529D01*
X13350691Y-13358344D01*
X13364852Y-13328404D01*
X13381879Y-13299995D01*
X13401609Y-13273392D01*
X13423851Y-13248851D01*
X13448392Y-13226609D01*
X13474995Y-13206879D01*
X13503404Y-13189852D01*
X13533344Y-13175691D01*
X13564529Y-13164533D01*
X13596657Y-13156485D01*
X13629419Y-13151625D01*
X13662500Y-13150000D01*
X14337500Y-13150000D01*
X14370581Y-13151625D01*
X14370581Y-13151625D01*
G37*
D16*
X14000000Y-13875000D03*
G04 #@! TD*
D15*
G04 #@! TO.C,D1*
G36*
X12670581Y-13151625D02*
X12703343Y-13156485D01*
X12735471Y-13164533D01*
X12766656Y-13175691D01*
X12796596Y-13189852D01*
X12825005Y-13206879D01*
X12851608Y-13226609D01*
X12876149Y-13248851D01*
X12898391Y-13273392D01*
X12918121Y-13299995D01*
X12935148Y-13328404D01*
X12949309Y-13358344D01*
X12960467Y-13389529D01*
X12968515Y-13421657D01*
X12973375Y-13454419D01*
X12975000Y-13487500D01*
X12975000Y-14262500D01*
X12973375Y-14295581D01*
X12968515Y-14328343D01*
X12960467Y-14360471D01*
X12949309Y-14391656D01*
X12935148Y-14421596D01*
X12918121Y-14450005D01*
X12898391Y-14476608D01*
X12876149Y-14501149D01*
X12851608Y-14523391D01*
X12825005Y-14543121D01*
X12796596Y-14560148D01*
X12766656Y-14574309D01*
X12735471Y-14585467D01*
X12703343Y-14593515D01*
X12670581Y-14598375D01*
X12637500Y-14600000D01*
X11962500Y-14600000D01*
X11929419Y-14598375D01*
X11896657Y-14593515D01*
X11864529Y-14585467D01*
X11833344Y-14574309D01*
X11803404Y-14560148D01*
X11774995Y-14543121D01*
X11748392Y-14523391D01*
X11723851Y-14501149D01*
X11701609Y-14476608D01*
X11681879Y-14450005D01*
X11664852Y-14421596D01*
X11650691Y-14391656D01*
X11639533Y-14360471D01*
X11631485Y-14328343D01*
X11626625Y-14295581D01*
X11625000Y-14262500D01*
X11625000Y-13487500D01*
X11626625Y-13454419D01*
X11631485Y-13421657D01*
X11639533Y-13389529D01*
X11650691Y-13358344D01*
X11664852Y-13328404D01*
X11681879Y-13299995D01*
X11701609Y-13273392D01*
X11723851Y-13248851D01*
X11748392Y-13226609D01*
X11774995Y-13206879D01*
X11803404Y-13189852D01*
X11833344Y-13175691D01*
X11864529Y-13164533D01*
X11896657Y-13156485D01*
X11929419Y-13151625D01*
X11962500Y-13150000D01*
X12637500Y-13150000D01*
X12670581Y-13151625D01*
X12670581Y-13151625D01*
G37*
D16*
X12300000Y-13875000D03*
D15*
G36*
X12670581Y-11401625D02*
X12703343Y-11406485D01*
X12735471Y-11414533D01*
X12766656Y-11425691D01*
X12796596Y-11439852D01*
X12825005Y-11456879D01*
X12851608Y-11476609D01*
X12876149Y-11498851D01*
X12898391Y-11523392D01*
X12918121Y-11549995D01*
X12935148Y-11578404D01*
X12949309Y-11608344D01*
X12960467Y-11639529D01*
X12968515Y-11671657D01*
X12973375Y-11704419D01*
X12975000Y-11737500D01*
X12975000Y-12512500D01*
X12973375Y-12545581D01*
X12968515Y-12578343D01*
X12960467Y-12610471D01*
X12949309Y-12641656D01*
X12935148Y-12671596D01*
X12918121Y-12700005D01*
X12898391Y-12726608D01*
X12876149Y-12751149D01*
X12851608Y-12773391D01*
X12825005Y-12793121D01*
X12796596Y-12810148D01*
X12766656Y-12824309D01*
X12735471Y-12835467D01*
X12703343Y-12843515D01*
X12670581Y-12848375D01*
X12637500Y-12850000D01*
X11962500Y-12850000D01*
X11929419Y-12848375D01*
X11896657Y-12843515D01*
X11864529Y-12835467D01*
X11833344Y-12824309D01*
X11803404Y-12810148D01*
X11774995Y-12793121D01*
X11748392Y-12773391D01*
X11723851Y-12751149D01*
X11701609Y-12726608D01*
X11681879Y-12700005D01*
X11664852Y-12671596D01*
X11650691Y-12641656D01*
X11639533Y-12610471D01*
X11631485Y-12578343D01*
X11626625Y-12545581D01*
X11625000Y-12512500D01*
X11625000Y-11737500D01*
X11626625Y-11704419D01*
X11631485Y-11671657D01*
X11639533Y-11639529D01*
X11650691Y-11608344D01*
X11664852Y-11578404D01*
X11681879Y-11549995D01*
X11701609Y-11523392D01*
X11723851Y-11498851D01*
X11748392Y-11476609D01*
X11774995Y-11456879D01*
X11803404Y-11439852D01*
X11833344Y-11425691D01*
X11864529Y-11414533D01*
X11896657Y-11406485D01*
X11929419Y-11401625D01*
X11962500Y-11400000D01*
X12637500Y-11400000D01*
X12670581Y-11401625D01*
X12670581Y-11401625D01*
G37*
D16*
X12300000Y-12125000D03*
G04 #@! TD*
D15*
G04 #@! TO.C,F1*
G36*
X7145581Y-13426625D02*
X7178343Y-13431485D01*
X7210471Y-13439533D01*
X7241656Y-13450691D01*
X7271596Y-13464852D01*
X7300005Y-13481879D01*
X7326608Y-13501609D01*
X7351149Y-13523851D01*
X7373391Y-13548392D01*
X7393121Y-13574995D01*
X7410148Y-13603404D01*
X7424309Y-13633344D01*
X7435467Y-13664529D01*
X7443515Y-13696657D01*
X7448375Y-13729419D01*
X7450000Y-13762500D01*
X7450000Y-14437500D01*
X7448375Y-14470581D01*
X7443515Y-14503343D01*
X7435467Y-14535471D01*
X7424309Y-14566656D01*
X7410148Y-14596596D01*
X7393121Y-14625005D01*
X7373391Y-14651608D01*
X7351149Y-14676149D01*
X7326608Y-14698391D01*
X7300005Y-14718121D01*
X7271596Y-14735148D01*
X7241656Y-14749309D01*
X7210471Y-14760467D01*
X7178343Y-14768515D01*
X7145581Y-14773375D01*
X7112500Y-14775000D01*
X6337500Y-14775000D01*
X6304419Y-14773375D01*
X6271657Y-14768515D01*
X6239529Y-14760467D01*
X6208344Y-14749309D01*
X6178404Y-14735148D01*
X6149995Y-14718121D01*
X6123392Y-14698391D01*
X6098851Y-14676149D01*
X6076609Y-14651608D01*
X6056879Y-14625005D01*
X6039852Y-14596596D01*
X6025691Y-14566656D01*
X6014533Y-14535471D01*
X6006485Y-14503343D01*
X6001625Y-14470581D01*
X6000000Y-14437500D01*
X6000000Y-13762500D01*
X6001625Y-13729419D01*
X6006485Y-13696657D01*
X6014533Y-13664529D01*
X6025691Y-13633344D01*
X6039852Y-13603404D01*
X6056879Y-13574995D01*
X6076609Y-13548392D01*
X6098851Y-13523851D01*
X6123392Y-13501609D01*
X6149995Y-13481879D01*
X6178404Y-13464852D01*
X6208344Y-13450691D01*
X6239529Y-13439533D01*
X6271657Y-13431485D01*
X6304419Y-13426625D01*
X6337500Y-13425000D01*
X7112500Y-13425000D01*
X7145581Y-13426625D01*
X7145581Y-13426625D01*
G37*
D16*
X6725000Y-14100000D03*
D15*
G36*
X8895581Y-13426625D02*
X8928343Y-13431485D01*
X8960471Y-13439533D01*
X8991656Y-13450691D01*
X9021596Y-13464852D01*
X9050005Y-13481879D01*
X9076608Y-13501609D01*
X9101149Y-13523851D01*
X9123391Y-13548392D01*
X9143121Y-13574995D01*
X9160148Y-13603404D01*
X9174309Y-13633344D01*
X9185467Y-13664529D01*
X9193515Y-13696657D01*
X9198375Y-13729419D01*
X9200000Y-13762500D01*
X9200000Y-14437500D01*
X9198375Y-14470581D01*
X9193515Y-14503343D01*
X9185467Y-14535471D01*
X9174309Y-14566656D01*
X9160148Y-14596596D01*
X9143121Y-14625005D01*
X9123391Y-14651608D01*
X9101149Y-14676149D01*
X9076608Y-14698391D01*
X9050005Y-14718121D01*
X9021596Y-14735148D01*
X8991656Y-14749309D01*
X8960471Y-14760467D01*
X8928343Y-14768515D01*
X8895581Y-14773375D01*
X8862500Y-14775000D01*
X8087500Y-14775000D01*
X8054419Y-14773375D01*
X8021657Y-14768515D01*
X7989529Y-14760467D01*
X7958344Y-14749309D01*
X7928404Y-14735148D01*
X7899995Y-14718121D01*
X7873392Y-14698391D01*
X7848851Y-14676149D01*
X7826609Y-14651608D01*
X7806879Y-14625005D01*
X7789852Y-14596596D01*
X7775691Y-14566656D01*
X7764533Y-14535471D01*
X7756485Y-14503343D01*
X7751625Y-14470581D01*
X7750000Y-14437500D01*
X7750000Y-13762500D01*
X7751625Y-13729419D01*
X7756485Y-13696657D01*
X7764533Y-13664529D01*
X7775691Y-13633344D01*
X7789852Y-13603404D01*
X7806879Y-13574995D01*
X7826609Y-13548392D01*
X7848851Y-13523851D01*
X7873392Y-13501609D01*
X7899995Y-13481879D01*
X7928404Y-13464852D01*
X7958344Y-13450691D01*
X7989529Y-13439533D01*
X8021657Y-13431485D01*
X8054419Y-13426625D01*
X8087500Y-13425000D01*
X8862500Y-13425000D01*
X8895581Y-13426625D01*
X8895581Y-13426625D01*
G37*
D16*
X8475000Y-14100000D03*
G04 #@! TD*
D12*
G04 #@! TO.C,J3*
X9400000Y-11820000D03*
D13*
X9400000Y-9280000D03*
X9400000Y-6740000D03*
D14*
X9400000Y-4200000D03*
G04 #@! TD*
D17*
G04 #@! TO.C,J1*
X5850000Y-9000000D03*
X5850000Y-7000000D03*
D18*
X5850000Y-11500000D03*
X5850000Y-4500000D03*
D19*
X3100000Y-13850000D03*
X3100000Y-2150000D03*
D20*
X3100000Y-10250000D03*
X3100000Y-5750000D03*
G04 #@! TD*
D15*
G04 #@! TO.C,R4*
G36*
X14295581Y-426625D02*
X14328343Y-431485D01*
X14360471Y-439533D01*
X14391656Y-450691D01*
X14421596Y-464852D01*
X14450005Y-481879D01*
X14476608Y-501609D01*
X14501149Y-523851D01*
X14523391Y-548392D01*
X14543121Y-574995D01*
X14560148Y-603404D01*
X14574309Y-633344D01*
X14585467Y-664529D01*
X14593515Y-696657D01*
X14598375Y-729419D01*
X14600000Y-762500D01*
X14600000Y-1437500D01*
X14598375Y-1470581D01*
X14593515Y-1503343D01*
X14585467Y-1535471D01*
X14574309Y-1566656D01*
X14560148Y-1596596D01*
X14543121Y-1625005D01*
X14523391Y-1651608D01*
X14501149Y-1676149D01*
X14476608Y-1698391D01*
X14450005Y-1718121D01*
X14421596Y-1735148D01*
X14391656Y-1749309D01*
X14360471Y-1760467D01*
X14328343Y-1768515D01*
X14295581Y-1773375D01*
X14262500Y-1775000D01*
X13487500Y-1775000D01*
X13454419Y-1773375D01*
X13421657Y-1768515D01*
X13389529Y-1760467D01*
X13358344Y-1749309D01*
X13328404Y-1735148D01*
X13299995Y-1718121D01*
X13273392Y-1698391D01*
X13248851Y-1676149D01*
X13226609Y-1651608D01*
X13206879Y-1625005D01*
X13189852Y-1596596D01*
X13175691Y-1566656D01*
X13164533Y-1535471D01*
X13156485Y-1503343D01*
X13151625Y-1470581D01*
X13150000Y-1437500D01*
X13150000Y-762500D01*
X13151625Y-729419D01*
X13156485Y-696657D01*
X13164533Y-664529D01*
X13175691Y-633344D01*
X13189852Y-603404D01*
X13206879Y-574995D01*
X13226609Y-548392D01*
X13248851Y-523851D01*
X13273392Y-501609D01*
X13299995Y-481879D01*
X13328404Y-464852D01*
X13358344Y-450691D01*
X13389529Y-439533D01*
X13421657Y-431485D01*
X13454419Y-426625D01*
X13487500Y-425000D01*
X14262500Y-425000D01*
X14295581Y-426625D01*
X14295581Y-426625D01*
G37*
D16*
X13875000Y-1100000D03*
D15*
G36*
X12545581Y-426625D02*
X12578343Y-431485D01*
X12610471Y-439533D01*
X12641656Y-450691D01*
X12671596Y-464852D01*
X12700005Y-481879D01*
X12726608Y-501609D01*
X12751149Y-523851D01*
X12773391Y-548392D01*
X12793121Y-574995D01*
X12810148Y-603404D01*
X12824309Y-633344D01*
X12835467Y-664529D01*
X12843515Y-696657D01*
X12848375Y-729419D01*
X12850000Y-762500D01*
X12850000Y-1437500D01*
X12848375Y-1470581D01*
X12843515Y-1503343D01*
X12835467Y-1535471D01*
X12824309Y-1566656D01*
X12810148Y-1596596D01*
X12793121Y-1625005D01*
X12773391Y-1651608D01*
X12751149Y-1676149D01*
X12726608Y-1698391D01*
X12700005Y-1718121D01*
X12671596Y-1735148D01*
X12641656Y-1749309D01*
X12610471Y-1760467D01*
X12578343Y-1768515D01*
X12545581Y-1773375D01*
X12512500Y-1775000D01*
X11737500Y-1775000D01*
X11704419Y-1773375D01*
X11671657Y-1768515D01*
X11639529Y-1760467D01*
X11608344Y-1749309D01*
X11578404Y-1735148D01*
X11549995Y-1718121D01*
X11523392Y-1698391D01*
X11498851Y-1676149D01*
X11476609Y-1651608D01*
X11456879Y-1625005D01*
X11439852Y-1596596D01*
X11425691Y-1566656D01*
X11414533Y-1535471D01*
X11406485Y-1503343D01*
X11401625Y-1470581D01*
X11400000Y-1437500D01*
X11400000Y-762500D01*
X11401625Y-729419D01*
X11406485Y-696657D01*
X11414533Y-664529D01*
X11425691Y-633344D01*
X11439852Y-603404D01*
X11456879Y-574995D01*
X11476609Y-548392D01*
X11498851Y-523851D01*
X11523392Y-501609D01*
X11549995Y-481879D01*
X11578404Y-464852D01*
X11608344Y-450691D01*
X11639529Y-439533D01*
X11671657Y-431485D01*
X11704419Y-426625D01*
X11737500Y-425000D01*
X12512500Y-425000D01*
X12545581Y-426625D01*
X12545581Y-426625D01*
G37*
D16*
X12125000Y-1100000D03*
G04 #@! TD*
D15*
G04 #@! TO.C,R5*
G36*
X14295581Y-2026625D02*
X14328343Y-2031485D01*
X14360471Y-2039533D01*
X14391656Y-2050691D01*
X14421596Y-2064852D01*
X14450005Y-2081879D01*
X14476608Y-2101609D01*
X14501149Y-2123851D01*
X14523391Y-2148392D01*
X14543121Y-2174995D01*
X14560148Y-2203404D01*
X14574309Y-2233344D01*
X14585467Y-2264529D01*
X14593515Y-2296657D01*
X14598375Y-2329419D01*
X14600000Y-2362500D01*
X14600000Y-3037500D01*
X14598375Y-3070581D01*
X14593515Y-3103343D01*
X14585467Y-3135471D01*
X14574309Y-3166656D01*
X14560148Y-3196596D01*
X14543121Y-3225005D01*
X14523391Y-3251608D01*
X14501149Y-3276149D01*
X14476608Y-3298391D01*
X14450005Y-3318121D01*
X14421596Y-3335148D01*
X14391656Y-3349309D01*
X14360471Y-3360467D01*
X14328343Y-3368515D01*
X14295581Y-3373375D01*
X14262500Y-3375000D01*
X13487500Y-3375000D01*
X13454419Y-3373375D01*
X13421657Y-3368515D01*
X13389529Y-3360467D01*
X13358344Y-3349309D01*
X13328404Y-3335148D01*
X13299995Y-3318121D01*
X13273392Y-3298391D01*
X13248851Y-3276149D01*
X13226609Y-3251608D01*
X13206879Y-3225005D01*
X13189852Y-3196596D01*
X13175691Y-3166656D01*
X13164533Y-3135471D01*
X13156485Y-3103343D01*
X13151625Y-3070581D01*
X13150000Y-3037500D01*
X13150000Y-2362500D01*
X13151625Y-2329419D01*
X13156485Y-2296657D01*
X13164533Y-2264529D01*
X13175691Y-2233344D01*
X13189852Y-2203404D01*
X13206879Y-2174995D01*
X13226609Y-2148392D01*
X13248851Y-2123851D01*
X13273392Y-2101609D01*
X13299995Y-2081879D01*
X13328404Y-2064852D01*
X13358344Y-2050691D01*
X13389529Y-2039533D01*
X13421657Y-2031485D01*
X13454419Y-2026625D01*
X13487500Y-2025000D01*
X14262500Y-2025000D01*
X14295581Y-2026625D01*
X14295581Y-2026625D01*
G37*
D16*
X13875000Y-2700000D03*
D15*
G36*
X12545581Y-2026625D02*
X12578343Y-2031485D01*
X12610471Y-2039533D01*
X12641656Y-2050691D01*
X12671596Y-2064852D01*
X12700005Y-2081879D01*
X12726608Y-2101609D01*
X12751149Y-2123851D01*
X12773391Y-2148392D01*
X12793121Y-2174995D01*
X12810148Y-2203404D01*
X12824309Y-2233344D01*
X12835467Y-2264529D01*
X12843515Y-2296657D01*
X12848375Y-2329419D01*
X12850000Y-2362500D01*
X12850000Y-3037500D01*
X12848375Y-3070581D01*
X12843515Y-3103343D01*
X12835467Y-3135471D01*
X12824309Y-3166656D01*
X12810148Y-3196596D01*
X12793121Y-3225005D01*
X12773391Y-3251608D01*
X12751149Y-3276149D01*
X12726608Y-3298391D01*
X12700005Y-3318121D01*
X12671596Y-3335148D01*
X12641656Y-3349309D01*
X12610471Y-3360467D01*
X12578343Y-3368515D01*
X12545581Y-3373375D01*
X12512500Y-3375000D01*
X11737500Y-3375000D01*
X11704419Y-3373375D01*
X11671657Y-3368515D01*
X11639529Y-3360467D01*
X11608344Y-3349309D01*
X11578404Y-3335148D01*
X11549995Y-3318121D01*
X11523392Y-3298391D01*
X11498851Y-3276149D01*
X11476609Y-3251608D01*
X11456879Y-3225005D01*
X11439852Y-3196596D01*
X11425691Y-3166656D01*
X11414533Y-3135471D01*
X11406485Y-3103343D01*
X11401625Y-3070581D01*
X11400000Y-3037500D01*
X11400000Y-2362500D01*
X11401625Y-2329419D01*
X11406485Y-2296657D01*
X11414533Y-2264529D01*
X11425691Y-2233344D01*
X11439852Y-2203404D01*
X11456879Y-2174995D01*
X11476609Y-2148392D01*
X11498851Y-2123851D01*
X11523392Y-2101609D01*
X11549995Y-2081879D01*
X11578404Y-2064852D01*
X11608344Y-2050691D01*
X11639529Y-2039533D01*
X11671657Y-2031485D01*
X11704419Y-2026625D01*
X11737500Y-2025000D01*
X12512500Y-2025000D01*
X12545581Y-2026625D01*
X12545581Y-2026625D01*
G37*
D16*
X12125000Y-2700000D03*
G04 #@! TD*
D15*
G04 #@! TO.C,R1*
G36*
X33395581Y-4226625D02*
X33428343Y-4231485D01*
X33460471Y-4239533D01*
X33491656Y-4250691D01*
X33521596Y-4264852D01*
X33550005Y-4281879D01*
X33576608Y-4301609D01*
X33601149Y-4323851D01*
X33623391Y-4348392D01*
X33643121Y-4374995D01*
X33660148Y-4403404D01*
X33674309Y-4433344D01*
X33685467Y-4464529D01*
X33693515Y-4496657D01*
X33698375Y-4529419D01*
X33700000Y-4562500D01*
X33700000Y-5237500D01*
X33698375Y-5270581D01*
X33693515Y-5303343D01*
X33685467Y-5335471D01*
X33674309Y-5366656D01*
X33660148Y-5396596D01*
X33643121Y-5425005D01*
X33623391Y-5451608D01*
X33601149Y-5476149D01*
X33576608Y-5498391D01*
X33550005Y-5518121D01*
X33521596Y-5535148D01*
X33491656Y-5549309D01*
X33460471Y-5560467D01*
X33428343Y-5568515D01*
X33395581Y-5573375D01*
X33362500Y-5575000D01*
X32587500Y-5575000D01*
X32554419Y-5573375D01*
X32521657Y-5568515D01*
X32489529Y-5560467D01*
X32458344Y-5549309D01*
X32428404Y-5535148D01*
X32399995Y-5518121D01*
X32373392Y-5498391D01*
X32348851Y-5476149D01*
X32326609Y-5451608D01*
X32306879Y-5425005D01*
X32289852Y-5396596D01*
X32275691Y-5366656D01*
X32264533Y-5335471D01*
X32256485Y-5303343D01*
X32251625Y-5270581D01*
X32250000Y-5237500D01*
X32250000Y-4562500D01*
X32251625Y-4529419D01*
X32256485Y-4496657D01*
X32264533Y-4464529D01*
X32275691Y-4433344D01*
X32289852Y-4403404D01*
X32306879Y-4374995D01*
X32326609Y-4348392D01*
X32348851Y-4323851D01*
X32373392Y-4301609D01*
X32399995Y-4281879D01*
X32428404Y-4264852D01*
X32458344Y-4250691D01*
X32489529Y-4239533D01*
X32521657Y-4231485D01*
X32554419Y-4226625D01*
X32587500Y-4225000D01*
X33362500Y-4225000D01*
X33395581Y-4226625D01*
X33395581Y-4226625D01*
G37*
D16*
X32975000Y-4900000D03*
D15*
G36*
X31645581Y-4226625D02*
X31678343Y-4231485D01*
X31710471Y-4239533D01*
X31741656Y-4250691D01*
X31771596Y-4264852D01*
X31800005Y-4281879D01*
X31826608Y-4301609D01*
X31851149Y-4323851D01*
X31873391Y-4348392D01*
X31893121Y-4374995D01*
X31910148Y-4403404D01*
X31924309Y-4433344D01*
X31935467Y-4464529D01*
X31943515Y-4496657D01*
X31948375Y-4529419D01*
X31950000Y-4562500D01*
X31950000Y-5237500D01*
X31948375Y-5270581D01*
X31943515Y-5303343D01*
X31935467Y-5335471D01*
X31924309Y-5366656D01*
X31910148Y-5396596D01*
X31893121Y-5425005D01*
X31873391Y-5451608D01*
X31851149Y-5476149D01*
X31826608Y-5498391D01*
X31800005Y-5518121D01*
X31771596Y-5535148D01*
X31741656Y-5549309D01*
X31710471Y-5560467D01*
X31678343Y-5568515D01*
X31645581Y-5573375D01*
X31612500Y-5575000D01*
X30837500Y-5575000D01*
X30804419Y-5573375D01*
X30771657Y-5568515D01*
X30739529Y-5560467D01*
X30708344Y-5549309D01*
X30678404Y-5535148D01*
X30649995Y-5518121D01*
X30623392Y-5498391D01*
X30598851Y-5476149D01*
X30576609Y-5451608D01*
X30556879Y-5425005D01*
X30539852Y-5396596D01*
X30525691Y-5366656D01*
X30514533Y-5335471D01*
X30506485Y-5303343D01*
X30501625Y-5270581D01*
X30500000Y-5237500D01*
X30500000Y-4562500D01*
X30501625Y-4529419D01*
X30506485Y-4496657D01*
X30514533Y-4464529D01*
X30525691Y-4433344D01*
X30539852Y-4403404D01*
X30556879Y-4374995D01*
X30576609Y-4348392D01*
X30598851Y-4323851D01*
X30623392Y-4301609D01*
X30649995Y-4281879D01*
X30678404Y-4264852D01*
X30708344Y-4250691D01*
X30739529Y-4239533D01*
X30771657Y-4231485D01*
X30804419Y-4226625D01*
X30837500Y-4225000D01*
X31612500Y-4225000D01*
X31645581Y-4226625D01*
X31645581Y-4226625D01*
G37*
D16*
X31225000Y-4900000D03*
G04 #@! TD*
D21*
G04 #@! TO.C,SW1*
X35375000Y-1225000D03*
X31225000Y-1225000D03*
X35375000Y-3375000D03*
X31225000Y-3375000D03*
G04 #@! TD*
D22*
G04 #@! TO.C,U2*
X19500000Y-2300000D03*
X20300000Y-2300000D03*
X21100000Y-2300000D03*
X21900000Y-2300000D03*
X22700000Y-2300000D03*
X23500000Y-2300000D03*
X24300000Y-2300000D03*
X25100000Y-2300000D03*
X25900000Y-2300000D03*
X26700000Y-2300000D03*
X27500000Y-2300000D03*
D23*
X29200000Y-4000000D03*
X29200000Y-4800000D03*
X29200000Y-5600000D03*
X29200000Y-6400000D03*
X29200000Y-7200000D03*
X29200000Y-8000000D03*
X29200000Y-8800000D03*
X29200000Y-9600000D03*
X29200000Y-10400000D03*
X29200000Y-11200000D03*
X29200000Y-12000000D03*
D22*
X27500000Y-13700000D03*
X26700000Y-13700000D03*
X25900000Y-13700000D03*
X25100000Y-13700000D03*
X24300000Y-13700000D03*
X23500000Y-13700000D03*
X22700000Y-13700000D03*
X21900000Y-13700000D03*
X21100000Y-13700000D03*
X20300000Y-13700000D03*
X19500000Y-13700000D03*
D23*
X17800000Y-12000000D03*
X17800000Y-11200000D03*
X17800000Y-10400000D03*
X17800000Y-9600000D03*
X17800000Y-8800000D03*
X17800000Y-8000000D03*
X17800000Y-7200000D03*
X17800000Y-6400000D03*
X17800000Y-5600000D03*
X17800000Y-4800000D03*
X17800000Y-4000000D03*
G04 #@! TD*
D24*
G04 #@! TO.C,Y1*
X35912132Y-11538478D03*
D15*
G36*
X37573833Y-11644544D02*
X36018198Y-13200179D01*
X34250431Y-11432412D01*
X35806066Y-9876777D01*
X37573833Y-11644544D01*
X37573833Y-11644544D01*
G37*
D24*
X33861522Y-9487868D03*
D15*
G36*
X35523223Y-9593934D02*
X33967588Y-11149569D01*
X32199821Y-9381802D01*
X33755456Y-7826167D01*
X35523223Y-9593934D01*
X35523223Y-9593934D01*
G37*
D24*
X35487868Y-7861522D03*
D15*
G36*
X37149569Y-7967588D02*
X35593934Y-9523223D01*
X33826167Y-7755456D01*
X35381802Y-6199821D01*
X37149569Y-7967588D01*
X37149569Y-7967588D01*
G37*
D24*
X37538478Y-9912132D03*
D15*
G36*
X39200179Y-10018198D02*
X37644544Y-11573833D01*
X35876777Y-9806066D01*
X37432412Y-8250431D01*
X39200179Y-10018198D01*
X39200179Y-10018198D01*
G37*
G04 #@! TD*
D25*
X27500000Y-12300000D03*
X14000000Y-15100000D03*
X14000000Y-15100000D03*
X14000000Y-10700000D03*
X25300000Y-800000D03*
X40450000Y-14900000D03*
X40500000Y-11200000D03*
X32200000Y-8200000D03*
X17800000Y-13875000D03*
X32400000Y-11600000D03*
X39800000Y-5600004D03*
X25200114Y-3600000D03*
X29600022Y-3049978D03*
X19800000Y-9600000D03*
X19800006Y-5000000D03*
X27800000Y-11200000D03*
X27100000Y-7950000D03*
X13700000Y-7900000D03*
X30150000Y-14000000D03*
X29250000Y-13799990D03*
X14050000Y-6300000D03*
X20650000Y-3800000D03*
X23500000Y-3600000D03*
M02*
