M48
;DRILL file {KiCad (5.0.1)-3} date 2018/12/01 20:49:32
;FORMAT={-:-/ absolute / inch / decimal}
FMAT,2
INCH,TZ
T1C0.0118
T2C0.0335
T3C0.0366
T4C0.0472
%
G90
G05
M72
T1
X0.5394Y-0.311
X0.5512Y-0.4213
X0.5512Y-0.5945
X0.5512Y-0.5945
X0.5531Y-0.248
X0.7008Y-0.5463
X0.7795Y-0.378
X0.7795Y-0.1969
X0.813Y-0.1496
X0.9252Y-0.1417
X0.9921Y-0.1417
X0.9961Y-0.0315
X1.0669Y-0.313
X1.0827Y-0.4843
X1.0945Y-0.4409
X1.1516Y-0.5433
X1.1654Y-0.1201
X1.187Y-0.5512
X1.2677Y-0.3228
X1.2756Y-0.4567
X1.5669Y-0.2205
X1.5925Y-0.5866
X1.5945Y-0.4409
T2
X1.4756Y-0.063
X1.5756Y-0.063
X1.6756Y-0.063
X1.7756Y-0.063
X0.3701Y-0.1654
X0.3701Y-0.2654
X0.3701Y-0.3654
X0.3701Y-0.4654
T3
X0.2303Y-0.1772
X0.2303Y-0.2756
X0.2303Y-0.3543
X0.2303Y-0.4528
T4
X0.1476Y-0.0846G85X0.0965Y-0.0846
G05
X0.1476Y-0.5453G85X0.0965Y-0.5453
G05
T0
M30
