G04 #@! TF.GenerationSoftware,KiCad,Pcbnew,(5.0.1)-3*
G04 #@! TF.CreationDate,2018-12-01T20:49:26+09:00*
G04 #@! TF.ProjectId,comet46,636F6D657434362E6B696361645F7063,rev?*
G04 #@! TF.SameCoordinates,PX2faf080PY2faf080*
G04 #@! TF.FileFunction,Copper,L1,Top,Signal*
G04 #@! TF.FilePolarity,Positive*
%FSLAX46Y46*%
G04 Gerber Fmt 4.6, Leading zero omitted, Abs format (unit mm)*
G04 Created by KiCad (PCBNEW (5.0.1)-3) date 2018/12/01 20:49:26*
%MOMM*%
%LPD*%
G01*
G04 APERTURE LIST*
G04 #@! TA.AperFunction,ComponentPad*
%ADD10R,1.700000X1.700000*%
G04 #@! TD*
G04 #@! TA.AperFunction,ComponentPad*
%ADD11O,1.700000X1.700000*%
G04 #@! TD*
G04 #@! TA.AperFunction,ComponentPad*
%ADD12C,1.700000*%
G04 #@! TD*
G04 #@! TA.AperFunction,SMDPad,CuDef*
%ADD13R,0.800000X0.900000*%
G04 #@! TD*
G04 #@! TA.AperFunction,SMDPad,CuDef*
%ADD14R,1.600000X0.400000*%
G04 #@! TD*
G04 #@! TA.AperFunction,SMDPad,CuDef*
%ADD15R,0.400000X1.600000*%
G04 #@! TD*
G04 #@! TA.AperFunction,Conductor*
%ADD16C,0.100000*%
G04 #@! TD*
G04 #@! TA.AperFunction,SMDPad,CuDef*
%ADD17C,0.950000*%
G04 #@! TD*
G04 #@! TA.AperFunction,ComponentPad*
%ADD18C,1.530000*%
G04 #@! TD*
G04 #@! TA.AperFunction,ComponentPad*
%ADD19C,1.930000*%
G04 #@! TD*
G04 #@! TA.AperFunction,ComponentPad*
%ADD20O,3.500000X2.200000*%
G04 #@! TD*
G04 #@! TA.AperFunction,ViaPad*
%ADD21C,0.500000*%
G04 #@! TD*
G04 #@! TA.AperFunction,Conductor*
%ADD22C,0.200000*%
G04 #@! TD*
G04 #@! TA.AperFunction,Conductor*
%ADD23C,0.400000*%
G04 #@! TD*
G04 #@! TA.AperFunction,Conductor*
%ADD24C,0.254000*%
G04 #@! TD*
G04 APERTURE END LIST*
D10*
G04 #@! TO.P,J2,1*
G04 #@! TO.N,+3V3*
X37480000Y-1600000D03*
D11*
G04 #@! TO.P,J2,2*
G04 #@! TO.N,GND*
X40020000Y-1600000D03*
G04 #@! TO.P,J2,3*
G04 #@! TO.N,/SWDIO*
X42560000Y-1600000D03*
D12*
G04 #@! TO.P,J2,4*
G04 #@! TO.N,/SWDCLK*
X45100000Y-1600000D03*
G04 #@! TD*
D13*
G04 #@! TO.P,U3,3*
G04 #@! TO.N,GND*
X22600000Y-4800000D03*
G04 #@! TO.P,U3,2*
G04 #@! TO.N,+3V3*
X23550000Y-6800000D03*
G04 #@! TO.P,U3,1*
G04 #@! TO.N,VCC*
X21650000Y-6800000D03*
G04 #@! TD*
D14*
G04 #@! TO.P,U1,15*
G04 #@! TO.N,Net-(U1-Pad15)*
X29700000Y-6000000D03*
D15*
G04 #@! TO.P,U1,1*
G04 #@! TO.N,GND*
X42400000Y-4100000D03*
G04 #@! TO.P,U1,2*
X41700000Y-4100000D03*
G04 #@! TO.P,U1,3*
G04 #@! TO.N,+3V3*
X37500000Y-4100000D03*
G04 #@! TO.P,U1,4*
G04 #@! TO.N,Net-(U1-Pad4)*
X36800000Y-4100000D03*
G04 #@! TO.P,U1,5*
G04 #@! TO.N,Net-(U1-Pad5)*
X36100000Y-4100000D03*
G04 #@! TO.P,U1,6*
G04 #@! TO.N,Net-(U1-Pad6)*
X35400000Y-4100000D03*
G04 #@! TO.P,U1,7*
G04 #@! TO.N,/RXI*
X34700000Y-4100000D03*
G04 #@! TO.P,U1,8*
G04 #@! TO.N,/TXO_DIV*
X34000000Y-4100000D03*
G04 #@! TO.P,U1,9*
G04 #@! TO.N,Net-(U1-Pad9)*
X33300000Y-4100000D03*
G04 #@! TO.P,U1,10*
G04 #@! TO.N,Net-(U1-Pad10)*
X32600000Y-4100000D03*
G04 #@! TO.P,U1,11*
G04 #@! TO.N,Net-(U1-Pad11)*
X31900000Y-4100000D03*
G04 #@! TO.P,U1,12*
G04 #@! TO.N,Net-(U1-Pad12)*
X31200000Y-4100000D03*
D14*
G04 #@! TO.P,U1,13*
G04 #@! TO.N,GND*
X29700000Y-4600000D03*
G04 #@! TO.P,U1,14*
G04 #@! TO.N,+3V3*
X29700000Y-5300000D03*
G04 #@! TO.P,U1,16*
G04 #@! TO.N,Net-(U1-Pad16)*
X29700000Y-6700000D03*
G04 #@! TO.P,U1,17*
G04 #@! TO.N,Net-(U1-Pad17)*
X29700000Y-7400000D03*
G04 #@! TO.P,U1,18*
G04 #@! TO.N,Net-(U1-Pad18)*
X29700000Y-8100000D03*
G04 #@! TO.P,U1,19*
G04 #@! TO.N,Net-(U1-Pad19)*
X29700000Y-8800000D03*
G04 #@! TO.P,U1,20*
G04 #@! TO.N,Net-(U1-Pad20)*
X29700000Y-9500000D03*
G04 #@! TO.P,U1,21*
G04 #@! TO.N,Net-(U1-Pad21)*
X29700000Y-10200000D03*
G04 #@! TO.P,U1,22*
G04 #@! TO.N,Net-(U1-Pad22)*
X29700000Y-10900000D03*
G04 #@! TO.P,U1,23*
G04 #@! TO.N,Net-(U1-Pad23)*
X29700000Y-11600000D03*
G04 #@! TO.P,U1,24*
G04 #@! TO.N,Net-(U1-Pad24)*
X29700000Y-12300000D03*
G04 #@! TO.P,U1,25*
G04 #@! TO.N,GND*
X29700000Y-13000000D03*
D15*
G04 #@! TO.P,U1,26*
G04 #@! TO.N,Net-(U1-Pad26)*
X31200000Y-13500000D03*
G04 #@! TO.P,U1,27*
G04 #@! TO.N,Net-(U1-Pad27)*
X31900000Y-13500000D03*
G04 #@! TO.P,U1,28*
G04 #@! TO.N,Net-(U1-Pad28)*
X32600000Y-13500000D03*
G04 #@! TO.P,U1,29*
G04 #@! TO.N,Net-(U1-Pad29)*
X33300000Y-13500000D03*
G04 #@! TO.P,U1,30*
G04 #@! TO.N,Net-(U1-Pad30)*
X34000000Y-13500000D03*
G04 #@! TO.P,U1,31*
G04 #@! TO.N,Net-(U1-Pad31)*
X34700000Y-13500000D03*
G04 #@! TO.P,U1,32*
G04 #@! TO.N,Net-(U1-Pad32)*
X35400000Y-13500000D03*
G04 #@! TO.P,U1,33*
G04 #@! TO.N,Net-(U1-Pad33)*
X36100000Y-13500000D03*
G04 #@! TO.P,U1,34*
G04 #@! TO.N,Net-(U1-Pad34)*
X36800000Y-13500000D03*
G04 #@! TO.P,U1,35*
G04 #@! TO.N,/SWDIO*
X37500000Y-13500000D03*
G04 #@! TO.P,U1,36*
G04 #@! TO.N,/SWDCLK*
X38200000Y-13500000D03*
G04 #@! TO.P,U1,37*
G04 #@! TO.N,Net-(U1-Pad37)*
X38900000Y-13500000D03*
G04 #@! TO.P,U1,38*
G04 #@! TO.N,Net-(U1-Pad38)*
X39600000Y-13500000D03*
G04 #@! TO.P,U1,39*
G04 #@! TO.N,Net-(U1-Pad39)*
X40300000Y-13500000D03*
G04 #@! TO.P,U1,40*
G04 #@! TO.N,Net-(U1-Pad40)*
X41000000Y-13500000D03*
G04 #@! TO.P,U1,41*
G04 #@! TO.N,Net-(U1-Pad41)*
X41700000Y-13500000D03*
G04 #@! TO.P,U1,42*
G04 #@! TO.N,GND*
X42400000Y-13500000D03*
G04 #@! TD*
D16*
G04 #@! TO.N,/TXO*
G04 #@! TO.C,R2*
G36*
X26885779Y-10726144D02*
X26908834Y-10729563D01*
X26931443Y-10735227D01*
X26953387Y-10743079D01*
X26974457Y-10753044D01*
X26994448Y-10765026D01*
X27013168Y-10778910D01*
X27030438Y-10794562D01*
X27046090Y-10811832D01*
X27059974Y-10830552D01*
X27071956Y-10850543D01*
X27081921Y-10871613D01*
X27089773Y-10893557D01*
X27095437Y-10916166D01*
X27098856Y-10939221D01*
X27100000Y-10962500D01*
X27100000Y-11437500D01*
X27098856Y-11460779D01*
X27095437Y-11483834D01*
X27089773Y-11506443D01*
X27081921Y-11528387D01*
X27071956Y-11549457D01*
X27059974Y-11569448D01*
X27046090Y-11588168D01*
X27030438Y-11605438D01*
X27013168Y-11621090D01*
X26994448Y-11634974D01*
X26974457Y-11646956D01*
X26953387Y-11656921D01*
X26931443Y-11664773D01*
X26908834Y-11670437D01*
X26885779Y-11673856D01*
X26862500Y-11675000D01*
X26287500Y-11675000D01*
X26264221Y-11673856D01*
X26241166Y-11670437D01*
X26218557Y-11664773D01*
X26196613Y-11656921D01*
X26175543Y-11646956D01*
X26155552Y-11634974D01*
X26136832Y-11621090D01*
X26119562Y-11605438D01*
X26103910Y-11588168D01*
X26090026Y-11569448D01*
X26078044Y-11549457D01*
X26068079Y-11528387D01*
X26060227Y-11506443D01*
X26054563Y-11483834D01*
X26051144Y-11460779D01*
X26050000Y-11437500D01*
X26050000Y-10962500D01*
X26051144Y-10939221D01*
X26054563Y-10916166D01*
X26060227Y-10893557D01*
X26068079Y-10871613D01*
X26078044Y-10850543D01*
X26090026Y-10830552D01*
X26103910Y-10811832D01*
X26119562Y-10794562D01*
X26136832Y-10778910D01*
X26155552Y-10765026D01*
X26175543Y-10753044D01*
X26196613Y-10743079D01*
X26218557Y-10735227D01*
X26241166Y-10729563D01*
X26264221Y-10726144D01*
X26287500Y-10725000D01*
X26862500Y-10725000D01*
X26885779Y-10726144D01*
X26885779Y-10726144D01*
G37*
D17*
G04 #@! TD*
G04 #@! TO.P,R2,2*
G04 #@! TO.N,/TXO*
X26575000Y-11200000D03*
D16*
G04 #@! TO.N,/TXO_DIV*
G04 #@! TO.C,R2*
G36*
X25135779Y-10726144D02*
X25158834Y-10729563D01*
X25181443Y-10735227D01*
X25203387Y-10743079D01*
X25224457Y-10753044D01*
X25244448Y-10765026D01*
X25263168Y-10778910D01*
X25280438Y-10794562D01*
X25296090Y-10811832D01*
X25309974Y-10830552D01*
X25321956Y-10850543D01*
X25331921Y-10871613D01*
X25339773Y-10893557D01*
X25345437Y-10916166D01*
X25348856Y-10939221D01*
X25350000Y-10962500D01*
X25350000Y-11437500D01*
X25348856Y-11460779D01*
X25345437Y-11483834D01*
X25339773Y-11506443D01*
X25331921Y-11528387D01*
X25321956Y-11549457D01*
X25309974Y-11569448D01*
X25296090Y-11588168D01*
X25280438Y-11605438D01*
X25263168Y-11621090D01*
X25244448Y-11634974D01*
X25224457Y-11646956D01*
X25203387Y-11656921D01*
X25181443Y-11664773D01*
X25158834Y-11670437D01*
X25135779Y-11673856D01*
X25112500Y-11675000D01*
X24537500Y-11675000D01*
X24514221Y-11673856D01*
X24491166Y-11670437D01*
X24468557Y-11664773D01*
X24446613Y-11656921D01*
X24425543Y-11646956D01*
X24405552Y-11634974D01*
X24386832Y-11621090D01*
X24369562Y-11605438D01*
X24353910Y-11588168D01*
X24340026Y-11569448D01*
X24328044Y-11549457D01*
X24318079Y-11528387D01*
X24310227Y-11506443D01*
X24304563Y-11483834D01*
X24301144Y-11460779D01*
X24300000Y-11437500D01*
X24300000Y-10962500D01*
X24301144Y-10939221D01*
X24304563Y-10916166D01*
X24310227Y-10893557D01*
X24318079Y-10871613D01*
X24328044Y-10850543D01*
X24340026Y-10830552D01*
X24353910Y-10811832D01*
X24369562Y-10794562D01*
X24386832Y-10778910D01*
X24405552Y-10765026D01*
X24425543Y-10753044D01*
X24446613Y-10743079D01*
X24468557Y-10735227D01*
X24491166Y-10729563D01*
X24514221Y-10726144D01*
X24537500Y-10725000D01*
X25112500Y-10725000D01*
X25135779Y-10726144D01*
X25135779Y-10726144D01*
G37*
D17*
G04 #@! TD*
G04 #@! TO.P,R2,1*
G04 #@! TO.N,/TXO_DIV*
X24825000Y-11200000D03*
D16*
G04 #@! TO.N,Net-(C3-Pad1)*
G04 #@! TO.C,C3*
G36*
X23835779Y-1726144D02*
X23858834Y-1729563D01*
X23881443Y-1735227D01*
X23903387Y-1743079D01*
X23924457Y-1753044D01*
X23944448Y-1765026D01*
X23963168Y-1778910D01*
X23980438Y-1794562D01*
X23996090Y-1811832D01*
X24009974Y-1830552D01*
X24021956Y-1850543D01*
X24031921Y-1871613D01*
X24039773Y-1893557D01*
X24045437Y-1916166D01*
X24048856Y-1939221D01*
X24050000Y-1962500D01*
X24050000Y-2437500D01*
X24048856Y-2460779D01*
X24045437Y-2483834D01*
X24039773Y-2506443D01*
X24031921Y-2528387D01*
X24021956Y-2549457D01*
X24009974Y-2569448D01*
X23996090Y-2588168D01*
X23980438Y-2605438D01*
X23963168Y-2621090D01*
X23944448Y-2634974D01*
X23924457Y-2646956D01*
X23903387Y-2656921D01*
X23881443Y-2664773D01*
X23858834Y-2670437D01*
X23835779Y-2673856D01*
X23812500Y-2675000D01*
X23237500Y-2675000D01*
X23214221Y-2673856D01*
X23191166Y-2670437D01*
X23168557Y-2664773D01*
X23146613Y-2656921D01*
X23125543Y-2646956D01*
X23105552Y-2634974D01*
X23086832Y-2621090D01*
X23069562Y-2605438D01*
X23053910Y-2588168D01*
X23040026Y-2569448D01*
X23028044Y-2549457D01*
X23018079Y-2528387D01*
X23010227Y-2506443D01*
X23004563Y-2483834D01*
X23001144Y-2460779D01*
X23000000Y-2437500D01*
X23000000Y-1962500D01*
X23001144Y-1939221D01*
X23004563Y-1916166D01*
X23010227Y-1893557D01*
X23018079Y-1871613D01*
X23028044Y-1850543D01*
X23040026Y-1830552D01*
X23053910Y-1811832D01*
X23069562Y-1794562D01*
X23086832Y-1778910D01*
X23105552Y-1765026D01*
X23125543Y-1753044D01*
X23146613Y-1743079D01*
X23168557Y-1735227D01*
X23191166Y-1729563D01*
X23214221Y-1726144D01*
X23237500Y-1725000D01*
X23812500Y-1725000D01*
X23835779Y-1726144D01*
X23835779Y-1726144D01*
G37*
D17*
G04 #@! TD*
G04 #@! TO.P,C3,1*
G04 #@! TO.N,Net-(C3-Pad1)*
X23525000Y-2200000D03*
D16*
G04 #@! TO.N,GND*
G04 #@! TO.C,C3*
G36*
X25585779Y-1726144D02*
X25608834Y-1729563D01*
X25631443Y-1735227D01*
X25653387Y-1743079D01*
X25674457Y-1753044D01*
X25694448Y-1765026D01*
X25713168Y-1778910D01*
X25730438Y-1794562D01*
X25746090Y-1811832D01*
X25759974Y-1830552D01*
X25771956Y-1850543D01*
X25781921Y-1871613D01*
X25789773Y-1893557D01*
X25795437Y-1916166D01*
X25798856Y-1939221D01*
X25800000Y-1962500D01*
X25800000Y-2437500D01*
X25798856Y-2460779D01*
X25795437Y-2483834D01*
X25789773Y-2506443D01*
X25781921Y-2528387D01*
X25771956Y-2549457D01*
X25759974Y-2569448D01*
X25746090Y-2588168D01*
X25730438Y-2605438D01*
X25713168Y-2621090D01*
X25694448Y-2634974D01*
X25674457Y-2646956D01*
X25653387Y-2656921D01*
X25631443Y-2664773D01*
X25608834Y-2670437D01*
X25585779Y-2673856D01*
X25562500Y-2675000D01*
X24987500Y-2675000D01*
X24964221Y-2673856D01*
X24941166Y-2670437D01*
X24918557Y-2664773D01*
X24896613Y-2656921D01*
X24875543Y-2646956D01*
X24855552Y-2634974D01*
X24836832Y-2621090D01*
X24819562Y-2605438D01*
X24803910Y-2588168D01*
X24790026Y-2569448D01*
X24778044Y-2549457D01*
X24768079Y-2528387D01*
X24760227Y-2506443D01*
X24754563Y-2483834D01*
X24751144Y-2460779D01*
X24750000Y-2437500D01*
X24750000Y-1962500D01*
X24751144Y-1939221D01*
X24754563Y-1916166D01*
X24760227Y-1893557D01*
X24768079Y-1871613D01*
X24778044Y-1850543D01*
X24790026Y-1830552D01*
X24803910Y-1811832D01*
X24819562Y-1794562D01*
X24836832Y-1778910D01*
X24855552Y-1765026D01*
X24875543Y-1753044D01*
X24896613Y-1743079D01*
X24918557Y-1735227D01*
X24941166Y-1729563D01*
X24964221Y-1726144D01*
X24987500Y-1725000D01*
X25562500Y-1725000D01*
X25585779Y-1726144D01*
X25585779Y-1726144D01*
G37*
D17*
G04 #@! TD*
G04 #@! TO.P,C3,2*
G04 #@! TO.N,GND*
X25275000Y-2200000D03*
D16*
G04 #@! TO.N,GND*
G04 #@! TO.C,C4*
G36*
X20060779Y-8001144D02*
X20083834Y-8004563D01*
X20106443Y-8010227D01*
X20128387Y-8018079D01*
X20149457Y-8028044D01*
X20169448Y-8040026D01*
X20188168Y-8053910D01*
X20205438Y-8069562D01*
X20221090Y-8086832D01*
X20234974Y-8105552D01*
X20246956Y-8125543D01*
X20256921Y-8146613D01*
X20264773Y-8168557D01*
X20270437Y-8191166D01*
X20273856Y-8214221D01*
X20275000Y-8237500D01*
X20275000Y-8812500D01*
X20273856Y-8835779D01*
X20270437Y-8858834D01*
X20264773Y-8881443D01*
X20256921Y-8903387D01*
X20246956Y-8924457D01*
X20234974Y-8944448D01*
X20221090Y-8963168D01*
X20205438Y-8980438D01*
X20188168Y-8996090D01*
X20169448Y-9009974D01*
X20149457Y-9021956D01*
X20128387Y-9031921D01*
X20106443Y-9039773D01*
X20083834Y-9045437D01*
X20060779Y-9048856D01*
X20037500Y-9050000D01*
X19562500Y-9050000D01*
X19539221Y-9048856D01*
X19516166Y-9045437D01*
X19493557Y-9039773D01*
X19471613Y-9031921D01*
X19450543Y-9021956D01*
X19430552Y-9009974D01*
X19411832Y-8996090D01*
X19394562Y-8980438D01*
X19378910Y-8963168D01*
X19365026Y-8944448D01*
X19353044Y-8924457D01*
X19343079Y-8903387D01*
X19335227Y-8881443D01*
X19329563Y-8858834D01*
X19326144Y-8835779D01*
X19325000Y-8812500D01*
X19325000Y-8237500D01*
X19326144Y-8214221D01*
X19329563Y-8191166D01*
X19335227Y-8168557D01*
X19343079Y-8146613D01*
X19353044Y-8125543D01*
X19365026Y-8105552D01*
X19378910Y-8086832D01*
X19394562Y-8069562D01*
X19411832Y-8053910D01*
X19430552Y-8040026D01*
X19450543Y-8028044D01*
X19471613Y-8018079D01*
X19493557Y-8010227D01*
X19516166Y-8004563D01*
X19539221Y-8001144D01*
X19562500Y-8000000D01*
X20037500Y-8000000D01*
X20060779Y-8001144D01*
X20060779Y-8001144D01*
G37*
D17*
G04 #@! TD*
G04 #@! TO.P,C4,1*
G04 #@! TO.N,GND*
X19800000Y-8525000D03*
D16*
G04 #@! TO.N,VCC*
G04 #@! TO.C,C4*
G36*
X20060779Y-6251144D02*
X20083834Y-6254563D01*
X20106443Y-6260227D01*
X20128387Y-6268079D01*
X20149457Y-6278044D01*
X20169448Y-6290026D01*
X20188168Y-6303910D01*
X20205438Y-6319562D01*
X20221090Y-6336832D01*
X20234974Y-6355552D01*
X20246956Y-6375543D01*
X20256921Y-6396613D01*
X20264773Y-6418557D01*
X20270437Y-6441166D01*
X20273856Y-6464221D01*
X20275000Y-6487500D01*
X20275000Y-7062500D01*
X20273856Y-7085779D01*
X20270437Y-7108834D01*
X20264773Y-7131443D01*
X20256921Y-7153387D01*
X20246956Y-7174457D01*
X20234974Y-7194448D01*
X20221090Y-7213168D01*
X20205438Y-7230438D01*
X20188168Y-7246090D01*
X20169448Y-7259974D01*
X20149457Y-7271956D01*
X20128387Y-7281921D01*
X20106443Y-7289773D01*
X20083834Y-7295437D01*
X20060779Y-7298856D01*
X20037500Y-7300000D01*
X19562500Y-7300000D01*
X19539221Y-7298856D01*
X19516166Y-7295437D01*
X19493557Y-7289773D01*
X19471613Y-7281921D01*
X19450543Y-7271956D01*
X19430552Y-7259974D01*
X19411832Y-7246090D01*
X19394562Y-7230438D01*
X19378910Y-7213168D01*
X19365026Y-7194448D01*
X19353044Y-7174457D01*
X19343079Y-7153387D01*
X19335227Y-7131443D01*
X19329563Y-7108834D01*
X19326144Y-7085779D01*
X19325000Y-7062500D01*
X19325000Y-6487500D01*
X19326144Y-6464221D01*
X19329563Y-6441166D01*
X19335227Y-6418557D01*
X19343079Y-6396613D01*
X19353044Y-6375543D01*
X19365026Y-6355552D01*
X19378910Y-6336832D01*
X19394562Y-6319562D01*
X19411832Y-6303910D01*
X19430552Y-6290026D01*
X19450543Y-6278044D01*
X19471613Y-6268079D01*
X19493557Y-6260227D01*
X19516166Y-6254563D01*
X19539221Y-6251144D01*
X19562500Y-6250000D01*
X20037500Y-6250000D01*
X20060779Y-6251144D01*
X20060779Y-6251144D01*
G37*
D17*
G04 #@! TD*
G04 #@! TO.P,C4,2*
G04 #@! TO.N,VCC*
X19800000Y-6775000D03*
D16*
G04 #@! TO.N,GND*
G04 #@! TO.C,C5*
G36*
X25760779Y-7201144D02*
X25783834Y-7204563D01*
X25806443Y-7210227D01*
X25828387Y-7218079D01*
X25849457Y-7228044D01*
X25869448Y-7240026D01*
X25888168Y-7253910D01*
X25905438Y-7269562D01*
X25921090Y-7286832D01*
X25934974Y-7305552D01*
X25946956Y-7325543D01*
X25956921Y-7346613D01*
X25964773Y-7368557D01*
X25970437Y-7391166D01*
X25973856Y-7414221D01*
X25975000Y-7437500D01*
X25975000Y-8012500D01*
X25973856Y-8035779D01*
X25970437Y-8058834D01*
X25964773Y-8081443D01*
X25956921Y-8103387D01*
X25946956Y-8124457D01*
X25934974Y-8144448D01*
X25921090Y-8163168D01*
X25905438Y-8180438D01*
X25888168Y-8196090D01*
X25869448Y-8209974D01*
X25849457Y-8221956D01*
X25828387Y-8231921D01*
X25806443Y-8239773D01*
X25783834Y-8245437D01*
X25760779Y-8248856D01*
X25737500Y-8250000D01*
X25262500Y-8250000D01*
X25239221Y-8248856D01*
X25216166Y-8245437D01*
X25193557Y-8239773D01*
X25171613Y-8231921D01*
X25150543Y-8221956D01*
X25130552Y-8209974D01*
X25111832Y-8196090D01*
X25094562Y-8180438D01*
X25078910Y-8163168D01*
X25065026Y-8144448D01*
X25053044Y-8124457D01*
X25043079Y-8103387D01*
X25035227Y-8081443D01*
X25029563Y-8058834D01*
X25026144Y-8035779D01*
X25025000Y-8012500D01*
X25025000Y-7437500D01*
X25026144Y-7414221D01*
X25029563Y-7391166D01*
X25035227Y-7368557D01*
X25043079Y-7346613D01*
X25053044Y-7325543D01*
X25065026Y-7305552D01*
X25078910Y-7286832D01*
X25094562Y-7269562D01*
X25111832Y-7253910D01*
X25130552Y-7240026D01*
X25150543Y-7228044D01*
X25171613Y-7218079D01*
X25193557Y-7210227D01*
X25216166Y-7204563D01*
X25239221Y-7201144D01*
X25262500Y-7200000D01*
X25737500Y-7200000D01*
X25760779Y-7201144D01*
X25760779Y-7201144D01*
G37*
D17*
G04 #@! TD*
G04 #@! TO.P,C5,1*
G04 #@! TO.N,GND*
X25500000Y-7725000D03*
D16*
G04 #@! TO.N,+3V3*
G04 #@! TO.C,C5*
G36*
X25760779Y-5451144D02*
X25783834Y-5454563D01*
X25806443Y-5460227D01*
X25828387Y-5468079D01*
X25849457Y-5478044D01*
X25869448Y-5490026D01*
X25888168Y-5503910D01*
X25905438Y-5519562D01*
X25921090Y-5536832D01*
X25934974Y-5555552D01*
X25946956Y-5575543D01*
X25956921Y-5596613D01*
X25964773Y-5618557D01*
X25970437Y-5641166D01*
X25973856Y-5664221D01*
X25975000Y-5687500D01*
X25975000Y-6262500D01*
X25973856Y-6285779D01*
X25970437Y-6308834D01*
X25964773Y-6331443D01*
X25956921Y-6353387D01*
X25946956Y-6374457D01*
X25934974Y-6394448D01*
X25921090Y-6413168D01*
X25905438Y-6430438D01*
X25888168Y-6446090D01*
X25869448Y-6459974D01*
X25849457Y-6471956D01*
X25828387Y-6481921D01*
X25806443Y-6489773D01*
X25783834Y-6495437D01*
X25760779Y-6498856D01*
X25737500Y-6500000D01*
X25262500Y-6500000D01*
X25239221Y-6498856D01*
X25216166Y-6495437D01*
X25193557Y-6489773D01*
X25171613Y-6481921D01*
X25150543Y-6471956D01*
X25130552Y-6459974D01*
X25111832Y-6446090D01*
X25094562Y-6430438D01*
X25078910Y-6413168D01*
X25065026Y-6394448D01*
X25053044Y-6374457D01*
X25043079Y-6353387D01*
X25035227Y-6331443D01*
X25029563Y-6308834D01*
X25026144Y-6285779D01*
X25025000Y-6262500D01*
X25025000Y-5687500D01*
X25026144Y-5664221D01*
X25029563Y-5641166D01*
X25035227Y-5618557D01*
X25043079Y-5596613D01*
X25053044Y-5575543D01*
X25065026Y-5555552D01*
X25078910Y-5536832D01*
X25094562Y-5519562D01*
X25111832Y-5503910D01*
X25130552Y-5490026D01*
X25150543Y-5478044D01*
X25171613Y-5468079D01*
X25193557Y-5460227D01*
X25216166Y-5454563D01*
X25239221Y-5451144D01*
X25262500Y-5450000D01*
X25737500Y-5450000D01*
X25760779Y-5451144D01*
X25760779Y-5451144D01*
G37*
D17*
G04 #@! TD*
G04 #@! TO.P,C5,2*
G04 #@! TO.N,+3V3*
X25500000Y-5975000D03*
D10*
G04 #@! TO.P,J3,1*
G04 #@! TO.N,GND*
X9400000Y-11820000D03*
D11*
G04 #@! TO.P,J3,2*
G04 #@! TO.N,VCC*
X9400000Y-9280000D03*
G04 #@! TO.P,J3,3*
G04 #@! TO.N,/SCL*
X9400000Y-6740000D03*
D12*
G04 #@! TO.P,J3,4*
G04 #@! TO.N,/SDA*
X9400000Y-4200000D03*
G04 #@! TD*
D18*
G04 #@! TO.P,J1,2*
G04 #@! TO.N,Net-(J1-Pad2)*
X5850000Y-9000000D03*
G04 #@! TO.P,J1,3*
G04 #@! TO.N,Net-(J1-Pad3)*
X5850000Y-7000000D03*
D19*
G04 #@! TO.P,J1,1*
G04 #@! TO.N,/UVCC*
X5850000Y-11500000D03*
G04 #@! TO.P,J1,4*
G04 #@! TO.N,GND*
X5850000Y-4500000D03*
D20*
G04 #@! TO.P,J1,5*
X3100000Y-13850000D03*
X3100000Y-2150000D03*
G04 #@! TD*
D16*
G04 #@! TO.N,/TXO_DIV*
G04 #@! TO.C,R3*
G36*
X25085779Y-9026144D02*
X25108834Y-9029563D01*
X25131443Y-9035227D01*
X25153387Y-9043079D01*
X25174457Y-9053044D01*
X25194448Y-9065026D01*
X25213168Y-9078910D01*
X25230438Y-9094562D01*
X25246090Y-9111832D01*
X25259974Y-9130552D01*
X25271956Y-9150543D01*
X25281921Y-9171613D01*
X25289773Y-9193557D01*
X25295437Y-9216166D01*
X25298856Y-9239221D01*
X25300000Y-9262500D01*
X25300000Y-9737500D01*
X25298856Y-9760779D01*
X25295437Y-9783834D01*
X25289773Y-9806443D01*
X25281921Y-9828387D01*
X25271956Y-9849457D01*
X25259974Y-9869448D01*
X25246090Y-9888168D01*
X25230438Y-9905438D01*
X25213168Y-9921090D01*
X25194448Y-9934974D01*
X25174457Y-9946956D01*
X25153387Y-9956921D01*
X25131443Y-9964773D01*
X25108834Y-9970437D01*
X25085779Y-9973856D01*
X25062500Y-9975000D01*
X24487500Y-9975000D01*
X24464221Y-9973856D01*
X24441166Y-9970437D01*
X24418557Y-9964773D01*
X24396613Y-9956921D01*
X24375543Y-9946956D01*
X24355552Y-9934974D01*
X24336832Y-9921090D01*
X24319562Y-9905438D01*
X24303910Y-9888168D01*
X24290026Y-9869448D01*
X24278044Y-9849457D01*
X24268079Y-9828387D01*
X24260227Y-9806443D01*
X24254563Y-9783834D01*
X24251144Y-9760779D01*
X24250000Y-9737500D01*
X24250000Y-9262500D01*
X24251144Y-9239221D01*
X24254563Y-9216166D01*
X24260227Y-9193557D01*
X24268079Y-9171613D01*
X24278044Y-9150543D01*
X24290026Y-9130552D01*
X24303910Y-9111832D01*
X24319562Y-9094562D01*
X24336832Y-9078910D01*
X24355552Y-9065026D01*
X24375543Y-9053044D01*
X24396613Y-9043079D01*
X24418557Y-9035227D01*
X24441166Y-9029563D01*
X24464221Y-9026144D01*
X24487500Y-9025000D01*
X25062500Y-9025000D01*
X25085779Y-9026144D01*
X25085779Y-9026144D01*
G37*
D17*
G04 #@! TD*
G04 #@! TO.P,R3,1*
G04 #@! TO.N,/TXO_DIV*
X24775000Y-9500000D03*
D16*
G04 #@! TO.N,GND*
G04 #@! TO.C,R3*
G36*
X23335779Y-9026144D02*
X23358834Y-9029563D01*
X23381443Y-9035227D01*
X23403387Y-9043079D01*
X23424457Y-9053044D01*
X23444448Y-9065026D01*
X23463168Y-9078910D01*
X23480438Y-9094562D01*
X23496090Y-9111832D01*
X23509974Y-9130552D01*
X23521956Y-9150543D01*
X23531921Y-9171613D01*
X23539773Y-9193557D01*
X23545437Y-9216166D01*
X23548856Y-9239221D01*
X23550000Y-9262500D01*
X23550000Y-9737500D01*
X23548856Y-9760779D01*
X23545437Y-9783834D01*
X23539773Y-9806443D01*
X23531921Y-9828387D01*
X23521956Y-9849457D01*
X23509974Y-9869448D01*
X23496090Y-9888168D01*
X23480438Y-9905438D01*
X23463168Y-9921090D01*
X23444448Y-9934974D01*
X23424457Y-9946956D01*
X23403387Y-9956921D01*
X23381443Y-9964773D01*
X23358834Y-9970437D01*
X23335779Y-9973856D01*
X23312500Y-9975000D01*
X22737500Y-9975000D01*
X22714221Y-9973856D01*
X22691166Y-9970437D01*
X22668557Y-9964773D01*
X22646613Y-9956921D01*
X22625543Y-9946956D01*
X22605552Y-9934974D01*
X22586832Y-9921090D01*
X22569562Y-9905438D01*
X22553910Y-9888168D01*
X22540026Y-9869448D01*
X22528044Y-9849457D01*
X22518079Y-9828387D01*
X22510227Y-9806443D01*
X22504563Y-9783834D01*
X22501144Y-9760779D01*
X22500000Y-9737500D01*
X22500000Y-9262500D01*
X22501144Y-9239221D01*
X22504563Y-9216166D01*
X22510227Y-9193557D01*
X22518079Y-9171613D01*
X22528044Y-9150543D01*
X22540026Y-9130552D01*
X22553910Y-9111832D01*
X22569562Y-9094562D01*
X22586832Y-9078910D01*
X22605552Y-9065026D01*
X22625543Y-9053044D01*
X22646613Y-9043079D01*
X22668557Y-9035227D01*
X22691166Y-9029563D01*
X22714221Y-9026144D01*
X22737500Y-9025000D01*
X23312500Y-9025000D01*
X23335779Y-9026144D01*
X23335779Y-9026144D01*
G37*
D17*
G04 #@! TD*
G04 #@! TO.P,R3,2*
G04 #@! TO.N,GND*
X23025000Y-9500000D03*
D21*
G04 #@! TO.N,GND*
X27500000Y-12300000D03*
X14000000Y-15100000D03*
X14000000Y-15100000D03*
X14000000Y-10700000D03*
X25300000Y-800000D03*
X40450000Y-14900000D03*
X40500000Y-11200000D03*
X32200000Y-8200000D03*
X17800000Y-13875000D03*
X32400000Y-11600000D03*
X39800000Y-5600004D03*
X25200114Y-3600000D03*
X29600022Y-3049978D03*
X19800000Y-9600000D03*
G04 #@! TO.N,VCC*
X19800006Y-5000000D03*
G04 #@! TO.N,/TXO*
X27800000Y-11200000D03*
G04 #@! TO.N,/RXI*
X27100000Y-7950000D03*
G04 #@! TO.N,/SCL*
X13700000Y-7900000D03*
X30150000Y-14000000D03*
G04 #@! TO.N,/SDA*
X29250000Y-13799990D03*
X14050000Y-6300000D03*
G04 #@! TO.N,/UVCC*
X20650000Y-3800000D03*
G04 #@! TO.N,Net-(C3-Pad1)*
X23500000Y-3600000D03*
G04 #@! TD*
D22*
G04 #@! TO.N,GND*
X27500000Y-12653553D02*
X27846447Y-13000000D01*
X27500000Y-12300000D02*
X27500000Y-12653553D01*
X27846447Y-13000000D02*
X28500000Y-13000000D01*
X28500000Y-13000000D02*
X29400000Y-13000000D01*
X14000000Y-15100000D02*
X14000000Y-10700000D01*
X25275000Y-2200000D02*
X25275000Y-825000D01*
X25275000Y-825000D02*
X25300000Y-800000D01*
D23*
X42400000Y-13800000D02*
X42400000Y-14800000D01*
X42300000Y-14900000D02*
X40450000Y-14900000D01*
X42400000Y-14800000D02*
X42300000Y-14900000D01*
X42200000Y-11200000D02*
X40500000Y-11200000D01*
X42400000Y-13800000D02*
X42400000Y-11400000D01*
X42400000Y-11400000D02*
X42200000Y-11200000D01*
X42400000Y-3800000D02*
X41700000Y-3800000D01*
X32200000Y-11400000D02*
X32400000Y-11600000D01*
X32200000Y-8200000D02*
X32200000Y-11400000D01*
X41700000Y-3280000D02*
X41700000Y-3800000D01*
X40020000Y-1600000D02*
X41700000Y-3280000D01*
X41700000Y-3800000D02*
X41700000Y-5650000D01*
X41650004Y-5600004D02*
X39800000Y-5600004D01*
X41700000Y-5650000D02*
X41650004Y-5600004D01*
D22*
X25275000Y-3525114D02*
X25200114Y-3600000D01*
X25275000Y-2200000D02*
X25275000Y-3525114D01*
X28350000Y-13000000D02*
X28500000Y-13000000D01*
X28350000Y-4950000D02*
X28350000Y-13000000D01*
X29400000Y-4600000D02*
X28700000Y-4600000D01*
X28700000Y-4600000D02*
X28350000Y-4950000D01*
D23*
X29600022Y-4399978D02*
X29600022Y-3049978D01*
X42400000Y-3800000D02*
X42400000Y-5400000D01*
D22*
X19800000Y-9100002D02*
X19800000Y-9600000D01*
X19800000Y-8525000D02*
X19800000Y-9600000D01*
D23*
X24846561Y-3600000D02*
X25200114Y-3600000D01*
X22600000Y-4800000D02*
X23646561Y-4800000D01*
X23646561Y-4800000D02*
X24846561Y-3600000D01*
X24425000Y-7725000D02*
X25500000Y-7725000D01*
X23025000Y-9500000D02*
X23025000Y-9125000D01*
X23025000Y-9125000D02*
X24425000Y-7725000D01*
G04 #@! TO.N,VCC*
X19800006Y-6774994D02*
X19800000Y-6775000D01*
X19800006Y-5000000D02*
X19800006Y-6774994D01*
X21625000Y-6775000D02*
X19800000Y-6775000D01*
X21650000Y-6800000D02*
X21625000Y-6775000D01*
D22*
G04 #@! TO.N,/SWDIO*
X43409999Y-2449999D02*
X42560000Y-1600000D01*
X43409999Y-5540001D02*
X43409999Y-2449999D01*
X37500000Y-13800000D02*
X37500000Y-11450000D01*
X37500000Y-11450000D02*
X43409999Y-5540001D01*
G04 #@! TO.N,/SWDCLK*
X45100000Y-2802081D02*
X45100000Y-1600000D01*
X45100000Y-4800000D02*
X45100000Y-2802081D01*
X38200000Y-13800000D02*
X38200000Y-11700000D01*
X38200000Y-11700000D02*
X45100000Y-4800000D01*
G04 #@! TO.N,/TXO*
X27800000Y-11200000D02*
X26575000Y-11200000D01*
G04 #@! TO.N,/RXI*
X27100000Y-7596447D02*
X27100000Y-7950000D01*
X27100000Y-3000000D02*
X27100000Y-7596447D01*
X33550000Y-1850000D02*
X28250000Y-1850000D01*
X34700000Y-3800000D02*
X34700000Y-3000000D01*
X34700000Y-3000000D02*
X33550000Y-1850000D01*
X28250000Y-1850000D02*
X27100000Y-3000000D01*
G04 #@! TO.N,/TXO_DIV*
X24775000Y-9500000D02*
X25700000Y-9500000D01*
X25175000Y-9500000D02*
X25700000Y-9500000D01*
X24825000Y-9550000D02*
X24775000Y-9500000D01*
X24825000Y-11200000D02*
X24825000Y-9550000D01*
X34000000Y-3459998D02*
X34000000Y-3800000D01*
X34000000Y-3150000D02*
X34000000Y-3459998D01*
X27500000Y-9500000D02*
X27750000Y-9250000D01*
X25700000Y-9500000D02*
X27500000Y-9500000D01*
X27750000Y-9250000D02*
X27750000Y-3450000D01*
X27750000Y-3450000D02*
X28750000Y-2450000D01*
X28750000Y-2450000D02*
X33300000Y-2450000D01*
X33300000Y-2450000D02*
X34000000Y-3150000D01*
G04 #@! TO.N,/SCL*
X13700000Y-7900000D02*
X20149999Y-14349999D01*
X20149999Y-14349999D02*
X29800001Y-14349999D01*
X29900001Y-14249999D02*
X30150000Y-14000000D01*
X29800001Y-14349999D02*
X29900001Y-14249999D01*
G04 #@! TO.N,/SDA*
X14299999Y-6549999D02*
X14050000Y-6300000D01*
X21549990Y-13799990D02*
X14299999Y-6549999D01*
X29250000Y-13799990D02*
X21549990Y-13799990D01*
D23*
G04 #@! TO.N,/UVCC*
X5850000Y-12864716D02*
X5850000Y-11500000D01*
X14600000Y-3800000D02*
X12400000Y-6000000D01*
X20650000Y-3800000D02*
X14600000Y-3800000D01*
X12400000Y-6000000D02*
X12400000Y-12403553D01*
X12400000Y-12403553D02*
X11003553Y-13800000D01*
X11003553Y-13800000D02*
X6785284Y-13800000D01*
X6785284Y-13800000D02*
X5850000Y-12864716D01*
G04 #@! TO.N,+3V3*
X37500000Y-5120002D02*
X37500000Y-3800000D01*
X37020002Y-5600000D02*
X37500000Y-5120002D01*
X31020002Y-5600000D02*
X37020002Y-5600000D01*
X29400000Y-5300000D02*
X30720002Y-5300000D01*
X30720002Y-5300000D02*
X31020002Y-5600000D01*
X37500000Y-1620000D02*
X37480000Y-1600000D01*
X37500000Y-3800000D02*
X37500000Y-1620000D01*
X36230000Y-1600000D02*
X37480000Y-1600000D01*
X35780000Y-1150000D02*
X36230000Y-1600000D01*
X27650000Y-1150000D02*
X35780000Y-1150000D01*
X26400000Y-2400000D02*
X27650000Y-1150000D01*
X26400000Y-3550000D02*
X26400000Y-2400000D01*
X25500000Y-4450000D02*
X26400000Y-3550000D01*
X25500000Y-4450000D02*
X25500000Y-5975000D01*
X23725000Y-5975000D02*
X25500000Y-5975000D01*
X23550000Y-6800000D02*
X23550000Y-6150000D01*
X23550000Y-6150000D02*
X23725000Y-5975000D01*
D22*
G04 #@! TO.N,Net-(C3-Pad1)*
X23525000Y-3575000D02*
X23500000Y-3600000D01*
X23525000Y-2200000D02*
X23525000Y-3575000D01*
G04 #@! TD*
D24*
G04 #@! TO.N,GND*
G36*
X26296079Y-1323053D02*
X26159698Y-1186673D01*
X25926309Y-1090000D01*
X25560750Y-1090000D01*
X25402000Y-1248750D01*
X25402000Y-2073000D01*
X25422000Y-2073000D01*
X25422000Y-2327000D01*
X25402000Y-2327000D01*
X25402000Y-3151250D01*
X25509941Y-3259191D01*
X24967720Y-3801413D01*
X24897999Y-3847999D01*
X24713448Y-4124200D01*
X24665000Y-4367764D01*
X24665000Y-4367767D01*
X24648643Y-4450000D01*
X24665000Y-4532234D01*
X24665000Y-5042879D01*
X24636753Y-5061753D01*
X24584470Y-5140000D01*
X23807232Y-5140000D01*
X23724999Y-5123643D01*
X23642766Y-5140000D01*
X23642763Y-5140000D01*
X23635000Y-5141544D01*
X23635000Y-5085750D01*
X23476250Y-4927000D01*
X22727000Y-4927000D01*
X22727000Y-5726250D01*
X22788082Y-5787332D01*
X22763448Y-5824200D01*
X22758773Y-5847702D01*
X22692191Y-5892191D01*
X22600000Y-6030164D01*
X22507809Y-5892191D01*
X22387469Y-5811781D01*
X22473000Y-5726250D01*
X22473000Y-4927000D01*
X21723750Y-4927000D01*
X21565000Y-5085750D01*
X21565000Y-5376309D01*
X21661673Y-5609698D01*
X21754534Y-5702560D01*
X21250000Y-5702560D01*
X21002235Y-5751843D01*
X20792191Y-5892191D01*
X20760246Y-5940000D01*
X20715530Y-5940000D01*
X20663247Y-5861753D01*
X20635006Y-5842883D01*
X20635006Y-5296748D01*
X20685006Y-5176037D01*
X20685006Y-4823963D01*
X20627446Y-4685000D01*
X20826037Y-4685000D01*
X21151312Y-4550267D01*
X21400267Y-4301312D01*
X21432418Y-4223691D01*
X21565000Y-4223691D01*
X21565000Y-4514250D01*
X21723750Y-4673000D01*
X22473000Y-4673000D01*
X22473000Y-3873750D01*
X22314250Y-3715000D01*
X22073690Y-3715000D01*
X21840301Y-3811673D01*
X21661673Y-3990302D01*
X21565000Y-4223691D01*
X21432418Y-4223691D01*
X21535000Y-3976037D01*
X21535000Y-3623963D01*
X21400267Y-3298688D01*
X21151312Y-3049733D01*
X20826037Y-2915000D01*
X20473963Y-2915000D01*
X20353252Y-2965000D01*
X14682237Y-2965000D01*
X14600000Y-2948642D01*
X14517763Y-2965000D01*
X14274199Y-3013448D01*
X13997999Y-3197999D01*
X13951415Y-3267717D01*
X11867720Y-5351413D01*
X11797999Y-5397999D01*
X11613448Y-5674200D01*
X11565000Y-5917764D01*
X11565000Y-5917767D01*
X11548643Y-6000000D01*
X11565000Y-6082233D01*
X11565001Y-12057683D01*
X10885000Y-12737685D01*
X10885000Y-12105750D01*
X10726250Y-11947000D01*
X9527000Y-11947000D01*
X9527000Y-11967000D01*
X9273000Y-11967000D01*
X9273000Y-11947000D01*
X8073750Y-11947000D01*
X7915000Y-12105750D01*
X7915000Y-12796310D01*
X7984874Y-12965000D01*
X7131152Y-12965000D01*
X6889447Y-12723295D01*
X7206415Y-12406327D01*
X7450000Y-11818260D01*
X7450000Y-11181740D01*
X7206415Y-10593673D01*
X6756327Y-10143585D01*
X6706821Y-10123079D01*
X7036863Y-9793037D01*
X7250000Y-9278477D01*
X7250000Y-8721523D01*
X7036863Y-8206963D01*
X6829900Y-8000000D01*
X7036863Y-7793037D01*
X7250000Y-7278477D01*
X7250000Y-6740000D01*
X7885908Y-6740000D01*
X8001161Y-7319418D01*
X8329375Y-7810625D01*
X8627761Y-8010000D01*
X8329375Y-8209375D01*
X8001161Y-8700582D01*
X7885908Y-9280000D01*
X8001161Y-9859418D01*
X8329375Y-10350625D01*
X8351033Y-10365096D01*
X8190302Y-10431673D01*
X8011673Y-10610301D01*
X7915000Y-10843690D01*
X7915000Y-11534250D01*
X8073750Y-11693000D01*
X9273000Y-11693000D01*
X9273000Y-11673000D01*
X9527000Y-11673000D01*
X9527000Y-11693000D01*
X10726250Y-11693000D01*
X10885000Y-11534250D01*
X10885000Y-10843690D01*
X10788327Y-10610301D01*
X10609698Y-10431673D01*
X10448967Y-10365096D01*
X10470625Y-10350625D01*
X10798839Y-9859418D01*
X10914092Y-9280000D01*
X10798839Y-8700582D01*
X10470625Y-8209375D01*
X10172239Y-8010000D01*
X10470625Y-7810625D01*
X10798839Y-7319418D01*
X10914092Y-6740000D01*
X10798839Y-6160582D01*
X10470625Y-5669375D01*
X10188389Y-5480791D01*
X10241185Y-5458922D01*
X10658922Y-5041185D01*
X10885000Y-4495385D01*
X10885000Y-3904615D01*
X10658922Y-3358815D01*
X10241185Y-2941078D01*
X9695385Y-2715000D01*
X9104615Y-2715000D01*
X8558815Y-2941078D01*
X8141078Y-3358815D01*
X7915000Y-3904615D01*
X7915000Y-4495385D01*
X8141078Y-5041185D01*
X8558815Y-5458922D01*
X8611611Y-5480791D01*
X8329375Y-5669375D01*
X8001161Y-6160582D01*
X7885908Y-6740000D01*
X7250000Y-6740000D01*
X7250000Y-6721523D01*
X7036863Y-6206963D01*
X6707739Y-5877839D01*
X6797600Y-5627205D01*
X5850000Y-4679605D01*
X4902400Y-5627205D01*
X4992261Y-5877839D01*
X4663137Y-6206963D01*
X4450000Y-6721523D01*
X4450000Y-7278477D01*
X4663137Y-7793037D01*
X4870100Y-8000000D01*
X4663137Y-8206963D01*
X4450000Y-8721523D01*
X4450000Y-9278477D01*
X4663137Y-9793037D01*
X4993179Y-10123079D01*
X4943673Y-10143585D01*
X4493585Y-10593673D01*
X4250000Y-11181740D01*
X4250000Y-11818260D01*
X4436960Y-12269623D01*
X3877000Y-12115000D01*
X3227000Y-12115000D01*
X3227000Y-13723000D01*
X5321125Y-13723000D01*
X5384024Y-13579607D01*
X6136700Y-14332285D01*
X6183283Y-14402001D01*
X6252998Y-14448583D01*
X6252999Y-14448584D01*
X6382315Y-14534990D01*
X6459483Y-14586552D01*
X6703047Y-14635000D01*
X6703050Y-14635000D01*
X6785283Y-14651357D01*
X6867516Y-14635000D01*
X10921320Y-14635000D01*
X11003553Y-14651357D01*
X11085786Y-14635000D01*
X11085790Y-14635000D01*
X11329354Y-14586552D01*
X11605554Y-14402001D01*
X11652140Y-14332280D01*
X12932285Y-13052137D01*
X13002001Y-13005554D01*
X13186552Y-12729354D01*
X13235000Y-12485790D01*
X13235000Y-12485787D01*
X13251357Y-12403554D01*
X13235000Y-12321321D01*
X13235000Y-8665308D01*
X13523963Y-8785000D01*
X13545554Y-8785000D01*
X19579090Y-14818537D01*
X19620094Y-14879904D01*
X19863216Y-15042353D01*
X20077611Y-15084999D01*
X20077614Y-15084999D01*
X20149998Y-15099397D01*
X20222382Y-15084999D01*
X29727617Y-15084999D01*
X29800001Y-15099397D01*
X29872385Y-15084999D01*
X29872389Y-15084999D01*
X30086784Y-15042353D01*
X30322279Y-14885000D01*
X30326037Y-14885000D01*
X30576982Y-14781056D01*
X30752235Y-14898157D01*
X31000000Y-14947440D01*
X31400000Y-14947440D01*
X31550000Y-14917603D01*
X31700000Y-14947440D01*
X32100000Y-14947440D01*
X32250000Y-14917603D01*
X32400000Y-14947440D01*
X32800000Y-14947440D01*
X32950000Y-14917603D01*
X33100000Y-14947440D01*
X33500000Y-14947440D01*
X33650000Y-14917603D01*
X33800000Y-14947440D01*
X34200000Y-14947440D01*
X34350000Y-14917603D01*
X34500000Y-14947440D01*
X34900000Y-14947440D01*
X35050000Y-14917603D01*
X35200000Y-14947440D01*
X35600000Y-14947440D01*
X35750000Y-14917603D01*
X35900000Y-14947440D01*
X36300000Y-14947440D01*
X36450000Y-14917603D01*
X36600000Y-14947440D01*
X37000000Y-14947440D01*
X37150000Y-14917603D01*
X37300000Y-14947440D01*
X37700000Y-14947440D01*
X37850000Y-14917603D01*
X38000000Y-14947440D01*
X38400000Y-14947440D01*
X38550000Y-14917603D01*
X38700000Y-14947440D01*
X39100000Y-14947440D01*
X39250000Y-14917603D01*
X39400000Y-14947440D01*
X39800000Y-14947440D01*
X39950000Y-14917603D01*
X40100000Y-14947440D01*
X40500000Y-14947440D01*
X40650000Y-14917603D01*
X40800000Y-14947440D01*
X41200000Y-14947440D01*
X41350000Y-14917603D01*
X41500000Y-14947440D01*
X41900000Y-14947440D01*
X42037631Y-14920064D01*
X42073690Y-14935000D01*
X42141250Y-14935000D01*
X42239165Y-14837085D01*
X42357809Y-14757809D01*
X42498157Y-14547765D01*
X42500000Y-14538500D01*
X42500000Y-14776250D01*
X42658750Y-14935000D01*
X42673000Y-14935000D01*
X42673000Y-15290000D01*
X4677958Y-15290000D01*
X5066632Y-14987028D01*
X5401531Y-14396624D01*
X5439175Y-14246122D01*
X5321125Y-13977000D01*
X3227000Y-13977000D01*
X3227000Y-13997000D01*
X2973000Y-13997000D01*
X2973000Y-13977000D01*
X878875Y-13977000D01*
X835868Y-14075043D01*
X790632Y-14050635D01*
X737734Y-14032524D01*
X710000Y-14017277D01*
X710000Y-13453878D01*
X760825Y-13453878D01*
X878875Y-13723000D01*
X2973000Y-13723000D01*
X2973000Y-12115000D01*
X2323000Y-12115000D01*
X1668712Y-12295670D01*
X1133368Y-12712972D01*
X798469Y-13303376D01*
X760825Y-13453878D01*
X710000Y-13453878D01*
X710000Y-10024234D01*
X1965000Y-10024234D01*
X1965000Y-10475766D01*
X2137793Y-10892926D01*
X2457074Y-11212207D01*
X2874234Y-11385000D01*
X3325766Y-11385000D01*
X3742926Y-11212207D01*
X4062207Y-10892926D01*
X4235000Y-10475766D01*
X4235000Y-10024234D01*
X4062207Y-9607074D01*
X3742926Y-9287793D01*
X3325766Y-9115000D01*
X2874234Y-9115000D01*
X2457074Y-9287793D01*
X2137793Y-9607074D01*
X1965000Y-10024234D01*
X710000Y-10024234D01*
X710000Y-5524234D01*
X1965000Y-5524234D01*
X1965000Y-5975766D01*
X2137793Y-6392926D01*
X2457074Y-6712207D01*
X2874234Y-6885000D01*
X3325766Y-6885000D01*
X3742926Y-6712207D01*
X4062207Y-6392926D01*
X4235000Y-5975766D01*
X4235000Y-5524234D01*
X4062207Y-5107074D01*
X3742926Y-4787793D01*
X3325766Y-4615000D01*
X2874234Y-4615000D01*
X2457074Y-4787793D01*
X2137793Y-5107074D01*
X1965000Y-5524234D01*
X710000Y-5524234D01*
X710000Y-2546122D01*
X760825Y-2546122D01*
X798469Y-2696624D01*
X1133368Y-3287028D01*
X1668712Y-3704330D01*
X2323000Y-3885000D01*
X2973000Y-3885000D01*
X2973000Y-2277000D01*
X3227000Y-2277000D01*
X3227000Y-3885000D01*
X3877000Y-3885000D01*
X4427727Y-3732926D01*
X4238895Y-4243817D01*
X4263496Y-4879861D01*
X4459570Y-5353225D01*
X4722795Y-5447600D01*
X5670395Y-4500000D01*
X6029605Y-4500000D01*
X6977205Y-5447600D01*
X7240430Y-5353225D01*
X7461105Y-4756183D01*
X7436504Y-4120139D01*
X7240430Y-3646775D01*
X6977205Y-3552400D01*
X6029605Y-4500000D01*
X5670395Y-4500000D01*
X5656253Y-4485858D01*
X5835858Y-4306253D01*
X5850000Y-4320395D01*
X6797600Y-3372795D01*
X6703225Y-3109570D01*
X6106183Y-2888895D01*
X5470139Y-2913496D01*
X5219662Y-3017247D01*
X5401531Y-2696624D01*
X5439175Y-2546122D01*
X5321125Y-2277000D01*
X3227000Y-2277000D01*
X2973000Y-2277000D01*
X878875Y-2277000D01*
X760825Y-2546122D01*
X710000Y-2546122D01*
X710000Y-1972340D01*
X832833Y-1918037D01*
X878875Y-2023000D01*
X2973000Y-2023000D01*
X2973000Y-2003000D01*
X3227000Y-2003000D01*
X3227000Y-2023000D01*
X5321125Y-2023000D01*
X5347663Y-1962500D01*
X22352560Y-1962500D01*
X22352560Y-2437500D01*
X22419922Y-2776152D01*
X22611753Y-3063247D01*
X22731321Y-3143140D01*
X22615000Y-3423963D01*
X22615000Y-3776037D01*
X22727000Y-4046430D01*
X22727000Y-4673000D01*
X23476250Y-4673000D01*
X23635000Y-4514250D01*
X23635000Y-4485000D01*
X23676037Y-4485000D01*
X24001312Y-4350267D01*
X24250267Y-4101312D01*
X24385000Y-3776037D01*
X24385000Y-3423963D01*
X24279518Y-3169306D01*
X24319540Y-3142565D01*
X24390302Y-3213327D01*
X24623691Y-3310000D01*
X24989250Y-3310000D01*
X25148000Y-3151250D01*
X25148000Y-2327000D01*
X25128000Y-2327000D01*
X25128000Y-2073000D01*
X25148000Y-2073000D01*
X25148000Y-1248750D01*
X24989250Y-1090000D01*
X24623691Y-1090000D01*
X24390302Y-1186673D01*
X24319540Y-1257435D01*
X24151152Y-1144922D01*
X23812500Y-1077560D01*
X23237500Y-1077560D01*
X22898848Y-1144922D01*
X22611753Y-1336753D01*
X22419922Y-1623848D01*
X22352560Y-1962500D01*
X5347663Y-1962500D01*
X5439175Y-1753878D01*
X5401531Y-1603376D01*
X5066632Y-1012972D01*
X4677958Y-710000D01*
X26909132Y-710000D01*
X26296079Y-1323053D01*
X26296079Y-1323053D01*
G37*
X26296079Y-1323053D02*
X26159698Y-1186673D01*
X25926309Y-1090000D01*
X25560750Y-1090000D01*
X25402000Y-1248750D01*
X25402000Y-2073000D01*
X25422000Y-2073000D01*
X25422000Y-2327000D01*
X25402000Y-2327000D01*
X25402000Y-3151250D01*
X25509941Y-3259191D01*
X24967720Y-3801413D01*
X24897999Y-3847999D01*
X24713448Y-4124200D01*
X24665000Y-4367764D01*
X24665000Y-4367767D01*
X24648643Y-4450000D01*
X24665000Y-4532234D01*
X24665000Y-5042879D01*
X24636753Y-5061753D01*
X24584470Y-5140000D01*
X23807232Y-5140000D01*
X23724999Y-5123643D01*
X23642766Y-5140000D01*
X23642763Y-5140000D01*
X23635000Y-5141544D01*
X23635000Y-5085750D01*
X23476250Y-4927000D01*
X22727000Y-4927000D01*
X22727000Y-5726250D01*
X22788082Y-5787332D01*
X22763448Y-5824200D01*
X22758773Y-5847702D01*
X22692191Y-5892191D01*
X22600000Y-6030164D01*
X22507809Y-5892191D01*
X22387469Y-5811781D01*
X22473000Y-5726250D01*
X22473000Y-4927000D01*
X21723750Y-4927000D01*
X21565000Y-5085750D01*
X21565000Y-5376309D01*
X21661673Y-5609698D01*
X21754534Y-5702560D01*
X21250000Y-5702560D01*
X21002235Y-5751843D01*
X20792191Y-5892191D01*
X20760246Y-5940000D01*
X20715530Y-5940000D01*
X20663247Y-5861753D01*
X20635006Y-5842883D01*
X20635006Y-5296748D01*
X20685006Y-5176037D01*
X20685006Y-4823963D01*
X20627446Y-4685000D01*
X20826037Y-4685000D01*
X21151312Y-4550267D01*
X21400267Y-4301312D01*
X21432418Y-4223691D01*
X21565000Y-4223691D01*
X21565000Y-4514250D01*
X21723750Y-4673000D01*
X22473000Y-4673000D01*
X22473000Y-3873750D01*
X22314250Y-3715000D01*
X22073690Y-3715000D01*
X21840301Y-3811673D01*
X21661673Y-3990302D01*
X21565000Y-4223691D01*
X21432418Y-4223691D01*
X21535000Y-3976037D01*
X21535000Y-3623963D01*
X21400267Y-3298688D01*
X21151312Y-3049733D01*
X20826037Y-2915000D01*
X20473963Y-2915000D01*
X20353252Y-2965000D01*
X14682237Y-2965000D01*
X14600000Y-2948642D01*
X14517763Y-2965000D01*
X14274199Y-3013448D01*
X13997999Y-3197999D01*
X13951415Y-3267717D01*
X11867720Y-5351413D01*
X11797999Y-5397999D01*
X11613448Y-5674200D01*
X11565000Y-5917764D01*
X11565000Y-5917767D01*
X11548643Y-6000000D01*
X11565000Y-6082233D01*
X11565001Y-12057683D01*
X10885000Y-12737685D01*
X10885000Y-12105750D01*
X10726250Y-11947000D01*
X9527000Y-11947000D01*
X9527000Y-11967000D01*
X9273000Y-11967000D01*
X9273000Y-11947000D01*
X8073750Y-11947000D01*
X7915000Y-12105750D01*
X7915000Y-12796310D01*
X7984874Y-12965000D01*
X7131152Y-12965000D01*
X6889447Y-12723295D01*
X7206415Y-12406327D01*
X7450000Y-11818260D01*
X7450000Y-11181740D01*
X7206415Y-10593673D01*
X6756327Y-10143585D01*
X6706821Y-10123079D01*
X7036863Y-9793037D01*
X7250000Y-9278477D01*
X7250000Y-8721523D01*
X7036863Y-8206963D01*
X6829900Y-8000000D01*
X7036863Y-7793037D01*
X7250000Y-7278477D01*
X7250000Y-6740000D01*
X7885908Y-6740000D01*
X8001161Y-7319418D01*
X8329375Y-7810625D01*
X8627761Y-8010000D01*
X8329375Y-8209375D01*
X8001161Y-8700582D01*
X7885908Y-9280000D01*
X8001161Y-9859418D01*
X8329375Y-10350625D01*
X8351033Y-10365096D01*
X8190302Y-10431673D01*
X8011673Y-10610301D01*
X7915000Y-10843690D01*
X7915000Y-11534250D01*
X8073750Y-11693000D01*
X9273000Y-11693000D01*
X9273000Y-11673000D01*
X9527000Y-11673000D01*
X9527000Y-11693000D01*
X10726250Y-11693000D01*
X10885000Y-11534250D01*
X10885000Y-10843690D01*
X10788327Y-10610301D01*
X10609698Y-10431673D01*
X10448967Y-10365096D01*
X10470625Y-10350625D01*
X10798839Y-9859418D01*
X10914092Y-9280000D01*
X10798839Y-8700582D01*
X10470625Y-8209375D01*
X10172239Y-8010000D01*
X10470625Y-7810625D01*
X10798839Y-7319418D01*
X10914092Y-6740000D01*
X10798839Y-6160582D01*
X10470625Y-5669375D01*
X10188389Y-5480791D01*
X10241185Y-5458922D01*
X10658922Y-5041185D01*
X10885000Y-4495385D01*
X10885000Y-3904615D01*
X10658922Y-3358815D01*
X10241185Y-2941078D01*
X9695385Y-2715000D01*
X9104615Y-2715000D01*
X8558815Y-2941078D01*
X8141078Y-3358815D01*
X7915000Y-3904615D01*
X7915000Y-4495385D01*
X8141078Y-5041185D01*
X8558815Y-5458922D01*
X8611611Y-5480791D01*
X8329375Y-5669375D01*
X8001161Y-6160582D01*
X7885908Y-6740000D01*
X7250000Y-6740000D01*
X7250000Y-6721523D01*
X7036863Y-6206963D01*
X6707739Y-5877839D01*
X6797600Y-5627205D01*
X5850000Y-4679605D01*
X4902400Y-5627205D01*
X4992261Y-5877839D01*
X4663137Y-6206963D01*
X4450000Y-6721523D01*
X4450000Y-7278477D01*
X4663137Y-7793037D01*
X4870100Y-8000000D01*
X4663137Y-8206963D01*
X4450000Y-8721523D01*
X4450000Y-9278477D01*
X4663137Y-9793037D01*
X4993179Y-10123079D01*
X4943673Y-10143585D01*
X4493585Y-10593673D01*
X4250000Y-11181740D01*
X4250000Y-11818260D01*
X4436960Y-12269623D01*
X3877000Y-12115000D01*
X3227000Y-12115000D01*
X3227000Y-13723000D01*
X5321125Y-13723000D01*
X5384024Y-13579607D01*
X6136700Y-14332285D01*
X6183283Y-14402001D01*
X6252998Y-14448583D01*
X6252999Y-14448584D01*
X6382315Y-14534990D01*
X6459483Y-14586552D01*
X6703047Y-14635000D01*
X6703050Y-14635000D01*
X6785283Y-14651357D01*
X6867516Y-14635000D01*
X10921320Y-14635000D01*
X11003553Y-14651357D01*
X11085786Y-14635000D01*
X11085790Y-14635000D01*
X11329354Y-14586552D01*
X11605554Y-14402001D01*
X11652140Y-14332280D01*
X12932285Y-13052137D01*
X13002001Y-13005554D01*
X13186552Y-12729354D01*
X13235000Y-12485790D01*
X13235000Y-12485787D01*
X13251357Y-12403554D01*
X13235000Y-12321321D01*
X13235000Y-8665308D01*
X13523963Y-8785000D01*
X13545554Y-8785000D01*
X19579090Y-14818537D01*
X19620094Y-14879904D01*
X19863216Y-15042353D01*
X20077611Y-15084999D01*
X20077614Y-15084999D01*
X20149998Y-15099397D01*
X20222382Y-15084999D01*
X29727617Y-15084999D01*
X29800001Y-15099397D01*
X29872385Y-15084999D01*
X29872389Y-15084999D01*
X30086784Y-15042353D01*
X30322279Y-14885000D01*
X30326037Y-14885000D01*
X30576982Y-14781056D01*
X30752235Y-14898157D01*
X31000000Y-14947440D01*
X31400000Y-14947440D01*
X31550000Y-14917603D01*
X31700000Y-14947440D01*
X32100000Y-14947440D01*
X32250000Y-14917603D01*
X32400000Y-14947440D01*
X32800000Y-14947440D01*
X32950000Y-14917603D01*
X33100000Y-14947440D01*
X33500000Y-14947440D01*
X33650000Y-14917603D01*
X33800000Y-14947440D01*
X34200000Y-14947440D01*
X34350000Y-14917603D01*
X34500000Y-14947440D01*
X34900000Y-14947440D01*
X35050000Y-14917603D01*
X35200000Y-14947440D01*
X35600000Y-14947440D01*
X35750000Y-14917603D01*
X35900000Y-14947440D01*
X36300000Y-14947440D01*
X36450000Y-14917603D01*
X36600000Y-14947440D01*
X37000000Y-14947440D01*
X37150000Y-14917603D01*
X37300000Y-14947440D01*
X37700000Y-14947440D01*
X37850000Y-14917603D01*
X38000000Y-14947440D01*
X38400000Y-14947440D01*
X38550000Y-14917603D01*
X38700000Y-14947440D01*
X39100000Y-14947440D01*
X39250000Y-14917603D01*
X39400000Y-14947440D01*
X39800000Y-14947440D01*
X39950000Y-14917603D01*
X40100000Y-14947440D01*
X40500000Y-14947440D01*
X40650000Y-14917603D01*
X40800000Y-14947440D01*
X41200000Y-14947440D01*
X41350000Y-14917603D01*
X41500000Y-14947440D01*
X41900000Y-14947440D01*
X42037631Y-14920064D01*
X42073690Y-14935000D01*
X42141250Y-14935000D01*
X42239165Y-14837085D01*
X42357809Y-14757809D01*
X42498157Y-14547765D01*
X42500000Y-14538500D01*
X42500000Y-14776250D01*
X42658750Y-14935000D01*
X42673000Y-14935000D01*
X42673000Y-15290000D01*
X4677958Y-15290000D01*
X5066632Y-14987028D01*
X5401531Y-14396624D01*
X5439175Y-14246122D01*
X5321125Y-13977000D01*
X3227000Y-13977000D01*
X3227000Y-13997000D01*
X2973000Y-13997000D01*
X2973000Y-13977000D01*
X878875Y-13977000D01*
X835868Y-14075043D01*
X790632Y-14050635D01*
X737734Y-14032524D01*
X710000Y-14017277D01*
X710000Y-13453878D01*
X760825Y-13453878D01*
X878875Y-13723000D01*
X2973000Y-13723000D01*
X2973000Y-12115000D01*
X2323000Y-12115000D01*
X1668712Y-12295670D01*
X1133368Y-12712972D01*
X798469Y-13303376D01*
X760825Y-13453878D01*
X710000Y-13453878D01*
X710000Y-10024234D01*
X1965000Y-10024234D01*
X1965000Y-10475766D01*
X2137793Y-10892926D01*
X2457074Y-11212207D01*
X2874234Y-11385000D01*
X3325766Y-11385000D01*
X3742926Y-11212207D01*
X4062207Y-10892926D01*
X4235000Y-10475766D01*
X4235000Y-10024234D01*
X4062207Y-9607074D01*
X3742926Y-9287793D01*
X3325766Y-9115000D01*
X2874234Y-9115000D01*
X2457074Y-9287793D01*
X2137793Y-9607074D01*
X1965000Y-10024234D01*
X710000Y-10024234D01*
X710000Y-5524234D01*
X1965000Y-5524234D01*
X1965000Y-5975766D01*
X2137793Y-6392926D01*
X2457074Y-6712207D01*
X2874234Y-6885000D01*
X3325766Y-6885000D01*
X3742926Y-6712207D01*
X4062207Y-6392926D01*
X4235000Y-5975766D01*
X4235000Y-5524234D01*
X4062207Y-5107074D01*
X3742926Y-4787793D01*
X3325766Y-4615000D01*
X2874234Y-4615000D01*
X2457074Y-4787793D01*
X2137793Y-5107074D01*
X1965000Y-5524234D01*
X710000Y-5524234D01*
X710000Y-2546122D01*
X760825Y-2546122D01*
X798469Y-2696624D01*
X1133368Y-3287028D01*
X1668712Y-3704330D01*
X2323000Y-3885000D01*
X2973000Y-3885000D01*
X2973000Y-2277000D01*
X3227000Y-2277000D01*
X3227000Y-3885000D01*
X3877000Y-3885000D01*
X4427727Y-3732926D01*
X4238895Y-4243817D01*
X4263496Y-4879861D01*
X4459570Y-5353225D01*
X4722795Y-5447600D01*
X5670395Y-4500000D01*
X6029605Y-4500000D01*
X6977205Y-5447600D01*
X7240430Y-5353225D01*
X7461105Y-4756183D01*
X7436504Y-4120139D01*
X7240430Y-3646775D01*
X6977205Y-3552400D01*
X6029605Y-4500000D01*
X5670395Y-4500000D01*
X5656253Y-4485858D01*
X5835858Y-4306253D01*
X5850000Y-4320395D01*
X6797600Y-3372795D01*
X6703225Y-3109570D01*
X6106183Y-2888895D01*
X5470139Y-2913496D01*
X5219662Y-3017247D01*
X5401531Y-2696624D01*
X5439175Y-2546122D01*
X5321125Y-2277000D01*
X3227000Y-2277000D01*
X2973000Y-2277000D01*
X878875Y-2277000D01*
X760825Y-2546122D01*
X710000Y-2546122D01*
X710000Y-1972340D01*
X832833Y-1918037D01*
X878875Y-2023000D01*
X2973000Y-2023000D01*
X2973000Y-2003000D01*
X3227000Y-2003000D01*
X3227000Y-2023000D01*
X5321125Y-2023000D01*
X5347663Y-1962500D01*
X22352560Y-1962500D01*
X22352560Y-2437500D01*
X22419922Y-2776152D01*
X22611753Y-3063247D01*
X22731321Y-3143140D01*
X22615000Y-3423963D01*
X22615000Y-3776037D01*
X22727000Y-4046430D01*
X22727000Y-4673000D01*
X23476250Y-4673000D01*
X23635000Y-4514250D01*
X23635000Y-4485000D01*
X23676037Y-4485000D01*
X24001312Y-4350267D01*
X24250267Y-4101312D01*
X24385000Y-3776037D01*
X24385000Y-3423963D01*
X24279518Y-3169306D01*
X24319540Y-3142565D01*
X24390302Y-3213327D01*
X24623691Y-3310000D01*
X24989250Y-3310000D01*
X25148000Y-3151250D01*
X25148000Y-2327000D01*
X25128000Y-2327000D01*
X25128000Y-2073000D01*
X25148000Y-2073000D01*
X25148000Y-1248750D01*
X24989250Y-1090000D01*
X24623691Y-1090000D01*
X24390302Y-1186673D01*
X24319540Y-1257435D01*
X24151152Y-1144922D01*
X23812500Y-1077560D01*
X23237500Y-1077560D01*
X22898848Y-1144922D01*
X22611753Y-1336753D01*
X22419922Y-1623848D01*
X22352560Y-1962500D01*
X5347663Y-1962500D01*
X5439175Y-1753878D01*
X5401531Y-1603376D01*
X5066632Y-1012972D01*
X4677958Y-710000D01*
X26909132Y-710000D01*
X26296079Y-1323053D01*
G36*
X18915006Y-4823963D02*
X18915006Y-5176037D01*
X18965006Y-5296748D01*
X18965006Y-5842875D01*
X18936753Y-5861753D01*
X18744922Y-6148848D01*
X18677560Y-6487500D01*
X18677560Y-7062500D01*
X18744922Y-7401152D01*
X18857435Y-7569540D01*
X18786673Y-7640302D01*
X18690000Y-7873691D01*
X18690000Y-8239250D01*
X18848750Y-8398000D01*
X19673000Y-8398000D01*
X19673000Y-8378000D01*
X19927000Y-8378000D01*
X19927000Y-8398000D01*
X20751250Y-8398000D01*
X20910000Y-8239250D01*
X20910000Y-7873691D01*
X20860079Y-7753170D01*
X21002235Y-7848157D01*
X21250000Y-7897440D01*
X22050000Y-7897440D01*
X22297765Y-7848157D01*
X22507809Y-7707809D01*
X22600000Y-7569836D01*
X22692191Y-7707809D01*
X22902235Y-7848157D01*
X23150000Y-7897440D01*
X23950000Y-7897440D01*
X24197765Y-7848157D01*
X24407809Y-7707809D01*
X24508246Y-7557496D01*
X24548750Y-7598000D01*
X25373000Y-7598000D01*
X25373000Y-7578000D01*
X25627000Y-7578000D01*
X25627000Y-7598000D01*
X25647000Y-7598000D01*
X25647000Y-7852000D01*
X25627000Y-7852000D01*
X25627000Y-7872000D01*
X25373000Y-7872000D01*
X25373000Y-7852000D01*
X24548750Y-7852000D01*
X24390000Y-8010750D01*
X24390000Y-8376309D01*
X24397900Y-8395382D01*
X24148848Y-8444922D01*
X23980460Y-8557435D01*
X23909698Y-8486673D01*
X23676309Y-8390000D01*
X23310750Y-8390000D01*
X23152000Y-8548750D01*
X23152000Y-9373000D01*
X23172000Y-9373000D01*
X23172000Y-9627000D01*
X23152000Y-9627000D01*
X23152000Y-10451250D01*
X23310750Y-10610000D01*
X23676309Y-10610000D01*
X23749406Y-10579722D01*
X23719922Y-10623848D01*
X23652560Y-10962500D01*
X23652560Y-11437500D01*
X23719922Y-11776152D01*
X23911753Y-12063247D01*
X24198848Y-12255078D01*
X24537500Y-12322440D01*
X25112500Y-12322440D01*
X25451152Y-12255078D01*
X25700000Y-12088803D01*
X25948848Y-12255078D01*
X26287500Y-12322440D01*
X26862500Y-12322440D01*
X27201152Y-12255078D01*
X27488247Y-12063247D01*
X27506282Y-12036255D01*
X27623963Y-12085000D01*
X27976037Y-12085000D01*
X28280640Y-11958829D01*
X28252560Y-12100000D01*
X28252560Y-12500000D01*
X28279936Y-12637631D01*
X28265000Y-12673690D01*
X28265000Y-12741250D01*
X28362915Y-12839165D01*
X28442191Y-12957809D01*
X28602597Y-13064990D01*
X21854437Y-13064990D01*
X18575197Y-9785750D01*
X21865000Y-9785750D01*
X21865000Y-10101310D01*
X21961673Y-10334699D01*
X22140302Y-10513327D01*
X22373691Y-10610000D01*
X22739250Y-10610000D01*
X22898000Y-10451250D01*
X22898000Y-9627000D01*
X22023750Y-9627000D01*
X21865000Y-9785750D01*
X18575197Y-9785750D01*
X17600197Y-8810750D01*
X18690000Y-8810750D01*
X18690000Y-9176309D01*
X18786673Y-9409698D01*
X18965301Y-9588327D01*
X19198690Y-9685000D01*
X19514250Y-9685000D01*
X19673000Y-9526250D01*
X19673000Y-8652000D01*
X19927000Y-8652000D01*
X19927000Y-9526250D01*
X20085750Y-9685000D01*
X20401310Y-9685000D01*
X20634699Y-9588327D01*
X20813327Y-9409698D01*
X20910000Y-9176309D01*
X20910000Y-8898690D01*
X21865000Y-8898690D01*
X21865000Y-9214250D01*
X22023750Y-9373000D01*
X22898000Y-9373000D01*
X22898000Y-8548750D01*
X22739250Y-8390000D01*
X22373691Y-8390000D01*
X22140302Y-8486673D01*
X21961673Y-8665301D01*
X21865000Y-8898690D01*
X20910000Y-8898690D01*
X20910000Y-8810750D01*
X20751250Y-8652000D01*
X19927000Y-8652000D01*
X19673000Y-8652000D01*
X18848750Y-8652000D01*
X18690000Y-8810750D01*
X17600197Y-8810750D01*
X14935000Y-6145554D01*
X14935000Y-6123963D01*
X14800267Y-5798688D01*
X14551312Y-5549733D01*
X14226037Y-5415000D01*
X14165868Y-5415000D01*
X14945868Y-4635000D01*
X18993277Y-4635000D01*
X18915006Y-4823963D01*
X18915006Y-4823963D01*
G37*
X18915006Y-4823963D02*
X18915006Y-5176037D01*
X18965006Y-5296748D01*
X18965006Y-5842875D01*
X18936753Y-5861753D01*
X18744922Y-6148848D01*
X18677560Y-6487500D01*
X18677560Y-7062500D01*
X18744922Y-7401152D01*
X18857435Y-7569540D01*
X18786673Y-7640302D01*
X18690000Y-7873691D01*
X18690000Y-8239250D01*
X18848750Y-8398000D01*
X19673000Y-8398000D01*
X19673000Y-8378000D01*
X19927000Y-8378000D01*
X19927000Y-8398000D01*
X20751250Y-8398000D01*
X20910000Y-8239250D01*
X20910000Y-7873691D01*
X20860079Y-7753170D01*
X21002235Y-7848157D01*
X21250000Y-7897440D01*
X22050000Y-7897440D01*
X22297765Y-7848157D01*
X22507809Y-7707809D01*
X22600000Y-7569836D01*
X22692191Y-7707809D01*
X22902235Y-7848157D01*
X23150000Y-7897440D01*
X23950000Y-7897440D01*
X24197765Y-7848157D01*
X24407809Y-7707809D01*
X24508246Y-7557496D01*
X24548750Y-7598000D01*
X25373000Y-7598000D01*
X25373000Y-7578000D01*
X25627000Y-7578000D01*
X25627000Y-7598000D01*
X25647000Y-7598000D01*
X25647000Y-7852000D01*
X25627000Y-7852000D01*
X25627000Y-7872000D01*
X25373000Y-7872000D01*
X25373000Y-7852000D01*
X24548750Y-7852000D01*
X24390000Y-8010750D01*
X24390000Y-8376309D01*
X24397900Y-8395382D01*
X24148848Y-8444922D01*
X23980460Y-8557435D01*
X23909698Y-8486673D01*
X23676309Y-8390000D01*
X23310750Y-8390000D01*
X23152000Y-8548750D01*
X23152000Y-9373000D01*
X23172000Y-9373000D01*
X23172000Y-9627000D01*
X23152000Y-9627000D01*
X23152000Y-10451250D01*
X23310750Y-10610000D01*
X23676309Y-10610000D01*
X23749406Y-10579722D01*
X23719922Y-10623848D01*
X23652560Y-10962500D01*
X23652560Y-11437500D01*
X23719922Y-11776152D01*
X23911753Y-12063247D01*
X24198848Y-12255078D01*
X24537500Y-12322440D01*
X25112500Y-12322440D01*
X25451152Y-12255078D01*
X25700000Y-12088803D01*
X25948848Y-12255078D01*
X26287500Y-12322440D01*
X26862500Y-12322440D01*
X27201152Y-12255078D01*
X27488247Y-12063247D01*
X27506282Y-12036255D01*
X27623963Y-12085000D01*
X27976037Y-12085000D01*
X28280640Y-11958829D01*
X28252560Y-12100000D01*
X28252560Y-12500000D01*
X28279936Y-12637631D01*
X28265000Y-12673690D01*
X28265000Y-12741250D01*
X28362915Y-12839165D01*
X28442191Y-12957809D01*
X28602597Y-13064990D01*
X21854437Y-13064990D01*
X18575197Y-9785750D01*
X21865000Y-9785750D01*
X21865000Y-10101310D01*
X21961673Y-10334699D01*
X22140302Y-10513327D01*
X22373691Y-10610000D01*
X22739250Y-10610000D01*
X22898000Y-10451250D01*
X22898000Y-9627000D01*
X22023750Y-9627000D01*
X21865000Y-9785750D01*
X18575197Y-9785750D01*
X17600197Y-8810750D01*
X18690000Y-8810750D01*
X18690000Y-9176309D01*
X18786673Y-9409698D01*
X18965301Y-9588327D01*
X19198690Y-9685000D01*
X19514250Y-9685000D01*
X19673000Y-9526250D01*
X19673000Y-8652000D01*
X19927000Y-8652000D01*
X19927000Y-9526250D01*
X20085750Y-9685000D01*
X20401310Y-9685000D01*
X20634699Y-9588327D01*
X20813327Y-9409698D01*
X20910000Y-9176309D01*
X20910000Y-8898690D01*
X21865000Y-8898690D01*
X21865000Y-9214250D01*
X22023750Y-9373000D01*
X22898000Y-9373000D01*
X22898000Y-8548750D01*
X22739250Y-8390000D01*
X22373691Y-8390000D01*
X22140302Y-8486673D01*
X21961673Y-8665301D01*
X21865000Y-8898690D01*
X20910000Y-8898690D01*
X20910000Y-8810750D01*
X20751250Y-8652000D01*
X19927000Y-8652000D01*
X19673000Y-8652000D01*
X18848750Y-8652000D01*
X18690000Y-8810750D01*
X17600197Y-8810750D01*
X14935000Y-6145554D01*
X14935000Y-6123963D01*
X14800267Y-5798688D01*
X14551312Y-5549733D01*
X14226037Y-5415000D01*
X14165868Y-5415000D01*
X14945868Y-4635000D01*
X18993277Y-4635000D01*
X18915006Y-4823963D01*
G36*
X41273000Y-11000000D02*
X41282667Y-11048601D01*
X41310197Y-11089803D01*
X41351399Y-11117333D01*
X41400000Y-11127000D01*
X42673000Y-11127000D01*
X42673000Y-12065000D01*
X42658750Y-12065000D01*
X42500000Y-12223750D01*
X42500000Y-12461500D01*
X42498157Y-12452235D01*
X42357809Y-12242191D01*
X42239165Y-12162915D01*
X42141250Y-12065000D01*
X42073690Y-12065000D01*
X42037631Y-12079936D01*
X41900000Y-12052560D01*
X41500000Y-12052560D01*
X41350000Y-12082397D01*
X41200000Y-12052560D01*
X40800000Y-12052560D01*
X40650000Y-12082397D01*
X40500000Y-12052560D01*
X40100000Y-12052560D01*
X39950000Y-12082397D01*
X39800000Y-12052560D01*
X39400000Y-12052560D01*
X39250000Y-12082397D01*
X39100000Y-12052560D01*
X38935000Y-12052560D01*
X38935000Y-12004446D01*
X41273000Y-9666446D01*
X41273000Y-11000000D01*
X41273000Y-11000000D01*
G37*
X41273000Y-11000000D02*
X41282667Y-11048601D01*
X41310197Y-11089803D01*
X41351399Y-11117333D01*
X41400000Y-11127000D01*
X42673000Y-11127000D01*
X42673000Y-12065000D01*
X42658750Y-12065000D01*
X42500000Y-12223750D01*
X42500000Y-12461500D01*
X42498157Y-12452235D01*
X42357809Y-12242191D01*
X42239165Y-12162915D01*
X42141250Y-12065000D01*
X42073690Y-12065000D01*
X42037631Y-12079936D01*
X41900000Y-12052560D01*
X41500000Y-12052560D01*
X41350000Y-12082397D01*
X41200000Y-12052560D01*
X40800000Y-12052560D01*
X40650000Y-12082397D01*
X40500000Y-12052560D01*
X40100000Y-12052560D01*
X39950000Y-12082397D01*
X39800000Y-12052560D01*
X39400000Y-12052560D01*
X39250000Y-12082397D01*
X39100000Y-12052560D01*
X38935000Y-12052560D01*
X38935000Y-12004446D01*
X41273000Y-9666446D01*
X41273000Y-11000000D01*
G36*
X40147000Y-1473000D02*
X40167000Y-1473000D01*
X40167000Y-1727000D01*
X40147000Y-1727000D01*
X40147000Y-2920155D01*
X40376890Y-3041476D01*
X40786924Y-2871645D01*
X41215183Y-2481358D01*
X41276157Y-2351522D01*
X41489375Y-2670625D01*
X41572998Y-2726500D01*
X41572998Y-2796748D01*
X41441250Y-2665000D01*
X41373690Y-2665000D01*
X41140301Y-2761673D01*
X40961673Y-2940302D01*
X40865000Y-3173691D01*
X40865000Y-3814250D01*
X41023750Y-3973000D01*
X41600000Y-3973000D01*
X41600000Y-3953000D01*
X41703750Y-3953000D01*
X41723750Y-3973000D01*
X42376250Y-3973000D01*
X42396250Y-3953000D01*
X42500000Y-3953000D01*
X42500000Y-3973000D01*
X42547000Y-3973000D01*
X42547000Y-4227000D01*
X42500000Y-4227000D01*
X42500000Y-4247000D01*
X42396250Y-4247000D01*
X42376250Y-4227000D01*
X41723750Y-4227000D01*
X41600000Y-4350750D01*
X41600000Y-4227000D01*
X41023750Y-4227000D01*
X40865000Y-4385750D01*
X40865000Y-5026309D01*
X40961673Y-5259698D01*
X41140301Y-5438327D01*
X41373690Y-5535000D01*
X41441250Y-5535000D01*
X41600000Y-5376250D01*
X41600000Y-5110806D01*
X41661673Y-5259698D01*
X41840301Y-5438327D01*
X41877475Y-5453725D01*
X41958750Y-5535000D01*
X42026310Y-5535000D01*
X42050000Y-5525187D01*
X42073690Y-5535000D01*
X42141250Y-5535000D01*
X42222525Y-5453725D01*
X42259699Y-5438327D01*
X42272998Y-5425028D01*
X42272998Y-5535000D01*
X42375554Y-5535000D01*
X41437553Y-6473000D01*
X41400000Y-6473000D01*
X41351399Y-6482667D01*
X41310197Y-6510197D01*
X41282667Y-6551399D01*
X41273000Y-6600000D01*
X41273000Y-6637553D01*
X37031463Y-10879091D01*
X36970096Y-10920095D01*
X36929092Y-10981462D01*
X36929091Y-10981463D01*
X36807646Y-11163218D01*
X36750602Y-11450000D01*
X36765001Y-11522389D01*
X36765001Y-12052560D01*
X36600000Y-12052560D01*
X36450000Y-12082397D01*
X36300000Y-12052560D01*
X35900000Y-12052560D01*
X35750000Y-12082397D01*
X35600000Y-12052560D01*
X35200000Y-12052560D01*
X35050000Y-12082397D01*
X34900000Y-12052560D01*
X34500000Y-12052560D01*
X34350000Y-12082397D01*
X34200000Y-12052560D01*
X33800000Y-12052560D01*
X33650000Y-12082397D01*
X33500000Y-12052560D01*
X33100000Y-12052560D01*
X32950000Y-12082397D01*
X32800000Y-12052560D01*
X32400000Y-12052560D01*
X32250000Y-12082397D01*
X32100000Y-12052560D01*
X31700000Y-12052560D01*
X31550000Y-12082397D01*
X31400000Y-12052560D01*
X31138004Y-12052560D01*
X31117603Y-11950000D01*
X31147440Y-11800000D01*
X31147440Y-11400000D01*
X31117603Y-11250000D01*
X31147440Y-11100000D01*
X31147440Y-10700000D01*
X31117603Y-10550000D01*
X31147440Y-10400000D01*
X31147440Y-10000000D01*
X31117603Y-9850000D01*
X31147440Y-9700000D01*
X31147440Y-9300000D01*
X31117603Y-9150000D01*
X31147440Y-9000000D01*
X31147440Y-8600000D01*
X31117603Y-8450000D01*
X31147440Y-8300000D01*
X31147440Y-7900000D01*
X31117603Y-7750000D01*
X31147440Y-7600000D01*
X31147440Y-7200000D01*
X31117603Y-7050000D01*
X31147440Y-6900000D01*
X31147440Y-6500000D01*
X31134511Y-6435000D01*
X36937769Y-6435000D01*
X37020002Y-6451357D01*
X37102235Y-6435000D01*
X37102239Y-6435000D01*
X37345803Y-6386552D01*
X37622003Y-6202001D01*
X37668589Y-6132280D01*
X38032280Y-5768589D01*
X38102001Y-5722003D01*
X38286552Y-5445803D01*
X38335000Y-5202239D01*
X38335000Y-5202238D01*
X38351358Y-5120002D01*
X38335000Y-5037765D01*
X38335000Y-4962541D01*
X38347440Y-4900000D01*
X38347440Y-3300000D01*
X38335000Y-3237459D01*
X38335000Y-3096445D01*
X38577765Y-3048157D01*
X38787809Y-2907809D01*
X38928157Y-2697765D01*
X38948739Y-2594292D01*
X39253076Y-2871645D01*
X39663110Y-3041476D01*
X39893000Y-2920155D01*
X39893000Y-1727000D01*
X39873000Y-1727000D01*
X39873000Y-1473000D01*
X39893000Y-1473000D01*
X39893000Y-1453000D01*
X40147000Y-1453000D01*
X40147000Y-1473000D01*
X40147000Y-1473000D01*
G37*
X40147000Y-1473000D02*
X40167000Y-1473000D01*
X40167000Y-1727000D01*
X40147000Y-1727000D01*
X40147000Y-2920155D01*
X40376890Y-3041476D01*
X40786924Y-2871645D01*
X41215183Y-2481358D01*
X41276157Y-2351522D01*
X41489375Y-2670625D01*
X41572998Y-2726500D01*
X41572998Y-2796748D01*
X41441250Y-2665000D01*
X41373690Y-2665000D01*
X41140301Y-2761673D01*
X40961673Y-2940302D01*
X40865000Y-3173691D01*
X40865000Y-3814250D01*
X41023750Y-3973000D01*
X41600000Y-3973000D01*
X41600000Y-3953000D01*
X41703750Y-3953000D01*
X41723750Y-3973000D01*
X42376250Y-3973000D01*
X42396250Y-3953000D01*
X42500000Y-3953000D01*
X42500000Y-3973000D01*
X42547000Y-3973000D01*
X42547000Y-4227000D01*
X42500000Y-4227000D01*
X42500000Y-4247000D01*
X42396250Y-4247000D01*
X42376250Y-4227000D01*
X41723750Y-4227000D01*
X41600000Y-4350750D01*
X41600000Y-4227000D01*
X41023750Y-4227000D01*
X40865000Y-4385750D01*
X40865000Y-5026309D01*
X40961673Y-5259698D01*
X41140301Y-5438327D01*
X41373690Y-5535000D01*
X41441250Y-5535000D01*
X41600000Y-5376250D01*
X41600000Y-5110806D01*
X41661673Y-5259698D01*
X41840301Y-5438327D01*
X41877475Y-5453725D01*
X41958750Y-5535000D01*
X42026310Y-5535000D01*
X42050000Y-5525187D01*
X42073690Y-5535000D01*
X42141250Y-5535000D01*
X42222525Y-5453725D01*
X42259699Y-5438327D01*
X42272998Y-5425028D01*
X42272998Y-5535000D01*
X42375554Y-5535000D01*
X41437553Y-6473000D01*
X41400000Y-6473000D01*
X41351399Y-6482667D01*
X41310197Y-6510197D01*
X41282667Y-6551399D01*
X41273000Y-6600000D01*
X41273000Y-6637553D01*
X37031463Y-10879091D01*
X36970096Y-10920095D01*
X36929092Y-10981462D01*
X36929091Y-10981463D01*
X36807646Y-11163218D01*
X36750602Y-11450000D01*
X36765001Y-11522389D01*
X36765001Y-12052560D01*
X36600000Y-12052560D01*
X36450000Y-12082397D01*
X36300000Y-12052560D01*
X35900000Y-12052560D01*
X35750000Y-12082397D01*
X35600000Y-12052560D01*
X35200000Y-12052560D01*
X35050000Y-12082397D01*
X34900000Y-12052560D01*
X34500000Y-12052560D01*
X34350000Y-12082397D01*
X34200000Y-12052560D01*
X33800000Y-12052560D01*
X33650000Y-12082397D01*
X33500000Y-12052560D01*
X33100000Y-12052560D01*
X32950000Y-12082397D01*
X32800000Y-12052560D01*
X32400000Y-12052560D01*
X32250000Y-12082397D01*
X32100000Y-12052560D01*
X31700000Y-12052560D01*
X31550000Y-12082397D01*
X31400000Y-12052560D01*
X31138004Y-12052560D01*
X31117603Y-11950000D01*
X31147440Y-11800000D01*
X31147440Y-11400000D01*
X31117603Y-11250000D01*
X31147440Y-11100000D01*
X31147440Y-10700000D01*
X31117603Y-10550000D01*
X31147440Y-10400000D01*
X31147440Y-10000000D01*
X31117603Y-9850000D01*
X31147440Y-9700000D01*
X31147440Y-9300000D01*
X31117603Y-9150000D01*
X31147440Y-9000000D01*
X31147440Y-8600000D01*
X31117603Y-8450000D01*
X31147440Y-8300000D01*
X31147440Y-7900000D01*
X31117603Y-7750000D01*
X31147440Y-7600000D01*
X31147440Y-7200000D01*
X31117603Y-7050000D01*
X31147440Y-6900000D01*
X31147440Y-6500000D01*
X31134511Y-6435000D01*
X36937769Y-6435000D01*
X37020002Y-6451357D01*
X37102235Y-6435000D01*
X37102239Y-6435000D01*
X37345803Y-6386552D01*
X37622003Y-6202001D01*
X37668589Y-6132280D01*
X38032280Y-5768589D01*
X38102001Y-5722003D01*
X38286552Y-5445803D01*
X38335000Y-5202239D01*
X38335000Y-5202238D01*
X38351358Y-5120002D01*
X38335000Y-5037765D01*
X38335000Y-4962541D01*
X38347440Y-4900000D01*
X38347440Y-3300000D01*
X38335000Y-3237459D01*
X38335000Y-3096445D01*
X38577765Y-3048157D01*
X38787809Y-2907809D01*
X38928157Y-2697765D01*
X38948739Y-2594292D01*
X39253076Y-2871645D01*
X39663110Y-3041476D01*
X39893000Y-2920155D01*
X39893000Y-1727000D01*
X39873000Y-1727000D01*
X39873000Y-1473000D01*
X39893000Y-1473000D01*
X39893000Y-1453000D01*
X40147000Y-1453000D01*
X40147000Y-1473000D01*
G36*
X30352560Y-3300000D02*
X30352560Y-3765000D01*
X29985750Y-3765000D01*
X29827000Y-3923750D01*
X29827000Y-4452560D01*
X29573000Y-4452560D01*
X29573000Y-3923750D01*
X29414250Y-3765000D01*
X28773691Y-3765000D01*
X28540302Y-3861673D01*
X28485000Y-3916975D01*
X28485000Y-3754446D01*
X29054447Y-3185000D01*
X30375435Y-3185000D01*
X30352560Y-3300000D01*
X30352560Y-3300000D01*
G37*
X30352560Y-3300000D02*
X30352560Y-3765000D01*
X29985750Y-3765000D01*
X29827000Y-3923750D01*
X29827000Y-4452560D01*
X29573000Y-4452560D01*
X29573000Y-3923750D01*
X29414250Y-3765000D01*
X28773691Y-3765000D01*
X28540302Y-3861673D01*
X28485000Y-3916975D01*
X28485000Y-3754446D01*
X29054447Y-3185000D01*
X30375435Y-3185000D01*
X30352560Y-3300000D01*
G04 #@! TD*
M02*
