M48
;DRILL file {KiCad 4.0.7} date 06/20/18 00:03:08
;FORMAT={3:3/ absolute / metric / suppress trailing zeros}
FMAT,2
METRIC,LZ
T1C1.200
T2C1.702
T3C1.900
T4C3.988
T5C5.000
%
G90
G05
M71
T1
X071996Y-057547
X071996Y-076597
X071996Y-095647
X082436Y-057547
X082436Y-076597
X082436Y-095647
X091046Y-057547
X091046Y-076597
X091046Y-095647
X101486Y-057547
X101486Y-076597
X101486Y-095647
X110096Y-052798
X110096Y-071848
X110096Y-090898
X120536Y-052798
X120536Y-071848
X120536Y-090898
X129146Y-05041
X129146Y-06946
X129146Y-08851
X139586Y-05041
X139586Y-06946
X139586Y-08851
X1402Y-114843
X148196Y-055185
X148196Y-074235
X148196Y-093285
X1506Y-115753
X158636Y-055185
X158636Y-074235
X158636Y-093285
X161421Y-117401
X167246Y-057547
X167246Y-076597
X167246Y-095647
X171613Y-119661
X177686Y-057547
X177686Y-076597
X177686Y-095647
X181466Y-127421
X185037Y-11761
X186296Y-067072
X186296Y-086122
X196736Y-067072
X196736Y-086122
T2
X072136Y-061747
X072136Y-080797
X072136Y-099847
X082296Y-061747
X082296Y-080797
X082296Y-099847
X091186Y-061747
X091186Y-080797
X091186Y-099847
X101346Y-061747
X101346Y-080797
X101346Y-099847
X110236Y-056998
X110236Y-076048
X110236Y-095098
X120396Y-056998
X120396Y-076048
X120396Y-095098
X129286Y-05461
X129286Y-07366
X129286Y-09271
X139446Y-05461
X139446Y-07366
X139446Y-09271
X139973Y-119039
X148336Y-059385
X148336Y-078435
X148336Y-097485
X150095Y-119924
X158496Y-059385
X158496Y-078435
X158496Y-097485
X160648Y-121532
X167386Y-061747
X167386Y-080797
X167386Y-099847
X170568Y-123731
X177546Y-061747
X177546Y-080797
X177546Y-099847
X185461Y-128726
X186436Y-071272
X186436Y-090322
X188935Y-119178
X196596Y-071272
X196596Y-090322
T3
X071716Y-061747
X071716Y-080797
X071716Y-099847
X082716Y-061747
X082716Y-080797
X082716Y-099847
X090766Y-061747
X090766Y-080797
X090766Y-099847
X101766Y-061747
X101766Y-080797
X101766Y-099847
X109816Y-056998
X109816Y-076048
X109816Y-095098
X120816Y-056998
X120816Y-076048
X120816Y-095098
X128866Y-05461
X128866Y-07366
X128866Y-09271
X139555Y-119002
X139866Y-05461
X139866Y-07366
X139866Y-09271
X147916Y-059385
X147916Y-078435
X147916Y-097485
X150513Y-119961
X158916Y-059385
X158916Y-078435
X158916Y-097485
X160238Y-121441
X166966Y-061747
X166966Y-080797
X166966Y-099847
X170978Y-123822
X177966Y-061747
X177966Y-080797
X177966Y-099847
X185317Y-12912
X186016Y-071272
X186016Y-090322
X189079Y-118784
X197016Y-071272
X197016Y-090322
T4
X077216Y-061747
X077216Y-080797
X077216Y-099847
X096266Y-061747
X096266Y-080797
X096266Y-099847
X115316Y-056998
X115316Y-076048
X115316Y-095098
X134366Y-05461
X134366Y-07366
X134366Y-09271
X145034Y-119482
X153416Y-059385
X153416Y-078435
X153416Y-097485
X165608Y-122631
X172466Y-061747
X172466Y-080797
X172466Y-099847
X187198Y-123952
X191516Y-071272
X191516Y-090322
T5
X086741Y-071247
X086741Y-090297
X143891Y-066802
X183007Y-079629
X183134Y-11176
T0
M30
